<?xml version="1.0" encoding="utf-8"?>
<!-- Generator: Adobe Illustrator 28.1.0, SVG Export Plug-In . SVG Version: 6.00 Build 0)  -->
<svg version="1.1" id="_x32_" xmlns="http://www.w3.org/2000/svg" xmlns:xlink="http://www.w3.org/1999/xlink" x="0px" y="0px"
	 viewBox="0 0 800 800" style="enable-background:new 0 0 800 800;" xml:space="preserve">
<style type="text/css">
	.st0{fill:url(#SVGID_1_);}
</style>
<g id="SVGRepo_bgCarrier">
</g>
<g id="SVGRepo_tracerCarrier">
</g>
<g id="SVGRepo_iconCarrier">
	<g>
		<linearGradient id="SVGID_1_" gradientUnits="userSpaceOnUse" x1="189.0132" y1="399.9954" x2="610.986" y2="399.9954">
			<stop  offset="0" style="stop-color:#FA12E3"/>
			<stop  offset="0.5362" style="stop-color:#7312FA"/>
			<stop  offset="1" style="stop-color:#415CA7"/>
		</linearGradient>
		<path class="st0" d="M609.8,446.6c-6-14.4-30-33.6-30-33.6s-42-66-56.4-72c-14.4-6-51.4-35-68.1-41c-16.8-6-41.4-12-46.8-22.8
			c-2.4-4.8-3.6-11.4,0-16.2c3.6-4.8,13.8-19.2,13.8-27c0-7.8,0.6-18.6,0.6-21c0-2.4,4.8-16.2-1.2-29.4c-8.8-19.4-50.4-28.8-68.4-6
			c-5.7,3.2-9.9,12.1-13.7,22.3c-1.5-7.5-2.4-13.2-2.5-15.1c-0.6-7.8,39.3-98,43.2-108.2c3.9-10.2-0.6-24.9-9.3-33.6
			c-8.7-8.7-21.6-33-22.5-39c-0.9-6-6.9-4.8-7.8-0.6c-0.9,4.2,0.6,16.2,4.2,25.2c-16.5-5.1-28.2,6.3-27.6,14.1
			c0.5,6.6,1.5,12.9,5.4,13.2c-0.4,2.1,0.6,5.3,4.2,8.9c9.6,9.6,25.2,3.6,21.6,10.8c-3.6,7.2-50.4,99.5-49.2,109.1
			c0.8,6.2,4.1,36.5,7.6,62c-10.8,2.4-22.6,4.5-28,20.8c-8.4,25.2-25.2,38.4-25.2,38.4c-16.8,2.4-24-4.8-16.8,2.4
			c7.2,7.2,30,25.2,46.8,14.4c7,4.5,18.9,10.3,31.7,12.6c-4.4,13.8-7.6,25-4.1,34.2c12,31.2,13.2,68.4,4.5,95.7
			c-4.8,15.2-35.2,44-69.9,98c-34.8,54-37.5,115.5-56.9,190.1c0,0-2,15.5,37.2,13.2c54-3.2,30,12,100.7,24
			c65.8,11.1,161.5-27.5,186.8-96.5c9.5,15.2,19.7,31.3,19.7,31.3l6.9,44.1c0,0-3,19.3-6,23.2s3.6,8.6,12,7
			c8.5-1.6,22.9-9.5,24-16.6c1.1-7.1-0.5-27.8-3-32.6c-2.5-4.8-1.5-6.1,3-3.2c4.8,3.2,4.6,7.9,7.4,10.7c4.2,4.3,8.1,0.5,7.7-1.7
			c-0.5-2.2-4.1-15.3-9.5-27.8c-4.6-10.6-13.3-19.6-14.5-22.7l-20.2-32.3c24.4-6.7,54.9-4.1,49.6-10c-16.8-19.2-51.3-67.2-63.3-90
			c-12-22.8-55.4-97.1-103.4-128.2c0,0,18.2-75.6,25.4-81.6c7.2-6,60.8,14.7,66.8,15.9c6,1.2,40.8,46.8,42,52.8c1.2,6-3.6,24,0,40.8
			c3.6,16.8,9.6,2.4,12-9.6c0,0,24,33.6,28.8,34.8c4.8,1.2,6-10.8,2.4-18C597.8,473,615.7,461,609.8,446.6z M331.7,55.4
			c-1.5-1.5-3.1-2.2-4.6-2.4c0.3-4-4.2-10.7,2.2-14.4c8.4-4.8,15.6,0,19.2,8.4C352.1,55.4,337.7,61.4,331.7,55.4z"/>
	</g>
</g>
</svg>
