<svg width="53" height="53" viewBox="0 0 53 53" fill="none" xmlns="http://www.w3.org/2000/svg">
<g clip-path="url(#clip0_2_30)">
<path d="M26.5 53C41.1355 53 53 41.1355 53 26.5C53 11.8645 41.1355 0 26.5 0C11.8645 0 0 11.8645 0 26.5C0 41.1355 11.8645 53 26.5 53Z" fill="#010101"/>
<path d="M12.72 32.436L7.04902 27.507L12.932 21.942L12.985 21.836C13.144 21.518 13.144 21.147 12.985 20.829L12.932 20.723L12.243 19.981L12.137 19.928C11.819 19.769 11.554 19.769 11.342 19.822H11.183L3.92202 26.712L3.86902 26.818C3.76302 26.977 3.71002 27.136 3.71002 27.295V28.037L3.81602 28.196C3.86902 28.249 3.92202 28.408 4.08102 28.567L11.024 34.609L11.183 34.715C11.342 34.821 11.501 34.874 11.66 34.874C12.084 34.874 12.349 34.662 12.508 34.397L13.038 33.867L13.091 33.761C13.197 33.602 13.197 33.443 13.197 33.284C13.144 32.913 12.985 32.595 12.72 32.436Z" fill="url(#paint0_linear_2_30)"/>
<path d="M49.184 26.341C49.131 26.288 49.078 26.129 48.919 25.97L42.029 19.981L41.87 19.875C41.711 19.769 41.552 19.769 41.393 19.769C41.022 19.769 40.757 19.981 40.651 20.14L40.068 20.776L40.015 20.882C39.909 21.041 39.856 21.2 39.856 21.359C39.856 21.783 40.068 21.995 40.28 22.154L45.951 27.083L40.174 32.542C39.75 32.966 39.75 33.549 40.174 33.92L40.81 34.609L40.916 34.662C41.075 34.768 41.234 34.821 41.393 34.821C41.499 34.821 41.87 34.768 42.082 34.556L49.078 27.931L49.131 27.825C49.237 27.666 49.237 27.507 49.237 27.348V26.606L49.184 26.341Z" fill="url(#paint1_linear_2_30)"/>
<path d="M24.698 26.129C23.585 24.857 22.737 23.638 22.101 22.525C21.465 21.412 21.147 20.299 21.2 19.239C21.2 18.232 21.624 17.278 22.472 16.324L22.79 16.006C23.373 15.529 24.168 15.105 25.175 14.84C26.129 14.522 27.189 14.469 28.302 14.734C29.309 14.946 30.263 15.529 31.005 16.377C31.164 16.589 31.376 16.801 31.535 16.96L31.959 17.543L32.489 17.172C32.542 17.119 32.595 17.119 32.648 17.066C32.648 17.066 32.701 17.066 32.701 17.013L32.754 16.96L33.019 16.642V16.43C33.019 16.324 33.019 16.006 32.33 15.264C31.8 14.681 31.164 14.204 30.475 13.833C29.733 13.409 28.885 13.091 27.719 12.932H27.666C27.56 12.932 27.401 12.932 27.295 12.932C27.136 12.932 26.977 12.932 26.818 12.932C24.645 12.932 22.79 13.568 21.359 14.84L21.094 15.105C19.027 17.172 18.02 19.239 18.126 21.2C18.179 23.055 18.709 24.751 19.663 26.182C20.511 27.401 21.253 28.408 21.836 29.044L32.754 41.552L32.966 41.923L37.524 41.234L24.698 26.129Z" fill="url(#paint2_linear_2_30)"/>
<path d="M20.829 14.787L21.094 14.522C21.412 14.204 21.783 13.939 22.154 13.727L19.928 11.236L15.423 11.872L19.345 16.483C19.769 15.9 20.299 15.317 20.829 14.787Z" fill="url(#paint3_linear_2_30)"/>
<path d="M31.164 24.115L23.903 15.794C23.585 15.953 23.267 16.165 23.055 16.324L22.79 16.589C22.048 17.384 21.677 18.179 21.624 19.027L28.355 26.818C29.468 28.09 30.316 29.309 30.952 30.422C31.588 31.535 31.906 32.648 31.853 33.761V33.814L33.655 35.881C34.556 34.503 34.98 33.178 34.927 31.906C34.874 30.051 34.344 28.408 33.39 26.924C32.33 25.493 31.694 24.645 31.164 24.115Z" fill="url(#paint4_linear_2_30)"/>
<path d="M28.726 37.418L28.62 37.471C28.09 37.789 27.401 38.054 26.818 38.213C25.864 38.478 24.804 38.531 23.691 38.319C22.631 38.107 21.624 37.471 20.829 36.517L20.193 35.722L18.444 36.093L18.974 36.994C19.133 37.259 19.345 37.524 19.557 37.789C20.034 38.319 20.67 38.849 21.412 39.273C22.154 39.697 23.002 40.015 24.168 40.174H24.221C24.327 40.174 24.486 40.174 24.592 40.174C24.751 40.174 24.91 40.174 25.069 40.174C26.712 40.174 28.249 39.75 29.521 39.008L29.945 38.796L28.726 37.418Z" fill="url(#paint5_linear_2_30)"/>
</g>
<defs>
<linearGradient id="paint0_linear_2_30" x1="3.71002" y1="27.3322" x2="13.197" y2="27.3322" gradientUnits="userSpaceOnUse">
<stop stop-color="#9B30F9"/>
<stop offset="0.5362" stop-color="#8844EE"/>
</linearGradient>
<linearGradient id="paint1_linear_2_30" x1="39.856" y1="27.295" x2="49.237" y2="27.295" gradientUnits="userSpaceOnUse">
<stop stop-color="#9B30F9"/>
<stop offset="0.5362" stop-color="#8844EE"/>
</linearGradient>
<linearGradient id="paint2_linear_2_30" x1="18.1184" y1="27.4275" x2="37.524" y2="27.4275" gradientUnits="userSpaceOnUse">
<stop stop-color="#9B30F9"/>
<stop offset="0.5362" stop-color="#8844EE"/>
</linearGradient>
<linearGradient id="paint3_linear_2_30" x1="15.423" y1="13.8595" x2="22.154" y2="13.8595" gradientUnits="userSpaceOnUse">
<stop stop-color="#9B30F9"/>
<stop offset="0.5362" stop-color="#8844EE"/>
</linearGradient>
<linearGradient id="paint4_linear_2_30" x1="21.624" y1="25.8375" x2="34.9314" y2="25.8375" gradientUnits="userSpaceOnUse">
<stop stop-color="#9B30F9"/>
<stop offset="0.5362" stop-color="#8844EE"/>
</linearGradient>
<linearGradient id="paint5_linear_2_30" x1="18.444" y1="37.948" x2="29.945" y2="37.948" gradientUnits="userSpaceOnUse">
<stop stop-color="#9B30F9"/>
<stop offset="0.5362" stop-color="#8844EE"/>
</linearGradient>
<clipPath id="clip0_2_30">
<rect width="53" height="53" fill="white"/>
</clipPath>
</defs>
</svg>
