<?xml version="1.0" encoding="UTF-8"?>
<svg id="Camada_2" data-name="Camada 2" xmlns="http://www.w3.org/2000/svg" viewBox="0 0 143.68 143.68">
  <defs>
    <style>
      .cls-1 {
        fill: #ba2552;
      }
    </style>
  </defs>
  <g id="ELEMENTS">
    <path class="cls-1" d="m71.84,0C32.16,0,0,32.16,0,71.84s32.16,71.84,71.84,71.84,71.84-32.16,71.84-71.84S111.52,0,71.84,0Zm-3.32,91.05c-4.03,5.9-11.65,9.57-19.87,9.57-17.67,0-29.54-11.57-29.54-28.78s12.15-28.78,29.54-28.78c7.67,0,14.61,3.03,18.56,8.1l.3.39-9.89,8.07-.32-.38c-2.33-2.81-5.62-4.23-9.8-4.23-8.74,0-15.08,7.08-15.08,16.83,0,8.16,5.15,16.83,14.7,16.83,4.57,0,8.26-1.92,10.68-5.55l.29-.44,10.69,7.98-.27.4Zm32.32,9.57h-10.68l-.13-.33-22.87-57.23h15.34l13.69,36.29,13.92-36.29h14.47l-23.74,57.56Z"/>
  </g>
</svg>