<?xml version="1.0" encoding="utf-8"?>
<!-- Generator: Adobe Illustrator 28.1.0, SVG Export Plug-In . SVG Version: 6.00 Build 0)  -->
<svg version="1.1" id="Camada_2_00000003801828831703611660000017106146159128637066_"
	 xmlns="http://www.w3.org/2000/svg" xmlns:xlink="http://www.w3.org/1999/xlink" x="0px" y="0px" viewBox="0 0 143.7 143.7"
	 style="enable-background:new 0 0 143.7 143.7;" xml:space="preserve">
<style type="text/css">
	.st0{fill:url(#SVGID_1_);}
</style>
<g id="ELEMENTS">
	<linearGradient id="SVGID_1_" gradientUnits="userSpaceOnUse" x1="0" y1="71.8" x2="143.6" y2="71.8">
		<stop  offset="0" style="stop-color:#FA12E3"/>
		<stop  offset="0.5362" style="stop-color:#7312FA"/>
		<stop  offset="1" style="stop-color:#415CA7"/>
	</linearGradient>
	<path class="st0" d="M71.8,0C32.2,0,0,32.2,0,71.8s32.2,71.8,71.8,71.8s71.8-32.2,71.8-71.8S111.5,0,71.8,0z M68.5,91.1
		c-4,5.9-11.7,9.6-19.9,9.6c-17.7,0-29.5-11.6-29.5-28.8s12.1-28.8,29.5-28.8c7.7,0,14.6,3,18.6,8.1l0.3,0.4l-9.9,8.1l-0.3-0.4
		C55,56.4,51.7,55,47.5,55c-8.7,0-15.1,7.1-15.1,16.8c0,8.2,5.2,16.8,14.7,16.8c4.6,0,8.3-1.9,10.7-5.6l0.3-0.4l10.7,8L68.5,91.1
		L68.5,91.1z M100.8,100.6H90.2l-0.1-0.3L67.2,43.1h15.3l13.7,36.3l13.9-36.3h14.5C124.6,43.1,100.8,100.6,100.8,100.6z"/>
</g>
</svg>
