<?xml version="1.0" encoding="UTF-8"?>
<svg id="Camada_2" data-name="Camada 2" xmlns="http://www.w3.org/2000/svg" viewBox="0 0 143.68 143.68">
  <defs>
    <style>
      .cls-1 {
        fill: #ba2552;
      }
    </style>
  </defs>
  <g id="ELEMENTS">
    <g>
      <path class="cls-1" d="m65.05,85.86L31.63,47.76v52.29c0,.93.75,1.68,1.68,1.68h77.07c.93,0,1.68-.75,1.68-1.68v-52.29l-33.42,38.1c-3.6,4.1-9.99,4.1-13.59,0Z"/>
      <path class="cls-1" d="m143.64,69.49C142.44,31.87,111.81,1.24,74.19.04,32.66-1.29-1.29,32.66.04,74.19c1.2,37.61,31.84,68.25,69.45,69.45,41.54,1.33,75.48-32.62,74.15-74.15Zm-22.39,32.3c0,5.05-4.09,9.14-9.14,9.14H31.57c-5.05,0-9.14-4.09-9.14-9.14v-59.9c0-5.05,4.09-9.14,9.14-9.14h80.54c5.05,0,9.14,4.09,9.14,9.14v59.9Z"/>
      <path class="cls-1" d="m73.1,78.21l31.81-36.26H38.77l31.81,36.26c.67.76,1.85.76,2.52,0Z"/>
    </g>
  </g>
</svg>