<?xml version="1.0" encoding="UTF-8"?>
<svg id="Camada_2" data-name="Camada 2" xmlns="http://www.w3.org/2000/svg" viewBox="0 0 143.68 143.68">
  <defs>
    <style>
      .cls-1 {
        fill: #dc9d9d;
      }
    </style>
  </defs>
  <g id="ELEMENTS">
    <g>
      <path class="cls-1" d="m106.68,40.35H37l32.14,36.64c1.43,1.63,3.97,1.63,5.4,0l32.14-36.64Z"/>
      <path class="cls-1" d="m29.48,46.48v56.85h84.72v-56.85l-36.12,41.18c-3.31,3.77-9.17,3.77-12.48,0L29.48,46.48Z"/>
      <path class="cls-1" d="m74.19.04C32.66-1.29-1.29,32.66.04,74.19c1.2,37.61,31.84,68.25,69.45,69.45,41.54,1.33,75.48-32.62,74.15-74.15C142.44,31.87,111.81,1.24,74.19.04ZM19.78,105.85V37.83c0-3.96,3.21-7.17,7.17-7.17h89.77c3.96,0,7.17,3.21,7.17,7.17v68.02c0,3.96-3.21,7.17-7.17,7.17H26.96c-3.96,0-7.17-3.21-7.17-7.17Z"/>
    </g>
  </g>
</svg>