<svg width="120" height="78" viewBox="0 0 120 78" fill="none" xmlns="http://www.w3.org/2000/svg">
<path d="M21.9452 24.7813L20.4998 23.3019C20.3953 23.1942 20.2444 23.1319 20.0935 23.1262C19.9367 23.1262 19.7916 23.1772 19.6813 23.2849L1.09963 40.6522C0.983532 40.7599 0.919678 40.9187 0.919678 41.0774L0.954507 42.5851C0.954507 42.7438 1.02997 42.8969 1.15188 42.9989L19.7626 58.8358C19.8729 58.9322 20.0064 58.9775 20.1457 58.9775C20.3082 58.9775 20.4708 58.9095 20.5811 58.7848L21.9568 57.243C22.0555 57.1297 22.1078 56.9823 22.0962 56.8293C22.0846 56.6762 22.0149 56.5402 21.8988 56.4382L4.62905 41.7405L21.922 25.5805C22.1542 25.3651 22.16 25.0024 21.9394 24.7813H21.9452Z" fill="#7BB5DF"/>
<path d="M119.561 39.5187C119.561 39.36 119.486 39.2069 119.364 39.1049L100.753 23.268C100.637 23.1716 100.486 23.1206 100.33 23.1319C100.179 23.1433 100.033 23.2113 99.929 23.3246L98.5532 24.8664C98.4545 24.9798 98.4023 25.1271 98.4139 25.2802C98.4255 25.4332 98.4952 25.5693 98.6113 25.6713L115.881 40.3632L98.588 56.5233C98.3558 56.7387 98.35 57.0957 98.5706 57.3225L100.016 58.8019C100.121 58.9096 100.271 58.9719 100.422 58.9776H100.434C100.585 58.9776 100.73 58.9209 100.835 58.8189L119.416 41.4572C119.532 41.3495 119.596 41.1908 119.596 41.0321L119.561 39.5243V39.5187Z" fill="#7BB5DF"/>
<path d="M54.2266 38.9745C51.3241 35.6926 48.9325 32.3881 47.1272 29.1459C45.3334 25.9207 44.4511 22.7351 44.5149 19.6687C44.5788 16.6248 45.8791 13.6547 48.381 10.8546L49.2982 9.9477C51.0165 8.49664 53.3559 7.346 56.2584 6.53545C59.155 5.7249 62.2317 5.63987 65.3954 6.28038C68.3443 6.87554 71.1887 8.56466 73.6152 11.1607C74.0331 11.6085 74.4743 12.1016 75.0026 12.7194L75.4205 13.1729L75.7862 12.9405C76.001 12.8045 76.181 12.6684 76.3958 12.5041L76.5699 12.368L76.5931 12.1583C76.6396 11.6992 75.1012 10.01 75.0838 9.99304C73.8822 8.66102 72.3845 7.49337 70.4921 6.42208C68.5823 5.33946 66.2487 4.59692 63.5436 4.21716C62.7541 4.15481 61.9588 4.12646 61.1926 4.12646C55.7533 4.12646 51.1384 5.69089 47.4754 8.78572L46.7556 9.39788C41.5021 14.624 38.9247 19.7083 39.1047 24.5036C39.2788 29.2762 40.585 33.482 42.9824 37.0077C45.3624 40.5049 47.3187 43.0216 48.7816 44.467L78.294 77.7903L78.4797 78L87.193 76.6907L54.2208 38.9802L54.2266 38.9745Z" fill="#7BB5DF"/>
<path d="M50.6043 9.68129L50.2269 9.9647C50.0586 10.0894 49.8961 10.2198 49.7045 10.3785L48.8163 11.2514C47.6147 12.6004 46.6859 14.0175 46.059 15.4628L45.9371 15.7463L66.2834 39.0199C69.1859 42.2961 71.5718 45.6006 73.3829 48.8485C75.1766 52.068 76.059 55.2592 75.9951 58.3201C75.9719 59.4934 75.7513 60.6837 75.345 61.8627L75.2521 62.1291L77.3361 64.5154L77.7134 63.9883C80.285 60.389 81.5273 56.8577 81.3996 53.4908C81.2254 48.7181 79.9193 44.5123 77.5219 40.9867C75.136 37.4894 73.1855 34.9728 71.7227 33.5217L50.5985 9.66995L50.6043 9.68129Z" fill="#7BB5DF"/>
<path d="M43.5281 12.0789C44.3814 11.0303 45.3276 9.98736 46.3261 8.98976L47.0865 8.34358C47.3709 8.10552 47.6786 7.86178 48.0385 7.59538L48.4739 7.27796L42.0304 0L33.3171 1.30935L43.1449 12.5494L43.5281 12.0789Z" fill="#7BB5DF"/>
<path d="M69.4356 69.305C67.9902 70.1722 66.2487 70.8977 64.2518 71.4532C61.3551 72.2638 58.2785 72.3488 55.1148 71.7083C51.9627 71.0735 49.0835 69.305 46.5525 66.4539L45.3276 65.0595L43.5571 65.4393L43.9286 66.0344C44.335 66.6806 44.8226 67.3325 45.3857 67.9616C46.5525 69.2766 48.1082 70.4896 50.0122 71.5723C51.9221 72.6549 54.2557 73.3974 56.9608 73.7772C57.7561 73.8395 58.5455 73.8736 59.306 73.8736C63.6249 73.8736 67.4445 72.8816 70.6489 70.9261L71.1539 70.62L69.7955 69.0896L69.4298 69.3107L69.4356 69.305Z" fill="#7BB5DF"/>
</svg>
