<?xml version="1.0" encoding="UTF-8"?>
<svg id="Camada_2" data-name="Camada 2" xmlns="http://www.w3.org/2000/svg" viewBox="0 0 143.36 140.49">
  <defs>
    <style>
      .cls-1 {
        fill: #ba2552;
      }
    </style>
  </defs>
  <g id="ELEMENTS">
    <path class="cls-1" d="m33.16,48.77c.22-.24-.48-1.5-.57-1.74-.28-.78-.5-1.57-.67-2.38-.61-2.9-.4-5.88-.15-8.81.17-1.92-.21-5.29,2.14-6.01,3.61-1.11,7.15.66,10.1,2.62,3.04,2.02,6.19,5.18,10.21,4.76,3.06-.32,6.07-1.32,9.14-1.72,4.58-.6,9.22-.96,13.83-.47,1.96.21,4.04.77,6,1.34s4.29,1.76,6.37.86c1.96-.85,3.74-2.43,5.64-3.45,2.23-1.2,4.53-2.27,6.92-3.08,1.63-.56,5.4-2.24,6.94-.85.32.29.55,1.01,1.02,2.46.91,2.82,1.62,5.92,1.6,8.97,0,1.38-.09,2.85-.55,4.16s-1.61,2.76-.54,4.15c2.38,3.12,4.53,6.55,5.61,10.35,4.2,14.77-.94,32.65-15.35,39.77-3.06,1.51-6.27,2.32-9.62,2.86-.56.09-1.14.12-1.71.17-.94.1-1.89.2-2.83.36-.41.07-.82.14-1.23.25-.26.07-.55.14-.78.3-.41.29.26.6.46.74.34.25.63.56.89.9,1,1.34,1.71,2.95,2.2,4.54s.77,3.23.92,4.88c.1,1.14.14,2.29.15,3.44.03,6.38-.61,13.15.27,19.47.27,1.93,1.81,3.02,3.75,2.83,2.65-.26,5.46-1.84,7.86-2.92,14.52-6.54,26.94-18.12,34.28-32.27.28-.55.56-1.1.82-1.66,3.33-7,4.54-12.81,5.4-17.1.73-3.65,1.9-9.65,1.62-17.64-.22-6.21-1.22-11.17-1.98-14.22-.81-3.25-2.75-10.09-7.2-17.88-1.68-2.93-5.95-9.93-13.5-16.98-12.93-12.07-26.78-16.2-30.24-17.16-4.99-1.39-20.59-5.13-38.4.06-1.92.56-8.03,2.44-15.24,6.48-8.76,4.92-14.42,10.38-16.44,12.42C8.24,33.77,3.92,47.09,2.92,50.36-.5,61.62-.09,70.83.16,75.56c.67,12.59,4.21,21.73,5.28,24.36,4.56,11.2,10.75,18.34,12.72,20.52,3.83,4.24,8.35,7.96,13.07,11.15,2.85,1.93,5.89,3.55,8.98,5.04,1.57.76,3.16,1.48,4.75,2.19,1.44.64,2.86,1.39,4.44,1.61.37.05.97.11,1.67-.09.3-.08,1.16-.37,1.8-1.12.7-.83.78-1.83.81-2.25.7-8.97,1.25-13.44,0-13.73-.19-.04-.22.06-.99.32-1.08.36-1.9.46-2.97.58-2.47.29-5.13.08-5.58.05-3.41-.28-7.07-1.03-10.01-2.99-3.74-2.48-4.27-6.17-6.36-9.81-1.1-1.92-2.25-3.94-3.94-5.42-1.54-1.35-4.51-2.1-5.21-4.24-.88-2.66,4.11-1.51,5.24-1.23,2.73.67,5.41,2.1,7.32,4.27,1.7,1.94,2.69,4.4,4.41,6.36,2.35,2.66,5.8,3.88,9.26,4.17,2.26.19,4.87.44,7.06-.3,1.52-.51,1.67-1.63,1.96-3.03.37-1.81.91-3.82,2.21-5.19.49-.52,2.61-2.09,2.1-2.97-.17-.28-.65-.03-2.03-.09-6.9-.28-13.56-3.32-19.28-7.01-8.78-5.67-11.45-17.54-11.49-27.33-.04-7.76,2.42-14.91,7.78-20.61Z"/>
  </g>
</svg>