<?xml version="1.0" encoding="UTF-8"?>
<svg id="Camada_2" data-name="Camada 2" xmlns="http://www.w3.org/2000/svg" viewBox="0 0 143.68 143.68">
  <defs>
    <style>
      .cls-1 {
        fill: #dc9d9d;
      }
    </style>
  </defs>
  <g id="ELEMENTS">
    <path class="cls-1" d="m71.84,0C32.16,0,0,32.16,0,71.84s32.16,71.84,71.84,71.84,71.84-32.16,71.84-71.84S111.52,0,71.84,0Zm-23.71,111.09c-5.11-.06-10.22-.04-15.33,0-.82,0-1.07-.2-1.06-1.05.02-18.21.02-36.42,0-54.64,0-.75.18-1.02.98-1.02,5.18.03,10.37.04,15.55,0,1,0,1.13.38,1.13,1.23-.02,9.07-.02,18.14-.02,27.21s-.02,17.99.02,26.98c0,1-.24,1.3-1.28,1.29Zm-7.55-64.5c-5.56,0-10.19-4.6-10.2-10.16-.02-5.62,4.6-10.25,10.22-10.24,5.58,0,10.19,4.59,10.19,10.16,0,5.65-4.58,10.25-10.21,10.25Zm74.93,63.33c0,.93-.26,1.17-1.17,1.17-5.11-.04-10.23-.04-15.34,0-.9,0-1.09-.27-1.09-1.12.03-9.44.04-18.89,0-28.33,0-2.37-.16-4.73-.82-7.03-1.22-4.24-4.26-6.4-8.7-6.16-6.06.32-9.22,3.32-9.99,9.49-.18,1.47-.27,2.95-.27,4.43,0,9.18,0,18.37.02,27.55,0,.92-.23,1.19-1.16,1.18-5.15-.05-10.3-.04-15.45,0-.83,0-1.06-.22-1.06-1.05.02-18.18.02-36.36,0-54.55,0-.9.29-1.11,1.14-1.1,4.89.04,9.78.04,14.67,0,.9,0,1.13.28,1.11,1.14-.05,2.17-.02,4.35-.02,6.52,1.18-1.33,2.15-2.67,3.36-3.81,3.73-3.51,8.13-5.28,13.28-5.24,2.83.02,5.62.23,8.35,1.02,6.24,1.8,9.86,6.1,11.59,12.19,1.3,4.57,1.54,9.26,1.54,13.96.02,9.92-.03,19.85,0,29.77Z"/>
  </g>
</svg>