<svg width="92" height="62" viewBox="0 0 92 62" fill="none" xmlns="http://www.w3.org/2000/svg">
<g clip-path="url(#clip0_110_2)">
<path d="M16.29 19.5803L15.17 18.4103C15.17 18.4103 14.99 18.2803 14.86 18.2803C14.73 18.2803 14.62 18.3303 14.55 18.4103L0.13 32.0703C0.13 32.0703 0 32.2803 0 32.4103V33.6003C0 33.6003 0.08 33.8303 0.18 33.9403L14.59 46.4003C14.59 46.4003 14.77 46.5003 14.88 46.5003C15.01 46.5003 15.14 46.4503 15.22 46.3403L16.29 45.1203C16.29 45.1203 16.39 44.9103 16.39 44.8103C16.39 44.7103 16.34 44.5803 16.23 44.5003L2.87 32.9203L16.26 20.2003C16.44 20.0203 16.44 19.7603 16.26 19.5803H16.29Z" fill="#7AC4A6"/>
<path d="M91.9002 31.19C91.9002 31.19 91.8502 30.96 91.7402 30.85L77.3302 18.39C77.3302 18.39 77.1202 18.29 77.0202 18.29C76.8902 18.29 76.7802 18.34 76.7102 18.45L75.6402 19.67C75.6402 19.67 75.5402 19.88 75.5402 19.98C75.5402 20.08 75.5902 20.21 75.7002 20.29L89.0602 31.87L75.6702 44.59C75.4902 44.77 75.4902 45.03 75.6702 45.21L76.7902 46.38C76.7902 46.38 76.9702 46.51 77.1002 46.51C77.1002 46.51 77.3402 46.46 77.4102 46.38L91.7902 32.69C91.7902 32.69 91.9202 32.48 91.9202 32.35V31.16L91.8902 31.19H91.9002Z" fill="#7AC4A6"/>
<path d="M41.2899 30.7501C39.0399 28.1801 37.1799 25.5601 35.7999 23.0101C34.4099 20.4701 33.7299 17.9701 33.7899 15.5601C33.8399 13.1701 34.8399 10.8301 36.7999 8.63008L37.5099 7.93008C38.8399 6.79008 40.6499 5.88008 42.8999 5.23008C45.1499 4.58008 47.5299 4.53008 49.9899 5.02008C52.2699 5.49008 54.4899 6.81008 56.3399 8.86008C56.6499 9.22008 56.9899 9.61008 57.4099 10.0801L57.7199 10.4401L58.0099 10.2601C58.1699 10.1601 58.3199 10.0501 58.4799 9.92008L58.6099 9.82008V9.66008C58.6599 9.30008 57.4599 7.97008 57.4599 7.95008C56.5199 6.91008 55.3699 5.98008 53.8999 5.15008C52.4099 4.29008 50.5999 3.72008 48.5099 3.41008C47.9099 3.36008 47.2799 3.33008 46.6799 3.33008C42.4699 3.33008 38.8899 4.58008 36.0599 6.99008L35.5099 7.48008C31.4299 11.6101 29.4399 15.6101 29.5699 19.3701C29.6999 23.1401 30.7199 26.4301 32.5799 29.2101C34.4399 31.9601 35.9299 33.9401 37.0799 35.0801L59.9399 61.3301L60.0699 61.4901L66.8199 60.4501L41.2699 30.7401H41.2999L41.2899 30.7501Z" fill="#7AC4A6"/>
<path d="M38.4999 7.69043L38.2099 7.92043C38.0799 8.02043 37.9499 8.13043 37.8199 8.26043L37.1399 8.96043C36.1999 10.0204 35.4899 11.1404 34.9999 12.2804L34.8999 12.5104L50.6699 30.8404C52.9199 33.4104 54.7799 36.0304 56.1599 38.5804C57.5499 41.1204 58.2299 43.6204 58.1699 46.0304C58.1699 46.9604 57.9899 47.9004 57.6699 48.8104L57.5899 49.0204L59.2099 50.8904L59.4999 50.4704C61.4899 47.6404 62.4599 44.8604 62.3499 42.2104C62.2199 38.4404 61.1999 35.1504 59.3399 32.3704C57.4799 29.6204 55.9899 27.6404 54.8399 26.5004L38.4699 7.74043L38.4999 7.69043Z" fill="#7AC4A6"/>
<path d="M33.0001 9.56C33.6501 8.73 34.3901 7.92 35.1701 7.12L35.7701 6.6C35.9801 6.42 36.2401 6.21 36.5001 6L36.8401 5.74L31.8501 0L25.1001 1.04L32.7101 9.9L33.0001 9.54V9.57V9.56Z" fill="#7AC4A6"/>
<path d="M53.0598 54.6403C51.9398 55.3203 50.5998 55.8903 49.0598 56.3303C46.8098 56.9803 44.4298 57.0303 41.9698 56.5403C39.5398 56.0503 37.2898 54.6403 35.3298 52.4103L34.3898 51.3203L33.0298 51.6103L33.3198 52.0803C33.6298 52.6003 34.0298 53.0903 34.4398 53.6103C35.3598 54.6503 36.5598 55.6103 38.0198 56.4703C39.5098 57.3303 41.3198 57.9003 43.4098 58.2103C44.0398 58.2603 44.6398 58.2903 45.2398 58.2903C48.5898 58.2903 51.5398 57.5103 54.0298 55.9803L54.4198 55.7503L53.3698 54.5603L53.0798 54.7403L53.0498 54.6603L53.0598 54.6403Z" fill="#7AC4A6"/>
</g>
<defs>
<clipPath id="clip0_110_2">
<rect width="91.92" height="61.49" fill="white"/>
</clipPath>
</defs>
</svg>
