<svg width="93" height="62" viewBox="0 0 93 62" fill="none" xmlns="http://www.w3.org/2000/svg">
<path d="M16.8538 19.5799L15.7293 18.4113C15.7293 18.4113 15.5462 18.2815 15.4155 18.2815C15.2847 18.2815 15.1801 18.3334 15.1016 18.4113L0.692129 32.0705C0.692129 32.0705 0.561371 32.2783 0.561371 32.4081V33.6026C0.561371 33.6026 0.639826 33.8364 0.744432 33.9402L15.1539 46.4049C15.1539 46.4049 15.337 46.5088 15.4416 46.5088C15.5724 46.5088 15.7031 46.4568 15.7816 46.3529L16.8538 45.1324C16.8538 45.1324 16.9584 44.9247 16.9584 44.8208C16.9584 44.717 16.9061 44.5871 16.8015 44.5092L3.43804 32.9275L16.8276 20.2031C17.0107 20.0214 17.0107 19.7617 16.8276 19.5799H16.8538Z" fill="#33272A"/>
<path d="M92.4579 31.1876C92.4579 31.1876 92.4056 30.9539 92.301 30.85L77.8915 18.3854C77.8915 18.3854 77.6823 18.2815 77.5777 18.2815C77.4469 18.2815 77.3423 18.3334 77.2639 18.4373L76.1916 19.6578C76.1916 19.6578 76.087 19.8655 76.087 19.9694C76.087 20.0733 76.1393 20.2031 76.244 20.281L89.6074 31.8628L76.2178 44.5871C76.0347 44.7689 76.0347 45.0286 76.2178 45.2104L77.3423 46.3789C77.3423 46.3789 77.5254 46.5088 77.6561 46.5088C77.6561 46.5088 77.8915 46.4568 77.97 46.3789L92.3533 32.6938C92.3533 32.6938 92.4841 32.486 92.4841 32.3562V31.1616L92.4579 31.1876Z" fill="#33272A"/>
<path d="M41.8547 30.7461C39.6057 28.1753 37.7489 25.5525 36.3629 23.0077C34.9768 20.4628 34.2969 17.9699 34.3492 15.5548C34.4015 13.1658 35.3953 10.8287 37.3566 8.62138L38.0627 7.92024C39.3965 6.77765 41.2009 5.86877 43.4499 5.21957C45.699 4.57036 48.0788 4.51843 50.537 5.01182C52.8122 5.47925 55.0351 6.80362 56.8918 8.85509C57.2057 9.21864 57.5456 9.60816 57.9641 10.0756L58.2779 10.4391L58.5655 10.2574C58.7225 10.1535 58.8794 10.0496 59.0363 9.91978L59.167 9.81591V9.6601C59.2193 9.29655 58.0164 7.97218 58.0164 7.94621C57.0749 6.90749 55.9242 5.97264 54.4598 5.14166C52.9691 4.28472 51.1647 3.71342 49.0725 3.4018C48.471 3.34987 47.8434 3.3239 47.2419 3.3239C43.0315 3.3239 39.4488 4.57036 36.6244 6.98539L36.0752 7.47878C31.9956 11.6077 30.008 15.6068 30.1388 19.3721C30.2696 23.1375 31.2895 26.4355 33.1462 29.214C35.003 31.9666 36.4936 33.9402 37.6443 35.0828L60.5008 61.3365L60.6315 61.4923L67.3786 60.4536L41.8285 30.7461H41.8547Z" fill="#33272A"/>
<path d="M39.0565 7.68652L38.7688 7.92024C38.6381 8.02411 38.5073 8.12798 38.3765 8.25782L37.6966 8.95896C36.7551 10.0236 36.0491 11.1403 35.5522 12.2829L35.4476 12.5166L51.217 30.85C53.466 33.4209 55.3227 36.0436 56.7088 38.5885C58.0948 41.1334 58.7748 43.6263 58.7224 46.0413C58.7224 46.9762 58.5394 47.911 58.2256 48.8199L58.1471 49.0276L59.7685 50.8973L60.0562 50.4819C62.0437 47.6513 63.0113 44.8728 62.9067 42.224C62.7759 38.4587 61.756 35.1607 59.8993 32.3821C58.0425 29.6295 56.5519 27.6559 55.4012 26.5134L39.0303 7.73846L39.0565 7.68652Z" fill="#33272A"/>
<path d="M33.5646 9.55624C34.2184 8.72526 34.9507 7.92025 35.7352 7.11524L36.3367 6.59588C36.5459 6.41411 36.8074 6.20636 37.0689 5.99862L37.4089 5.73894L32.414 0L25.6669 1.03872L33.277 9.89382L33.5646 9.53027V9.55624Z" fill="#33272A"/>
<path d="M53.6229 54.6367C52.4984 55.3119 51.1647 55.8832 49.6217 56.3247C47.3727 56.9739 44.9929 57.0258 42.5346 56.5324C40.1026 56.039 37.8535 54.6367 35.8922 52.4035L34.9507 51.3128L33.5908 51.5985L33.8785 52.0659C34.1923 52.5853 34.5846 53.0787 35.003 53.598C35.9183 54.6367 37.1213 55.5976 38.5858 56.4545C40.0764 57.3115 41.8809 57.8827 43.973 58.1944C44.6006 58.2463 45.2021 58.2723 45.8036 58.2723C49.151 58.2723 52.1061 57.4932 54.5905 55.9611L54.9828 55.7274L53.9367 54.5329L53.6491 54.7146L53.6229 54.6367Z" fill="#33272A"/>
</svg>
