<svg width="375" height="64" viewBox="0 0 375 64" fill="none" xmlns="http://www.w3.org/2000/svg">
<g clip-path="url(#clip0_39_2)">
<path d="M16.9712 20.3415L15.7998 19.1243C15.7998 19.1243 15.6091 18.989 15.4729 18.989C15.3367 18.989 15.2277 19.0431 15.146 19.1243L0.136205 33.3525C0.136205 33.3525 0 33.5689 0 33.7041V34.9484C0 34.9484 0.0817231 35.1919 0.190687 35.3001L15.2005 48.284C15.2005 48.284 15.3912 48.3922 15.5001 48.3922C15.6363 48.3922 15.7726 48.3381 15.8543 48.2299L16.9712 46.9586C16.9712 46.9586 17.0801 46.7422 17.0801 46.634C17.0801 46.5258 17.0256 46.3905 16.9167 46.3094L2.99651 34.2451L16.9439 20.9907C17.1346 20.8014 17.1346 20.5309 16.9439 20.3415H16.9712Z" fill="#BEBEBE"/>
<path d="M95.725 32.4328C95.725 32.4328 95.6705 32.1894 95.5615 32.0812L80.5517 19.0972C80.5517 19.0972 80.3338 18.989 80.2248 18.989C80.0886 18.989 79.9797 19.0431 79.8979 19.1513L78.781 20.4227C78.781 20.4227 78.6721 20.6391 78.6721 20.7473C78.6721 20.8555 78.7266 20.9907 78.8355 21.0719L92.7557 33.1361L78.8083 46.3905C78.6176 46.5799 78.6176 46.8504 78.8083 47.0397L79.9797 48.257C79.9797 48.257 80.1703 48.3922 80.3065 48.3922C80.3065 48.3922 80.5517 48.3381 80.6334 48.257L95.616 34.0017C95.616 34.0017 95.7522 33.7853 95.7522 33.65V32.4057L95.725 32.4328Z" fill="#BEBEBE"/>
<path d="M43.0136 31.973C40.6709 29.295 38.7367 26.563 37.293 23.9121C35.8492 21.2612 35.1409 18.6644 35.1954 16.1488C35.2499 13.6602 36.285 11.2257 38.3281 8.92647L39.0636 8.19612C40.4529 7.00593 42.3326 6.05918 44.6753 5.38294C47.018 4.70669 49.4969 4.65259 52.0576 5.16654C54.4276 5.65343 56.7431 7.03298 58.6772 9.16992C59.0041 9.54862 59.3582 9.95436 59.7941 10.4413L60.1209 10.82L60.4206 10.6306C60.584 10.5224 60.7475 10.4142 60.9109 10.279L61.0471 10.1708V10.0085C61.1016 9.62977 59.8485 8.25022 59.8485 8.22317C58.8679 7.14118 57.6693 6.16738 56.1438 5.30179C54.591 4.40914 52.7114 3.81404 50.5321 3.48944C49.9056 3.43534 49.2518 3.40829 48.6252 3.40829C44.2394 3.40829 40.5074 4.70669 37.5654 7.22233L36.9933 7.73627C32.7437 12.0372 30.6734 16.2029 30.8096 20.1251C30.9458 24.0473 32.0082 27.4827 33.9423 30.377C35.8764 33.2443 37.4292 35.3001 38.6278 36.4903L62.4364 63.8377L62.5726 64L69.6008 62.918L42.9863 31.973H43.0136Z" fill="#7CB5E0"/>
<path d="M40.0988 7.95267L39.7991 8.19612C39.6629 8.30432 39.5267 8.41252 39.3905 8.54776L38.6823 9.27811C37.7016 10.3872 36.9661 11.5503 36.4485 12.7405L36.3395 12.9839L52.7659 32.0812C55.1086 34.7591 57.0427 37.4911 58.4865 40.142C59.9303 42.7929 60.6385 45.3897 60.584 47.9053C60.584 48.8791 60.3934 49.8529 60.0665 50.7997L59.9847 51.0161L61.6737 52.9637L61.9733 52.5309C64.0437 49.5824 65.0516 46.6881 64.9426 43.929C64.8064 40.0068 63.744 36.5714 61.8099 33.6771C59.8758 30.8098 58.323 28.754 57.1244 27.5638L40.0716 8.00677L40.0988 7.95267Z" fill="#7CB5E0"/>
<path d="M34.3782 9.90026C35.0592 9.03467 35.8219 8.19612 36.6392 7.35757L37.2657 6.81658C37.4837 6.62723 37.7561 6.41083 38.0285 6.19443L38.3826 5.92393L33.1796 -0.0540924L26.1514 1.0279L34.0785 10.2519L34.3782 9.87321V9.90026Z" fill="#7CB5E0"/>
<path d="M55.272 56.8588C54.1007 57.5621 52.7114 58.1572 51.1042 58.6171C48.7614 59.2933 46.2825 59.3474 43.7218 58.8335C41.1884 58.3195 38.8457 56.8588 36.8026 54.5325L35.822 53.3965L34.4054 53.694L34.7051 54.1809C35.032 54.7219 35.4406 55.2358 35.8764 55.7768C36.8299 56.8588 38.083 57.8597 39.6085 58.7523C41.1612 59.645 43.0408 60.2401 45.2201 60.5647C45.8739 60.6188 46.5004 60.6458 47.127 60.6458C50.6138 60.6458 53.6921 59.8343 56.28 58.2384L56.6886 57.9949L55.5989 56.7506L55.2993 56.94L55.272 56.8588Z" fill="#7CB5E0"/>
<path d="M126.562 33.9205C126.562 36.4632 126.071 38.6272 125.063 40.4396C124.055 42.2519 122.693 43.6314 120.95 44.5782C119.207 45.552 117.218 46.0659 114.957 46.1471V41.4134C116.891 41.3052 118.498 40.656 119.751 39.4658C121.004 38.2756 121.631 36.3821 121.631 33.7853V9.30516H126.562V33.9205Z" fill="#BEBEBE"/>
<path d="M135.224 24.6154C135.224 22.4785 135.633 20.5038 136.45 18.6103C137.268 16.7439 138.384 15.0668 139.828 13.6332C141.272 12.1725 142.934 11.0364 144.841 10.2249C146.747 9.41337 148.763 8.98058 150.943 8.98058C153.122 8.98058 155.11 9.38632 156.99 10.2249C158.897 11.0364 160.559 12.1995 162.002 13.6332C163.446 15.0938 164.59 16.7439 165.435 18.6103C166.252 20.4768 166.688 22.4785 166.688 24.6154C166.688 26.7523 166.279 28.7811 165.435 30.6746C164.618 32.5681 163.473 34.2181 162.002 35.6518C160.559 37.0854 158.87 38.1944 156.99 38.9789C155.083 39.7633 153.067 40.1691 150.943 40.1691C148.818 40.1691 146.693 39.7633 144.813 38.9789C142.934 38.1944 141.272 37.0854 139.828 35.6788C138.384 34.2722 137.268 32.6222 136.45 30.7287C135.633 28.8352 135.224 26.8064 135.224 24.6154ZM140.291 24.6154C140.291 26.1302 140.564 27.5368 141.109 28.8622C141.653 30.1877 142.416 31.3238 143.397 32.3246C144.377 33.3255 145.522 34.0829 146.829 34.6509C148.137 35.219 149.526 35.4895 151.052 35.4895C152.577 35.4895 153.885 35.219 155.165 34.6509C156.445 34.0829 157.562 33.3255 158.516 32.3246C159.469 31.3238 160.232 30.1877 160.777 28.8622C161.321 27.5368 161.594 26.1302 161.594 24.6154C161.594 23.1006 161.321 21.6399 160.749 20.3415C160.177 19.0161 159.415 17.88 158.461 16.8521C157.508 15.8512 156.391 15.0668 155.083 14.4988C153.776 13.9307 152.386 13.6602 150.915 13.6602C149.444 13.6602 148.028 13.9307 146.747 14.4988C145.44 15.0668 144.323 15.8512 143.342 16.8521C142.362 17.8529 141.626 19.0161 141.081 20.3415C140.536 21.667 140.291 23.1006 140.291 24.5884V24.6154Z" fill="#BEBEBE"/>
<path d="M180.69 29.9442L169.33 9.30516H175.378L184.04 25.7515L182.569 25.8326L191.096 9.30516H197.143L185.62 29.9442V39.8445H180.717V29.9442H180.69Z" fill="#BEBEBE"/>
<path d="M236.18 15.4996C235.09 14.9315 233.919 14.4717 232.666 14.066C231.44 13.6602 230.241 13.4709 229.124 13.4709C227.599 13.4709 226.4 13.7955 225.501 14.4717C224.602 15.1479 224.166 16.0676 224.166 17.2308C224.166 18.0693 224.466 18.7997 225.065 19.4218C225.665 20.044 226.455 20.585 227.435 21.0448C228.416 21.5047 229.424 21.9375 230.486 22.3703C231.413 22.6949 232.339 23.1006 233.265 23.5605C234.191 24.0203 235.008 24.5884 235.744 25.2646C236.479 25.9408 237.051 26.7794 237.487 27.7532C237.896 28.754 238.114 29.9713 238.114 31.432C238.114 33.0279 237.705 34.4886 236.915 35.8141C236.125 37.1395 234.954 38.1944 233.428 38.9789C231.903 39.7633 230.05 40.142 227.898 40.142C226.591 40.142 225.338 40.0068 224.112 39.7092C222.886 39.4387 221.715 39.033 220.625 38.5461C219.535 38.0592 218.5 37.5182 217.574 36.896L219.781 33.082C220.462 33.596 221.224 34.0558 222.096 34.4616C222.968 34.8673 223.867 35.219 224.793 35.4624C225.719 35.7059 226.591 35.8411 227.408 35.8411C228.28 35.8411 229.152 35.7059 229.996 35.4083C230.868 35.1108 231.576 34.6509 232.148 34.0017C232.72 33.3525 233.02 32.514 233.02 31.432C233.02 30.5664 232.775 29.836 232.284 29.2139C231.794 28.5917 231.14 28.0507 230.323 27.5909C229.506 27.131 228.607 26.7253 227.653 26.3466C226.7 25.9949 225.719 25.5892 224.738 25.1294C223.758 24.6695 222.832 24.1285 221.96 23.4793C221.088 22.8301 220.407 22.0186 219.862 21.0719C219.318 20.1251 219.072 18.9349 219.072 17.5554C219.072 15.8783 219.454 14.4176 220.244 13.2004C221.034 11.9831 222.123 10.9823 223.513 10.2519C224.902 9.52157 226.509 9.14288 228.334 9.08878C230.514 9.08878 232.366 9.35927 233.891 9.87322C235.417 10.3872 236.779 11.0093 237.978 11.7397L236.125 15.4725L236.18 15.4996Z" fill="#BEBEBE"/>
<path d="M244.842 24.6154C244.842 22.4785 245.251 20.5038 246.068 18.6103C246.885 16.7439 248.002 15.0668 249.446 13.6331C250.89 12.1725 252.552 11.0364 254.458 10.2249C256.365 9.41337 258.381 8.98057 260.56 8.98057C262.74 8.98057 264.728 9.38632 266.608 10.2249C268.515 11.0364 270.177 12.1995 271.62 13.6331C273.064 15.0938 274.208 16.7439 275.053 18.6103C275.87 20.4768 276.306 22.4785 276.306 24.6154C276.306 26.7523 275.897 28.7811 275.053 30.6746C274.235 32.5681 273.091 34.2181 271.62 35.6517C270.177 37.0854 268.488 38.1944 266.608 38.9789C264.701 39.7633 262.685 40.1691 260.56 40.1691C258.436 40.1691 256.311 39.7633 254.431 38.9789C252.552 38.1944 250.89 37.0854 249.446 35.6788C248.002 34.2722 246.885 32.6222 246.068 30.7287C245.251 28.8352 244.842 26.8064 244.842 24.6154ZM249.909 24.6154C249.909 26.1302 250.182 27.5368 250.726 28.8622C251.271 30.1877 252.034 31.3238 253.015 32.3246C253.995 33.3255 255.139 34.0829 256.447 34.6509C257.755 35.2189 259.144 35.4894 260.669 35.4894C262.195 35.4894 263.502 35.2189 264.783 34.6509C266.063 34.0829 267.18 33.3255 268.133 32.3246C269.087 31.3238 269.85 30.1877 270.394 28.8622C270.939 27.5368 271.212 26.1302 271.212 24.6154C271.212 23.1006 270.939 21.6399 270.367 20.3415C269.795 19.0161 269.032 17.88 268.079 16.8521C267.126 15.8512 266.009 15.0668 264.701 14.4987C263.393 13.9307 262.004 13.6602 260.533 13.6602C259.062 13.6602 257.646 13.9307 256.365 14.4987C255.058 15.0668 253.941 15.8512 252.96 16.8521C251.98 17.8529 251.244 19.0161 250.699 20.3415C250.154 21.667 249.909 23.1006 249.909 24.5883V24.6154ZM268.052 0.595108L262.304 6.22148H259.389L262.821 0.595108H268.052Z" fill="#BEBEBE"/>
<path d="M289.409 28.8352C289.409 30.0254 289.736 31.1344 290.362 32.1353C290.989 33.1361 291.833 33.9476 292.868 34.5156C293.903 35.1107 295.075 35.4083 296.382 35.4083C297.69 35.4083 298.943 35.1107 300.005 34.5156C301.068 33.9205 301.912 33.1361 302.539 32.1353C303.165 31.1344 303.465 30.0254 303.465 28.8352V9.30516H308.314V28.9704C308.314 31.1885 307.769 33.1361 306.707 34.8132C305.644 36.5173 304.201 37.8157 302.403 38.7625C300.605 39.7092 298.589 40.1691 296.355 40.1691C294.121 40.1691 292.16 39.7092 290.362 38.7625C288.564 37.8157 287.12 36.5173 286.085 34.8132C285.023 33.109 284.505 31.1615 284.505 28.9704V9.30516H289.409V28.8352Z" fill="#BEBEBE"/>
<path d="M316.159 39.8174C316.35 39.5469 316.731 38.9789 317.331 38.1133C317.903 37.2477 318.611 36.1927 319.456 34.9484C320.273 33.6771 321.199 32.2976 322.152 30.8098C323.133 29.295 324.141 27.7532 325.176 26.1843C326.211 24.6154 327.219 23.0735 328.227 21.5588C329.208 20.071 330.107 18.6915 330.951 17.4472C331.768 16.2029 332.477 15.1479 333.049 14.3094C333.621 13.4708 334.002 12.9028 334.193 12.6593L334.792 14.0118H321.88C321.308 14.0118 320.736 13.9036 320.164 13.6872C319.592 13.4708 319.101 13.1462 318.72 12.7134C318.339 12.2806 318.148 11.7938 318.148 11.2528V7.76332H322.697V8.35842C322.697 8.89942 322.806 9.19696 322.997 9.25106C323.188 9.30516 323.542 9.33221 324.005 9.33221H341.902L324.25 35.7599L323.95 35.1648H342.147V39.8715H316.187L316.159 39.8174Z" fill="#BEBEBE"/>
<path d="M347.514 39.8174L361.107 8.03383H361.407L375 39.8174H369.334L359.8 15.6619L363.314 13.3086L352.335 39.8174H347.514Z" fill="#BEBEBE"/>
<path d="M114.957 62.9451V52.7743H117.763C118.771 52.7743 119.643 52.9366 120.351 53.2342C121.059 53.5317 121.631 53.9645 122.067 54.4514C122.503 54.9654 122.83 55.5064 123.02 56.1285C123.211 56.7507 123.32 57.3458 123.32 57.9679C123.32 58.7253 123.184 59.4286 122.912 60.0507C122.639 60.6729 122.258 61.1868 121.795 61.6196C121.332 62.0524 120.787 62.377 120.16 62.6205C119.561 62.8639 118.907 62.9721 118.226 62.9721H114.93L114.957 62.9451ZM116.319 61.6467H117.954C118.526 61.6467 119.043 61.5655 119.534 61.4032C120.024 61.2409 120.433 60.9975 120.787 60.6729C121.141 60.3483 121.413 59.9696 121.604 59.5097C121.795 59.0499 121.904 58.5089 121.904 57.9138C121.904 57.2917 121.795 56.7236 121.604 56.2638C121.386 55.7769 121.114 55.3982 120.759 55.0736C120.405 54.749 119.997 54.5055 119.534 54.3432C119.071 54.1809 118.607 54.0998 118.09 54.0998H116.319V61.6737V61.6467Z" fill="#7CB5E0"/>
<path d="M127.052 52.7743H133.726V54.0727H128.441V57.1834H133.154V58.4818H128.441V61.6467H133.917V62.9451H127.052V52.7743Z" fill="#7CB5E0"/>
<path d="M143.015 54.5867C142.661 54.3973 142.28 54.2621 141.871 54.1268C141.463 53.9916 141.054 53.9375 140.645 53.9375C140.101 53.9375 139.665 54.0727 139.338 54.3162C139.011 54.5596 138.848 54.9113 138.848 55.317C138.848 55.6416 138.956 55.9121 139.147 56.1285C139.365 56.3449 139.638 56.5343 139.964 56.6966C140.291 56.8589 140.673 56.9941 141.027 57.1564C141.354 57.2917 141.653 57.4269 141.98 57.5622C142.307 57.6974 142.58 57.8867 142.825 58.1302C143.07 58.3466 143.261 58.6441 143.424 58.9687C143.56 59.2933 143.642 59.6991 143.642 60.186C143.642 60.727 143.506 61.2139 143.233 61.6467C142.961 62.0795 142.58 62.4311 142.089 62.7016C141.599 62.9451 141 63.0803 140.291 63.0803C139.828 63.0803 139.392 63.0262 138.984 62.918C138.575 62.8098 138.194 62.6746 137.84 62.5123C137.485 62.35 137.186 62.1877 136.913 61.9983L137.513 60.9163C137.731 61.0786 138.003 61.2409 138.303 61.3762C138.602 61.5114 138.902 61.6467 139.229 61.7278C139.556 61.809 139.855 61.8631 140.155 61.8631C140.482 61.8631 140.809 61.809 141.109 61.6737C141.435 61.5655 141.681 61.3762 141.899 61.1327C142.116 60.8893 142.198 60.5647 142.198 60.1589C142.198 59.8073 142.116 59.5097 141.926 59.2933C141.735 59.0499 141.49 58.8605 141.19 58.6982C140.891 58.5359 140.564 58.3737 140.237 58.2655C139.91 58.1302 139.583 58.022 139.256 57.8597C138.929 57.7244 138.63 57.5351 138.33 57.3187C138.058 57.1023 137.812 56.8589 137.649 56.5343C137.485 56.2367 137.404 55.858 137.404 55.3982C137.404 54.8572 137.54 54.3973 137.785 53.9916C138.03 53.5858 138.412 53.2883 138.848 53.0448C139.311 52.8014 139.828 52.6932 140.4 52.6661C141.054 52.6661 141.653 52.7473 142.144 52.9096C142.661 53.0719 143.097 53.2612 143.478 53.5047L142.961 54.5596L143.015 54.5867Z" fill="#7CB5E0"/>
<path d="M147.374 52.7743H154.048V54.0727H148.763V57.1834H153.476V58.4818H148.763V61.6467H154.239V62.9451H147.374V52.7743Z" fill="#7CB5E0"/>
<path d="M166.933 63.2697L159.006 55.29L159.414 55.3982V62.9721H158.08V52.4768H158.161L166.007 60.4835L165.68 60.4024V52.7743H167.015V63.2697H166.96H166.933Z" fill="#7CB5E0"/>
<path d="M172.082 52.7743L175.459 61.1868L174.669 61.0245L177.884 52.7473H179.491L174.969 63.4049L170.447 52.7473H172.082V52.7743Z" fill="#7CB5E0"/>
<path d="M181.67 57.8597C181.67 57.1564 181.807 56.4802 182.079 55.858C182.351 55.2359 182.733 54.6678 183.196 54.208C183.686 53.7211 184.231 53.3424 184.858 53.0719C185.484 52.8014 186.165 52.6661 186.901 52.6661C187.636 52.6661 188.29 52.8014 188.917 53.0719C189.543 53.3424 190.115 53.7211 190.578 54.208C191.069 54.6949 191.45 55.2359 191.722 55.858C191.995 56.4802 192.131 57.1564 192.131 57.8597C192.131 58.563 191.995 59.2663 191.722 59.8884C191.45 60.5106 191.069 61.0786 190.578 61.5385C190.088 62.0254 189.543 62.377 188.917 62.6475C188.29 62.918 187.609 63.0533 186.901 63.0533C186.192 63.0533 185.484 62.918 184.858 62.6475C184.231 62.377 183.686 62.0254 183.196 61.5385C182.706 61.0786 182.351 60.5106 182.079 59.8884C181.807 59.2663 181.67 58.563 181.67 57.8326V57.8597ZM183.087 57.8597C183.087 58.4007 183.196 58.8876 183.387 59.3474C183.577 59.8073 183.85 60.213 184.204 60.5917C184.558 60.9434 184.967 61.2409 185.43 61.4303C185.893 61.6196 186.383 61.7278 186.928 61.7278C187.473 61.7278 187.963 61.6196 188.426 61.4303C188.889 61.2409 189.298 60.9434 189.625 60.5917C189.952 60.2401 190.224 59.8343 190.442 59.3474C190.633 58.8876 190.742 58.3736 190.742 57.8326C190.742 57.2917 190.633 56.8048 190.442 56.3179C190.251 55.831 189.979 55.4252 189.625 55.0736C189.271 54.7219 188.862 54.4244 188.399 54.235C187.936 54.0457 187.446 53.9375 186.901 53.9375C186.356 53.9375 185.866 54.0457 185.402 54.235C184.939 54.4244 184.531 54.7219 184.177 55.0736C183.822 55.4252 183.55 55.858 183.359 56.3179C183.169 56.8048 183.087 57.2917 183.087 57.8326V57.8597Z" fill="#7CB5E0"/>
<path d="M195.863 52.7743H197.225V61.6467H202.428V62.9451H195.836V52.7743H195.863Z" fill="#7CB5E0"/>
<path d="M204.88 52.7743L208.258 61.1868L207.468 61.0245L210.682 52.7473H212.289L207.767 63.4049L203.245 52.7473H204.88V52.7743Z" fill="#7CB5E0"/>
<path d="M215.749 52.7743H222.423V54.0727H217.138V57.1834H221.851V58.4818H217.138V61.6467H222.614V62.9451H215.749V52.7743Z" fill="#7CB5E0"/>
<path d="M226.427 62.9451V52.7743H229.233C230.241 52.7743 231.113 52.9366 231.821 53.2342C232.529 53.5317 233.101 53.9645 233.537 54.4514C233.973 54.9654 234.3 55.5064 234.491 56.1285C234.681 56.7507 234.79 57.3458 234.79 57.9679C234.79 58.7253 234.654 59.4286 234.382 60.0507C234.109 60.6729 233.728 61.1868 233.265 61.6196C232.802 62.0524 232.257 62.377 231.63 62.6205C231.031 62.8639 230.377 62.9721 229.696 62.9721H226.4L226.427 62.9451ZM227.789 61.6467H229.424C229.996 61.6467 230.514 61.5655 231.004 61.4032C231.494 61.2409 231.903 60.9975 232.257 60.6729C232.611 60.3483 232.884 59.9696 233.074 59.5097C233.265 59.0499 233.374 58.5089 233.374 57.9138C233.374 57.2917 233.265 56.7236 233.074 56.2638C232.856 55.7769 232.584 55.3982 232.23 55.0736C231.876 54.749 231.467 54.5055 231.004 54.3432C230.541 54.1809 230.078 54.0998 229.56 54.0998H227.789V61.6737V61.6467Z" fill="#7CB5E0"/>
<path d="M237.869 57.8597C237.869 57.1564 238.005 56.4802 238.277 55.858C238.55 55.2359 238.931 54.6678 239.394 54.208C239.884 53.7211 240.429 53.3424 241.056 53.0719C241.682 52.8014 242.363 52.6661 243.099 52.6661C243.834 52.6661 244.488 52.8014 245.115 53.0719C245.741 53.3424 246.313 53.7211 246.776 54.208C247.267 54.6949 247.648 55.2359 247.921 55.858C248.193 56.4802 248.329 57.1564 248.329 57.8597C248.329 58.563 248.193 59.2663 247.921 59.8884C247.648 60.5106 247.267 61.0786 246.776 61.5385C246.286 62.0254 245.741 62.377 245.115 62.6475C244.488 62.918 243.807 63.0533 243.099 63.0533C242.391 63.0533 241.682 62.918 241.056 62.6475C240.429 62.377 239.884 62.0254 239.394 61.5385C238.904 61.0786 238.55 60.5106 238.277 59.8884C238.005 59.2663 237.869 58.563 237.869 57.8326V57.8597ZM239.285 57.8597C239.285 58.4007 239.394 58.8876 239.585 59.3474C239.776 59.8073 240.048 60.213 240.402 60.5917C240.756 60.9434 241.165 61.2409 241.628 61.4303C242.091 61.6196 242.581 61.7278 243.126 61.7278C243.671 61.7278 244.161 61.6196 244.624 61.4303C245.088 61.2409 245.496 60.9434 245.823 60.5917C246.15 60.2401 246.422 59.8343 246.64 59.3474C246.831 58.8876 246.94 58.3736 246.94 57.8326C246.94 57.2917 246.831 56.8048 246.64 56.3179C246.45 55.831 246.177 55.4252 245.823 55.0736C245.469 54.7219 245.06 54.4244 244.597 54.235C244.134 54.0457 243.644 53.9375 243.099 53.9375C242.554 53.9375 242.064 54.0457 241.601 54.235C241.138 54.4244 240.729 54.7219 240.375 55.0736C240.021 55.4252 239.748 55.858 239.558 56.3179C239.367 56.8048 239.285 57.2917 239.285 57.8326V57.8597Z" fill="#7CB5E0"/>
<path d="M254.813 52.7743C255.33 52.7743 255.82 52.8555 256.256 52.9907C256.692 53.126 257.074 53.3424 257.4 53.5858C257.727 53.8563 257.973 54.1809 258.163 54.5596C258.354 54.9383 258.436 55.3982 258.436 55.9121C258.436 56.3179 258.381 56.7236 258.245 57.1023C258.136 57.481 257.918 57.8326 257.646 58.1572C257.373 58.4818 257.019 58.7253 256.583 58.9146C256.147 59.104 255.603 59.2122 254.949 59.2122H253.423V62.9451H252.061V52.7743H254.785H254.813ZM254.949 57.8867C255.357 57.8867 255.684 57.8326 255.957 57.6974C256.229 57.5621 256.447 57.4269 256.583 57.2376C256.719 57.0482 256.856 56.8318 256.91 56.6154C256.965 56.399 257.019 56.1826 257.019 55.9933C257.019 55.8039 256.992 55.5605 256.91 55.3441C256.828 55.1277 256.719 54.9113 256.583 54.7219C256.42 54.5326 256.229 54.3703 255.984 54.2621C255.739 54.1539 255.439 54.0727 255.058 54.0727H253.478V57.8867H254.976H254.949ZM256.638 58.6712L259.307 62.9451H257.727L255.003 58.6982L256.638 58.6441V58.6712Z" fill="#7CB5E0"/>
<path d="M261.841 62.9451L266.336 52.3415H266.417L270.885 62.9451H269.305L265.954 54.4785L266.935 53.8563L263.203 62.9451H261.868H261.841Z" fill="#7CB5E0"/>
<path d="M280.12 52.7743H286.194V54.0727H281.482V57.3187H285.595V58.6171H281.482V62.9451H280.092V52.7743H280.12Z" fill="#7CB5E0"/>
<path d="M292.596 52.7743C293.113 52.7743 293.604 52.8555 294.04 52.9907C294.475 53.126 294.857 53.3424 295.184 53.5858C295.511 53.8563 295.756 54.1809 295.946 54.5596C296.137 54.9383 296.219 55.3982 296.219 55.9121C296.219 56.3179 296.164 56.7236 296.028 57.1023C295.919 57.481 295.701 57.8326 295.429 58.1572C295.156 58.4818 294.802 58.7253 294.367 58.9146C293.931 59.104 293.386 59.2122 292.732 59.2122H291.207V62.9451H289.817V52.7743H292.541H292.596ZM292.732 57.8867C293.141 57.8867 293.468 57.8326 293.74 57.6974C294.012 57.5621 294.23 57.4269 294.367 57.2376C294.53 57.0482 294.639 56.8318 294.693 56.6154C294.748 56.399 294.802 56.1826 294.802 55.9933C294.802 55.8039 294.775 55.5605 294.693 55.3441C294.612 55.1277 294.503 54.9113 294.367 54.7219C294.203 54.5326 294.012 54.3703 293.767 54.2621C293.522 54.1539 293.222 54.0727 292.841 54.0727H291.261V57.8867H292.759H292.732ZM294.421 58.6712L297.091 62.9451H295.511L292.787 58.6982L294.421 58.6441V58.6712Z" fill="#7CB5E0"/>
<path d="M299.788 57.8597C299.788 57.1564 299.924 56.4802 300.196 55.858C300.469 55.2359 300.85 54.6678 301.313 54.208C301.803 53.7211 302.348 53.3424 302.975 53.0719C303.601 52.8014 304.282 52.6661 305.018 52.6661C305.753 52.6661 306.407 52.8014 307.034 53.0719C307.66 53.3424 308.232 53.7211 308.695 54.208C309.186 54.6949 309.567 55.2359 309.839 55.858C310.112 56.4802 310.248 57.1564 310.248 57.8597C310.248 58.563 310.112 59.2663 309.839 59.8884C309.567 60.5106 309.186 61.0786 308.695 61.5385C308.205 62.0254 307.66 62.377 307.034 62.6475C306.407 62.918 305.726 63.0533 305.018 63.0533C304.31 63.0533 303.601 62.918 302.975 62.6475C302.348 62.377 301.803 62.0254 301.313 61.5385C300.823 61.0786 300.469 60.5106 300.196 59.8884C299.924 59.2663 299.788 58.563 299.788 57.8326V57.8597ZM301.204 57.8597C301.204 58.4007 301.313 58.8876 301.504 59.3474C301.694 59.8073 301.967 60.213 302.321 60.5917C302.675 60.9434 303.084 61.2409 303.547 61.4303C304.01 61.6196 304.5 61.7278 305.045 61.7278C305.59 61.7278 306.08 61.6196 306.543 61.4303C307.006 61.2409 307.415 60.9434 307.742 60.5917C308.069 60.2401 308.341 59.8343 308.559 59.3474C308.75 58.8876 308.859 58.3736 308.859 57.8326C308.859 57.2917 308.75 56.8048 308.559 56.3179C308.368 55.831 308.096 55.4252 307.742 55.0736C307.388 54.7219 306.979 54.4244 306.516 54.235C306.053 54.0457 305.563 53.9375 305.018 53.9375C304.473 53.9375 303.983 54.0457 303.52 54.235C303.056 54.4514 302.648 54.7219 302.294 55.0736C301.94 55.4252 301.667 55.858 301.476 56.3179C301.286 56.8048 301.204 57.2917 301.204 57.8326V57.8597Z" fill="#7CB5E0"/>
<path d="M322.861 63.2697L314.934 55.29L315.342 55.3982V62.9721H314.007V52.4768H314.089L321.934 60.4835L321.608 60.4024V52.7743H322.942V63.2697H322.888H322.861Z" fill="#7CB5E0"/>
<path d="M326.538 52.7743H333.348V54.0727H330.597V62.9451H329.235V54.0727H326.565V52.7743H326.538Z" fill="#7CB5E0"/>
<path d="M336.209 59.3474H338.851V60.5106H336.209V59.3474Z" fill="#7CB5E0"/>
<path d="M342.665 52.7743H349.339V54.0727H344.054V57.1834H348.767V58.4818H344.054V61.6467H349.53V62.9451H342.665V52.7743Z" fill="#7CB5E0"/>
<path d="M362.224 63.2697L354.297 55.29L354.705 55.3982V62.9721H353.371V52.4768H353.452L361.298 60.4835L360.971 60.4024V52.7743H362.306V63.2697H362.251H362.224Z" fill="#7CB5E0"/>
<path d="M366.637 62.9451V52.7743H369.443C370.451 52.7743 371.322 52.9366 372.031 53.2342C372.739 53.5317 373.311 53.9645 373.747 54.4514C374.183 54.9654 374.51 55.5064 374.7 56.1285C374.891 56.7507 375 57.3458 375 57.9679C375 58.7253 374.864 59.4286 374.591 60.0507C374.319 60.6729 373.938 61.1868 373.474 61.6196C373.011 62.0524 372.467 62.377 371.84 62.6205C371.241 62.8639 370.587 62.9721 369.906 62.9721H366.61L366.637 62.9451ZM368.026 61.6467H369.661C370.233 61.6467 370.75 61.5655 371.241 61.4032C371.731 61.2409 372.14 60.9975 372.494 60.6729C372.848 60.3483 373.12 59.9696 373.311 59.5097C373.502 59.0499 373.611 58.5089 373.611 57.9138C373.611 57.2917 373.502 56.7236 373.311 56.2638C373.093 55.7769 372.821 55.3982 372.467 55.0736C372.112 54.749 371.704 54.5055 371.241 54.3432C370.778 54.1809 370.315 54.0998 369.797 54.0998H368.026V61.6737V61.6467Z" fill="#7CB5E0"/>
</g>
<defs>
<clipPath id="clip0_39_2">
<rect width="375" height="64" fill="white"/>
</clipPath>
</defs>
</svg>
