<?xml version="1.0" encoding="utf-8"?>
<!-- Generator: Adobe Illustrator 28.1.0, SVG Export Plug-In . SVG Version: 6.00 Build 0)  -->
<svg version="1.1" id="Camada_1" xmlns="http://www.w3.org/2000/svg" xmlns:xlink="http://www.w3.org/1999/xlink" x="0px" y="0px"
	 viewBox="0 0 92 62" style="enable-background:new 0 0 92 62;" xml:space="preserve">
<style type="text/css">
	.st0{clip-path:url(#SVGID_00000145747054661588484750000008775059691379344273_);}
	.st1{fill:url(#SVGID_00000176001329498215795230000006596005800008073117_);}
	.st2{fill:url(#SVGID_00000042011523769935002260000015357936715766117014_);}
	.st3{fill:url(#SVGID_00000098199339030865566750000016812583870833205390_);}
	.st4{fill:url(#SVGID_00000106844103789561751480000014276104621030481584_);}
	.st5{fill:url(#SVGID_00000042016042653809479780000012801092888769790120_);}
	.st6{fill:url(#SVGID_00000021083527508566126910000014911070350826722200_);}
	.st7{fill:url(#SVGID_00000003081893368421700930000005159617813027796919_);}
</style>
<g>
	<defs>
		<rect id="SVGID_1_" width="91.9" height="61.5"/>
	</defs>
	<clipPath id="SVGID_00000168808537101614638540000010981891825097680291_">
		<use xlink:href="#SVGID_1_"  style="overflow:visible;"/>
	</clipPath>
	<g style="clip-path:url(#SVGID_00000168808537101614638540000010981891825097680291_);">
		
			<linearGradient id="SVGID_00000119094267346516354090000009272056092438888357_" gradientUnits="userSpaceOnUse" x1="0" y1="32.3903" x2="16.395" y2="32.3903">
			<stop  offset="0" style="stop-color:#FA12E3"/>
			<stop  offset="0.5362" style="stop-color:#7312FA"/>
			<stop  offset="1" style="stop-color:#415CA7"/>
		</linearGradient>
		<path style="fill:url(#SVGID_00000119094267346516354090000009272056092438888357_);" d="M16.3,19.6L16.3,19.6l-1.1-1.2
			c0,0-0.2-0.1-0.3-0.1s-0.2,0.1-0.3,0.1L0.1,32.1c0,0-0.1,0.2-0.1,0.3v1.2c0,0,0.1,0.2,0.2,0.3l14.4,12.5c0,0,0.2,0.1,0.3,0.1
			c0.1,0,0.3,0,0.3-0.2l1.1-1.2c0,0,0.1-0.2,0.1-0.3s0-0.2-0.2-0.3L2.9,32.9l13.4-12.7C16.4,20,16.4,19.8,16.3,19.6z"/>
		
			<linearGradient id="SVGID_00000023278643251389081250000004273607135660489143_" gradientUnits="userSpaceOnUse" x1="75.5352" y1="32.4" x2="91.9202" y2="32.4">
			<stop  offset="0" style="stop-color:#FA12E3"/>
			<stop  offset="0.5362" style="stop-color:#7312FA"/>
			<stop  offset="1" style="stop-color:#415CA7"/>
		</linearGradient>
		<path style="fill:url(#SVGID_00000023278643251389081250000004273607135660489143_);" d="M91.9,31.2c0,0-0.1-0.2-0.2-0.3
			L77.3,18.4c0,0-0.2-0.1-0.3-0.1c-0.1,0-0.2,0.1-0.3,0.2l-1.1,1.2c0,0-0.1,0.2-0.1,0.3c0,0.1,0,0.2,0.2,0.3l13.4,11.6L75.7,44.6
			c-0.2,0.2-0.2,0.4,0,0.6l1.1,1.2c0,0,0.2,0.1,0.3,0.1c0,0,0.2,0,0.3-0.1l14.4-13.7c0,0,0.1-0.2,0.1-0.3L91.9,31.2L91.9,31.2z"/>
		
			<linearGradient id="SVGID_00000100378485455923921630000015516303183282970556_" gradientUnits="userSpaceOnUse" x1="41.2816" y1="30.7451" x2="41.2999" y2="30.7451">
			<stop  offset="0" style="stop-color:#FA12E3"/>
			<stop  offset="0.5362" style="stop-color:#7312FA"/>
			<stop  offset="1" style="stop-color:#415CA7"/>
		</linearGradient>
		<polygon style="fill:url(#SVGID_00000100378485455923921630000015516303183282970556_);" points="41.3,30.7 41.3,30.7 41.3,30.8 
					"/>
		
			<linearGradient id="SVGID_00000162331283023139751770000011593904739517037477_" gradientUnits="userSpaceOnUse" x1="29.5639" y1="32.4101" x2="66.8199" y2="32.4101">
			<stop  offset="0" style="stop-color:#FA12E3"/>
			<stop  offset="0.5362" style="stop-color:#7312FA"/>
			<stop  offset="1" style="stop-color:#415CA7"/>
		</linearGradient>
		<path style="fill:url(#SVGID_00000162331283023139751770000011593904739517037477_);" d="M41.3,30.7c-2.2-2.6-4.1-5.2-5.5-7.7
			c-1.4-2.5-2.1-5-2-7.4c0-2.4,1-4.7,3-6.9l0.7-0.7c1.3-1.1,3.1-2,5.4-2.7C45.1,4.6,47.5,4.5,50,5c2.3,0.5,4.5,1.8,6.3,3.8
			c0.3,0.4,0.7,0.8,1.1,1.2l0.3,0.4l0.3-0.2c0.2-0.1,0.3-0.2,0.5-0.3l0.1-0.1V9.7c0-0.4-1.2-1.7-1.2-1.7c-0.9-1-2.1-2-3.6-2.8
			c-1.5-0.9-3.3-1.4-5.4-1.7c-0.6,0-1.2-0.1-1.8-0.1c-4.2,0-7.8,1.2-10.6,3.7l-0.5,0.5c-4.1,4.1-6.1,8.1-5.9,11.9
			c0.1,3.8,1.2,7.1,3,9.8c1.9,2.8,3.4,4.7,4.5,5.9l22.9,26.2l0.1,0.2l6.8-1L41.3,30.7L41.3,30.7z"/>
		
			<linearGradient id="SVGID_00000140729210315767147040000016339100027135951030_" gradientUnits="userSpaceOnUse" x1="34.8999" y1="29.2904" x2="62.3583" y2="29.2904">
			<stop  offset="0" style="stop-color:#FA12E3"/>
			<stop  offset="0.5362" style="stop-color:#7312FA"/>
			<stop  offset="1" style="stop-color:#415CA7"/>
		</linearGradient>
		<path style="fill:url(#SVGID_00000140729210315767147040000016339100027135951030_);" d="M38.5,7.7L38.5,7.7l-0.3,0.2
			c-0.1,0.1-0.3,0.2-0.4,0.3L37.1,9c-0.9,1.1-1.6,2.2-2.1,3.3l-0.1,0.2l15.8,18.3c2.2,2.6,4.1,5.2,5.5,7.7c1.4,2.5,2.1,5,2,7.5
			c0,0.9-0.2,1.9-0.5,2.8L57.6,49l1.6,1.9l0.3-0.4c2-2.8,3-5.6,2.9-8.3c-0.1-3.8-1.2-7.1-3-9.8c-1.9-2.8-3.3-4.7-4.5-5.9L38.5,7.7z"
			/>
		
			<linearGradient id="SVGID_00000107565153223196741130000011846705631600654236_" gradientUnits="userSpaceOnUse" x1="25.1001" y1="4.95" x2="36.8401" y2="4.95">
			<stop  offset="0" style="stop-color:#FA12E3"/>
			<stop  offset="0.5362" style="stop-color:#7312FA"/>
			<stop  offset="1" style="stop-color:#415CA7"/>
		</linearGradient>
		<path style="fill:url(#SVGID_00000107565153223196741130000011846705631600654236_);" d="M33,9.5L33,9.5c0.6-0.8,1.4-1.6,2.2-2.4
			l0.6-0.5C36,6.4,36.2,6.2,36.5,6l0.3-0.3l-5-5.7l-6.8,1l7.6,8.9L33,9.5z"/>
		
			<linearGradient id="SVGID_00000147908032686658041170000008211349223769260716_" gradientUnits="userSpaceOnUse" x1="33.0298" y1="54.8053" x2="54.4198" y2="54.8053">
			<stop  offset="0" style="stop-color:#FA12E3"/>
			<stop  offset="0.5362" style="stop-color:#7312FA"/>
			<stop  offset="1" style="stop-color:#415CA7"/>
		</linearGradient>
		<path style="fill:url(#SVGID_00000147908032686658041170000008211349223769260716_);" d="M53.1,54.7L53.1,54.7L53.1,54.7
			c-1.1,0.6-2.5,1.2-4,1.6C46.8,57,44.4,57,42,56.5c-2.4-0.5-4.7-1.9-6.6-4.1l-0.9-1.1L33,51.6l0.3,0.5c0.3,0.5,0.7,1,1.1,1.5
			c0.9,1,2.1,2,3.6,2.9c1.5,0.9,3.3,1.4,5.4,1.7c0.6,0,1.2,0.1,1.8,0.1c3.3,0,6.3-0.8,8.8-2.3l0.4-0.2l-1-1.2L53.1,54.7z"/>
	</g>
</g>
</svg>
