<svg width="92" height="62" viewBox="0 0 92 62" fill="none" xmlns="http://www.w3.org/2000/svg">
<path d="M16.2924 19.5799L15.1679 18.4113C15.1679 18.4113 14.9848 18.2815 14.8541 18.2815C14.7233 18.2815 14.6187 18.3334 14.5403 18.4113L0.130758 32.0705C0.130758 32.0705 0 32.2783 0 32.4081V33.6026C0 33.6026 0.0784547 33.8364 0.183061 33.9402L14.5926 46.4049C14.5926 46.4049 14.7756 46.5088 14.8802 46.5088C15.011 46.5088 15.1417 46.4568 15.2202 46.3529L16.2924 45.1324C16.2924 45.1324 16.397 44.9247 16.397 44.8208C16.397 44.717 16.3447 44.5871 16.2401 44.5092L2.87667 32.9275L16.2663 20.2031C16.4493 20.0214 16.4493 19.7617 16.2663 19.5799H16.2924Z" fill="#33272A"/>
<path d="M91.8966 31.1876C91.8966 31.1876 91.8443 30.9539 91.7397 30.85L77.3302 18.3854C77.3302 18.3854 77.1209 18.2815 77.0163 18.2815C76.8856 18.2815 76.781 18.3334 76.7025 18.4373L75.6303 19.6578C75.6303 19.6578 75.5257 19.8655 75.5257 19.9694C75.5257 20.0733 75.578 20.2031 75.6826 20.281L89.0461 31.8628L75.6565 44.5871C75.4734 44.7689 75.4734 45.0286 75.6565 45.2104L76.781 46.3789C76.781 46.3789 76.964 46.5088 77.0948 46.5088C77.0948 46.5088 77.3302 46.4568 77.4086 46.3789L91.792 32.6938C91.792 32.6938 91.9227 32.486 91.9227 32.3562V31.1616L91.8966 31.1876Z" fill="#33272A"/>
<path d="M41.2934 30.7461C39.0443 28.1753 37.1876 25.5525 35.8015 23.0077C34.4155 20.4628 33.7356 17.9699 33.7879 15.5548C33.8402 13.1658 34.8339 10.8286 36.7953 8.62136L37.5014 7.92023C38.8351 6.77763 40.6396 5.86875 42.8886 5.21955C45.1376 4.57035 47.5174 4.51841 49.9757 5.01181C52.2509 5.47923 54.4737 6.8036 56.3305 8.85508C56.6443 9.21863 56.9843 9.60815 57.4027 10.0756L57.7165 10.4391L58.0042 10.2574C58.1611 10.1535 58.318 10.0496 58.4749 9.91977L58.6057 9.81589V9.66009C58.658 9.29653 57.455 7.97216 57.455 7.94619C56.5136 6.90747 55.3629 5.97262 53.8984 5.14165C52.4078 4.2847 50.6033 3.7134 48.5112 3.40179C47.9097 3.34985 47.2821 3.32388 46.6806 3.32388C42.4702 3.32388 38.8874 4.57035 36.063 6.98538L35.5139 7.47877C31.4342 11.6077 29.4467 15.6068 29.5775 19.3721C29.7082 23.1375 30.7281 26.4354 32.5849 29.214C34.4417 31.9666 35.9323 33.9402 37.083 35.0828L59.9394 61.3365L60.0702 61.4923L66.8173 60.4536L41.2672 30.7461H41.2934Z" fill="#33272A"/>
<path d="M38.4951 7.68652L38.2075 7.92024C38.0767 8.02411 37.946 8.12798 37.8152 8.25782L37.1353 8.95896C36.1938 10.0236 35.4877 11.1403 34.9908 12.2829L34.8862 12.5166L50.6556 30.85C52.9047 33.4209 54.7614 36.0436 56.1474 38.5885C57.5335 41.1334 58.2134 43.6263 58.1611 46.0413C58.1611 46.9762 57.978 47.911 57.6642 48.8199L57.5858 49.0276L59.2072 50.8973L59.4948 50.4819C61.4824 47.6513 62.45 44.8728 62.3454 42.224C62.2146 38.4587 61.1947 35.1607 59.3379 32.3821C57.4812 29.6295 55.9905 27.6559 54.8399 26.5134L38.469 7.73846L38.4951 7.68652Z" fill="#33272A"/>
<path d="M33.0033 9.55624C33.6571 8.72526 34.3893 7.92025 35.1739 7.11524L35.7754 6.59588C35.9846 6.41411 36.2461 6.20636 36.5076 5.99862L36.8476 5.73894L31.8526 0L25.1055 1.03872L32.7156 9.89382L33.0033 9.53027V9.55624Z" fill="#33272A"/>
<path d="M53.0616 54.6367C51.9371 55.3119 50.6033 55.8832 49.0604 56.3247C46.8113 56.9739 44.4316 57.0258 41.9733 56.5324C39.5412 56.039 37.2922 54.6367 35.3308 52.4035L34.3894 51.3128L33.0295 51.5985L33.3171 52.0659C33.631 52.5853 34.0232 53.0787 34.4417 53.598C35.357 54.6367 36.5599 55.5976 38.0244 56.4545C39.5151 57.3115 41.3195 57.8827 43.4116 58.1944C44.0393 58.2463 44.6408 58.2723 45.2423 58.2723C48.5897 58.2723 51.5448 57.4932 54.0292 55.9611L54.4214 55.7274L53.3754 54.5329L53.0877 54.7146L53.0616 54.6367Z" fill="#33272A"/>
</svg>
