<?xml version="1.0" encoding="UTF-8"?>
<svg id="Camada_2" data-name="Camada 2" xmlns="http://www.w3.org/2000/svg" viewBox="0 0 143.68 143.68">
  <defs>
    <style>
      .cls-1 {
        fill: #ba2552;
      }
    </style>
  </defs>
  <g id="ELEMENTS">
    <g>
      <path class="cls-1" d="m71.84,0h0C32.16,0,0,32.16,0,71.84h0c0,39.68,32.16,71.84,71.84,71.84h0c39.68,0,71.84-32.16,71.84-71.84h0C143.68,32.16,111.52,0,71.84,0Zm.43,114.48c-7.15,0-14.2-1.8-20.52-5.23l-23.5,6.3,6.27-23.38c-3.55-6.4-5.42-13.57-5.42-20.86,0-23.8,19.37-43.17,43.17-43.17s43.17,19.37,43.17,43.17-19.37,43.17-43.17,43.17Z"/>
      <path class="cls-1" d="m72.27,36.3c-19.3,0-35.01,15.71-35.01,35.01,0,6.37,1.77,12.65,5.12,18.15l.91,1.49-3.5,13.05,13.13-3.52,1.48.88c5.43,3.24,11.61,4.95,17.87,4.95,19.31,0,35.01-15.71,35.01-35.01s-15.71-35.01-35.01-35.01Zm20.57,48.23c-1.3,3.16-4.54,5.19-7.82,5.82-3.14.6-5.72-.4-8.62-1.36-2.59-.86-5.09-2.1-7.41-3.52-4.64-2.85-8.66-6.65-11.88-11.03-.99-1.34-1.9-2.73-2.74-4.17-1.11-1.9-2.11-3.9-2.62-6.05-.22-.89-.33-1.81-.34-2.73-.04-3.25,1.2-6.53,3.77-8.62,1.49-1.21,3.69-1.74,5.36-.8,1.82,1.03,2.76,3.61,3.6,5.43.66,1.42,1.41,3.28,1.14,4.88-.27,1.59-1.53,2.94-2.54,4.12-.68.8-.78,1.48-.22,2.34,3.33,5.55,7.95,9.57,13.98,11.97.82.33,1.46.23,1.99-.43,1.04-1.28,2.07-3.8,3.67-4.45,2.09-.86,4.41.33,6.18,1.39,1.65.99,4.42,2.2,4.87,4.25.22.99.02,2.03-.36,2.97Z"/>
    </g>
  </g>
</svg>