<?xml version="1.0" encoding="utf-8"?>
<!-- Generator: Adobe Illustrator 28.1.0, SVG Export Plug-In . SVG Version: 6.00 Build 0)  -->
<svg version="1.1" id="Camada_1" xmlns="http://www.w3.org/2000/svg" xmlns:xlink="http://www.w3.org/1999/xlink" x="0px" y="0px"
	 viewBox="0 0 500 500" style="enable-background:new 0 0 500 500;" xml:space="preserve">
<style type="text/css">
	.st0{fill:url(#SVGID_1_);}
	.st1{fill:url(#SVGID_00000020390679698490434450000003424616248246556857_);}
	.st2{fill:url(#SVGID_00000141438265290001712550000010212926846354376090_);}
	.st3{fill:url(#SVGID_00000078030757792322203570000012353272657973682845_);}
	.st4{fill:url(#SVGID_00000093869066922777522410000014537902344950316209_);}
	.st5{fill:url(#SVGID_00000127011385647795056290000007124509953642556817_);}
	.st6{fill:url(#SVGID_00000049925654078609015430000013050410216817929913_);}
	.st7{fill:url(#SVGID_00000101101152715382577010000001791519550354735516_);}
</style>
<g>
	
		<linearGradient id="SVGID_1_" gradientUnits="userSpaceOnUse" x1="829.8649" y1="-90.4152" x2="1039.3849" y2="-112.0152" gradientTransform="matrix(1 0 0 -1 0 499)">
		<stop  offset="0" style="stop-color:#FA12E3"/>
		<stop  offset="0.5362" style="stop-color:#7312FA"/>
		<stop  offset="1" style="stop-color:#415CA7"/>
	</linearGradient>
	<path class="st0" d="M880.7,599c1.4-1.4,2.2-3.3,2.2-5.4c0-4.3-3.8-7.8-8.5-7.8h-7.9v15.6h7.8C876.8,601.4,879.1,600.5,880.7,599z"
		/>
	
		<linearGradient id="SVGID_00000075145195264479855030000005528788403778009476_" gradientUnits="userSpaceOnUse" x1="826.4865" y1="-123.1851" x2="1036.0065" y2="-144.785" gradientTransform="matrix(1 0 0 -1 0 499)">
		<stop  offset="0" style="stop-color:#FA12E3"/>
		<stop  offset="0.5362" style="stop-color:#7312FA"/>
		<stop  offset="1" style="stop-color:#415CA7"/>
	</linearGradient>
	<path style="fill:url(#SVGID_00000075145195264479855030000005528788403778009476_);" d="M880.4,616.9h-14v20.3h14.2
		c5.7,0,11.9-4.1,11.9-10.8C892.5,621.8,888.7,616.9,880.4,616.9z"/>
	
		<linearGradient id="SVGID_00000137824841323473959970000006608819811059941551_" gradientUnits="userSpaceOnUse" x1="770.6879" y1="-106.9148" x2="978.7679" y2="-196.1948" gradientTransform="matrix(1 0 0 -1 0 499)">
		<stop  offset="0" style="stop-color:#FA12E3"/>
		<stop  offset="0.5362" style="stop-color:#7312FA"/>
		<stop  offset="1" style="stop-color:#415CA7"/>
	</linearGradient>
	<polygon style="fill:url(#SVGID_00000137824841323473959970000006608819811059941551_);" points="785.5,626.5 807,626.5 
		796.3,602.6 	"/>
	
		<linearGradient id="SVGID_00000177471737130093452330000005615396238073287086_" gradientUnits="userSpaceOnUse" x1="621.76" y1="-111.67" x2="1652.5521" y2="-111.67" gradientTransform="matrix(1 0 0 -1 0 499)">
		<stop  offset="0" style="stop-color:#FA12E3"/>
		<stop  offset="0.5362" style="stop-color:#7312FA"/>
		<stop  offset="1" style="stop-color:#415CA7"/>
	</linearGradient>
	<path style="fill:url(#SVGID_00000177471737130093452330000005615396238073287086_);" d="M1068.3,551.8c-8.3-27-9.5-60.1-8.6-85.7
		c1-26.6-19.9-51.1-47.9-51.1H724c-28.1,0-48.8,24.5-47.9,51.1c0.9,25.6-0.3,58.7-8.6,85.7c-8.4,27.1-22.5,44.2-45.7,46.4v24.9
		c23.1,2.2,37.3,19.3,45.7,46.4c8.3,27,9.5,60.1,8.6,85.7c-1,26.6,19.9,51.1,47.9,51.1h287.8c28.1,0,48.9-24.5,47.9-51.1
		c-0.9-25.6,0.3-58.7,8.6-85.7c8.4-27.1,22.5-44.2,45.6-46.4v-24.9C1090.8,596,1076.6,578.9,1068.3,551.8z M722.6,654h-32.3v-84.9
		h24.2c16,0,25.5,11.6,25.5,22.9c0,5.6-2.3,10.4-5.1,13.3c8.1,2.8,15.3,10.9,15.3,22C750.1,640.2,740.5,654,722.6,654z M819.4,654
		l-5.5-12.2h-35.2l-5.5,12.2h-18.6l39.9-86.6h3.6L838,654H819.4z M881.8,654h-32.3v-84.9h24.2c16,0,25.5,11.6,25.5,22.9
		c0,5.6-2.3,10.4-5.1,13.3c8.1,2.8,15.3,10.9,15.3,22C909.3,640.2,899.6,654,881.8,654z M975.5,585.9h-35.3v16.2h30.5v17h-30.5v17.8
		h35.3v17h-52.4V569h52.4V585.9z M1045.3,654h-53v-84.9h17.1V637h35.9V654z"/>
	
		<linearGradient id="SVGID_00000042703275047594921950000017740349239209910164_" gradientUnits="userSpaceOnUse" x1="658.7213" y1="-98.0585" x2="1119.5214" y2="-338.5385" gradientTransform="matrix(1 0 0 -1 0 499)">
		<stop  offset="0" style="stop-color:#FA12E3"/>
		<stop  offset="0.5362" style="stop-color:#7312FA"/>
		<stop  offset="1" style="stop-color:#415CA7"/>
	</linearGradient>
	<path style="fill:url(#SVGID_00000042703275047594921950000017740349239209910164_);" d="M721.2,616.9h-14v20.3h14.2
		c5.7,0,11.9-4.1,11.9-10.8C733.4,621.8,729.6,616.9,721.2,616.9z"/>
	
		<linearGradient id="SVGID_00000063633068476440795890000007674188980274261163_" gradientUnits="userSpaceOnUse" x1="671.608" y1="-73.3656" x2="1132.408" y2="-313.8456" gradientTransform="matrix(1 0 0 -1 0 499)">
		<stop  offset="0" style="stop-color:#FA12E3"/>
		<stop  offset="0.5362" style="stop-color:#7312FA"/>
		<stop  offset="1" style="stop-color:#415CA7"/>
	</linearGradient>
	<path style="fill:url(#SVGID_00000063633068476440795890000007674188980274261163_);" d="M721.5,599c1.4-1.4,2.2-3.3,2.2-5.4
		c0-4.3-3.8-7.8-8.5-7.8h-7.9v15.6h7.8C717.6,601.4,719.9,600.5,721.5,599z"/>
	
		<linearGradient id="SVGID_00000026885990872637377560000008725600041661505446_" gradientUnits="userSpaceOnUse" x1="920.5549" y1="349.97" x2="923.2034" y2="349.97" gradientTransform="matrix(1 0 0 1 0 334)">
		<stop  offset="0" style="stop-color:#FA12E3"/>
		<stop  offset="0.5362" style="stop-color:#7312FA"/>
		<stop  offset="1" style="stop-color:#415CA7"/>
	</linearGradient>
	<path style="fill:url(#SVGID_00000026885990872637377560000008725600041661505446_);" d="M921.4,682.4h-0.8v3.1h0.7
		c0.8,0,1.2-0.2,1.4-0.5c0.3-0.2,0.5-0.6,0.5-1.4c0-0.6-0.2-0.8-0.3-0.8C922.8,682.5,922.3,682.4,921.4,682.4z"/>
</g>
<linearGradient id="SVGID_00000140721310820579822800000001885370900863888061_" gradientUnits="userSpaceOnUse" x1="54.6684" y1="250" x2="445.3315" y2="250">
	<stop  offset="0" style="stop-color:#FA12E3"/>
	<stop  offset="0.5362" style="stop-color:#7312FA"/>
	<stop  offset="1" style="stop-color:#415CA7"/>
</linearGradient>
<path style="fill:url(#SVGID_00000140721310820579822800000001885370900863888061_);" d="M396.9,251.3c1.9-6.9,1.5-14,2.5-21.1
	l-1.9,0.5c-0.8-3.5-11.3-16.5-31.3-38.7c-0.3-4.2,7.1-10.6,21.4-18.7l41.2-36.2c9.1-12,14.8-31,16.5-57l-0.8-6
	c-1.7-18.3-15.1-33.1-40.1-44.7c-14.8-9.9-41.6-15.6-80-16.2c-32.1,2.5-73.5,14-125,33.8c-14,10.2-30.2,20-48.3,30.2l0.3,3.2
	c1.4,0,2.8-0.8,4.9-1.7c2.2-0.3,3.2,0.8,3.5,2.5l3.2-1.7h1.7v1.4c0,1.4-11.3,10.2-33.8,26.1l1.7,2.8h-1.7l-3.5-1.1
	c0,0.8-1.7,1.4-4.9,1.7l0.3,1.7l3.9,4.2c-1.1,0-2.8-0.3-4.9-1.1c-7.4,0.8-14.5,6-21.4,15.9l1.7,2.8c6-5.7,9.6-8.5,10.6-8.5l0.3,4.6
	c-1.1,0-2.8,0.8-4.9,1.7l3.9,6c7.4-7.7,15.9-14.8,24.7-20.4c4.2,1.1,6.6,2.5,6.6,3.9l3.5-0.3c23.9-18,48.3-30.7,71.8-38.7l0.3,3.2
	c-4.6,6.6-7.4,9.9-9.1,10.2c0.3,2.5,1.1,4.2,2.5,6c0.3,4.2-10.6,31.3-32.4,81.7C130.4,300,88.4,386.7,54.7,442.8
	c0.3,1.1,1.1,2.8,2.2,4.6c8.5-2.2,13.7-3.9,15.9-6l1.7-0.3l0.3,3.2l3.2-0.3l3.2-1.7c0,0.8,1.1,1.4,3.2,1.1l0.3,3.2
	c0.3,3.2-1.4,8.2-5.2,14.5c-3.5,3.9-7.1,12-10.9,24.4v1.4l3.2-0.3c13.7-15.1,23.9-29.9,31-44.4c39.5-11.6,69.7-22.8,90.5-34.2
	c21.1-1.7,37-7.4,47.9-16.5l-0.3-1.7l-7.7,2.5l-1.7,0.3l-0.3-1.7c15.6-2.5,26.1-6,32.1-10.6c29.9-23.3,52.9-39.8,68-49.3
	c26.7-19.7,56.4-45.5,65.8-78.8C396.9,251.5,396.9,251.3,396.9,251.3z M124.2,118.9c-1.1,0-2.5,0.8-4.6,1.7h-1.7l-0.3-2.8l6.6-0.3
	V118.9z M87.7,437.7c-3.9-1.7-7.4-2.5-10.2-2.2l-0.3-4.6c0-1.7,1.1-3.2,3.2-3.5c2.2-0.3,3.2,1.1,3.5,4.2c5.7-6.6,8.5-10.2,9.1-9.9
	l3.5,1.4C95.1,432.5,92.1,437.4,87.7,437.7z M426.1,83.7c-1.7,0-4.9-4.9-9.6-14.8l-0.3-2.8c3.2-0.3,6.3,4.6,9.6,14.8L426.1,83.7z
	 M421.4,48.6l-1.4,2.8l-45.8-19C404.9,33.3,420.8,39,421.4,48.6z M227.5,215.1l-6.3,0.8l-0.3-3.2l6.3-0.3L227.5,215.1z M222.1,115
	h1.7l0.3,4.6c-1.7,0-3.5,2.2-6,6.6l-0.3-3.2C220.7,119.7,222.6,116.9,222.1,115z M208.4,147.1l0.8,6.3h-1.7l-0.3-6.3H208.4z
	 M201.4,158.8l3.2-0.3c-0.3,4.9-1.7,7.7-4.2,8.2h-1.7C200.7,163.3,201.7,160.5,201.4,158.8z M191.9,179.9c3.2-0.3,4.6-1.7,4.2-4.9
	l1.7-0.3v1.4L195,181l-3.2,0.3v-1.4H191.9z M190.8,189l-1.1,7.7h-1.4l-0.8-7.7H190.8z M137.9,338.7c-2.2,10.6-4.2,15.9-6.6,16.2
	v-1.7C130.5,348.3,133,343.3,137.9,338.7z M128.5,359.8v1.4c0.3,2.2-0.8,3.5-2.8,3.5v-1.4C125.3,361.5,126.4,360.2,128.5,359.8z
	 M125.3,403.2l4.9-0.3l0.3,1.7c-1.1,0-2.8,0.8-4.9,1.7l-3.2,0.3C122.2,404.9,123.1,403.9,125.3,403.2z M264.5,360.6
	c-27.4,13.4-43.3,22.5-48.3,27.4c-29.6,10.6-44.4,17-44.1,19.4c-26.4,10.6-43.6,18-52.1,22.8c-1.7,0.3-4.6-0.3-8.5-2.2
	c-0.8-5.2,1.7-9.6,7.1-13.1c4.6-0.3,9.1,0.3,13.4,2.2c4.9-2.5,13.7-5.2,25.7-8.5l-0.3-3.2l-9.9,0.8c1.1-1.7,10.6-6.3,28.2-13.4
	l4.9-0.3v1.4c-8.5,1.1-13.1,3.2-14,7.7c0.3,1.7,1.4,2.8,3.5,2.5c6-3.9,9.1-6.3,9.1-7.1c12-2.5,45-19.7,98.7-51.5l0.3,2.8
	C278.2,350,273.6,353.8,264.5,360.6z M181.7,388.1c8.2-0.8,14.8-3.9,20.4-9.6c2.2-0.3,3.5,0.3,3.5,2.5c-3.9,0.3-11.3,3.5-21.9,10.2
	H182L181.7,388.1z M315.8,284.8l-41.6,32.7c-30.7,20.4-47.2,30.2-49.6,30.7C175.2,375,145,389,133,390.1l-1.7,0.3
	c1.4-5.7,23.3-50.4,65.5-134.1c18.3-1.7,47.9-10.2,87.7-26.1l9.9-0.8c20-1.7,35.2,2.2,45.5,11.6l0.8,6
	C333.1,268.6,324.6,281.4,315.8,284.8z M234.4,240.8v-1.4l6.6-0.8v1.7L234.4,240.8z M328.2,223.6l4.9-0.3c4.6,2.2,6.6,3.9,7.1,5.7
	v1.4C335.9,230.7,331.7,228.5,328.2,223.6z M352.1,135.2c-5.7,7.7-9.1,11.6-10.6,11.6c-4.2,5.2-16.2,14-35.6,26.4
	c-6.3,0.8-29.9,9.9-71.1,27.8c-2.2-0.8-4.2-1.4-6.6-1.1l-0.3-2.8c-0.3-5.7,2.2-13.1,8.2-22.2c3.2-17,6.6-26.4,10.6-28.8l34.2-77.1
	c-0.3-4.6,6.6-8.5,21.9-10.9l4.9-0.3l0.3,4.6c14.8-2.2,23.9-3.5,27.4-3.9c27.4-2.2,41.6,3.2,42.6,16.5l3.2-0.3l-0.8-7.7l3.5-0.3
	c8.2,4.6,12.3,9.9,13.1,16.2c0.3,4.6-2.2,9.9-7.1,16.2c-2.2,0.3-3.2-1.1-3.5-4.2l-3.5,0.3l-0.8,9.6
	C368.2,125.4,358.1,135.8,352.1,135.2z M362.4,201.7c-2.8-1.7-4.9-2.5-6.6-2.5l-0.3-4.6l3.2-0.3l6.6,3.9
	C365.5,200.3,364.4,201.4,362.4,201.7z M384.1,227.7c3.2,1.4,4.9,2.8,5.2,3.9l-1.4,0.3c-0.3,0-0.8,0.3-1.1,0.3l-2.2,1.7L384.1,227.7
	z M390.1,240.1l-3.9,0.8l-0.3-1.1l4.2-1.1V240.1z"/>
</svg>
