<?xml version="1.0" encoding="utf-8"?>
<!-- Generator: Adobe Illustrator 28.1.0, SVG Export Plug-In . SVG Version: 6.00 Build 0)  -->
<svg version="1.1" id="Camada_1" xmlns="http://www.w3.org/2000/svg" xmlns:xlink="http://www.w3.org/1999/xlink" x="0px" y="0px"
	 viewBox="0 0 500 500" style="enable-background:new 0 0 500 500;" xml:space="preserve">
<style type="text/css">
	.st0{fill:url(#SVGID_1_);}
	.st1{fill:url(#SVGID_00000018224202022338072560000015468638819380944278_);}
	.st2{fill:url(#SVGID_00000072993591262386883980000001692540304805546428_);}
	.st3{fill:url(#SVGID_00000134233066644500547560000010636396468180474019_);}
	.st4{fill:url(#SVGID_00000156559104461973755410000013311044953481938367_);}
	.st5{fill:url(#SVGID_00000168797476084612708700000017630272327772104332_);}
	.st6{fill:url(#SVGID_00000028282815001357205840000014718953543918995878_);}
	.st7{opacity:0.3;fill:#121212;}
</style>
<linearGradient id="SVGID_1_" gradientUnits="userSpaceOnUse" x1="212.1054" y1="228.69" x2="421.6254" y2="250.29">
	<stop  offset="0" style="stop-color:#FA12E3"/>
	<stop  offset="0.5362" style="stop-color:#7312FA"/>
	<stop  offset="1" style="stop-color:#415CA7"/>
</linearGradient>
<path class="st0" d="M262.9,238.3c1.4-1.4,2.2-3.3,2.2-5.4c0-4.3-3.8-7.8-8.5-7.8h-7.9v15.6l7.8,0
	C259,240.7,261.3,239.8,262.9,238.3z"/>
<linearGradient id="SVGID_00000020390092981758588410000009632029422951772319_" gradientUnits="userSpaceOnUse" x1="208.7236" y1="261.493" x2="418.2436" y2="283.093">
	<stop  offset="0" style="stop-color:#FA12E3"/>
	<stop  offset="0.5362" style="stop-color:#7312FA"/>
	<stop  offset="1" style="stop-color:#415CA7"/>
</linearGradient>
<path style="fill:url(#SVGID_00000020390092981758588410000009632029422951772319_);" d="M262.6,256.2l-14,0v20.3h14.2
	c5.7,0,11.9-4.1,11.9-10.8C274.7,261.1,270.9,256.2,262.6,256.2z"/>
<linearGradient id="SVGID_00000050631188453103802850000013318007371998411941_" gradientUnits="userSpaceOnUse" x1="152.9267" y1="245.1976" x2="361.0067" y2="334.4776">
	<stop  offset="0" style="stop-color:#FA12E3"/>
	<stop  offset="0.5362" style="stop-color:#7312FA"/>
	<stop  offset="1" style="stop-color:#415CA7"/>
</linearGradient>
<polygon style="fill:url(#SVGID_00000050631188453103802850000013318007371998411941_);" points="167.7,265.8 189.2,265.8 
	178.5,241.9 "/>
<linearGradient id="SVGID_00000139975392764880064230000004977130572440499866_" gradientUnits="userSpaceOnUse" x1="4" y1="249.95" x2="1034.7921" y2="249.95">
	<stop  offset="0" style="stop-color:#FA12E3"/>
	<stop  offset="0.5362" style="stop-color:#7312FA"/>
	<stop  offset="1" style="stop-color:#415CA7"/>
</linearGradient>
<path style="fill:url(#SVGID_00000139975392764880064230000004977130572440499866_);" d="M450.5,191.1c-8.3-27-9.5-60.1-8.6-85.7
	c1-26.6-19.9-51.1-47.9-51.1H106.2c-28.1,0-48.8,24.5-47.9,51.1c0.9,25.6-0.3,58.7-8.6,85.7c-8.4,27.1-22.5,44.2-45.7,46.4v24.9
	c23.1,2.2,37.3,19.3,45.7,46.4c8.3,27,9.5,60.1,8.6,85.7c-1,26.6,19.9,51.1,47.9,51.1H394c28.1,0,48.9-24.5,47.9-51.1
	c-0.9-25.6,0.3-58.7,8.6-85.7c8.4-27.1,22.5-44.2,45.6-46.4v-24.9C473,235.3,458.8,218.2,450.5,191.1z M104.8,293.3H72.5v-84.9h24.2
	c16,0,25.5,11.6,25.5,22.9c0,5.6-2.3,10.4-5.1,13.3c8.1,2.8,15.3,10.9,15.3,22C132.3,279.5,122.7,293.3,104.8,293.3z M201.6,293.3
	l-5.5-12.2h-35.2l-5.5,12.2h-18.6l39.9-86.6h3.6l39.9,86.6H201.6z M264,293.3h-32.3v-84.9h24.2c16,0,25.5,11.6,25.5,22.9
	c0,5.6-2.3,10.4-5.1,13.3c8.1,2.8,15.3,10.9,15.3,22C291.5,279.5,281.8,293.3,264,293.3z M357.7,225.2h-35.3v16.2h30.5v17h-30.5
	v17.8h35.3v17h-52.4v-84.9h52.4V225.2z M427.5,293.3h-53v-84.9h17.1v67.9h35.9V293.3z"/>
<linearGradient id="SVGID_00000048464396719364484070000009631876942655935872_" gradientUnits="userSpaceOnUse" x1="40.9544" y1="236.3518" x2="501.7544" y2="476.8318">
	<stop  offset="0" style="stop-color:#FA12E3"/>
	<stop  offset="0.5362" style="stop-color:#7312FA"/>
	<stop  offset="1" style="stop-color:#415CA7"/>
</linearGradient>
<path style="fill:url(#SVGID_00000048464396719364484070000009631876942655935872_);" d="M103.4,256.2l-14,0v20.3h14.2
	c5.7,0,11.9-4.1,11.9-10.8C115.6,261.1,111.8,256.2,103.4,256.2z"/>
<linearGradient id="SVGID_00000054236953914982820220000008429746937165899664_" gradientUnits="userSpaceOnUse" x1="53.8459" y1="211.6496" x2="514.6459" y2="452.1296">
	<stop  offset="0" style="stop-color:#FA12E3"/>
	<stop  offset="0.5362" style="stop-color:#7312FA"/>
	<stop  offset="1" style="stop-color:#415CA7"/>
</linearGradient>
<path style="fill:url(#SVGID_00000054236953914982820220000008429746937165899664_);" d="M103.7,238.3c1.4-1.4,2.2-3.3,2.2-5.4
	c0-4.3-3.8-7.8-8.5-7.8h-7.9v15.6l7.8,0C99.8,240.7,102.1,239.8,103.7,238.3z"/>
<linearGradient id="SVGID_00000006673114059517226830000002462935537274216075_" gradientUnits="userSpaceOnUse" x1="302.7949" y1="175.75" x2="305.4434" y2="175.75" gradientTransform="matrix(1 0 0 -1 0 499)">
	<stop  offset="0" style="stop-color:#FA12E3"/>
	<stop  offset="0.5362" style="stop-color:#7312FA"/>
	<stop  offset="1" style="stop-color:#415CA7"/>
</linearGradient>
<path style="fill:url(#SVGID_00000006673114059517226830000002462935537274216075_);" d="M303.6,321.7h-0.8v3.1h0.7
	c0.8,0,1.2-0.2,1.4-0.5c0.3-0.2,0.5-0.6,0.5-1.4c0-0.6-0.2-0.8-0.3-0.8C305,321.8,304.5,321.7,303.6,321.7z"/>
<path class="st7" d="M345.2,251.1c1.2-4.5,1-9.1,1.6-13.7l-1.2,0.3c-0.5-2.3-7.3-10.7-20.3-25.1c-0.2-2.7,4.6-6.9,13.9-12.1
	l26.7-23.5c5.9-7.8,9.6-20.1,10.7-37l-0.5-3.9c-1.1-11.9-9.8-21.5-26-29c-9.6-6.4-27-10.1-51.9-10.5c-20.8,1.6-47.7,9.1-81.1,21.9
	c-9.1,6.6-19.6,13-31.3,19.6l0.2,2.1c0.9,0,1.8-0.5,3.2-1.1c1.4-0.2,2.1,0.5,2.3,1.6l2.1-1.1h1.1v0.9c0,0.9-7.3,6.6-21.9,16.9
	l1.1,1.8h-1.1l-2.3-0.7c0,0.5-1.1,0.9-3.2,1.1l0.2,1.1l2.5,2.7c-0.7,0-1.8-0.2-3.2-0.7c-4.8,0.5-9.4,3.9-13.9,10.3l1.1,1.8
	c3.9-3.7,6.2-5.5,6.9-5.5l0.2,3c-0.7,0-1.8,0.5-3.2,1.1l2.5,3.9c4.8-5,10.3-9.6,16-13.2c2.7,0.7,4.3,1.6,4.3,2.5l2.3-0.2
	c15.5-11.7,31.3-19.9,46.6-25.1l0.2,2.1c-3,4.3-4.8,6.4-5.9,6.6c0.2,1.6,0.7,2.7,1.6,3.9c0.2,2.7-6.9,20.3-21,53
	c-32.2,75.8-59.4,132-81.3,168.4c0.2,0.7,0.7,1.8,1.4,3c5.5-1.4,8.9-2.5,10.3-3.9l1.1-0.2l0.2,2.1l2.1-0.2l2.1-1.1
	c0,0.5,0.7,0.9,2.1,0.7l0.2,2.1c0.2,2.1-0.9,5.3-3.4,9.4c-2.3,2.5-4.6,7.8-7.1,15.8v0.9l2.1-0.2c8.9-9.8,15.5-19.4,20.1-28.8
	c25.6-7.5,45.2-14.8,58.7-22.2c13.7-1.1,24-4.8,31.1-10.7l-0.2-1.1l-5,1.6l-1.1,0.2l-0.2-1.1c10.1-1.6,16.9-3.9,20.8-6.9
	c19.4-15.1,34.3-25.8,44.1-32c17.3-12.8,36.6-29.5,42.7-51.1C345.2,251.2,345.2,251.1,345.2,251.1z M168.3,165.2
	c-0.7,0-1.6,0.5-3,1.1h-1.1l-0.2-1.8l4.3-0.2V165.2z M144.6,372c-2.5-1.1-4.8-1.6-6.6-1.4l-0.2-3c0-1.1,0.7-2.1,2.1-2.3
	c1.4-0.2,2.1,0.7,2.3,2.7c3.7-4.3,5.5-6.6,5.9-6.4l2.3,0.9C149.4,368.6,147.5,371.8,144.6,372z M364.1,142.4c-1.1,0-3.2-3.2-6.2-9.6
	l-0.2-1.8c2.1-0.2,4.1,3,6.2,9.6L364.1,142.4z M361.1,119.6l-0.9,1.8l-29.7-12.3C350.4,109.7,360.7,113.4,361.1,119.6z M235.3,227.6
	l-4.1,0.5l-0.2-2.1l4.1-0.2L235.3,227.6z M231.8,162.7h1.1l0.2,3c-1.1,0-2.3,1.4-3.9,4.3l-0.2-2.1
	C230.9,165.7,232.1,163.9,231.8,162.7z M222.9,183.5l0.5,4.1h-1.1l-0.2-4.1H222.9z M218.4,191.1l2.1-0.2c-0.2,3.2-1.1,5-2.7,5.3
	h-1.1C217.9,194,218.6,192.2,218.4,191.1z M212.2,204.8c2.1-0.2,3-1.1,2.7-3.2l1.1-0.2v0.9l-1.8,3.2l-2.1,0.2V204.8z M211.5,210.7
	l-0.7,5h-0.9l-0.5-5H211.5z M177.2,307.8c-1.4,6.9-2.7,10.3-4.3,10.5v-1.1C172.4,314,174,310.8,177.2,307.8z M171.1,321.5v0.9
	c0.2,1.4-0.5,2.3-1.8,2.3v-0.9C169,322.6,169.7,321.7,171.1,321.5z M169,349.6l3.2-0.2l0.2,1.1c-0.7,0-1.8,0.5-3.2,1.1l-2.1,0.2
	C167,350.7,167.6,350.1,169,349.6z M259.3,322c-17.8,8.7-28.1,14.6-31.3,17.8c-19.2,6.9-28.8,11-28.6,12.6
	c-17.1,6.9-28.3,11.7-33.8,14.8c-1.1,0.2-3-0.2-5.5-1.4c-0.5-3.4,1.1-6.2,4.6-8.5c3-0.2,5.9,0.2,8.7,1.4c3.2-1.6,8.9-3.4,16.7-5.5
	l-0.2-2.1l-6.4,0.5c0.7-1.1,6.9-4.1,18.3-8.7l3.2-0.2v0.9c-5.5,0.7-8.5,2.1-9.1,5c0.2,1.1,0.9,1.8,2.3,1.6c3.9-2.5,5.9-4.1,5.9-4.6
	c7.8-1.6,29.2-12.8,64-33.4l0.2,1.8C268.2,315.1,265.2,317.6,259.3,322z M205.6,339.8c5.3-0.5,9.6-2.5,13.2-6.2
	c1.4-0.2,2.3,0.2,2.3,1.6c-2.5,0.2-7.3,2.3-14.2,6.6h-1.1L205.6,339.8z M292.6,272.8l-27,21.2c-19.9,13.2-30.6,19.6-32.2,19.9
	c-32,17.4-51.6,26.5-59.4,27.2l-1.1,0.2c0.9-3.7,15.1-32.7,42.5-87c11.9-1.1,31.1-6.6,56.9-16.9l6.4-0.5c13-1.1,22.8,1.4,29.5,7.5
	l0.5,3.9C303.8,262.3,298.3,270.6,292.6,272.8z M239.8,244.3v-0.9l4.3-0.5v1.1L239.8,244.3z M300.6,233.1l3.2-0.2
	c3,1.4,4.3,2.5,4.6,3.7v0.9C305.6,237.7,302.9,236.3,300.6,233.1z M316.1,175.8c-3.7,5-5.9,7.5-6.9,7.5c-2.7,3.4-10.5,9.1-23.1,17.1
	c-4.1,0.5-19.4,6.4-46.1,18c-1.4-0.5-2.7-0.9-4.3-0.7l-0.2-1.8c-0.2-3.7,1.4-8.5,5.3-14.4c2.1-11,4.3-17.1,6.9-18.7l22.2-50
	c-0.2-3,4.3-5.5,14.2-7.1l3.2-0.2l0.2,3c9.6-1.4,15.5-2.3,17.8-2.5c17.8-1.4,27,2.1,27.6,10.7l2.1-0.2l-0.5-5l2.3-0.2
	c5.3,3,8,6.4,8.5,10.5c0.2,3-1.4,6.4-4.6,10.5c-1.4,0.2-2.1-0.7-2.3-2.7l-2.3,0.2l-0.5,6.2C326.6,169.4,320,176.2,316.1,175.8z
	 M322.8,218.9c-1.8-1.1-3.2-1.6-4.3-1.6l-0.2-3l2.1-0.2l4.3,2.5C324.8,218,324.1,218.7,322.8,218.9z M336.9,235.8
	c2.1,0.9,3.2,1.8,3.4,2.5l-0.9,0.2c-0.2,0-0.5,0.2-0.7,0.2l-1.4,1.1L336.9,235.8z M340.8,243.8l-2.5,0.5l-0.2-0.7l2.7-0.7V243.8z"/>
</svg>
