<svg width="500" height="500" viewBox="0 0 500 500" fill="none" xmlns="http://www.w3.org/2000/svg">
<path d="M396.9 251.3C398.8 244.4 398.4 237.3 399.4 230.2L397.5 230.7C396.7 227.2 386.2 214.2 366.2 192C365.9 187.8 373.3 181.4 387.6 173.3L428.8 137.1C437.9 125.1 443.6 106.1 445.3 80.1002L444.5 74.1002C442.8 55.8002 429.4 41.0002 404.4 29.4002C389.6 19.5002 362.8 13.8002 324.4 13.2002C292.3 15.7002 250.9 27.2002 199.4 47.0002C185.4 57.2002 169.2 67.0002 151.1 77.2002L151.4 80.4002C152.8 80.4002 154.2 79.6002 156.3 78.7002C158.5 78.4002 159.5 79.5002 159.8 81.2002L163 79.5002H164.7V80.9002C164.7 82.3002 153.4 91.1002 130.9 107L132.6 109.8H130.9L127.4 108.7C127.4 109.5 125.7 110.1 122.5 110.4L122.8 112.1L126.7 116.3C125.6 116.3 123.9 116 121.8 115.2C114.4 116 107.3 121.2 100.4 131.1L102.1 133.9C108.1 128.2 111.7 125.4 112.7 125.4L113 130C111.9 130 110.2 130.8 108.1 131.7L112 137.7C119.4 130 127.9 122.9 136.7 117.3C140.9 118.4 143.3 119.8 143.3 121.2L146.8 120.9C170.7 102.9 195.1 90.2002 218.6 82.2002L218.9 85.4002C214.3 92.0002 211.5 95.3002 209.8 95.6002C210.1 98.1002 210.9 99.8002 212.3 101.6C212.6 105.8 201.7 132.9 179.9 183.3C130.4 300 88.4002 386.7 54.7002 442.8C55.0002 443.9 55.8002 445.6 56.9002 447.4C65.4002 445.2 70.6002 443.5 72.8002 441.4L74.5002 441.1L74.8002 444.3L78.0002 444L81.2002 442.3C81.2002 443.1 82.3002 443.7 84.4002 443.4L84.7002 446.6C85.0002 449.8 83.3002 454.8 79.5002 461.1C76.0002 465 72.4002 473.1 68.6002 485.5V486.9L71.8002 486.6C85.5002 471.5 95.7002 456.7 102.8 442.2C142.3 430.6 172.5 419.4 193.3 408C214.4 406.3 230.3 400.6 241.2 391.5L240.9 389.8L233.2 392.3L231.5 392.6L231.2 390.9C246.8 388.4 257.3 384.9 263.3 380.3C293.2 357 316.2 340.5 331.3 331C358 311.3 387.7 285.5 397.1 252.2C396.9 251.5 396.9 251.3 396.9 251.3ZM124.2 118.9C123.1 118.9 121.7 119.7 119.6 120.6H117.9L117.6 117.8L124.2 117.5V118.9ZM87.7002 437.7C83.8002 436 80.3002 435.2 77.5002 435.5L77.2002 430.9C77.2002 429.2 78.3002 427.7 80.4002 427.4C82.6002 427.1 83.6002 428.5 83.9002 431.6C89.6002 425 92.4002 421.4 93.0002 421.7L96.5002 423.1C95.1002 432.5 92.1002 437.4 87.7002 437.7ZM426.1 83.7002C424.4 83.7002 421.2 78.8002 416.5 68.9002L416.2 66.1002C419.4 65.8002 422.5 70.7002 425.8 80.9002L426.1 83.7002ZM421.4 48.6002L420 51.4002L374.2 32.4002C404.9 33.3002 420.8 39.0002 421.4 48.6002ZM227.5 215.1L221.2 215.9L220.9 212.7L227.2 212.4L227.5 215.1ZM222.1 115H223.8L224.1 119.6C222.4 119.6 220.6 121.8 218.1 126.2L217.8 123C220.7 119.7 222.6 116.9 222.1 115ZM208.4 147.1L209.2 153.4H207.5L207.2 147.1H208.4ZM201.4 158.8L204.6 158.5C204.3 163.4 202.9 166.2 200.4 166.7H198.7C200.7 163.3 201.7 160.5 201.4 158.8ZM191.9 179.9C195.1 179.6 196.5 178.2 196.1 175L197.8 174.7V176.1L195 181L191.8 181.3L191.9 179.9ZM190.8 189L189.7 196.7H188.3L187.5 189H190.8ZM137.9 338.7C135.7 349.3 133.7 354.6 131.3 354.9V353.2C130.5 348.3 133 343.3 137.9 338.7ZM128.5 359.8V361.2C128.8 363.4 127.7 364.7 125.7 364.7V363.3C125.3 361.5 126.4 360.2 128.5 359.8ZM125.3 403.2L130.2 402.9L130.5 404.6C129.4 404.6 127.7 405.4 125.6 406.3L122.4 406.6C122.2 404.9 123.1 403.9 125.3 403.2ZM264.5 360.6C237.1 374 221.2 383.1 216.2 388C186.6 398.6 171.8 405 172.1 407.4C145.7 418 128.5 425.4 120 430.2C118.3 430.5 115.4 429.9 111.5 428C110.7 422.8 113.2 418.4 118.6 414.9C123.2 414.6 127.7 415.2 132 417.1C136.9 414.6 145.7 411.9 157.7 408.6L157.4 405.4L147.5 406.2C148.6 404.5 158.1 399.9 175.7 392.8L180.6 392.5V393.9C172.1 395 167.5 397.1 166.6 401.6C166.9 403.3 168 404.4 170.1 404.1C176.1 400.2 179.2 397.8 179.2 397C191.2 394.5 224.2 377.3 277.9 345.5L278.2 348.3C278.2 350 273.6 353.8 264.5 360.6ZM181.7 388.1C189.9 387.3 196.5 384.2 202.1 378.5C204.3 378.2 205.6 378.8 205.6 381C201.7 381.3 194.3 384.5 183.7 391.2H182L181.7 388.1ZM315.8 284.8L274.2 317.5C243.5 337.9 227 347.7 224.6 348.2C175.2 375 145 389 133 390.1L131.3 390.4C132.7 384.7 154.6 340 196.8 256.3C215.1 254.6 244.7 246.1 284.5 230.2L294.4 229.4C314.4 227.7 329.6 231.6 339.9 241L340.7 247C333.1 268.6 324.6 281.4 315.8 284.8ZM234.4 240.8V239.4L241 238.6V240.3L234.4 240.8ZM328.2 223.6L333.1 223.3C337.7 225.5 339.7 227.2 340.2 229V230.4C335.9 230.7 331.7 228.5 328.2 223.6ZM352.1 135.2C346.4 142.9 343 146.8 341.5 146.8C337.3 152 325.3 160.8 305.9 173.2C299.6 174 276 183.1 234.8 201C232.6 200.2 230.6 199.6 228.2 199.9L227.9 197.1C227.6 191.4 230.1 184 236.1 174.9C239.3 157.9 242.7 148.5 246.7 146.1L280.9 69.0002C280.6 64.4002 287.5 60.5002 302.8 58.1002L307.7 57.8002L308 62.4002C322.8 60.2002 331.9 58.9002 335.4 58.5002C362.8 56.3002 377 61.7002 378 75.0002L381.2 74.7002L380.4 67.0002L383.9 66.7002C392.1 71.3002 396.2 76.6002 397 82.9002C397.3 87.5002 394.8 92.8002 389.9 99.1002C387.7 99.4002 386.7 98.0002 386.4 94.9002L382.9 95.2002L382.1 104.8C368.2 125.4 358.1 135.8 352.1 135.2ZM362.4 201.7C359.6 200 357.5 199.2 355.8 199.2L355.5 194.6L358.7 194.3L365.3 198.2C365.5 200.3 364.4 201.4 362.4 201.7ZM384.1 227.7C387.3 229.1 389 230.5 389.3 231.6L387.9 231.9C387.6 231.9 387.1 232.2 386.8 232.2L384.6 233.9L384.1 227.7ZM390.1 240.1L386.2 240.9L385.9 239.8L390.1 238.7V240.1Z" fill="#FEF5F5"/>
</svg>
