<svg width="500" height="500" viewBox="0 0 500 500" fill="none" xmlns="http://www.w3.org/2000/svg">
<path d="M212.8 33.3999H69.2002V75.4999H212.8V33.3999Z" fill="#FEF5F5"/>
<path d="M212.8 111.7H69.2002V153.8H212.8V111.7Z" fill="#FEF5F5"/>
<path d="M430.7 409.5V386C407.4 423.8 344 424.6 316.9 424.6H69.2002V466.7H326.6C385.8 466.6 419.3 446.7 430.7 409.5Z" fill="#FEF5F5"/>
<path d="M430.7 270.2V246.6C419.4 209.4 385.8 189.5 326.6 189.5H69.2002V231.6H316.9C343.9 231.8 407.1 232.1 430.7 270.2Z" fill="#FEF5F5"/>
<path d="M430.8 320.9V302.2C418.9 272.5 368.2 267.8 327 267.8H69.2002V309.9H317.1C377.4 310 415.2 312.6 430.8 320.9Z" fill="#FEF5F5"/>
<path d="M430.7 353.8V335.1C415 343.4 377.2 346 316.9 346H69.2002V388.1H327C368 388.3 418.7 383.4 430.7 353.8Z" fill="#FEF5F5"/>
</svg>
