<svg width="500" height="500" viewBox="0 0 500 500" fill="none" xmlns="http://www.w3.org/2000/svg">
<path d="M364.2 419.1C388.3 399.7 401 371.3 401 337C401 293.7 376.2 259.7 334.6 246.2L310.9 238.5L333 226.9C361.6 211.9 380.9 180.8 380.9 149.4C380.9 120.2 369.6 95.5 348.3 77.9C326.9 60.3 296.9 51 261.5 51H98.7998V449H262.3C304.8 449 340 438.7 364.2 419.1ZM159 98.4H245.9C265.6 98.4 281.8 102 294.1 109.2C311.3 119.2 320.3 136.1 320.3 158C320.3 181.8 308.9 221.8 232.5 222H159V98.4ZM158.7 401.6V265.8H245.1C275.7 265.8 298.2 271 313.9 281.7C330.6 293.1 339.1 310.5 339.1 333.3C339.1 356 330.9 373.4 314.8 385.1C299.7 396 277.5 401.6 248.9 401.6H158.7Z" fill="#FEF5F5"/>
</svg>
