<?xml version="1.0" encoding="utf-8"?>
<!-- Generator: Adobe Illustrator 28.1.0, SVG Export Plug-In . SVG Version: 6.00 Build 0)  -->
<svg version="1.1" id="Camada_1" xmlns="http://www.w3.org/2000/svg" xmlns:xlink="http://www.w3.org/1999/xlink" x="0px" y="0px"
	 viewBox="0 0 500 500" style="enable-background:new 0 0 500 500;" xml:space="preserve">
<style type="text/css">
	.st0{fill:url(#SVGID_1_);}
	.st1{fill:url(#SVGID_00000134216597872152657080000006493150322105599147_);}
	.st2{fill:url(#SVGID_00000073718562769282411620000005185283119324231828_);}
	.st3{fill:url(#SVGID_00000091694209003221726120000007602268855514732987_);}
	.st4{fill:url(#SVGID_00000022546461996154220970000001179381276339852451_);}
	.st5{fill:url(#SVGID_00000128482039720136355320000012393787193190926994_);}
	.st6{fill:url(#SVGID_00000102503434360186340360000012600666880914913690_);}
	.st7{fill:url(#SVGID_00000001639897021361104150000002083682844650077345_);}
	.st8{fill:url(#SVGID_00000018203183632403571560000002828199031692157838_);}
</style>
<g>
	
		<linearGradient id="SVGID_1_" gradientUnits="userSpaceOnUse" x1="-351.2403" y1="152.98" x2="-302.2381" y2="152.98" gradientTransform="matrix(1 0 0 -1 0 499)">
		<stop  offset="0" style="stop-color:#FA12E3"/>
		<stop  offset="0.5362" style="stop-color:#7312FA"/>
		<stop  offset="1" style="stop-color:#415CA7"/>
	</linearGradient>
	<path class="st0" d="M-322.6,340.5c-1.2,0-2.2,0.1-3,0.1v10.9h3.2c4.4,0,7-2.1,7-5.6C-315.3,344.6-315.3,340.6-322.6,340.5z"/>
	
		<linearGradient id="SVGID_00000125589633201253659490000000665071712331524258_" gradientUnits="userSpaceOnUse" x1="-537.7992" y1="143.83" x2="-500.0572" y2="143.83" gradientTransform="matrix(1 0 0 -1 0 499)">
		<stop  offset="0" style="stop-color:#FA12E3"/>
		<stop  offset="0.567" style="stop-color:#7312FA"/>
	</linearGradient>
	<path style="fill:url(#SVGID_00000125589633201253659490000000665071712331524258_);" d="M-521.3,340.4c-8.1,0-11,8.1-11,15
		c0,7,3.4,14.5,10.9,14.5c7.6,0,11-7.5,11-14.9C-510.4,347.9-513.8,340.4-521.3,340.4z"/>
	
		<linearGradient id="SVGID_00000065782505950951511210000000867098613677233831_" gradientUnits="userSpaceOnUse" x1="-494.1726" y1="143.83" x2="-446.1576" y2="143.83" gradientTransform="matrix(1 0 0 -1 0 499)">
		<stop  offset="0" style="stop-color:#FA12E3"/>
		<stop  offset="0.5362" style="stop-color:#7312FA"/>
		<stop  offset="1" style="stop-color:#415CA7"/>
	</linearGradient>
	<path style="fill:url(#SVGID_00000065782505950951511210000000867098613677233831_);" d="M-472.9,340.4c-8.1,0-11,8.1-11,15
		c0,7,3.4,14.5,10.9,14.5c7.6,0,11-7.5,11-14.9C-462,347.9-465.4,340.4-472.9,340.4z"/>
	
		<linearGradient id="SVGID_00000006696066941556416480000005449949688427412412_" gradientUnits="userSpaceOnUse" x1="-571.7566" y1="135.08" x2="-541.371" y2="135.08" gradientTransform="matrix(1 0 0 -1 0 499)">
		<stop  offset="0" style="stop-color:#FA12E3"/>
		<stop  offset="0.5362" style="stop-color:#7312FA"/>
		<stop  offset="1" style="stop-color:#415CA7"/>
	</linearGradient>
	<path style="fill:url(#SVGID_00000006696066941556416480000005449949688427412412_);" d="M-567.5,358.2h-2.1v11.4
		c0.6,0,1.4,0,2.2,0c5.5,0,8.3-1.9,8.3-5.8C-559.1,359-564.3,358.2-567.5,358.2z"/>
	
		<linearGradient id="SVGID_00000026152835567099136020000000121041688671583386_" gradientUnits="userSpaceOnUse" x1="-571.2766" y1="153.93" x2="-544.881" y2="153.93" gradientTransform="matrix(1 0 0 -1 0 499)">
		<stop  offset="0" style="stop-color:#FA12E3"/>
		<stop  offset="0.5362" style="stop-color:#7312FA"/>
		<stop  offset="1" style="stop-color:#415CA7"/>
	</linearGradient>
	<path style="fill:url(#SVGID_00000026152835567099136020000000121041688671583386_);" d="M-560.4,345c0-1.3,0-4.5-6.8-4.5
		c-0.9,0-1.7,0-2.4,0.1v9h2.6C-562.9,349.6-560.4,347.8-560.4,345z"/>
	
		<linearGradient id="SVGID_00000145050161641105086300000002706394453678127790_" gradientUnits="userSpaceOnUse" x1="-646.88" y1="144.23" x2="-154.78" y2="144.23" gradientTransform="matrix(1 0 0 -1 0 499)">
		<stop  offset="0" style="stop-color:#FA12E3"/>
		<stop  offset="0.5362" style="stop-color:#7312FA"/>
		<stop  offset="1" style="stop-color:#415CA7"/>
	</linearGradient>
	<path style="fill:url(#SVGID_00000145050161641105086300000002706394453678127790_);" d="M-200.4,295.9c-8.3-27-9.5-60.1-8.6-85.7
		c1-26.6-19.9-51.1-47.9-51.1h-287.8c-28.1,0-48.8,24.5-47.9,51.1c0.9,25.6-0.3,58.7-8.6,85.7c-8.4,27.1-22.5,44.2-45.7,46.4v24.9
		c23.1,2.2,37.3,19.3,45.7,46.4c8.3,27,9.5,60.1,8.6,85.7c-1,26.6,19.9,51.1,47.9,51.1h287.8c28.1,0,48.9-24.5,47.9-51.1
		c-0.9-25.6,0.3-58.7,8.6-85.7c8.4-27.1,22.5-44.2,45.6-46.4v-24.9C-177.9,340.1-192.1,323-200.4,295.9z M-553.1,373.9
		c-3.4,3.1-8.4,4.5-15.9,4.5c-4.2,0-7.2-0.3-8.6-0.5l-2-0.3v-44.5l1.8-0.4c2.7-0.6,6.6-0.9,10.2-0.9c5.8,0,9.8,1.1,12.8,3.5
		c2.8,2.1,4.3,5.3,4.3,9.1c0,3.5-1.6,6.7-4.3,8.9c3.2,2.1,5.9,5.6,5.9,10.7C-548.9,367.9-550.3,371.2-553.1,373.9z M-521.7,378.7
		c-12.3,0-20.9-9.6-20.9-23.3c0-14.1,8.8-24,21.5-24c12.3,0,20.9,9.5,20.9,23.2C-500.2,371.3-511,378.7-521.7,378.7z M-473.3,378.7
		c-12.3,0-20.9-9.6-20.9-23.3c0-14.1,8.8-24,21.5-24c12.3,0,20.9,9.5,20.9,23.2C-451.8,371.3-462.6,378.7-473.3,378.7z
		 M-414.3,341.2h-12.6v36.9h-10v-36.8h-12.6v-9.2h35.2V341.2L-414.3,341.2z M-397.8,378.7c-4.3,0-9.2-1.2-11.8-3l-1.4-0.9l2.7-8.9
		l2.5,1.6c2.4,1.5,5.5,2.4,8.4,2.4c4,0,6.4-1.8,6.4-4.8c0-2-0.5-3.8-6.3-6.1c-8.3-2.9-12.4-7.5-12.4-13.9c0-7.8,6.6-13.5,15.7-13.5
		c5.4,0,8.7,1.5,10.3,2.3l1.6,0.9l-2.9,8.7l-2.4-1.3c-1.4-0.8-3.7-1.7-6.8-1.7c-4.1,0-5.5,2-5.5,3.9c0,2.2,1,3.6,6.8,5.9
		c5.6,2.2,12,5.7,12,14.3C-381,371.6-386.2,378.7-397.8,378.7z M-341.7,341.2h-12.6v36.9h-10v-36.8h-12.6v-9.2h35.2V341.2z
		 M-313.1,378.1l-0.7-1.1c-0.8-1.3-1.6-4.2-3-10.5c-1.1-5.2-2.8-6.1-6.1-6.3h-2.7v17.9h-9.9v-45l1.8-0.4c2.8-0.6,6.8-0.9,10.7-0.9
		c6.3,0,10.5,1.2,13.5,4c2.6,2.3,4,5.7,4,9.5c0,4.5-2.1,8.4-5.6,10.9c1.8,1.8,3.1,4.4,3.9,7.7c1,4.1,2.2,9.3,3,10.8l1.8,3.4H-313.1z
		 M-269.6,378.1l-4.4-13h-11.4l-4.3,13h-10.4l15.6-45.9h9.7l15.7,45.9H-269.6z M-226.1,356.6c-3.2,3.4-8.2,5.2-14.3,5.2
		c-0.7,0-1.3,0-2,0v16.3h-9.9V333l1.9-0.3c3.3-0.6,6.8-0.8,10.6-0.8c5.7,0,10.2,1.4,13.1,4c2.8,2.4,4.4,6.1,4.4,10.4
		C-222.3,350.5-223.6,354-226.1,356.6z"/>
	
		<linearGradient id="SVGID_00000177445102869235351270000004785339052313997483_" gradientUnits="userSpaceOnUse" x1="-287.0611" y1="147.18" x2="-280.9611" y2="147.18" gradientTransform="matrix(1 0 0 -1 0 499)">
		<stop  offset="0" style="stop-color:#FA12E3"/>
		<stop  offset="0.5362" style="stop-color:#7312FA"/>
		<stop  offset="1" style="stop-color:#415CA7"/>
	</linearGradient>
	<path style="fill:url(#SVGID_00000177445102869235351270000004785339052313997483_);" d="M-279.7,347.3l-3,9h6.1L-279.7,347.3
		C-279.7,347.4-279.7,347.4-279.7,347.3z"/>
	
		<linearGradient id="SVGID_00000018926623954078261410000015583737985639325581_" gradientUnits="userSpaceOnUse" x1="-250.3152" y1="152.18" x2="-240.0831" y2="152.18" gradientTransform="matrix(1 0 0 -1 0 499)">
		<stop  offset="0" style="stop-color:#FA12E3"/>
		<stop  offset="0.5362" style="stop-color:#7312FA"/>
		<stop  offset="1" style="stop-color:#415CA7"/>
	</linearGradient>
	<path style="fill:url(#SVGID_00000018926623954078261410000015583737985639325581_);" d="M-239.7,340.6c-1.1,0-2,0-2.8,0.1v12.2
		c0.6,0.1,1.3,0.1,2.1,0.1c3.7,0,8.1-1.1,8.1-6.6C-232.2,342.6-234.7,340.6-239.7,340.6z"/>
</g>
<linearGradient id="SVGID_00000114040205223999817110000002307242688035714725_" gradientUnits="userSpaceOnUse" x1="88.3432" y1="250" x2="411.6568" y2="250">
	<stop  offset="0" style="stop-color:#FA12E3"/>
	<stop  offset="0.5362" style="stop-color:#7312FA"/>
	<stop  offset="1" style="stop-color:#415CA7"/>
</linearGradient>
<path style="fill:url(#SVGID_00000114040205223999817110000002307242688035714725_);" d="M337.9,236.2
	c31.4-16.4,53.5-50.3,53.5-86.8c0-32.5-12.6-60-36.4-79.6c-23.2-19.1-55.5-29.3-93.5-29.3H88.3v419h174c44.9,0,82.5-11.2,108.5-32.2
	c26.5-21.4,40.7-52.8,40.7-90.3l0,0C411.5,288.9,383,250.9,337.9,236.2z M232.5,211.5h-63V108.9h76.4c29.1,0,63.9,8.6,63.9,49.1
	C309.8,202,267.8,211.4,232.5,211.5z M328.6,333.3c0,38.4-26.8,57.8-79.7,57.8h-79.7V276.3h75.9
	C301.4,276.3,328.6,294.9,328.6,333.3z"/>
</svg>
