<?xml version="1.0" encoding="utf-8"?>
<!-- Generator: Adobe Illustrator 28.1.0, SVG Export Plug-In . SVG Version: 6.00 Build 0)  -->
<svg version="1.1" id="Camada_1" xmlns="http://www.w3.org/2000/svg" xmlns:xlink="http://www.w3.org/1999/xlink" x="0px" y="0px"
	 viewBox="0 0 500 500" style="enable-background:new 0 0 500 500;" xml:space="preserve">
<style type="text/css">
	.st0{fill:url(#SVGID_1_);}
	.st1{opacity:0.3;fill:#121212;enable-background:new    ;}
</style>
<linearGradient id="SVGID_1_" gradientUnits="userSpaceOnUse" x1="4" y1="249.95" x2="496.1" y2="249.95">
	<stop  offset="0" style="stop-color:#FA12E3"/>
	<stop  offset="0.5362" style="stop-color:#7312FA"/>
	<stop  offset="1" style="stop-color:#415CA7"/>
</linearGradient>
<path class="st0" d="M450.5,191.1c-8.3-27-9.5-60.1-8.6-85.7c1-26.6-19.9-51.1-47.9-51.1H106.2c-28.1,0-48.8,24.5-47.9,51.1
	c0.9,25.6-0.3,58.7-8.6,85.7c-8.4,27.1-22.5,44.2-45.7,46.4v24.9c23.1,2.2,37.3,19.3,45.7,46.4c8.3,27,9.5,60.1,8.6,85.7
	c-1,26.6,19.9,51.1,47.9,51.1H394c28.1,0,48.9-24.5,47.9-51.1c-0.9-25.6,0.3-58.7,8.6-85.7c8.4-27.1,22.5-44.2,45.6-46.4v-24.9
	C473,235.3,458.8,218.2,450.5,191.1z M186,265.7c7.5,0,13.5-4.4,17.2-8.1l3.7-3.7l12.4,17.3l-2.7,2.7c-8.9,8.8-18.8,13.1-30.2,13.1
	c-24.9,0-45.2-20.2-45.2-45c0-24.5,20.6-45.2,45-45.2c11.2,0.2,21.7,4.7,30.4,13.3l2.8,2.7l-12.5,17l-3.7-3.7
	c-5.1-5.1-11.2-7.9-17.2-7.9c-12.5,0-23.4,11.1-23.4,23.8C162.5,256,174.9,265.7,186,265.7z M255.9,287c-14.1,0-25.7-6.6-31.2-17.6
	L223,266l16.8-12l2.4,4.3c2.7,4.7,7.7,7.4,13.7,7.4c6.2,0,11.1-2.5,11.1-5.8c0-4.3-9.6-8.4-16.6-11.4l-0.2-0.1
	c-8.8-3.9-22.1-9.8-22.1-25.3c0-15,12.8-26.3,29.8-26.3c12.9,0,23,6.3,27,16.9l1.2,3.2l-16.4,11.3l-2.2-4.8
	c-1.6-3.5-5.3-5.7-9.5-5.7c-4.6,0-8.5,2.6-8.5,5.6c0,2.3,4.1,4.1,10.8,6.9c1.1,0.5,2.2,0.9,3.4,1.4c12,5.3,24.8,12.2,24.8,27.9
	C288.4,275.7,275,287,255.9,287z M327.2,287c-14.1,0-25.7-6.6-31.2-17.6l-1.7-3.4l16.8-12l2.4,4.3c2.7,4.7,7.7,7.4,13.7,7.4
	c6.2,0,11.1-2.5,11.1-5.8c0-4.3-9.6-8.4-16.6-11.4l-0.2-0.1c-8.8-3.9-22.1-9.8-22.1-25.3c0-15,12.8-26.3,29.8-26.3
	c12.9,0,23,6.3,27,16.9l1.2,3.2L341,228.3l-2.2-4.8c-1.6-3.5-5.3-5.7-9.5-5.7c-4.6,0-8.5,2.6-8.5,5.6c0,2.3,4.1,4.1,10.8,6.9
	c1.1,0.5,2.2,0.9,3.4,1.4c12,5.3,24.8,12.2,24.8,27.9C359.6,275.7,346.3,287,327.2,287z"/>
<polygon class="st1" points="250,167.7 250.1,167.7 313.4,167.7 309.3,213.7 250.1,213.7 250,213.7 145.4,213.7 149.5,258.7 
	250,258.7 250.1,258.7 305.4,258.7 300.2,317.1 250,330.7 199.9,317.1 196.6,281.2 151.4,281.2 157.7,351.8 249.9,377.4 
	250.1,377.4 342.2,351.8 342.9,344.2 353.5,225.8 354.6,213.7 362.7,122.6 250.1,122.6 250,122.6 250,122.8 137.3,122.8 
	141.4,167.7 "/>
</svg>
