<?xml version="1.0" encoding="utf-8"?>
<!-- Generator: Adobe Illustrator 28.1.0, SVG Export Plug-In . SVG Version: 6.00 Build 0)  -->
<svg version="1.1" id="Camada_1" xmlns="http://www.w3.org/2000/svg" xmlns:xlink="http://www.w3.org/1999/xlink" x="0px" y="0px"
	 viewBox="0 0 500 500" style="enable-background:new 0 0 500 500;" xml:space="preserve">
<style type="text/css">
	.st0{fill:url(#SVGID_1_);}
	.st1{fill:url(#SVGID_00000039815728905689618140000012325482916803472522_);}
</style>
<linearGradient id="SVGID_1_" gradientUnits="userSpaceOnUse" x1="-814.64" y1="180.75" x2="-322.54" y2="180.75" gradientTransform="matrix(1 0 0 -1 0 499)">
	<stop  offset="0" style="stop-color:#FA12E3"/>
	<stop  offset="0.5362" style="stop-color:#7312FA"/>
	<stop  offset="1" style="stop-color:#415CA7"/>
</linearGradient>
<path class="st0" d="M-368.1,259.4c-8.3-27-9.5-60.1-8.6-85.7c1-26.6-19.9-51.1-47.9-51.1h-287.8c-28.1,0-48.8,24.5-47.9,51.1
	c0.9,25.6-0.3,58.7-8.6,85.7c-8.4,27.1-22.5,44.2-45.7,46.4v24.9c23.1,2.2,37.3,19.3,45.7,46.4c8.3,27,9.5,60.1,8.6,85.7
	c-1,26.6,19.9,51.1,47.9,51.1h287.8c28.1,0,48.9-24.5,47.9-51.1c-0.9-25.6,0.3-58.7,8.6-85.7c8.4-27.1,22.5-44.2,45.6-46.4v-24.9
	C-345.6,303.6-359.8,286.5-368.1,259.4z M-632.6,334c7.5,0,13.5-4.4,17.2-8.1l3.7-3.7l12.4,17.3l-2.7,2.7
	c-8.9,8.8-18.8,13.1-30.2,13.1c-24.9,0-45.2-20.2-45.2-45c0-24.5,20.6-45.2,45-45.2c11.2,0.2,21.7,4.7,30.4,13.3l2.8,2.7l-12.5,17
	l-3.7-3.7c-5.1-5.1-11.2-7.9-17.2-7.9c-12.5,0-23.4,11.1-23.4,23.8C-656.1,324.3-643.7,334-632.6,334z M-562.7,355.3
	c-14.1,0-25.7-6.6-31.2-17.6l-1.7-3.4l16.8-12l2.4,4.3c2.7,4.7,7.7,7.4,13.7,7.4c6.2,0,11.1-2.5,11.1-5.8c0-4.3-9.6-8.4-16.6-11.4
	l-0.2-0.1c-8.8-3.9-22.1-9.8-22.1-25.3c0-15,12.8-26.3,29.8-26.3c12.9,0,23,6.3,27,16.9l1.2,3.2l-16.4,11.3l-2.2-4.8
	c-1.6-3.5-5.3-5.7-9.5-5.7c-4.6,0-8.5,2.6-8.5,5.6c0,2.3,4.1,4.1,10.8,6.9c1.1,0.5,2.2,0.9,3.4,1.4c12,5.3,24.8,12.2,24.8,27.9
	C-530.2,344-543.6,355.3-562.7,355.3z M-491.4,355.3c-14.1,0-25.7-6.6-31.2-17.6l-1.7-3.4l16.8-12l2.4,4.3c2.7,4.7,7.7,7.4,13.7,7.4
	c6.2,0,11.1-2.5,11.1-5.8c0-4.3-9.6-8.4-16.6-11.4l-0.2-0.1c-8.8-3.9-22.1-9.8-22.1-25.3c0-15,12.8-26.3,29.8-26.3
	c12.9,0,23,6.3,27,16.9l1.2,3.2l-16.4,11.4l-2.2-4.8c-1.6-3.5-5.3-5.7-9.5-5.7c-4.6,0-8.5,2.6-8.5,5.6c0,2.3,4.1,4.1,10.8,6.9
	c1.1,0.5,2.2,0.9,3.4,1.4c12,5.3,24.8,12.2,24.8,27.9C-459,344-472.3,355.3-491.4,355.3z"/>
<linearGradient id="SVGID_00000050641158790587732990000003454833722506227101_" gradientUnits="userSpaceOnUse" x1="80.4805" y1="249.7859" x2="419.5518" y2="249.7859">
	<stop  offset="0" style="stop-color:#FA12E3"/>
	<stop  offset="0.5362" style="stop-color:#7312FA"/>
	<stop  offset="1" style="stop-color:#415CA7"/>
</linearGradient>
<polygon style="fill:url(#SVGID_00000050641158790587732990000003454833722506227101_);" points="250,444.2 388.2,405.8 388.6,402 
	405.8,209.5 407.6,189.9 419.6,55.4 262.5,55.4 262.5,55.7 80.5,55.7 84.9,103.7 366.7,103.7 357.8,203.5 93.6,203.5 98,251.6 
	353.7,251.6 343.3,368.9 250,394.1 156.9,368.9 151.8,313.2 103.4,313.2 111.6,405.8 "/>
</svg>
