<svg width="500" height="500" viewBox="0 0 500 500" fill="none" xmlns="http://www.w3.org/2000/svg">
<path d="M179.2 201.1C198.3 201.1 213.9 211.3 221.9 229.2L222.5 230.6L254.6 219.7L253.9 218.1C241.5 187.7 212.8 168.9 179.2 168.9C155.5 168.9 136.3 176.5 120.4 192.1C104.6 207.6 96.5996 227.2 96.5996 250.2C96.5996 273 104.6 292.4 120.4 308C136.3 323.6 155.5 331.2 179.2 331.2C212.9 331.2 241.5 312.3 253.9 282L254.6 280.4L222.5 269.4L221.9 270.8C214.7 288.3 198.8 298.8 179.2 298.8C165.9 298.8 154.6 294.1 145.7 284.9C136.7 275.6 132.1 263.9 132.1 250.1C132.1 236.2 136.6 224.8 145.7 215C154.6 205.8 165.9 201.1 179.2 201.1Z" fill="#FEF5F5"/>
<path d="M460.1 140.9C419.1 62.0001 338.6 13.1001 249.9 13.1001C218.5 13.1001 187.9 19.2001 159.2 31.1001C71.4996 67.6001 13.0996 154.8 13.0996 250C13.0996 267.6 15.0996 285.2 18.8996 302.3H18.7996C30.3996 353.9 59.5996 400.8 100.9 434.3C142.7 468.2 195.4 486.9 249.3 487H249.8C253 487 256.1 486.9 259.2 486.8C276.1 486.1 291.2 475.5 297.7 459.7L302.3 448.6L305.9 439.9L308.2 434.2L415.8 171.8H380.2L334.5 287.9L288.5 171.8H250.8L315.4 330.3L275.4 427.7L267.4 447.2C265.8 451.1 262.2 453.7 258.1 453.8C255.4 453.9 252.7 454 249.9 454C158.6 454 77.3996 391.5 53.4996 304.1C48.6996 286.6 46.2996 268.4 46.2996 250.1C46.2996 166.5 98.5996 90.1001 176.6 59.9001C200 50.8001 224.7 46.2001 250.1 46.2001C326.5 46.2001 395.8 88.4001 431.1 156.2C445.9 184.5 454.3 216.4 454.3 250.5C454.3 329.2 409.8 397.5 344.7 431.5L360.9 460.3C436 420.6 487.2 341.6 487.2 250.5C486.9 211.5 476.7 173.3 460.1 140.9Z" fill="#FEF5F5"/>
</svg>
