<?xml version="1.0" encoding="utf-8"?>
<!-- Generator: Adobe Illustrator 28.1.0, SVG Export Plug-In . SVG Version: 6.00 Build 0)  -->
<svg version="1.1" id="Cypress-Icon--Streamline-Svg-Logos.svg"
	 xmlns="http://www.w3.org/2000/svg" xmlns:xlink="http://www.w3.org/1999/xlink" x="0px" y="0px" viewBox="0 0 500 500"
	 style="enable-background:new 0 0 500 500;" xml:space="preserve">
<style type="text/css">
	.st0{fill:#121212;}
</style>
<g>
	<path class="st0" d="M179.2,201.1c19.1,0,34.7,10.2,42.7,28.1l0.6,1.4l32.1-10.9l-0.7-1.6c-12.4-30.4-41.1-49.2-74.7-49.2
		c-23.7,0-42.9,7.6-58.8,23.2c-15.8,15.5-23.8,35.1-23.8,58.1c0,22.8,8,42.2,23.8,57.8c15.9,15.6,35.1,23.2,58.8,23.2
		c33.7,0,62.3-18.9,74.7-49.2l0.7-1.6l-32.1-11l-0.6,1.4c-7.2,17.5-23.1,28-42.7,28c-13.3,0-24.6-4.7-33.5-13.9
		c-9-9.3-13.6-21-13.6-34.8c0-13.9,4.5-25.3,13.6-35.1C154.6,205.8,165.9,201.1,179.2,201.1z"/>
	<path class="st0" d="M460.1,140.9L460.1,140.9C419.1,62,338.6,13.1,249.9,13.1c-31.4,0-62,6.1-90.7,18l0,0
		C71.5,67.6,13.1,154.8,13.1,250c0,17.6,2,35.2,5.8,52.3h-0.1c11.6,51.6,40.8,98.5,82.1,132c41.8,33.9,94.5,52.6,148.4,52.7h0.5
		c3.2,0,6.3-0.1,9.4-0.2c16.9-0.7,32-11.3,38.5-27.1l4.6-11.1l0,0l3.6-8.7l2.3-5.7l0,0l107.6-262.4h-35.6l-45.7,116.1l-46-116.1
		h-37.7l64.6,158.5l-40,97.4l0,0l-8,19.5c-1.6,3.9-5.2,6.5-9.3,6.6c-2.7,0.1-5.4,0.2-8.2,0.2c-91.3,0-172.5-62.5-196.4-149.9l0,0
		c-4.8-17.5-7.2-35.7-7.2-54c0-83.6,52.3-160,130.3-190.2l0,0c23.4-9.1,48.1-13.7,73.5-13.7c76.4,0,145.7,42.2,181,110l0,0
		c14.8,28.3,23.2,60.2,23.2,94.3c0,78.7-44.5,147-109.6,181l16.2,28.8c75.1-39.7,126.3-118.7,126.3-209.8
		C486.9,211.5,476.7,173.3,460.1,140.9z"/>
</g>
</svg>
