<?xml version="1.0" encoding="utf-8"?>
<!-- Generator: Adobe Illustrator 28.1.0, SVG Export Plug-In . SVG Version: 6.00 Build 0)  -->
<svg version="1.1" id="Camada_1" xmlns="http://www.w3.org/2000/svg" xmlns:xlink="http://www.w3.org/1999/xlink" x="0px" y="0px"
	 viewBox="0 0 500 500" style="enable-background:new 0 0 500 500;" xml:space="preserve">
<style type="text/css">
	.st0{fill:url(#SVGID_1_);}
	.st1{fill:url(#SVGID_00000099647873040073998800000017869741203971123123_);}
	.st2{opacity:0.78;fill:#303030;enable-background:new    ;}
	.st3{fill:#303030;}
</style>
<g>
	
		<linearGradient id="SVGID_1_" gradientUnits="userSpaceOnUse" x1="-463.2656" y1="528.35" x2="-430.6695" y2="528.35" gradientTransform="matrix(1 0 0 -1 0 833)">
		<stop  offset="0" style="stop-color:#FA12E3"/>
		<stop  offset="0.4384" style="stop-color:#7312FA"/>
		<stop  offset="1" style="stop-color:#415CA7"/>
	</linearGradient>
	<polygon class="st0" points="-456,312.5 -441.8,312.5 -448.9,296.8 	"/>
	
		<linearGradient id="SVGID_00000074405874113974317000000016499745853155102376_" gradientUnits="userSpaceOnUse" x1="-1081.7383" y1="532.4" x2="46.5859" y2="532.4" gradientTransform="matrix(1 0 0 -1 0 833)">
		<stop  offset="0" style="stop-color:#FA12E3"/>
		<stop  offset="0.4384" style="stop-color:#7312FA"/>
		<stop  offset="1" style="stop-color:#415CA7"/>
	</linearGradient>
	<path style="fill:url(#SVGID_00000074405874113974317000000016499745853155102376_);" d="M-383.3,241.8c-8.3-27-9.5-60.1-8.6-85.7
		c1-26.6-19.9-51.1-47.9-51.1h-287.8c-28.1,0-48.8,24.5-47.9,51.1c0.9,25.6-0.3,58.7-8.6,85.7c-8.4,27.1-22.5,44.2-45.7,46.4V313
		c23.1,2.2,37.3,19.3,45.7,46.4c8.3,27,9.5,60.1,8.6,85.7c-1,26.6,19.9,51.1,47.9,51.1h287.8c28.1,0,48.9-24.5,47.9-51.1
		c-0.9-25.6,0.3-58.7,8.6-85.7c8.4-27.1,22.5-44.2,45.6-46.4v-24.9C-360.8,286-375,268.9-383.3,241.8z M-708.5,279.6h-31.3v12h27
		v18.2h-27V340H-758v-78.6h49.5V279.6z M-678.5,339.9h-18.2v-78.3h18.2V339.9z M-624.6,341.1c-22.4,0-40.7-18.1-40.7-40.3
		c0-22.3,18.1-40.4,40.3-40.4c9.9,0,21,4.7,28.4,11.9l2.1,2l-10.2,15.3l-3-3c-5-4.9-11.6-7.9-17.4-7.9c-10.5,0-21.8,8.9-21.8,22.1
		c0,12.3,10,22,22.8,22c9.2,0,16-4.6,17.6-11.6h-21.7V294h40.4l0.3,3.1c0.2,1.4,0.3,3.6,0.3,5.9
		C-587.2,325.1-602.9,341.1-624.6,341.1z M-497.1,339.9h-18.2v-30.7l-18.2,29.5h-4l-18.2-29.5v30.7h-18.2v-79.8h6.2l32.2,48.9
		l32.2-48.9h6.2L-497.1,339.9L-497.1,339.9z M-429.5,339.9l-4.9-10.8h-29.2l-4.9,10.8h-19.9l36.8-79.8h5.2l36.8,79.8L-429.5,339.9
		L-429.5,339.9z"/>
</g>
<g>
	<path class="st2" d="M251.2,249.2c0-4.8,0.5-9.6,1.4-14.5c0.9-4.8,2.3-9.3,4.2-13.9c1.8-4.5,4.1-8.7,6.8-12.8
		c2.7-3.9,5.7-7.8,9-11.1s6.9-6.5,11-9.2c3.9-2.7,8.1-5,12.6-6.8s8.9-3.3,13.7-4.2c4.7-0.9,9.3-1.4,14.2-1.4s9.5,0.5,14.2,1.4
		s9.2,2.3,13.7,4.2c4.4,1.8,8.6,4.2,12.6,6.8c3.9,2.7,7.7,5.7,11,9.2s6.3,7.2,9,11.1c2.7,3.9,4.8,8.3,6.8,12.8
		c1.8,4.5,3.2,9.2,4.2,13.9c0.9,4.8,1.4,9.6,1.4,14.5c0,4.8-0.5,9.6-1.4,14.5s-2.3,9.3-4.2,13.9c-1.8,4.5-4.1,8.7-6.8,12.8
		c-2.7,3.9-5.7,7.8-9,11.1c-3.3,3.3-6.9,6.5-11,9.2c-3.9,2.7-8.1,5-12.6,6.8s-8.9,3.3-13.7,4.2c-4.7,0.9-9.3,1.4-14.2,1.4
		s-9.5-0.5-14.2-1.4s-9.2-2.3-13.7-4.2c-4.5-2-8.6-4.2-12.6-6.8c-3.9-2.7-7.7-5.7-11-9.2s-6.3-7.2-9-11.1c-2.7-4.1-4.8-8.3-6.8-12.8
		c-1.8-4.5-3.2-9.2-4.2-13.9C251.7,258.9,251.2,254.1,251.2,249.2z"/>
	<path class="st2" d="M103.1,399.9c0-4.8,0.5-9.6,1.4-14.5c0.9-4.8,2.3-9.3,4.2-13.9c1.8-4.5,4.1-8.7,6.8-12.8
		c2.7-3.9,5.7-7.8,9-11.1c3.3-3.5,6.9-6.5,11-9.2c3.9-2.7,8.1-5,12.6-6.8c4.4-1.8,8.9-3.3,13.7-4.2c4.7-0.9,9.3-1.4,14.2-1.4h72.4
		v73.8c0,4.8-0.5,9.6-1.4,14.5c-0.9,4.8-2.3,9.3-4.2,13.9c-1.8,4.5-4.1,8.7-6.8,12.8c-2.7,3.9-5.7,7.8-9,11.1
		c-3.3,3.5-6.9,6.5-11,9.2c-3.9,2.7-8.1,5-12.6,6.8c-4.4,1.8-8.9,3.3-13.7,4.2c-4.7,0.9-9.3,1.4-14.2,1.4s-9.5-0.5-14.2-1.4
		s-9.2-2.3-13.7-4.2c-4.4-1.8-8.6-4.2-12.6-6.8c-3.9-2.7-7.7-5.7-11-9.2s-6.3-7.2-9-11.1s-4.8-8.3-6.8-12.8
		c-1.8-4.5-3.2-9.2-4.2-13.9C103.5,409.6,103.1,404.6,103.1,399.9z"/>
	<path class="st3" d="M251.2,26.3V174h72.6c4.8,0,9.5-0.5,14.2-1.4s9.2-2.3,13.7-4.2c4.5-2,8.6-4.2,12.6-6.8c3.9-2.7,7.7-5.7,11-9.2
		s6.3-7.2,9-11.1c2.7-3.9,4.8-8.3,6.8-12.8c1.8-4.5,3.2-9.2,4.2-13.9c0.9-4.8,1.4-9.6,1.4-14.5c0-4.8-0.5-9.6-1.4-14.5
		c-0.9-4.8-2.3-9.3-4.2-13.9c-1.8-4.5-4.1-8.7-6.8-12.8c-2.7-3.9-5.7-7.8-9-11.1c-3.3-3.3-6.9-6.5-11-9.2c-3.9-2.7-8.1-5-12.6-6.8
		c-4.4-1.8-8.9-3.3-13.7-4.2c-4.7-0.9-9.3-1.4-14.2-1.4L251.2,26.3L251.2,26.3z"/>
	<path class="st2" d="M103.1,100.1c0,4.8,0.5,9.6,1.4,14.5c0.9,4.8,2.3,9.3,4.2,13.9c1.8,4.5,4.1,8.7,6.8,12.8s5.7,7.8,9,11.1
		c3.3,3.5,6.9,6.5,11,9.2c3.9,2.7,8.1,5,12.6,6.8c4.4,1.8,8.9,3.3,13.7,4.2c4.7,0.9,9.3,1.4,14.2,1.4h72.4V26.3h-72.7
		c-4.8,0-9.5,0.5-14.2,1.4s-9.2,2.3-13.7,4.2c-4.5,1.9-8.6,4.2-12.6,6.8c-3.9,2.7-7.7,5.7-11,9.2s-6.3,7.2-9,11.1s-4.8,8.3-6.8,12.8
		c-1.8,4.5-3.2,9.2-4.2,13.9C103.5,90.4,103.1,95.4,103.1,100.1z"/>
	<path class="st3" d="M103.1,250.8c0,4.8,0.5,9.6,1.4,14.5c0.9,4.8,2.3,9.3,4.2,13.9c1.8,4.5,4.1,8.7,6.8,12.8
		c2.7,3.9,5.7,7.8,9,11.1c3.3,3.5,6.9,6.5,11,9.2c3.9,2.7,8.1,5,12.6,6.8s8.9,3.3,13.7,4.2c4.7,0.9,9.3,1.4,14.2,1.4h72.4V177h-72.7
		c-4.8,0-9.5,0.5-14.2,1.4s-9.2,2.3-13.7,4.2c-4.4,1.8-8.6,4.2-12.6,6.8c-3.9,2.7-7.7,5.7-11,9.2s-6.3,7.2-9,11.1
		c-2.7,3.9-4.8,8.3-6.8,12.8c-1.8,4.5-3.2,9.2-4.2,13.9C103.5,241.1,103.1,245.9,103.1,250.8z"/>
</g>
</svg>
