<?xml version="1.0" encoding="utf-8"?>
<!-- Generator: Adobe Illustrator 28.1.0, SVG Export Plug-In . SVG Version: 6.00 Build 0)  -->
<svg version="1.1" id="Camada_1" xmlns="http://www.w3.org/2000/svg" xmlns:xlink="http://www.w3.org/1999/xlink" x="0px" y="0px"
	 viewBox="0 0 500 500" style="enable-background:new 0 0 500 500;" xml:space="preserve">
<style type="text/css">
	.st0{fill:url(#SVGID_1_);}
	.st1{fill:url(#SVGID_00000076568844043298278760000005531119207761421703_);}
	.st2{opacity:0.3;}
	.st3{opacity:0.8;fill:#121212;enable-background:new    ;}
	.st4{fill:#121212;}
</style>
<g>
	<linearGradient id="SVGID_1_" gradientUnits="userSpaceOnUse" x1="370.4944" y1="253.9805" x2="403.0905" y2="253.9805">
		<stop  offset="0" style="stop-color:#FA12E3"/>
		<stop  offset="0.4384" style="stop-color:#7312FA"/>
		<stop  offset="1" style="stop-color:#415CA7"/>
	</linearGradient>
	<polygon class="st0" points="377.8,261.9 392,261.9 384.9,246.1 	"/>
	
		<linearGradient id="SVGID_00000168799156380182706420000004077047505370495666_" gradientUnits="userSpaceOnUse" x1="-247.9783" y1="250" x2="880.3459" y2="250">
		<stop  offset="0" style="stop-color:#FA12E3"/>
		<stop  offset="0.4384" style="stop-color:#7312FA"/>
		<stop  offset="1" style="stop-color:#415CA7"/>
	</linearGradient>
	<path style="fill:url(#SVGID_00000168799156380182706420000004077047505370495666_);" d="M450.5,191.1c-8.3-27-9.5-60.1-8.6-85.7
		c1-26.6-19.9-51.1-47.9-51.1H106.2c-28.1,0-48.8,24.5-47.9,51.1c0.9,25.6-0.3,58.7-8.6,85.7c-8.4,27.1-22.5,44.2-45.7,46.4v24.9
		c23.1,2.2,37.3,19.3,45.7,46.4c8.3,27,9.5,60.1,8.6,85.7c-1,26.6,19.9,51.1,47.9,51.1H394c28.1,0,48.9-24.5,47.9-51.1
		c-0.9-25.6,0.3-58.7,8.6-85.7c8.4-27.1,22.5-44.2,45.6-46.4v-24.9C473,235.3,458.8,218.2,450.5,191.1z M125.3,229H94v12h27v18.2H94
		v30.2H75.8v-78.6h49.5V229z M155.3,289.3h-18.2V211h18.2V289.3z M209.2,290.5c-22.4,0-40.7-18.1-40.7-40.3
		c0-22.3,18.1-40.4,40.3-40.4c9.9,0,21,4.7,28.4,11.9l2.1,2L229.1,239l-3-3c-5-4.9-11.6-7.9-17.4-7.9c-10.5,0-21.8,8.9-21.8,22.1
		c0,12.3,10,22,22.8,22c9.2,0,16-4.6,17.6-11.6h-21.7v-17.3H246l0.3,3.1c0.2,1.4,0.3,3.6,0.3,5.9
		C246.6,274.5,230.9,290.5,209.2,290.5z M336.7,289.3h-18.2v-30.7l-18.2,29.5h-4l-18.2-29.5v30.7h-18.2v-79.8h6.2l32.2,48.9
		l32.2-48.9h6.2V289.3z M404.3,289.3l-4.9-10.8h-29.2l-4.9,10.8h-19.9l36.8-79.8h5.2l36.8,79.8H404.3z"/>
</g>
<g class="st2">
	<path class="st3" d="M250.9,249.5c0-3.2,0.3-6.4,0.9-9.6c0.6-3.2,1.5-6.2,2.8-9.2c1.2-3,2.7-5.8,4.5-8.5c1.8-2.6,3.8-5.2,6-7.4
		c2.2-2.2,4.6-4.3,7.3-6.1c2.6-1.8,5.4-3.3,8.4-4.5s5.9-2.2,9.1-2.8c3.1-0.6,6.2-0.9,9.4-0.9s6.3,0.3,9.4,0.9
		c3.1,0.6,6.1,1.5,9.1,2.8c2.9,1.2,5.7,2.8,8.4,4.5c2.6,1.8,5.1,3.8,7.3,6.1c2.2,2.3,4.2,4.8,6,7.4c1.8,2.6,3.2,5.5,4.5,8.5
		c1.2,3,2.1,6.1,2.8,9.2c0.6,3.2,0.9,6.4,0.9,9.6s-0.3,6.4-0.9,9.6c-0.6,3.2-1.5,6.2-2.8,9.2c-1.2,3-2.7,5.8-4.5,8.5
		c-1.8,2.6-3.8,5.2-6,7.4s-4.6,4.3-7.3,6.1c-2.6,1.8-5.4,3.3-8.4,4.5s-5.9,2.2-9.1,2.8c-3.1,0.6-6.2,0.9-9.4,0.9s-6.3-0.3-9.4-0.9
		s-6.1-1.5-9.1-2.8s-5.7-2.8-8.4-4.5c-2.6-1.8-5.1-3.8-7.3-6.1s-4.2-4.8-6-7.4c-1.8-2.7-3.2-5.5-4.5-8.5c-1.2-3-2.1-6.1-2.8-9.2
		C251.2,255.9,250.9,252.7,250.9,249.5z"/>
	<path class="st3" d="M152.5,349.6c0-3.2,0.3-6.4,0.9-9.6c0.6-3.2,1.5-6.2,2.8-9.2c1.2-3,2.7-5.8,4.5-8.5c1.8-2.6,3.8-5.2,6-7.4
		c2.2-2.3,4.6-4.3,7.3-6.1c2.6-1.8,5.4-3.3,8.4-4.5c2.9-1.2,5.9-2.2,9.1-2.8c3.1-0.6,6.2-0.9,9.4-0.9H249v49c0,3.2-0.3,6.4-0.9,9.6
		c-0.6,3.2-1.5,6.2-2.8,9.2c-1.2,3-2.7,5.8-4.5,8.5c-1.8,2.6-3.8,5.2-6,7.4c-2.2,2.3-4.6,4.3-7.3,6.1c-2.6,1.8-5.4,3.3-8.4,4.5
		c-2.9,1.2-5.9,2.2-9.1,2.8c-3.1,0.6-6.2,0.9-9.4,0.9s-6.3-0.3-9.4-0.9c-3.1-0.6-6.1-1.5-9.1-2.8c-2.9-1.2-5.7-2.8-8.4-4.5
		c-2.6-1.8-5.1-3.8-7.3-6.1c-2.2-2.3-4.2-4.8-6-7.4c-1.8-2.6-3.2-5.5-4.5-8.5c-1.2-3-2.1-6.1-2.8-9.2
		C152.8,356,152.5,352.7,152.5,349.6z"/>
	<path class="st4" d="M250.9,101.4v98.1h48.2c3.2,0,6.3-0.3,9.4-0.9s6.1-1.5,9.1-2.8s5.7-2.8,8.4-4.5c2.6-1.8,5.1-3.8,7.3-6.1
		c2.2-2.3,4.2-4.8,6-7.4c1.8-2.6,3.2-5.5,4.5-8.5c1.2-3,2.1-6.1,2.8-9.2c0.6-3.2,0.9-6.4,0.9-9.6s-0.3-6.4-0.9-9.6
		c-0.6-3.2-1.5-6.2-2.8-9.2c-1.2-3-2.7-5.8-4.5-8.5c-1.8-2.6-3.8-5.2-6-7.4c-2.2-2.2-4.6-4.3-7.3-6.1c-2.6-1.8-5.4-3.3-8.4-4.5
		c-2.9-1.2-5.9-2.2-9.1-2.8c-3.1-0.6-6.2-0.9-9.4-0.9L250.9,101.4L250.9,101.4z"/>
	<path class="st3" d="M152.5,150.4c0,3.2,0.3,6.4,0.9,9.6c0.6,3.2,1.5,6.2,2.8,9.2c1.2,3,2.7,5.8,4.5,8.5s3.8,5.2,6,7.4
		c2.2,2.3,4.6,4.3,7.3,6.1c2.6,1.8,5.4,3.3,8.4,4.5c2.9,1.2,5.9,2.2,9.1,2.8c3.1,0.6,6.2,0.9,9.4,0.9H249v-98h-48.3
		c-3.2,0-6.3,0.3-9.4,0.9c-3.1,0.6-6.1,1.5-9.1,2.8s-5.7,2.8-8.4,4.5c-2.6,1.8-5.1,3.8-7.3,6.1s-4.2,4.8-6,7.4
		c-1.8,2.6-3.2,5.5-4.5,8.5c-1.2,3-2.1,6.1-2.8,9.2C152.8,144,152.5,147.3,152.5,150.4z"/>
	<path class="st4" d="M152.5,250.5c0,3.2,0.3,6.4,0.9,9.6c0.6,3.2,1.5,6.2,2.8,9.2c1.2,3,2.7,5.8,4.5,8.5c1.8,2.6,3.8,5.2,6,7.4
		c2.2,2.3,4.6,4.3,7.3,6.1c2.6,1.8,5.4,3.3,8.4,4.5s5.9,2.2,9.1,2.8c3.1,0.6,6.2,0.9,9.4,0.9H249v-98h-48.3c-3.2,0-6.3,0.3-9.4,0.9
		c-3.1,0.6-6.1,1.5-9.1,2.8c-2.9,1.2-5.7,2.8-8.4,4.5c-2.6,1.8-5.1,3.8-7.3,6.1c-2.2,2.3-4.2,4.8-6,7.4c-1.8,2.6-3.2,5.5-4.5,8.5
		c-1.2,3-2.1,6.1-2.8,9.2C152.8,244.1,152.5,247.3,152.5,250.5z"/>
</g>
</svg>
