<svg width="500" height="500" viewBox="0 0 500 500" fill="none" xmlns="http://www.w3.org/2000/svg">
<path opacity="0.78" d="M251.199 249.2C251.199 244.4 251.699 239.6 252.599 234.7C253.499 229.9 254.899 225.4 256.799 220.8C258.599 216.3 260.899 212.1 263.599 208C266.299 204.1 269.299 200.2 272.599 196.9C275.899 193.6 279.499 190.4 283.599 187.7C287.499 185 291.699 182.7 296.199 180.9C300.699 179.1 305.099 177.6 309.899 176.7C314.599 175.8 319.199 175.3 324.099 175.3C328.999 175.3 333.599 175.8 338.299 176.7C342.999 177.6 347.499 179 351.999 180.9C356.399 182.7 360.599 185.1 364.599 187.7C368.499 190.4 372.299 193.4 375.599 196.9C378.899 200.4 381.899 204.1 384.599 208C387.299 211.9 389.399 216.3 391.399 220.8C393.199 225.3 394.599 230 395.599 234.7C396.499 239.5 396.999 244.3 396.999 249.2C396.999 254 396.499 258.8 395.599 263.7C394.699 268.6 393.299 273 391.399 277.6C389.599 282.1 387.299 286.3 384.599 290.4C381.899 294.3 378.899 298.2 375.599 301.5C372.299 304.8 368.699 308 364.599 310.7C360.699 313.4 356.499 315.7 351.999 317.5C347.499 319.3 343.099 320.8 338.299 321.7C333.599 322.6 328.999 323.1 324.099 323.1C319.199 323.1 314.599 322.6 309.899 321.7C305.199 320.8 300.699 319.4 296.199 317.5C291.699 315.5 287.599 313.3 283.599 310.7C279.699 308 275.899 305 272.599 301.5C269.299 298 266.299 294.3 263.599 290.4C260.899 286.3 258.799 282.1 256.799 277.6C254.999 273.1 253.599 268.4 252.599 263.7C251.699 258.9 251.199 254.1 251.199 249.2Z" fill="#FEF5F5"/>
<path opacity="0.78" d="M103.1 399.9C103.1 395.1 103.6 390.3 104.5 385.4C105.4 380.6 106.8 376.1 108.7 371.5C110.5 367 112.8 362.8 115.5 358.7C118.2 354.8 121.2 350.9 124.5 347.6C127.8 344.1 131.4 341.1 135.5 338.4C139.4 335.7 143.6 333.4 148.1 331.6C152.5 329.8 157 328.3 161.8 327.4C166.5 326.5 171.1 326 176 326H248.4V399.8C248.4 404.6 247.9 409.4 247 414.3C246.1 419.1 244.7 423.6 242.8 428.2C241 432.7 238.7 436.9 236 441C233.3 444.9 230.3 448.8 227 452.1C223.7 455.6 220.1 458.6 216 461.3C212.1 464 207.9 466.3 203.4 468.1C199 469.9 194.5 471.4 189.7 472.3C185 473.2 180.4 473.7 175.5 473.7C170.6 473.7 166 473.2 161.3 472.3C156.6 471.4 152.1 470 147.6 468.1C143.2 466.3 139 463.9 135 461.3C131.1 458.6 127.3 455.6 124 452.1C120.7 448.6 117.7 444.9 115 441C112.3 437.1 110.2 432.7 108.2 428.2C106.4 423.7 105 419 104 414.3C103.5 409.6 103.1 404.6 103.1 399.9Z" fill="#FEF5F5"/>
<path d="M251.199 26.3002V174H323.799C328.599 174 333.299 173.5 337.999 172.6C342.699 171.7 347.199 170.3 351.699 168.4C356.199 166.4 360.299 164.2 364.299 161.6C368.199 158.9 371.999 155.9 375.299 152.4C378.599 148.9 381.599 145.2 384.299 141.3C386.999 137.4 389.099 133 391.099 128.5C392.899 124 394.299 119.3 395.299 114.6C396.199 109.8 396.699 105 396.699 100.1C396.699 95.3002 396.199 90.5002 395.299 85.6002C394.399 80.8002 392.999 76.3002 391.099 71.7002C389.299 67.2002 386.999 63.0002 384.299 58.9002C381.599 55.0002 378.599 51.1002 375.299 47.8002C371.999 44.5002 368.399 41.3002 364.299 38.6002C360.399 35.9002 356.199 33.6002 351.699 31.8002C347.299 30.0002 342.799 28.5002 337.999 27.6002C333.299 26.7002 328.699 26.2002 323.799 26.2002L251.199 26.3002Z" fill="#FEF5F5"/>
<path opacity="0.78" d="M103.1 100.1C103.1 104.9 103.6 109.7 104.5 114.6C105.4 119.4 106.8 123.9 108.7 128.5C110.5 133 112.8 137.2 115.5 141.3C118.2 145.4 121.2 149.1 124.5 152.4C127.8 155.9 131.4 158.9 135.5 161.6C139.4 164.3 143.6 166.6 148.1 168.4C152.5 170.2 157 171.7 161.8 172.6C166.5 173.5 171.1 174 176 174H248.4V26.3003H175.7C170.9 26.3003 166.2 26.8003 161.5 27.7003C156.8 28.6003 152.3 30.0003 147.8 31.9003C143.3 33.8003 139.2 36.1003 135.2 38.7003C131.3 41.4003 127.5 44.4003 124.2 47.9003C120.9 51.4003 117.9 55.1003 115.2 59.0003C112.5 62.9003 110.4 67.3003 108.4 71.8003C106.6 76.3003 105.2 81.0003 104.2 85.7003C103.5 90.4003 103.1 95.4003 103.1 100.1Z" fill="#FEF5F5"/>
<path d="M103.1 250.8C103.1 255.6 103.6 260.4 104.5 265.3C105.4 270.1 106.8 274.6 108.7 279.2C110.5 283.7 112.8 287.9 115.5 292C118.2 295.9 121.2 299.8 124.5 303.1C127.8 306.6 131.4 309.6 135.5 312.3C139.4 315 143.6 317.3 148.1 319.1C152.6 320.9 157 322.4 161.8 323.3C166.5 324.2 171.1 324.7 176 324.7H248.4V177H175.7C170.9 177 166.2 177.5 161.5 178.4C156.8 179.3 152.3 180.7 147.8 182.6C143.4 184.4 139.2 186.8 135.2 189.4C131.3 192.1 127.5 195.1 124.2 198.6C120.9 202.1 117.9 205.8 115.2 209.7C112.5 213.6 110.4 218 108.4 222.5C106.6 227 105.2 231.7 104.2 236.4C103.5 241.1 103.1 245.9 103.1 250.8Z" fill="#FEF5F5"/>
</svg>
