<svg width="500" height="500" viewBox="0 0 500 500" fill="none" xmlns="http://www.w3.org/2000/svg">
<path d="M160.4 99.8C151.9 120 155.9 144.1 172.3 160.6C177.6 165.9 184 170 190.5 172.7V371.9C183.9 374.6 177.6 378.7 172.3 384C150.5 405.8 150.5 440.9 172.3 462.7C194.1 484.5 229.2 484.5 251 462.7C272.8 440.9 272.8 405.8 251 384C246.6 379.6 241.6 376.2 236.3 373.5V176.2L311.4 251.3C303.2 271.5 307.2 295.5 323.5 311.8C345.3 333.6 380.4 333.6 402.2 311.8C424 290 424 254.9 402.2 233.1C386.7 217.6 364.3 213.2 344.8 219.8L264.4 139.4C271 119.9 266.7 97.5 251.1 82C235.7 66.6 213.4 62.2 194.1 68.7L146.2 21H81.5996L160.4 99.8Z" fill="#FEF5F5"/>
</svg>
