<?xml version="1.0" encoding="utf-8"?>
<!-- Generator: Adobe Illustrator 28.1.0, SVG Export Plug-In . SVG Version: 6.00 Build 0)  -->
<svg version="1.1" id="Camada_1" xmlns="http://www.w3.org/2000/svg" xmlns:xlink="http://www.w3.org/1999/xlink" x="0px" y="0px"
	 viewBox="0 0 500 500" style="enable-background:new 0 0 500 500;" xml:space="preserve">
<style type="text/css">
	.st0{fill:url(#SVGID_1_);}
	.st1{fill:url(#SVGID_00000137099716489428555130000011810311946138100890_);}
</style>
<linearGradient id="SVGID_1_" gradientUnits="userSpaceOnUse" x1="-768.04" y1="230.69" x2="-275.94" y2="230.69" gradientTransform="matrix(1 0 0 -1 0 499)">
	<stop  offset="0" style="stop-color:#FA12E3"/>
	<stop  offset="0.5362" style="stop-color:#7312FA"/>
	<stop  offset="1" style="stop-color:#415CA7"/>
</linearGradient>
<path class="st0" d="M-321.6,209.5c-8.3-27-9.5-60.1-8.6-85.7c1-26.6-19.9-51.1-47.9-51.1h-287.7c-28.2,0-48.8,24.5-48,51.1
	c0.9,25.6-0.3,58.7-8.6,85.7c-8.4,27.1-22.4,44.2-45.6,46.4v24.9c23.1,2.2,37.3,19.3,45.7,46.4c8.3,27,9.5,60.1,8.6,85.7
	c-1,26.6,19.9,51.1,47.9,51.1H-378c28.1,0,48.9-24.5,47.9-51.1c-0.9-25.6,0.3-58.7,8.6-85.7c8.4-27.1,22.5-44.2,45.6-46.4v-24.9
	C-299,253.7-313.3,236.6-321.6,209.5z M-587.6,330.8c-33.7,0-61.1-27.1-61.1-60.5c0-33.5,27.2-60.7,60.5-60.7
	c14.8,0.1,31.6,7.1,42.7,17.9l2.4,2.3l-14.1,21l-3.4-3.4c-7.9-7.8-18.5-12.6-27.7-12.6c-16.8,0-34.9,14.2-34.9,35.4
	c0,19.7,16,35.1,36.4,35.1c15.5,0,26.8-8.3,28.7-20.5h-33.7v-23.6h59.4l0.4,3.6c0.2,2.1,0.5,5.4,0.5,9
	C-531.5,306.8-555.1,330.8-587.6,330.8z M-491.5,329h-25.2V211.4h25.2V329z M-394.9,236.5h-29.4V329h-25.3v-92.5h-29.2v-25.1h84
	v25.1H-394.9z"/>
<linearGradient id="SVGID_00000095300475688481924410000016626285757264567703_" gradientUnits="userSpaceOnUse" x1="81.5963" y1="250" x2="418.4037" y2="250">
	<stop  offset="0" style="stop-color:#FA12E3"/>
	<stop  offset="0.5362" style="stop-color:#7312FA"/>
	<stop  offset="1" style="stop-color:#415CA7"/>
</linearGradient>
<path style="fill:url(#SVGID_00000095300475688481924410000016626285757264567703_);" d="M160.4,99.8c-8.5,20.2-4.5,44.3,11.9,60.8
	c5.3,5.3,11.7,9.4,18.2,12.1v199.2c-6.6,2.7-12.9,6.8-18.2,12.1c-21.8,21.8-21.8,56.9,0,78.7c21.8,21.8,56.9,21.8,78.7,0
	c21.8-21.8,21.8-56.9,0-78.7c-4.4-4.4-9.4-7.8-14.7-10.5V176.2l75.1,75.1c-8.2,20.2-4.2,44.2,12.1,60.5c21.8,21.8,56.9,21.8,78.7,0
	c21.8-21.8,21.8-56.9,0-78.7c-15.5-15.5-37.9-19.9-57.4-13.3l-80.4-80.4c6.6-19.5,2.3-41.9-13.3-57.4c-15.4-15.4-37.7-19.8-57-13.3
	L146.2,21H81.6L160.4,99.8z"/>
</svg>
