<?xml version="1.0" encoding="utf-8"?>
<!-- Generator: Adobe Illustrator 28.1.0, SVG Export Plug-In . SVG Version: 6.00 Build 0)  -->
<svg version="1.1" id="Camada_2_00000012453638212752177840000010754816053301869206_"
	 xmlns="http://www.w3.org/2000/svg" xmlns:xlink="http://www.w3.org/1999/xlink" x="0px" y="0px" viewBox="0 0 500 500"
	 style="enable-background:new 0 0 500 500;" xml:space="preserve">
<style type="text/css">
	.st0{fill:url(#SVGID_1_);}
	.st1{fill:url(#SVGID_00000117656481879649125000000011715218949942645399_);}
	.st2{fill:#121212;}
</style>
<g>
	
		<linearGradient id="SVGID_1_" gradientUnits="userSpaceOnUse" x1="-435.6556" y1="924.15" x2="-377.0066" y2="924.15" gradientTransform="matrix(1 0 0 -1 0 1167)">
		<stop  offset="0" style="stop-color:#FA12E3"/>
		<stop  offset="0.54" style="stop-color:#7312FA"/>
		<stop  offset="1" style="stop-color:#415CA7"/>
	</linearGradient>
	<path class="st0" d="M-412.6,235.3h-7.2v15.1h7.2c2.2,0,4.4-0.9,5.9-2.4s2.3-3.3,2.3-5.2C-404.4,238.6-408,235.3-412.6,235.3z"/>
	
		<linearGradient id="SVGID_00000183933187218378004370000018251428678937172650_" gradientUnits="userSpaceOnUse" x1="-594.3" y1="911.35" x2="-102.2" y2="911.35" gradientTransform="matrix(1 0 0 -1 0 1167)">
		<stop  offset="0" style="stop-color:#FA12E3"/>
		<stop  offset="0.54" style="stop-color:#7312FA"/>
		<stop  offset="1" style="stop-color:#415CA7"/>
	</linearGradient>
	<path style="fill:url(#SVGID_00000183933187218378004370000018251428678937172650_);" d="M-147.8,196.8c-8.3-27-9.5-60.1-8.6-85.7
		c1-26.6-19.9-51.1-47.9-51.1h-287.8c-28.1,0-48.8,24.5-47.9,51.1c0.9,25.6-0.3,58.7-8.6,85.7c-8.4,27.1-22.5,44.2-45.7,46.4v24.9
		c23.1,2.2,37.3,19.3,45.7,46.4c8.3,27,9.5,60.1,8.6,85.7c-1,26.6,19.9,51.1,47.9,51.1h287.8c28.1,0,48.9-24.5,47.9-51.1
		c-0.9-25.6,0.3-58.7,8.6-85.7c8.4-27.1,22.5-44.2,45.6-46.4v-24.9C-125.3,241-139.5,223.9-147.8,196.8z M-487.1,296.4
		c-22.6,0-41-18.2-41-40.5c0-22.4,18.2-40.7,40.6-40.7c9.9,0,21.2,4.8,28.6,12l2.4,2.3l-10.8,16l-3.4-3.4
		c-4.8-4.8-11.3-7.7-16.9-7.7c-10.2,0-21.1,8.6-21.1,21.5c0,12.1,9.5,21.3,22.1,21.3c8.6,0,15-4.1,16.8-10.4h-21.4v-18.2h41.1
		l0.4,3.6c0.2,1.4,0.3,3.6,0.3,6C-449.3,280.2-465.2,296.4-487.1,296.4z M-398.1,295.1l-19.1-27.4h-2.6v27.4h-19.1v-78.9h26
		c15.4,0,28,12,28,26.8c0,8.8-4.7,16.9-11.9,21.3l22.4,30.8H-398.1z M-312.8,264.2c0,18.3-13.2,32.2-30.8,32.2
		c-17.5,0-30.8-13.8-30.8-32.2v-48h19.2v48c0,7.4,5,13,11.5,13c6.6,0,11.6-5.6,11.6-13v-48h19.2L-312.8,264.2L-312.8,264.2z
		 M-234.8,296.4h-6.3l-39.6-41.3v40.2h-19.1V215h6.3l39.5,41.3v-40.2h19.2L-234.8,296.4L-234.8,296.4z M-168.6,235.3h-19v59.8h-19.2
		v-59.8h-19v-19h57.1v19H-168.6L-168.6,235.3z"/>
</g>
<path class="st2" d="M271.6,5c-28.3,10.1-35.3,25.1-37.4,39c-7.3-5.2-6.4-22.1-6.9-26.4c-7.2,0.8-27.9,20.9-26.9,46.1
	c-2,0.5-3.8,1-5.7,1.7c-6.1-8.4-24.1-30.1-47.3-37.6c-7.5-2.2-15.3-3.4-22.9-3.5c-27.8,0-44.1,16.5-44.3,16.8l-7.7,9L84,52.4
	c0.2,0,19.7,4,27.8,16.9c1.4,2.2,1.7,6.4,2.2,10.7c0.2,2.7-0.3,5.3-0.8,7.8c-0.3,1.8-0.8,3.7-0.8,5.7c-7.3,0.3-13.6,1.8-18.8,4.3
	C86.9,101,82,107.1,80,114.1c-4.9,17.4,10.7,36.8,11.3,37.4c1.8,3.4,2.5,26.6-1.7,35.9c-0.5,1.4-2.2,2.5-4.1,4.1
	c-0.6,0.5-1.4,1-2.2,1.7c-5.8,4.3-14.7,11.2-14.7,26.6c0,21.2,21.4,32.7,38.6,41.8c2.9,1.5,5.5,3,8.1,4.3
	c2.5,1.5,11.7,10.9,11.7,25.1c0,6.6-0.6,38-3.5,59.7c-11-9.5-21.2-24.7-23.5-42c0,0-27.9,21.6-19.7,67.7c5,28.3,22.3,44.1,45,52.4
	c8.4,18.2,28.1,43.8,64.4,47.5c13.7,11.3,33,18.6,60.9,18.6h0.2c27.9,0,47-7.3,60.9-18.6c36.3-3.7,56-29.3,64.4-47.5
	c22.8-8.4,40-24.1,45-52.4c7.8-46.3-20.2-68-20.2-68c-2.3,17.1-12.4,32.2-23.5,41.8c-3-21.7-3.5-53.2-3.5-59.7
	c0-14.1,9-23.4,11.7-24.9c2.3-1.5,5.2-2.9,7.8-4.3c17.2-9.2,38.6-20.6,38.6-41.8c0-15.6-8.9-22.3-14.7-26.6c-0.6-0.5-1.5-1-2.2-1.7
	c-2-1.7-3.5-2.9-4.1-4.1c-4.1-9.3-3.5-32.8-1.7-35.9c0.5-0.5,16-20,11.3-37.4c-2-7.2-6.9-13-13.6-16.2c-5-2.5-11.3-4-18.8-4.3
	c-0.2-1.8-0.3-3.8-0.8-5.7c-0.6-2.5-1-5.2-0.8-7.7c0.3-4.6,0.8-8.7,2.2-10.9c8.1-12.7,27.6-16.9,27.8-16.9l11.7-2.3l-7.7-9
	c-0.2-0.2-16.5-16.8-44.3-16.8c-7.5,0-15.3,1.4-23.1,3.7c-23.1,7.5-41.1,29.2-47.3,37.6c-3-1-6-1.8-9.2-2.5
	c-4-15.1,8.7-36.8,8.7-36.8s-13-2.9-32.2,14.5C270.9,34.3,265.5,20.9,271.6,5L271.6,5z M124.7,38.6c5.8,0,11.6,0.8,16.9,2.5
	c17.1,5.5,30.3,22.3,36.2,30.7c-1.5,0.6-3,1.4-4.7,2c-2.3,1.2-4.7,2.3-6.9,3.5c-2.5-5.2-8.1-13-19.9-21.4
	c-8.1-5.7-17.7-8.5-27.6-8.5c-2.9,0.2-5.8,0.3-8.7,0.8c-3-2-6-3.7-9.2-5C108.5,40.3,116.6,38.7,124.7,38.6z M376.3,38.6
	c10.5,0,19.1,2.9,23.5,4.9c-3,1.4-6.1,3-9.2,5c-2.9-0.5-5.8-0.6-8.9-0.8c-10.1,0-19.6,3-27.5,8.5c-11.7,8.4-17.2,16.2-19.7,21.4
	c-2.2-1.4-4.6-2.5-6.9-3.5c-1.5-0.8-3-1.5-4.6-2.2c5.8-8.7,19.1-25.2,36.2-30.7C364.5,39.6,370.5,38.6,376.3,38.6L376.3,38.6z
	 M379.3,58.6c-0.8,1-1.5,2-2.2,3c-3.2,5-3.7,11.2-4.1,17.1c-0.5,6.1-1,11.9-4.1,16.2c-3.7,0.6-7.3,1.5-11,2.7
	c-3-4-6.4-7.5-10.1-10.7c1.4-4.7,5.3-15.4,12.8-21.6C365.9,61.2,372.3,58.9,379.3,58.6z M121.6,58.6c7,0.3,13.4,2.5,18.8,6.7
	c7.7,6,11.6,16.9,12.8,21.4c-3.8,3.2-7.2,6.7-10.1,10.7c-3.7-1-7.3-1.8-11-2.7c-3.2-4.1-3.7-10.1-4-16c-0.5-6-1.2-12.1-4.1-17.1
	C123,60.7,122.4,59.7,121.6,58.6z M250.5,73.7c26.7,0,50.7,5,71,15.3c13.6,6.6,18.8,11.7,20.6,14.4c-32.7,14.4-50.7,44.1-50.9,44.5
	l-3.4,5.5l5.3-3.7c0,0,0.2-0.2,0.3-0.3c8.4-6.6,37.3-28.6,61.4-36.2c6.7-2.2,19.7-5.7,31.5-5.7c6,0,10.7,1,14.4,2.9
	c3.2,1.5,5.5,4.1,6.4,7.3c2.3,8.7-5.8,21.7-9,25.4c-0.5,0.6-1,1.4-1.4,2.2c-0.3-4.6-0.5-9.2-0.3-13.7c-3.8,8.4-6.1,30.1-4.9,41.1
	c3.5,28.1,15.1,42.3,15.1,42.3c-0.8-1.5-1.7-7.3-2.5-14.2l2.2,1.7l0.5,0.3c4.3,3.5,8.5,6.9,8.5,17.4c0,13.6-14.7,21.6-28.9,29.2
	c-2.9,1.5-5.5,3-8.1,4.3c-8.4,4.9-17.2,16-18.2,32.8c-0.8,14.1,0.8,47.8,3.4,72.7c-11.9,4.7-25.5,6.1-38,6.6c-2-4-3.8-8.2-5.2-12.5
	c-0.6-2-18.8-49-25.2-59.6c5.3,37.3,16.8,70.6,22.6,85.8c-3.7-0.5-7.5-0.6-11.2-0.6h-112c-4.1,0-7.8,0.3-11.2,0.6
	c5.7-15.3,17.4-48.6,22.6-85.8c-6.6,10.7-24.6,57.7-25.2,59.6c-1.5,4.3-3.4,8.5-5.3,12.5c-12.4-0.3-26.1-1.8-38-6.6
	c2.3-24.9,4.1-58.5,3.4-72.7c-0.8-16.8-9.9-27.9-18.2-32.8c-2.5-1.5-5.3-3-8.1-4.3c-14.2-7.7-28.9-15.6-28.9-29.2
	c0-10.5,4.1-14.1,8.5-17.4l0.5-0.3c0.6-0.5,1.4-1.2,2.2-1.7c-0.8,6.9-1.8,12.7-2.5,14.2c0,0,11.6-14.4,15.1-42.3
	c1.4-11-1-32.8-4.9-41.1c0.2,4.7,0,9.3-0.2,13.7c-0.3-0.6-0.8-1.5-1.4-2.2c-3-3.8-11.2-16.8-9-25.4c0.8-3.4,3-5.7,6.4-7.3
	c3.7-1.8,8.4-2.9,14.4-2.9c11.7,0,24.7,3.5,31.5,5.7c24.1,7.7,53,29.6,61.4,36.2c0.2,0.2,0.3,0.2,0.3,0.3l5.3,3.7l-3.4-5.5
	c-0.2-0.3-18.2-30.1-50.9-44.5c2-2.7,7.2-7.7,20.8-14.4C199.8,78.8,224,73.7,250.5,73.7L250.5,73.7z M224.3,167.7
	c0,0,13.9,16.9,26.1,17.1h0.2c12.2-0.2,26.1-17.1,26.1-17.1c-9.3,5.7-18,7.7-26.1,7.8C241.1,175.4,232.1,172.7,224.3,167.7z
	 M134,169c-4.7,0.2-9.5,0.6-14.5,2c4,1,8.5,2.3,12.8,4c-4,2-6.1,6.9-6.7,11.3c-1,9.5,5,18.2,5,18.2c0.6-7.2,2-12.2,3.8-15.9
	c0.3,9.9,3,22.6,12.2,32.7c6.6,7.3,34.1,22.3,52.5,5.8c1,2.3,2,5,2.9,8.1c2.9,9.9-2.7,24.3-2.7,24.3s14.4-16.4,13.3-31.1
	c10.4-0.5,20.6-8.1,20.2-18.8c0,0-18,10.1-33.9-8.4C190.7,192,166.7,168.3,134,169L134,169z M367.1,169.2
	c-33-0.8-56.7,22.9-64.9,32.4c-16,18.4-33.9,8.4-33.9,8.4c-0.2,10.4,10.1,18,20.2,18.4c-1.2,14.8,13.3,31.1,13.3,31.1
	s-5.3-14.4-2.5-24.3c0.8-3,1.8-5.8,2.9-8.2c18.4,16.5,46,1.5,52.5-5.8c9.2-10.2,11.7-22.8,12.2-32.7c1.7,3.7,3.4,8.7,3.8,15.9
	c0,0,6.1-8.7,5-18.2c-0.5-4.9-2.9-9.5-6.7-11.3h-0.2c4.3-1.7,8.9-3,12.8-4C377,169.9,372,169.2,367.1,169.2L367.1,169.2z
	 M152.5,184.6c18.8,10.5,35.8,24.6,42.9,35.4c-5.5,3.2-20.8,10.1-36.5-1.7C149.1,211,149.7,193.3,152.5,184.6L152.5,184.6z
	 M348.3,184.6c2.9,8.7,3.4,26.6-6.7,33.9c-15.6,11.6-30.7,4.9-36.3,1.5C312.7,209,329.8,195.2,348.3,184.6z M96.4,335.8
	c10.4,33,45.2,42.3,71.2,43.5c-2.2,3.4-4.3,6.6-6.7,9.5l-1.4,1.4c-6.9,7.5-8.2,17.7-4,30.4c-21.7-0.2-44.3-9.3-55.7-28.3
	C88.5,373.3,91.7,340.6,96.4,335.8L96.4,335.8z M404.5,335.8c4.9,4.9,8.1,37.4-3.7,56.5c-11.6,18.9-34.1,28.1-55.7,28.4
	c4.3-12.7,3-23.1-4-30.4c-0.3-0.5-0.8-1-1.4-1.5c-2.3-3.2-4.6-6.4-6.7-9.5C359.4,378.1,394.2,368.7,404.5,335.8z M193.7,391h113.8
	c14.4,0,20.9,3.7,23.5,6.9c4,4.7,4.3,12.1,0.8,22.1c-6.4,18-23.2,61.9-81.3,61.9c-58-0.2-75-43.8-81.3-61.9
	c-3.5-10.1-3.2-17.4,0.8-22.1C172.9,394.7,179.1,391,193.7,391z M281.3,405.5c-4,0-6.9,0.8-8.5,2.5c-2.2,2.2-1.4,5-0.8,6.4
	c1,2.5,5.2,10.9,12.4,18.4c2.7,2.9,6.6,4.3,10.5,4.3c4.1,0,8.4-1.5,11.3-4c2.2-2,9.8-8.9,13-17.4c1.2-3.2,1-5.7-0.8-7.5
	c-1.2-1.4-3.8-2.9-9-2.9h-28.1V405.5L281.3,405.5z M191.6,405.7c-5.3,0-7.8,1.5-9,2.7c-1.8,2-2,4.6-0.8,7.7
	c3.4,8.7,10.9,15.9,13,17.9c3,2.5,7.2,4,11.2,4s7.8-1.5,10.5-4.3c7.2-7.8,11.3-16.4,12.4-18.9c0.5-1.5,1.2-4.1-0.8-6.6
	c-1.7-1.7-4.6-2.5-8.4-2.5L191.6,405.7L191.6,405.7z M143.8,433.9c5.7,1,11.7,1.8,17.7,2.3c3.4,7.7,7,15.3,11.7,22.1
	C161.3,453.3,151,444.9,143.8,433.9L143.8,433.9z M357.2,433.9c-6.1,9-15.7,18.8-29.6,24.4c4.7-6.9,8.5-14.4,11.7-22.1
	C345.5,435.8,351.4,435,357.2,433.9L357.2,433.9z"/>
</svg>
