<svg width="500" height="500" viewBox="0 0 500 500" fill="none" xmlns="http://www.w3.org/2000/svg">
<g clip-path="url(#clip0_4003_222)">
<path d="M271.6 5C243.3 15.1 236.3 30.1 234.2 44C226.9 38.8 227.8 21.9 227.3 17.6C220.1 18.4 199.4 38.5 200.4 63.7C198.4 64.2 196.6 64.7 194.7 65.4C188.6 57 170.6 35.3 147.4 27.8C139.9 25.6 132.1 24.4 124.5 24.3C96.6996 24.3 80.3996 40.8 80.1996 41.1L72.4996 50.1L83.9996 52.4C84.1996 52.4 103.7 56.4 111.8 69.3C113.2 71.5 113.5 75.7 114 80C114.2 82.7 113.7 85.3 113.2 87.8C112.9 89.6 112.4 91.5 112.4 93.5C105.1 93.8 98.7996 95.3 93.5996 97.8C86.8996 101 81.9996 107.1 79.9996 114.1C75.0996 131.5 90.6996 150.9 91.2996 151.5C93.0996 154.9 93.7996 178.1 89.5996 187.4C89.0996 188.8 87.3996 189.9 85.4996 191.5C84.8996 192 84.0996 192.5 83.2996 193.2C77.4996 197.5 68.5996 204.4 68.5996 219.8C68.5996 241 89.9996 252.5 107.2 261.6C110.1 263.1 112.7 264.6 115.3 265.9C117.8 267.4 127 276.8 127 291C127 297.6 126.4 329 123.5 350.7C112.5 341.2 102.3 326 99.9996 308.7C99.9996 308.7 72.0996 330.3 80.2996 376.4C85.2996 404.7 102.6 420.5 125.3 428.8C133.7 447 153.4 472.6 189.7 476.3C203.4 487.6 222.7 494.9 250.6 494.9H250.8C278.7 494.9 297.8 487.6 311.7 476.3C348 472.6 367.7 447 376.1 428.8C398.9 420.4 416.1 404.7 421.1 376.4C428.9 330.1 400.9 308.4 400.9 308.4C398.6 325.5 388.5 340.6 377.4 350.2C374.4 328.5 373.9 297 373.9 290.5C373.9 276.4 382.9 267.1 385.6 265.6C387.9 264.1 390.8 262.7 393.4 261.3C410.6 252.1 432 240.7 432 219.5C432 203.9 423.1 197.2 417.3 192.9C416.7 192.4 415.8 191.9 415.1 191.2C413.1 189.5 411.6 188.3 411 187.1C406.9 177.8 407.5 154.3 409.3 151.2C409.8 150.7 425.3 131.2 420.6 113.8C418.6 106.6 413.7 100.8 407 97.6C402 95.1 395.7 93.6 388.2 93.3C388 91.5 387.9 89.5 387.4 87.6C386.8 85.1 386.4 82.4 386.6 79.9C386.9 75.3 387.4 71.2 388.8 69C396.9 56.3 416.4 52.1 416.6 52.1L428.3 49.8L420.6 40.8C420.4 40.6 404.1 24 376.3 24C368.8 24 361 25.4 353.2 27.7C330.1 35.2 312.1 56.9 305.9 65.3C302.9 64.3 299.9 63.5 296.7 62.8C292.7 47.7 305.4 26 305.4 26C305.4 26 292.4 23.1 273.2 40.5C270.9 34.3 265.5 20.9 271.6 5ZM124.7 38.6C130.5 38.6 136.3 39.4 141.6 41.1C158.7 46.6 171.9 63.4 177.8 71.8C176.3 72.4 174.8 73.2 173.1 73.8C170.8 75 168.4 76.1 166.2 77.3C163.7 72.1 158.1 64.3 146.3 55.9C138.2 50.2 128.6 47.4 118.7 47.4C115.8 47.6 112.9 47.7 110 48.2C107 46.2 104 44.5 100.8 43.2C108.5 40.3 116.6 38.7 124.7 38.6ZM376.3 38.6C386.8 38.6 395.4 41.5 399.8 43.5C396.8 44.9 393.7 46.5 390.6 48.5C387.7 48 384.8 47.9 381.7 47.7C371.6 47.7 362.1 50.7 354.2 56.2C342.5 64.6 337 72.4 334.5 77.6C332.3 76.2 329.9 75.1 327.6 74.1C326.1 73.3 324.6 72.6 323 71.9C328.8 63.2 342.1 46.7 359.2 41.2C364.5 39.6 370.5 38.6 376.3 38.6ZM379.3 58.6C378.5 59.6 377.8 60.6 377.1 61.6C373.9 66.6 373.4 72.8 373 78.7C372.5 84.8 372 90.6 368.9 94.9C365.2 95.5 361.6 96.4 357.9 97.6C354.9 93.6 351.5 90.1 347.8 86.9C349.2 82.2 353.1 71.5 360.6 65.3C365.9 61.2 372.3 58.9 379.3 58.6ZM121.6 58.6C128.6 58.9 135 61.1 140.4 65.3C148.1 71.3 152 82.2 153.2 86.7C149.4 89.9 146 93.4 143.1 97.4C139.4 96.4 135.8 95.6 132.1 94.7C128.9 90.6 128.4 84.6 128.1 78.7C127.6 72.7 126.9 66.6 124 61.6C123 60.7 122.4 59.7 121.6 58.6ZM250.5 73.7C277.2 73.7 301.2 78.7 321.5 89C335.1 95.6 340.3 100.7 342.1 103.4C309.4 117.8 291.4 147.5 291.2 147.9L287.8 153.4L293.1 149.7C293.1 149.7 293.3 149.5 293.4 149.4C301.8 142.8 330.7 120.8 354.8 113.2C361.5 111 374.5 107.5 386.3 107.5C392.3 107.5 397 108.5 400.7 110.4C403.9 111.9 406.2 114.5 407.1 117.7C409.4 126.4 401.3 139.4 398.1 143.1C397.6 143.7 397.1 144.5 396.7 145.3C396.4 140.7 396.2 136.1 396.4 131.6C392.6 140 390.3 161.7 391.5 172.7C395 200.8 406.6 215 406.6 215C405.8 213.5 404.9 207.7 404.1 200.8L406.3 202.5L406.8 202.8C411.1 206.3 415.3 209.7 415.3 220.2C415.3 233.8 400.6 241.8 386.4 249.4C383.5 250.9 380.9 252.4 378.3 253.7C369.9 258.6 361.1 269.7 360.1 286.5C359.3 300.6 360.9 334.3 363.5 359.2C351.6 363.9 338 365.3 325.5 365.8C323.5 361.8 321.7 357.6 320.3 353.3C319.7 351.3 301.5 304.3 295.1 293.7C300.4 331 311.9 364.3 317.7 379.5C314 379 310.2 378.9 306.5 378.9H194.5C190.4 378.9 186.7 379.2 183.3 379.5C189 364.2 200.7 330.9 205.9 293.7C199.3 304.4 181.3 351.4 180.7 353.3C179.2 357.6 177.3 361.8 175.4 365.8C163 365.5 149.3 364 137.4 359.2C139.7 334.3 141.5 300.7 140.8 286.5C140 269.7 130.9 258.6 122.6 253.7C120.1 252.2 117.3 250.7 114.5 249.4C100.3 241.7 85.5996 233.8 85.5996 220.2C85.5996 209.7 89.6996 206.1 94.0996 202.8L94.5996 202.5C95.1996 202 95.9996 201.3 96.7996 200.8C95.9996 207.7 94.9996 213.5 94.2996 215C94.2996 215 105.9 200.6 109.4 172.7C110.8 161.7 108.4 139.9 104.5 131.6C104.7 136.3 104.5 140.9 104.3 145.3C104 144.7 103.5 143.8 102.9 143.1C99.8996 139.3 91.6996 126.3 93.8996 117.7C94.6996 114.3 96.8996 112 100.3 110.4C104 108.6 108.7 107.5 114.7 107.5C126.4 107.5 139.4 111 146.2 113.2C170.3 120.9 199.2 142.8 207.6 149.4C207.8 149.6 207.9 149.6 207.9 149.7L213.2 153.4L209.8 147.9C209.6 147.6 191.6 117.8 158.9 103.4C160.9 100.7 166.1 95.7 179.7 89C199.8 78.8 224 73.7 250.5 73.7ZM224.3 167.7C224.3 167.7 238.2 184.6 250.4 184.8H250.6C262.8 184.6 276.7 167.7 276.7 167.7C267.4 173.4 258.7 175.4 250.6 175.5C241.1 175.4 232.1 172.7 224.3 167.7ZM134 169C129.3 169.2 124.5 169.6 119.5 171C123.5 172 128 173.3 132.3 175C128.3 177 126.2 181.9 125.6 186.3C124.6 195.8 130.6 204.5 130.6 204.5C131.2 197.3 132.6 192.3 134.4 188.6C134.7 198.5 137.4 211.2 146.6 221.3C153.2 228.6 180.7 243.6 199.1 227.1C200.1 229.4 201.1 232.1 202 235.2C204.9 245.1 199.3 259.5 199.3 259.5C199.3 259.5 213.7 243.1 212.6 228.4C223 227.9 233.2 220.3 232.8 209.6C232.8 209.6 214.8 219.7 198.9 201.2C190.7 192 166.7 168.3 134 169ZM367.1 169.2C334.1 168.4 310.4 192.1 302.2 201.6C286.2 220 268.3 210 268.3 210C268.1 220.4 278.4 228 288.5 228.4C287.3 243.2 301.8 259.5 301.8 259.5C301.8 259.5 296.5 245.1 299.3 235.2C300.1 232.2 301.1 229.4 302.2 227C320.6 243.5 348.2 228.5 354.7 221.2C363.9 211 366.4 198.4 366.9 188.5C368.6 192.2 370.3 197.2 370.7 204.4C370.7 204.4 376.8 195.7 375.7 186.2C375.2 181.3 372.8 176.7 369 174.9H368.8C373.1 173.2 377.7 171.9 381.6 170.9C377 169.9 372 169.2 367.1 169.2ZM152.5 184.6C171.3 195.1 188.3 209.2 195.4 220C189.9 223.2 174.6 230.1 158.9 218.3C149.1 211 149.7 193.3 152.5 184.6ZM348.3 184.6C351.2 193.3 351.7 211.2 341.6 218.5C326 230.1 310.9 223.4 305.3 220C312.7 209 329.8 195.2 348.3 184.6ZM96.3996 335.8C106.8 368.8 141.6 378.1 167.6 379.3C165.4 382.7 163.3 385.9 160.9 388.8L159.5 390.2C152.6 397.7 151.3 407.9 155.5 420.6C133.8 420.4 111.2 411.3 99.7996 392.3C88.4996 373.3 91.6996 340.6 96.3996 335.8ZM404.5 335.8C409.4 340.7 412.6 373.2 400.8 392.3C389.2 411.2 366.7 420.4 345.1 420.7C349.4 408 348.1 397.6 341.1 390.3C340.8 389.8 340.3 389.3 339.7 388.8C337.4 385.6 335.1 382.4 333 379.3C359.4 378.1 394.2 368.7 404.5 335.8ZM193.7 391H307.5C321.9 391 328.4 394.7 331 397.9C335 402.6 335.3 410 331.8 420C325.4 438 308.6 481.9 250.5 481.9C192.5 481.7 175.5 438.1 169.2 420C165.7 409.9 166 402.6 170 397.9C172.9 394.7 179.1 391 193.7 391ZM281.3 405.5C277.3 405.5 274.4 406.3 272.8 408C270.6 410.2 271.4 413 272 414.4C273 416.9 277.2 425.3 284.4 432.8C287.1 435.7 291 437.1 294.9 437.1C299 437.1 303.3 435.6 306.2 433.1C308.4 431.1 316 424.2 319.2 415.7C320.4 412.5 320.2 410 318.4 408.2C317.2 406.8 314.6 405.3 309.4 405.3H281.3V405.5ZM191.6 405.7C186.3 405.7 183.8 407.2 182.6 408.4C180.8 410.4 180.6 413 181.8 416.1C185.2 424.8 192.7 432 194.8 434C197.8 436.5 202 438 206 438C210 438 213.8 436.5 216.5 433.7C223.7 425.9 227.8 417.3 228.9 414.8C229.4 413.3 230.1 410.7 228.1 408.2C226.4 406.5 223.5 405.7 219.7 405.7H191.6ZM143.8 433.9C149.5 434.9 155.5 435.7 161.5 436.2C164.9 443.9 168.5 451.5 173.2 458.3C161.3 453.3 151 444.9 143.8 433.9ZM357.2 433.9C351.1 442.9 341.5 452.7 327.6 458.3C332.3 451.4 336.1 443.9 339.3 436.2C345.5 435.8 351.4 435 357.2 433.9Z" fill="#FEF5F5"/>
</g>
<defs>
<clipPath id="clip0_4003_222">
<rect width="500" height="500" fill="white"/>
</clipPath>
</defs>
</svg>
