<?xml version="1.0" encoding="utf-8"?>
<!-- Generator: Adobe Illustrator 28.1.0, SVG Export Plug-In . SVG Version: 6.00 Build 0)  -->
<svg version="1.1" id="Camada_2_00000012453638212752177840000010754816053301869206_"
	 xmlns="http://www.w3.org/2000/svg" xmlns:xlink="http://www.w3.org/1999/xlink" x="0px" y="0px" viewBox="0 0 500 500"
	 style="enable-background:new 0 0 500 500;" xml:space="preserve">
<style type="text/css">
	.st0{fill:url(#SVGID_1_);}
	.st1{fill:url(#SVGID_00000123410786864279708880000007562835470326372799_);}
	.st2{fill:url(#SVGID_00000164510067300382874020000010456501227618951348_);}
</style>
<g>
	
		<linearGradient id="SVGID_1_" gradientUnits="userSpaceOnUse" x1="-435.6556" y1="590.1" x2="-377.0066" y2="590.1" gradientTransform="matrix(1 0 0 -1 0 833)">
		<stop  offset="0" style="stop-color:#FA12E3"/>
		<stop  offset="0.54" style="stop-color:#7312FA"/>
		<stop  offset="1" style="stop-color:#415CA7"/>
	</linearGradient>
	<path class="st0" d="M-412.6,235.3h-7.2v15.1h7.2c2.2,0,4.4-0.9,5.9-2.4s2.3-3.3,2.3-5.2C-404.4,238.6-408,235.3-412.6,235.3z"/>
	
		<linearGradient id="SVGID_00000029744897615667644380000016551914742388594862_" gradientUnits="userSpaceOnUse" x1="-594.32" y1="577.3" x2="-102.22" y2="577.3" gradientTransform="matrix(1 0 0 -1 0 833)">
		<stop  offset="0" style="stop-color:#FA12E3"/>
		<stop  offset="0.54" style="stop-color:#7312FA"/>
		<stop  offset="1" style="stop-color:#415CA7"/>
	</linearGradient>
	<path style="fill:url(#SVGID_00000029744897615667644380000016551914742388594862_);" d="M-147.8,196.8c-8.3-27-9.5-60.1-8.6-85.7
		c1-26.6-19.9-51.1-47.9-51.1h-287.8c-28.1,0-48.8,24.5-47.9,51.1c0.9,25.6-0.3,58.7-8.6,85.7c-8.4,27.1-22.5,44.2-45.7,46.4v24.9
		c23.1,2.2,37.3,19.3,45.7,46.4c8.3,27,9.5,60.1,8.6,85.7c-1,26.6,19.9,51.1,47.9,51.1h287.8c28.1,0,48.9-24.5,47.9-51.1
		c-0.9-25.6,0.3-58.7,8.6-85.7c8.4-27.1,22.5-44.2,45.6-46.4v-24.9C-125.3,241-139.5,223.9-147.8,196.8z M-487.1,296.4
		c-22.6,0-41-18.2-41-40.5c0-22.4,18.2-40.7,40.6-40.7c9.9,0,21.2,4.8,28.6,12l2.4,2.3l-10.8,16l-3.4-3.4
		c-4.8-4.8-11.3-7.7-16.9-7.7c-10.2,0-21.1,8.6-21.1,21.5c0,12.1,9.5,21.3,22.1,21.3c8.6,0,15-4.1,16.8-10.4h-21.4v-18.2h41.1
		l0.4,3.6c0.2,1.4,0.3,3.6,0.3,6C-449.3,280.2-465.2,296.4-487.1,296.4z M-398.1,295.1l-19.1-27.4h-2.6v27.4h-19.1v-78.9h26
		c15.4,0,28,12,28,26.8c0,8.8-4.7,16.9-11.9,21.3l22.4,30.8H-398.1z M-312.8,264.2c0,18.3-13.2,32.2-30.8,32.2
		c-17.5,0-30.8-13.8-30.8-32.2v-48h19.2v48c0,7.4,5,13,11.5,13c6.6,0,11.6-5.6,11.6-13v-48h19.2v48H-312.8z M-234.8,296.4h-6.3
		l-39.6-41.3v40.2h-19.1V215h6.3l39.5,41.3v-40.2h19.2V296.4z M-168.6,235.3h-19v59.8h-19.2v-59.8h-19v-19h57.1v19L-168.6,235.3
		L-168.6,235.3z"/>
</g>
<linearGradient id="SVGID_00000161633922793649836930000004739927960828003988_" gradientUnits="userSpaceOnUse" x1="78.7503" y1="250" x2="421.2497" y2="250">
	<stop  offset="0" style="stop-color:#FA12E3"/>
	<stop  offset="0.54" style="stop-color:#7312FA"/>
	<stop  offset="1" style="stop-color:#415CA7"/>
</linearGradient>
<path style="fill:url(#SVGID_00000161633922793649836930000004739927960828003988_);" d="M270.1,18.9c-26.7,9.5-33.3,23.7-35.3,36.8
	c-6.9-4.9-6-20.8-6.5-24.9c-6.8,0.8-26.3,19.7-25.4,43.5c-1.9,0.5-3.6,0.9-5.4,1.6c-5.8-7.9-22.7-28.4-44.6-35.5
	c-7.1-2.1-14.4-3.2-21.6-3.3c-26.2,0-41.6,15.6-41.8,15.8l-7.3,8.5l11,2.2c0.2,0,18.6,3.8,26.2,15.9c1.3,2.1,1.6,6,2.1,10.1
	c0.2,2.5-0.3,5-0.8,7.4c-0.3,1.7-0.8,3.5-0.8,5.4c-6.9,0.3-12.8,1.7-17.7,4.1c-6.3,3-10.9,8.7-12.8,15.3
	c-4.6,16.4,10.1,34.7,10.7,35.3c1.7,3.2,2.4,25.1-1.6,33.9c-0.5,1.3-2.1,2.4-3.9,3.9c-0.6,0.5-1.3,0.9-2.1,1.6
	c-5.5,4.1-13.9,10.6-13.9,25.1c0,20,20.2,30.8,36.4,39.4c2.7,1.4,5.2,2.8,7.6,4.1c2.4,1.4,11,10.3,11,23.7c0,6.2-0.6,35.8-3.3,56.3
	c-10.4-9-20-23.3-22.2-39.6c0,0-26.3,20.4-18.6,63.9c4.7,26.7,21,41.6,42.4,49.4c7.9,17.2,26.5,41.3,60.7,44.8
	c12.9,10.7,31.1,17.5,57.4,17.5h0.2c26.3,0,44.3-6.9,57.4-17.5c34.2-3.5,52.8-27.6,60.7-44.8c21.5-7.9,37.7-22.7,42.4-49.4
	c7.4-43.7-19.1-64.1-19.1-64.1c-2.2,16.1-11.7,30.4-22.2,39.4c-2.8-20.5-3.3-50.2-3.3-56.3c0-13.3,8.5-22.1,11-23.5
	c2.2-1.4,4.9-2.7,7.4-4.1c16.2-8.7,36.4-19.4,36.4-39.4c0-14.7-8.4-21-13.9-25.1c-0.6-0.5-1.4-0.9-2.1-1.6c-1.9-1.6-3.3-2.7-3.9-3.9
	c-3.9-8.8-3.3-30.9-1.6-33.9c0.5-0.5,15.1-18.9,10.7-35.3c-1.9-6.8-6.5-12.3-12.8-15.3c-4.7-2.4-10.7-3.8-17.7-4.1
	c-0.2-1.7-0.3-3.6-0.8-5.4c-0.6-2.4-0.9-4.9-0.8-7.3c0.3-4.3,0.8-8.2,2.1-10.3c7.6-12,26-15.9,26.2-15.9l11-2.2l-7.3-8.5
	c-0.2-0.2-15.6-15.8-41.8-15.8c-7.1,0-14.4,1.3-21.8,3.5c-21.8,7.1-38.8,27.5-44.6,35.5c-2.8-0.9-5.7-1.7-8.7-2.4
	c-3.8-14.2,8.2-34.7,8.2-34.7s-12.3-2.7-30.4,13.7C269.5,46.5,264.4,33.9,270.1,18.9L270.1,18.9z M131.6,50.6
	c5.5,0,10.9,0.8,15.9,2.4c16.1,5.2,28.6,21,34.1,29c-1.4,0.6-2.8,1.3-4.4,1.9c-2.2,1.1-4.4,2.2-6.5,3.3c-2.4-4.9-7.6-12.3-18.8-20.2
	c-7.6-5.4-16.7-8-26-8c-2.7,0.2-5.5,0.3-8.2,0.8c-2.8-1.9-5.7-3.5-8.7-4.7C116.3,52.2,123.9,50.7,131.6,50.6z M368.9,50.6
	c9.9,0,18,2.7,22.2,4.6c-2.8,1.3-5.8,2.8-8.7,4.7c-2.7-0.5-5.5-0.6-8.4-0.8c-9.5,0-18.5,2.8-25.9,8c-11,7.9-16.2,15.3-18.6,20.2
	c-2.1-1.3-4.3-2.4-6.5-3.3c-1.4-0.8-2.8-1.4-4.3-2.1c5.5-8.2,18-23.8,34.1-29C357.8,51.5,363.4,50.6,368.9,50.6L368.9,50.6z
	 M371.7,69.5c-0.8,0.9-1.4,1.9-2.1,2.8c-3,4.7-3.5,10.6-3.9,16.1c-0.5,5.8-0.9,11.2-3.9,15.3c-3.5,0.6-6.9,1.4-10.4,2.5
	c-2.8-3.8-6-7.1-9.5-10.1c1.3-4.4,5-14.5,12.1-20.4C359.1,71.9,365.1,69.7,371.7,69.5z M128.6,69.5c6.6,0.3,12.6,2.4,17.7,6.3
	c7.3,5.7,10.9,15.9,12.1,20.2c-3.6,3-6.8,6.3-9.5,10.1c-3.5-0.9-6.9-1.7-10.4-2.5c-3-3.9-3.5-9.5-3.8-15.1
	c-0.5-5.7-1.1-11.4-3.9-16.1C130,71.4,129.4,70.5,128.6,69.5z M250.2,83.7c25.2,0,47.8,4.7,67,14.4c12.8,6.2,17.7,11,19.4,13.6
	c-30.8,13.6-47.8,41.6-48,42l-3.2,5.2l5-3.5c0,0,0.2-0.2,0.3-0.3c7.9-6.2,35.2-27,57.9-34.1c6.3-2.1,18.6-5.4,29.7-5.4
	c5.7,0,10.1,0.9,13.6,2.7c3,1.4,5.2,3.9,6,6.9c2.2,8.2-5.5,20.5-8.5,24c-0.5,0.6-0.9,1.3-1.3,2.1c-0.3-4.3-0.5-8.7-0.3-12.9
	c-3.6,7.9-5.8,28.4-4.6,38.8c3.3,26.5,14.2,39.9,14.2,39.9c-0.8-1.4-1.6-6.9-2.4-13.4l2.1,1.6l0.5,0.3c4.1,3.3,8,6.5,8,16.4
	c0,12.8-13.9,20.4-27.3,27.5c-2.7,1.4-5.2,2.8-7.6,4.1c-7.9,4.6-16.2,15.1-17.2,30.9c-0.8,13.3,0.8,45.1,3.2,68.6
	c-11.2,4.4-24.1,5.8-35.8,6.2c-1.9-3.8-3.6-7.7-4.9-11.8c-0.6-1.9-17.7-46.2-23.8-56.2c5,35.2,15.8,66.6,21.3,80.9
	c-3.5-0.5-7.1-0.6-10.6-0.6H197.4c-3.9,0-7.4,0.3-10.6,0.6c5.4-14.4,16.4-45.8,21.3-80.9c-6.2,10.1-23.2,54.4-23.8,56.2
	c-1.4,4.1-3.2,8-5,11.8c-11.7-0.3-24.6-1.7-35.8-6.2c2.2-23.5,3.9-55.2,3.2-68.6c-0.8-15.8-9.3-26.3-17.2-30.9
	c-2.4-1.4-5-2.8-7.6-4.1c-13.4-7.3-27.3-14.7-27.3-27.5c0-9.9,3.9-13.3,8-16.4l0.5-0.3c0.6-0.5,1.3-1.1,2.1-1.6
	c-0.8,6.5-1.7,12-2.4,13.4c0,0,10.9-13.6,14.2-39.9c1.3-10.4-0.9-30.9-4.6-38.8c0.2,4.4,0,8.8-0.2,12.9c-0.3-0.6-0.8-1.4-1.3-2.1
	c-2.8-3.6-10.6-15.8-8.5-24c0.8-3.2,2.8-5.4,6-6.9c3.5-1.7,7.9-2.7,13.6-2.7c11,0,23.3,3.3,29.7,5.4c22.7,7.3,50,27.9,57.9,34.1
	c0.2,0.2,0.3,0.2,0.3,0.3l5,3.5l-3.2-5.2c-0.2-0.3-17.2-28.4-48-42c1.9-2.5,6.8-7.3,19.6-13.6C202.4,88.5,225.2,83.7,250.2,83.7
	L250.2,83.7z M225.5,172.4c0,0,13.1,15.9,24.6,16.1h0.2c11.5-0.2,24.6-16.1,24.6-16.1c-8.8,5.4-17,7.3-24.6,7.4
	C241.4,179.6,232.9,177.1,225.5,172.4z M140.3,173.6c-4.4,0.2-9,0.6-13.7,1.9c3.8,0.9,8,2.2,12.1,3.8c-3.8,1.9-5.8,6.5-6.3,10.7
	c-0.9,9,4.7,17.2,4.7,17.2c0.6-6.8,1.9-11.5,3.6-15c0.3,9.3,2.8,21.3,11.5,30.8c6.2,6.9,32.2,21,49.5,5.5c0.9,2.2,1.9,4.7,2.7,7.6
	c2.7,9.3-2.5,22.9-2.5,22.9s13.6-15.5,12.5-29.3c9.8-0.5,19.4-7.6,19.1-17.7c0,0-17,9.5-32-7.9C193.8,195.3,171.2,172.9,140.3,173.6
	L140.3,173.6z M360.2,173.8c-31.1-0.8-53.5,21.6-61.2,30.6c-15.1,17.4-32,7.9-32,7.9c-0.2,9.8,9.5,17,19.1,17.4
	c-1.1,14,12.5,29.3,12.5,29.3s-5-13.6-2.4-22.9c0.8-2.8,1.7-5.5,2.7-7.7c17.4,15.6,43.4,1.4,49.5-5.5c8.7-9.6,11-21.5,11.5-30.8
	c1.6,3.5,3.2,8.2,3.6,15c0,0,5.8-8.2,4.7-17.2c-0.5-4.6-2.7-9-6.3-10.7h-0.2c4.1-1.6,8.4-2.8,12.1-3.8
	C369.5,174.4,364.8,173.8,360.2,173.8L360.2,173.8z M157.8,188.3c17.7,9.9,33.8,23.2,40.5,33.4c-5.2,3-19.6,9.5-34.4-1.6
	C154.6,213.2,155.1,196.5,157.8,188.3L157.8,188.3z M342.5,188.3c2.7,8.2,3.2,25.1-6.3,32c-14.7,10.9-29,4.6-34.2,1.4
	C308.9,211.3,325,198.3,342.5,188.3z M104.9,330.9c9.8,31.1,42.6,39.9,67.2,41c-2.1,3.2-4.1,6.2-6.3,9l-1.3,1.3
	c-6.5,7.1-7.7,16.7-3.8,28.7c-20.5-0.2-41.8-8.8-52.5-26.7C97.4,366.3,100.4,335.5,104.9,330.9L104.9,330.9z M395.5,330.9
	c4.6,4.6,7.6,35.3-3.5,53.3c-10.9,17.8-32.2,26.5-52.5,26.8c4.1-12,2.8-21.8-3.8-28.7c-0.3-0.5-0.8-0.9-1.3-1.4c-2.2-3-4.3-6-6.3-9
	C352.9,370.8,385.8,362,395.5,330.9z M196.6,383h107.3c13.6,0,19.7,3.5,22.2,6.5c3.8,4.4,4.1,11.4,0.8,20.8
	c-6,17-21.9,58.4-76.7,58.4c-54.7-0.2-70.7-41.3-76.7-58.4c-3.3-9.5-3-16.4,0.8-20.8C177,386.5,182.9,383,196.6,383z M279.3,396.7
	c-3.8,0-6.5,0.8-8,2.4c-2.1,2.1-1.3,4.7-0.8,6c0.9,2.4,4.9,10.3,11.7,17.4c2.5,2.7,6.2,4.1,9.9,4.1c3.9,0,7.9-1.4,10.7-3.8
	c2.1-1.9,9.2-8.4,12.3-16.4c1.1-3,0.9-5.4-0.8-7.1c-1.1-1.3-3.6-2.7-8.5-2.7h-26.5L279.3,396.7L279.3,396.7z M194.7,396.9
	c-5,0-7.4,1.4-8.5,2.5c-1.7,1.9-1.9,4.3-0.8,7.3c3.2,8.2,10.3,15,12.3,16.9c2.8,2.4,6.8,3.8,10.6,3.8c3.8,0,7.4-1.4,9.9-4.1
	c6.8-7.4,10.7-15.5,11.7-17.8c0.5-1.4,1.1-3.9-0.8-6.2c-1.6-1.6-4.3-2.4-7.9-2.4L194.7,396.9L194.7,396.9z M149.6,423.5
	c5.4,0.9,11,1.7,16.7,2.2c3.2,7.3,6.6,14.4,11,20.8C166.1,441.8,156.4,433.8,149.6,423.5L149.6,423.5z M350.9,423.5
	c-5.8,8.5-14.8,17.7-27.9,23c4.4-6.5,8-13.6,11-20.8C339.8,425.3,345.4,424.5,350.9,423.5L350.9,423.5z"/>
</svg>
