<svg width="500" height="500" viewBox="0 0 500 500" fill="none" xmlns="http://www.w3.org/2000/svg">
<path d="M174 373.2L187.8 396.1L192.7 468.2C192.7 475.9 218.2 482.2 249.7 482.2C281.2 482.2 306.7 476 306.7 468.2L311.2 393.9L323.6 372.9C323.6 372.9 295.6 384.3 248.7 384.3C201.7 384.4 174 373.2 174 373.2Z" fill="#FEF5F5"/>
<path d="M292.7 121.4L302.1 84.4998L353.8 29.9998L353.9 29.8998C355 28.2998 353.1 24.5998 349.4 21.4998C345.6 18.1998 341.5 16.8998 340.3 18.3998L285.5 76.4998L274.6 120.6C266.5 120.3 258.3 120.2 250 120.2C192.2 120.2 145.3 126.7 145.3 134.9C145.3 143.1 192.1 149.6 250 149.6C307.9 149.6 354.5 143.1 354.5 134.9C354.6 128.9 329.1 123.7 292.7 121.4Z" fill="#FEF5F5"/>
<path d="M146.1 143.1L158 258.2L161.5 292.1L163.4 310.4L164.4 319.9L168.9 363.6C168.9 363.6 188.6 379.2 248 379.2C307.4 379.2 327.8 363.9 327.8 363.9L332.1 324.4L334.5 302.8L336.9 280.9L338.3 268.8L352.3 142.7C352.3 142.7 338.2 154.4 248.3 154.4C158.7 154.5 146.1 143.1 146.1 143.1Z" fill="#FEF5F5"/>
</svg>
