<?xml version="1.0" encoding="utf-8"?>
<!-- Generator: Adobe Illustrator 28.1.0, SVG Export Plug-In . SVG Version: 6.00 Build 0)  -->
<svg version="1.1" id="Camada_1" xmlns="http://www.w3.org/2000/svg" xmlns:xlink="http://www.w3.org/1999/xlink" x="0px" y="0px"
	 viewBox="0 0 500 500" style="enable-background:new 0 0 500 500;" xml:space="preserve">
<style type="text/css">
	.st0{fill:url(#SVGID_1_);}
	.st1{fill:url(#SVGID_00000005987623179592284460000009202432084055578004_);}
	.st2{fill:url(#SVGID_00000061433829923503708100000006194564391345376429_);}
	.st3{fill:url(#SVGID_00000036946479757402882030000010906738843788837803_);}
	.st4{fill:url(#SVGID_00000105392803332080248350000004839706035065474741_);}
</style>
<g>
	
		<linearGradient id="SVGID_1_" gradientUnits="userSpaceOnUse" x1="-656.96" y1="-59.3956" x2="-164.86" y2="-59.3956" gradientTransform="matrix(1 0 0 1 0 334)">
		<stop  offset="0" style="stop-color:#FA12E3"/>
		<stop  offset="0.54" style="stop-color:#7312FA"/>
		<stop  offset="1" style="stop-color:#415CA7"/>
	</linearGradient>
	<path class="st0" d="M-210.5,215.8c-8.3-27-9.5-60.1-8.6-85.7c1-26.6-19.9-51.1-47.9-51.1h-287.8c-28.1,0-48.8,24.5-47.9,51.1
		c0.9,25.6-0.3,58.7-8.6,85.7c-8.4,27.1-22.5,44.2-45.7,46.4v24.9c23.1,2.2,37.3,19.3,45.7,46.4c8.3,27,9.5,60.1,8.6,85.7
		c-1,26.6,19.9,51.1,47.9,51.1H-267c28.1,0,48.9-24.5,47.9-51.1c-0.9-25.6,0.3-58.7,8.6-85.7c8.4-27.1,22.5-44.2,45.6-46.4v-24.9
		C-188,260-202.2,242.9-210.5,215.8z M-539.6,328c-29.7,0-53.9-23.9-53.9-53.3c0-29.5,23.9-53.5,53.3-53.5
		c13.1,0.1,27.8,6.3,37.6,15.8l3.1,3.1l-14.1,21.1l-4.5-4.5c-6.4-6.3-14.9-10.2-22.2-10.2c-13.4,0-27.8,11.3-27.8,28.2
		c0,16,12.5,28,29.1,28c11.3,0,19.7-5.4,22.1-13.7H-545v-23.9h54l0.5,4.7c0.2,1.8,0.4,4.7,0.4,7.8C-490,306.8-510.9,328-539.6,328z
		 M-397.1,285.9c0,24.1-17.4,42.3-40.5,42.3s-40.5-18.2-40.5-42.3v-63.1h25.2v63c0,9.7,6.5,17,15.2,17c8.7,0,15.3-7.3,15.3-17v-63
		h25.3V285.9z M-314,326.4h-66.7V222.8h25.2v78.6h41.5V326.4z M-266.5,294.2h-11.2v32.3H-303V222.8h36.4c21,0,38,16.2,38,36
		C-228.5,278.3-245.6,294.2-266.5,294.2z"/>
	
		<linearGradient id="SVGID_00000077298841541233411560000012015571732555020674_" gradientUnits="userSpaceOnUse" x1="-304.0725" y1="-93.7584" x2="-263.0725" y2="-71.7584" gradientTransform="matrix(1 0 0 1 0 334)">
		<stop  offset="0" style="stop-color:#FA12E3"/>
		<stop  offset="0.3852" style="stop-color:#7312FA"/>
	</linearGradient>
	<path style="fill:url(#SVGID_00000077298841541233411560000012015571732555020674_);" d="M-266.5,247.8h-11.2v21.3h11.3
		c3.8,0,7.4-1.4,9.9-3.8c1.9-1.9,2.9-4.3,2.9-6.7C-253.7,252.7-259.5,247.8-266.5,247.8z"/>
</g>
<g>
	
		<linearGradient id="SVGID_00000030462192772219140410000017393228432925450672_" gradientUnits="userSpaceOnUse" x1="174.0427" y1="427.6041" x2="323.6494" y2="427.6041">
		<stop  offset="0" style="stop-color:#FA12E3"/>
		<stop  offset="0.54" style="stop-color:#7312FA"/>
		<stop  offset="1" style="stop-color:#415CA7"/>
	</linearGradient>
	<path style="fill:url(#SVGID_00000030462192772219140410000017393228432925450672_);" d="M174,373.2l13.8,22.9l4.9,72.1
		c0,7.7,25.5,14,57,14s57-6.2,57-14l4.5-74.3l12.4-21c0,0-28,11.4-74.9,11.4C201.7,384.4,174,373.2,174,373.2z"/>
	
		<linearGradient id="SVGID_00000127723888933766514540000010037692609077000858_" gradientUnits="userSpaceOnUse" x1="145.3975" y1="83.627" x2="354.6025" y2="83.627">
		<stop  offset="0" style="stop-color:#FA12E3"/>
		<stop  offset="0.54" style="stop-color:#7312FA"/>
		<stop  offset="1" style="stop-color:#415CA7"/>
	</linearGradient>
	<path style="fill:url(#SVGID_00000127723888933766514540000010037692609077000858_);" d="M292.7,121.4l9.4-36.9L353.8,30l0,0l0,0
		l0.1-0.1l0,0c1.1-1.6-0.8-5.3-4.5-8.4c-3.8-3.3-7.9-4.6-9.1-3.1l-54.8,58.1l-10.9,44.1c-8.1-0.3-16.3-0.4-24.6-0.4
		c-57.8,0-104.7,6.5-104.7,14.7s46.8,14.7,104.7,14.7s104.5-6.5,104.5-14.7C354.6,128.9,329.1,123.7,292.7,121.4z"/>
	
		<linearGradient id="SVGID_00000165920282621011009620000005024426046226177717_" gradientUnits="userSpaceOnUse" x1="146.0763" y1="261.0954" x2="352.4303" y2="261.0954">
		<stop  offset="0" style="stop-color:#FA12E3"/>
		<stop  offset="0.54" style="stop-color:#7312FA"/>
		<stop  offset="1" style="stop-color:#415CA7"/>
	</linearGradient>
	<path style="fill:url(#SVGID_00000165920282621011009620000005024426046226177717_);" d="M146.1,143.1L158,258.2l0,0l3.5,33.9l0,0
		l1.9,18.3l1,9.5l0,0l4.5,43.7c0,0,19.7,15.6,79.1,15.6s79.8-15.3,79.8-15.3l4.3-39.5l0,0l2.4-21.6l2.4-21.9l0,0l1.4-12.1l0,0
		l14-126.1c0,0-14.1,11.7-104,11.7C158.7,154.5,146.1,143.1,146.1,143.1z"/>
</g>
</svg>
