<?xml version="1.0" encoding="utf-8"?>
<!-- Generator: Adobe Illustrator 28.1.0, SVG Export Plug-In . SVG Version: 6.00 Build 0)  -->
<svg version="1.1" id="Camada_1" xmlns="http://www.w3.org/2000/svg" xmlns:xlink="http://www.w3.org/1999/xlink" x="0px" y="0px"
	 viewBox="0 0 500 500" style="enable-background:new 0 0 500 500;" xml:space="preserve">
<style type="text/css">
	.st0{fill:url(#SVGID_1_);}
	.st1{fill:url(#SVGID_00000026144865803172427620000014857838886713189507_);}
</style>
<linearGradient id="SVGID_1_" gradientUnits="userSpaceOnUse" x1="-620.96" y1="257.05" x2="-128.86" y2="257.05" gradientTransform="matrix(1 0 0 -1 0 499)">
	<stop  offset="0" style="stop-color:#FA12E3"/>
	<stop  offset="0.5362" style="stop-color:#7312FA"/>
	<stop  offset="1" style="stop-color:#415CA7"/>
</linearGradient>
<path class="st0" d="M-174.5,183.1c-8.3-27-9.5-60.1-8.6-85.7c1-26.6-19.9-51.1-47.9-51.1h-287.8c-28.1,0-48.8,24.5-47.9,51.1
	c0.9,25.6-0.3,58.7-8.6,85.7c-8.4,27.1-22.5,44.2-45.7,46.4v24.9c23.1,2.2,37.3,19.3,45.7,46.4c8.3,27,9.5,60.1,8.6,85.7
	c-1,26.6,19.9,51.1,47.9,51.1H-231c28.1,0,48.9-24.5,47.9-51.1c-0.9-25.6,0.3-58.7,8.6-85.7c8.4-27.1,22.5-44.2,45.6-46.4v-24.9
	C-152,227.3-166.2,210.2-174.5,183.1z M-460.4,277.7h-21.2v-33.2h-25.1v33.2h-21.2v-87.5h21.2v33.2h25.1v-33.2h21.2V277.7z
	 M-386,211.3h-21.1v66.4h-21.3v-66.4h-21.1v-21.1h63.5V211.3z M-289.3,277.7h-21.2v-32.3l-19.2,31h-5l-1.4-2.1l-17.9-29v32.4h-21.2
	v-89.2h7.8l35.2,53.5l35.1-53.5h7.8V277.7z M-216.8,277.7h-56.3v-87.5h21.2v66.3h35.1L-216.8,277.7L-216.8,277.7z"/>
<linearGradient id="SVGID_00000150068592281686719680000006788201265507782587_" gradientUnits="userSpaceOnUse" x1="85.9805" y1="249.762" x2="414.0049" y2="249.762">
	<stop  offset="0" style="stop-color:#FA12E3"/>
	<stop  offset="0.5362" style="stop-color:#7312FA"/>
	<stop  offset="1" style="stop-color:#415CA7"/>
</linearGradient>
<polygon style="fill:url(#SVGID_00000150068592281686719680000006788201265507782587_);" points="400.9,205.2 144.7,205.2 
	135.8,106.9 409.8,106.9 414,60.2 86,60.2 102.9,251.2 350.4,251.2 340.2,366.2 251.2,390.5 247.6,390.5 158.7,366.2 153.9,309.4 
	107.9,309.4 116,402.1 249.7,439.3 383.3,402.1 "/>
</svg>
