<?xml version="1.0" encoding="utf-8"?>
<!-- Generator: Adobe Illustrator 28.1.0, SVG Export Plug-In . SVG Version: 6.00 Build 0)  -->
<svg version="1.1" id="Camada_1" xmlns="http://www.w3.org/2000/svg" xmlns:xlink="http://www.w3.org/1999/xlink" x="0px" y="0px"
	 viewBox="0 0 500 500" style="enable-background:new 0 0 500 500;" xml:space="preserve">
<style type="text/css">
	.st0{fill:url(#SVGID_1_);}
	.st1{opacity:0.3;fill:#121212;enable-background:new    ;}
</style>
<linearGradient id="SVGID_1_" gradientUnits="userSpaceOnUse" x1="4" y1="249.95" x2="496.1" y2="249.95">
	<stop  offset="0" style="stop-color:#FA12E3"/>
	<stop  offset="0.5362" style="stop-color:#7312FA"/>
	<stop  offset="1" style="stop-color:#415CA7"/>
</linearGradient>
<path class="st0" d="M450.5,191.1c-8.3-27-9.5-60.1-8.6-85.7c1-26.6-19.9-51.1-47.9-51.1H106.2c-28.1,0-48.8,24.5-47.9,51.1
	c0.9,25.6-0.3,58.7-8.6,85.7c-8.4,27.1-22.5,44.2-45.7,46.4v24.9c23.1,2.2,37.3,19.3,45.7,46.4c8.3,27,9.5,60.1,8.6,85.7
	c-1,26.6,19.9,51.1,47.9,51.1H394c28.1,0,48.9-24.5,47.9-51.1c-0.9-25.6,0.3-58.7,8.6-85.7c8.4-27.1,22.5-44.2,45.6-46.4v-24.9
	C473,235.3,458.8,218.2,450.5,191.1z M164.6,285.7h-21.2v-33.2h-25.1v33.2H97.1v-87.5h21.2v33.2h25.1v-33.2h21.2V285.7z M239,219.3
	h-21.1v66.4h-21.3v-66.4h-21.1v-21.1H239V219.3z M335.7,285.7h-21.2v-32.3l-19.2,31h-5l-1.4-2.1l-17.9-29v32.4h-21.2v-89.2h7.8
	l35.2,53.5l35.1-53.5h7.8V285.7z M408.2,285.7h-56.3v-87.5h21.2v66.3h35.1V285.7z"/>
<polygon class="st1" points="143.8,259.2 308.1,259.2 302.6,321.3 249.7,335.7 249.5,335.7 196.7,321.3 193.3,281.4 145.7,281.4 
	152.4,358.4 249.8,385.5 347.1,358.4 360.2,211.6 187.1,211.6 182.7,162.5 364.7,162.5 369,114.5 131,114.5 "/>
</svg>
