<?xml version="1.0" encoding="utf-8"?>
<!-- Generator: Adobe Illustrator 28.1.0, SVG Export Plug-In . SVG Version: 6.00 Build 0)  -->
<svg version="1.1" id="Camada_1" xmlns="http://www.w3.org/2000/svg" xmlns:xlink="http://www.w3.org/1999/xlink" x="0px" y="0px"
	 viewBox="0 0 500 500" style="enable-background:new 0 0 500 500;" xml:space="preserve">
<style type="text/css">
	.st0{fill:url(#SVGID_1_);}
	.st1{fill:url(#SVGID_00000034775821899521583120000001042637112678636163_);}
	.st2{fill:url(#SVGID_00000156547872747788268210000004987662196573404288_);}
	.st3{fill:url(#SVGID_00000113330782367756244210000003674607186286200477_);}
	.st4{fill:url(#SVGID_00000145038495510561902010000015775492316578036620_);}
	.st5{fill:url(#SVGID_00000019638922827010596190000005933672188917384635_);}
	.st6{fill:url(#SVGID_00000084514051664009409400000006971447750252309949_);}
</style>
<g>
	
		<linearGradient id="SVGID_1_" gradientUnits="userSpaceOnUse" x1="-633.2" y1="-63.8" x2="-141.1" y2="-63.8" gradientTransform="matrix(1 0 0 1 0 334)">
		<stop  offset="0" style="stop-color:#FA12E3"/>
		<stop  offset="0.5362" style="stop-color:#7312FA"/>
		<stop  offset="1" style="stop-color:#415CA7"/>
	</linearGradient>
	<path class="st0" d="M-186.7,211.3c-8.3-27-9.5-60.1-8.6-85.7c1-26.6-19.9-51.1-47.9-51.1H-531c-28.1,0-48.8,24.5-47.9,51.1
		c0.9,25.6-0.3,58.7-8.6,85.7c-8.4,27.1-22.5,44.2-45.7,46.4v24.9c23.1,2.2,37.3,19.3,45.7,46.4c8.3,27,9.5,60.1,8.6,85.7
		c-1,26.6,19.9,51.1,47.9,51.1h287.8c28.1,0,48.9-24.5,47.9-51.1c-0.9-25.6,0.3-58.7,8.6-85.7c8.4-27.1,22.5-44.2,45.6-46.4v-24.9
		C-164.2,255.5-178.4,238.4-186.7,211.3z M-567.1,291.2h-0.3c-4,0-8.1-1.3-11.3-3.5l-1.9-1.3l6.1-10.7l2.3,1.9c1.2,1,3,1.7,4.8,1.7
		h0.2c4.5,0,8.2-3.8,8.2-8.4l-0.1-29.7h11.9l0.1,29.8C-547,282.2-556,291.2-567.1,291.2z M-510.7,290.4l-3-6.7h-17.7l-3,6.7h-13
		l23.1-50.1h3.6l23.1,50.1H-510.7z M-487,291.3l-22.5-50.1h12.9l11.5,26.2l11.6-26.2h12.9l-22.7,50.1H-487z M-435.7,290.4l-3-6.7
		h-17.7l-3,6.7h-13l23.1-50.1h3.6l23.1,50.1H-435.7z M-404.7,291.1c-7.9,0-14.5-3.7-17.5-9.9l-0.9-1.9l9.5-6.8l1.4,2.4
		c1.5,2.6,4.3,4.2,7.7,4.2c3.5,0,6.2-1.4,6.2-3.3c0-2.4-5.4-4.7-9.3-6.4l-0.1-0.1c-5-2.2-12.4-5.5-12.4-14.2
		c0-8.4,7.2-14.8,16.7-14.8c7.3,0,12.9,3.6,15.2,9.5l0.7,1.8l-9.2,6.4l-1.2-2.7c-0.9-2-3-3.2-5.3-3.2c-2.6,0-4.8,1.4-4.8,3.1
		c0,1.3,2.3,2.3,6.1,3.9c0.6,0.3,1.2,0.5,1.9,0.8c6.8,3,13.9,6.9,13.9,15.7C-386.5,284.8-394,291.1-404.7,291.1z M-356.8,279.1
		c4.2,0,7.6-2.5,9.7-4.5l2.1-2.1l7,9.7l-1.5,1.5c-5,4.9-10.6,7.4-17,7.4c-14,0-25.4-11.3-25.4-25.3c0-13.8,11.6-25.4,25.3-25.4
		c6.3,0.1,12.2,2.7,17.1,7.5l1.6,1.5l-7,9.5l-2.1-2.1c-2.8-2.9-6.3-4.4-9.7-4.4c-7,0-13.1,6.2-13.1,13.4
		C-370,273.7-363.1,279.1-356.8,279.1z M-307.3,290.4l-11.9-17.1h-1.6v17.1h-11.9v-49.2h16.2c9.6,0,17.5,7.5,17.5,16.7
		c0,5.5-2.9,10.6-7.4,13.3l14,19.2H-307.3z M-277.7,290.4h-11.9v-49.2h11.9V290.4z M-251.4,275.1h-5.3v15.3h-11.9v-49.2h17.3
		c9.9,0,18,7.7,18,17.1C-233.3,267.5-241.4,275.1-251.4,275.1z M-194.5,253.1h-11.8v37.3h-12v-37.3h-11.9v-11.9h35.6v11.9H-194.5z"
		/>
	
		<linearGradient id="SVGID_00000028305048650123088310000002487001742310975399_" gradientUnits="userSpaceOnUse" x1="-534.3964" y1="-65.6" x2="-481.755" y2="-65.6" gradientTransform="matrix(1 0 0 1 0 334)">
		<stop  offset="0" style="stop-color:#FA12E3"/>
		<stop  offset="0.5362" style="stop-color:#7312FA"/>
		<stop  offset="1" style="stop-color:#415CA7"/>
	</linearGradient>
	<polygon style="fill:url(#SVGID_00000028305048650123088310000002487001742310975399_);" points="-526.5,272.7 -518.7,272.7 
		-522.6,264 	"/>
	
		<linearGradient id="SVGID_00000135662050744073910460000017465481781982908086_" gradientUnits="userSpaceOnUse" x1="-464.2056" y1="-65.6" x2="-423.9528" y2="-65.6" gradientTransform="matrix(1 0 0 1 0 334)">
		<stop  offset="0" style="stop-color:#FA12E3"/>
		<stop  offset="0.5362" style="stop-color:#7312FA"/>
		<stop  offset="1" style="stop-color:#415CA7"/>
	</linearGradient>
	<polygon style="fill:url(#SVGID_00000135662050744073910460000017465481781982908086_);" points="-451.5,272.7 -443.7,272.7 
		-447.6,264 	"/>
	
		<linearGradient id="SVGID_00000070825487176831333120000000055061467664445851_" gradientUnits="userSpaceOnUse" x1="-340.0192" y1="-76.15" x2="-301.7581" y2="-76.15" gradientTransform="matrix(1 0 0 1 0 334)">
		<stop  offset="0" style="stop-color:#FA12E3"/>
		<stop  offset="0.5362" style="stop-color:#7312FA"/>
		<stop  offset="1" style="stop-color:#415CA7"/>
	</linearGradient>
	<path style="fill:url(#SVGID_00000070825487176831333120000000055061467664445851_);" d="M-316.4,253.1h-4.5v9.4h4.5
		c1.4,0,2.7-0.5,3.7-1.5c0.9-0.9,1.4-2.1,1.4-3.3C-311.2,255.1-313.5,253.1-316.4,253.1z"/>
	
		<linearGradient id="SVGID_00000098220155782993410270000008450251758637188247_" gradientUnits="userSpaceOnUse" x1="-275.9088" y1="-75.8" x2="-243.8613" y2="-75.8" gradientTransform="matrix(1 0 0 1 0 334)">
		<stop  offset="0" style="stop-color:#FA12E3"/>
		<stop  offset="0.5362" style="stop-color:#7312FA"/>
		<stop  offset="1" style="stop-color:#415CA7"/>
	</linearGradient>
	<path style="fill:url(#SVGID_00000098220155782993410270000008450251758637188247_);" d="M-251.4,253.1h-5.3v10.1h5.3
		c1.8,0,3.5-0.7,4.7-1.8c0.9-0.9,1.4-2,1.4-3.2C-245.3,255.4-248,253.1-251.4,253.1z"/>
	
		<linearGradient id="SVGID_00000066495879649508681670000017026110500257071002_" gradientUnits="userSpaceOnUse" x1="-334.4051" y1="489.5" x2="-331.7566" y2="489.5" gradientTransform="matrix(1 0 0 -1 0 833)">
		<stop  offset="0" style="stop-color:#FA12E3"/>
		<stop  offset="0.5362" style="stop-color:#7312FA"/>
		<stop  offset="1" style="stop-color:#415CA7"/>
	</linearGradient>
	<path style="fill:url(#SVGID_00000066495879649508681670000017026110500257071002_);" d="M-333.6,341.9h-0.8v3.1h0.7
		c0.8,0,1.2-0.2,1.4-0.5c0.3-0.2,0.5-0.6,0.5-1.4c0-0.6-0.2-0.8-0.3-0.8C-332.2,342-332.7,341.9-333.6,341.9z"/>
</g>
<linearGradient id="SVGID_00000132811081179167219310000001545664250370755481_" gradientUnits="userSpaceOnUse" x1="97.7192" y1="249.7717" x2="402.3691" y2="249.7717">
	<stop  offset="0" style="stop-color:#FA12E3"/>
	<stop  offset="0.5362" style="stop-color:#7312FA"/>
	<stop  offset="1" style="stop-color:#415CA7"/>
</linearGradient>
<polygon style="fill:url(#SVGID_00000132811081179167219310000001545664250370755481_);" points="402,228.5 151.7,225.1 165.5,87.1 
	344.1,90.2 351.1,160.6 402.4,160.6 390.3,31.4 119.3,32.7 97.9,275.2 348,275.2 335.8,390.3 242.8,414.6 152,390.4 147.1,335.4 
	97.7,335.4 107.1,429 245.2,468.1 382.8,427.8 "/>
</svg>
