<?xml version="1.0" encoding="utf-8"?>
<!-- Generator: Adobe Illustrator 28.1.0, SVG Export Plug-In . SVG Version: 6.00 Build 0)  -->
<svg version="1.1" id="Camada_1" xmlns="http://www.w3.org/2000/svg" xmlns:xlink="http://www.w3.org/1999/xlink" x="0px" y="0px"
	 viewBox="0 0 500 500" style="enable-background:new 0 0 500 500;" xml:space="preserve">
<style type="text/css">
	.st0{fill:#121212;}
</style>
<path class="st0" d="M344.8,414.1c21.1-3,42.9-6.2,62.5-17.6c23-13.3,38.8-35.7,43.3-61.4c3.4-19.8,0-40.7-9.7-58.8l-1-1.8l0.9-1.9
	c4.1-8.1,6.2-17.1,6.2-26.2c0-24.6-15.6-46.6-38.8-54.7l-3.7-1.3l60-176.9H171.1L231.2,191l-3.6,1.4c-9.5,3.6-17.9,9.7-24.3,17.6
	c-8.4,10.3-13,23.2-13,36.5c0,17.3,7.6,33.5,20.8,44.5l2.9,2.4l-2.3,3c-6.2,8.3-13.1,16.1-20.8,23.3c-14.3,13.4-30.1,23.9-47,31.2
	l-2.2,0.9l-1.9-1.4c-14.8-11.4-20.4-30.7-13.6-46.7l1.2-2.8l1.5-0.6c21.7-9,35.7-30,35.7-53.5c0-32-26-58-58-58s-57.9,26-57.9,58
	c0,13.8,4.7,26.7,13.5,37.2l1.7,2l-1.1,2.3c-1,2.1-2.1,4.3-3.2,6.7C50.4,313.9,40,335.2,36,359.2C28,407.4,41.1,446,72.7,468
	c18,12.4,37,18.5,58.2,18.5c36.3,0,72.8-18.1,108-35.6c25-12.4,50.9-25.3,76.1-31.5C324.7,417,334.5,415.6,344.8,414.1z
	 M417.7,246.5c0,2.8-0.4,5.6-1.2,8.2l0,0c-1.8,6.1-5.7,11.5-11,15.2c-4.8,3.4-10.5,5.1-16.3,5.1c-12.9,0-24.2-8.7-27.5-21.1
	c-0.6-2.4-1-4.9-1-7.4c0-3.8,0.7-7.5,2.2-11c0.7-1.7,1.6-3.3,2.7-4.9c5.3-7.9,14.2-12.6,23.6-12.6c0.9,0,1.7,0,2.7,0.1
	C406.3,219.4,417.7,231.9,417.7,246.5z M212.1,43h211.3l-50.7,149.5L317.9,80.7l-55.2,111.6L212.1,43z M346.9,206.7l-1.7,2
	c-4.3,5-7.7,10.7-10.1,16.9l-1,2.6l-2.8-0.1c-8.3-0.2-16.9-0.2-25.1,0l-2.8,0.1l-1-2.6c-2.6-6.7-6.4-12.9-11.3-18.2l-1.9-2l28.7-58
	L346.9,206.7z M244,218.2c1.4-0.2,2.8-0.3,4.2-0.3c8.8,0,17,4,22.5,11.1c1.3,1.7,2.4,3.5,3.3,5.4c1.8,3.8,2.7,7.9,2.7,12.1
	c0,2.2-0.3,4.4-0.8,6.6c-2.8,11.8-12.8,20.5-24.9,21.8c-0.9,0.1-1.9,0.1-2.8,0.1c-5.5,0-10.9-1.6-15.5-4.6
	c-8.2-5.3-13.1-14.3-13.1-24C219.7,232.4,230.2,220.3,244,218.2z M106.9,218.2c15.7,0,28.5,12.8,28.5,28.5c0,5.4-1.6,10.8-4.5,15.3
	c-4.9,7.6-13.1,12.5-22.1,13.1c-0.8,0.1-1.4,0.1-2,0.1c-3.4,0-6.8-0.6-10-1.8c-6.2-2.3-11.5-6.8-14.8-12.6
	c-2.5-4.3-3.8-9.2-3.8-14.1C78.4,231,91.2,218.2,106.9,218.2z M226.1,424.5c-25.8,12.8-50.2,25-73,30c-7.5,1.7-14.7,2.5-21.5,2.5
	c-15.4,0-29-4.4-41.9-13.3c-29.4-20.4-28-58.7-24.5-79.8c3.3-19.8,12.3-38.3,21-56.2L99,281.6L94.9,308c-2,12.8-0.2,26,5.1,38
	c6.7,14.9,18.7,27.4,33.8,35.2l5.7,2.9l6-2.1c24-8.6,46.1-22.3,65.7-40.8c11.3-10.7,21.3-22.5,29.8-35.1l1.3-1.9l2.3,0.1
	c1.2,0.1,2.5,0.1,3.7,0.1c26.6,0,49.7-18,56.2-43.9l0.7-3l3-0.1c6.9-0.2,14-0.2,20.9,0l3.1,0.1l0.7,3c6.5,25.8,29.6,43.9,56.2,43.9
	c8.7,0,17.1-1.9,24.9-5.6l4.1-2l1.4,4.4c3,9.5,3.7,19.2,2,28.9c-3,17.1-13.6,32.1-29,41c-14.7,8.5-32.8,11.1-52,13.9
	c-10.6,1.5-21.5,3.1-32.3,5.8C279.8,397.8,252.5,411.3,226.1,424.5z"/>
</svg>
