<svg width="500" height="500" viewBox="0 0 500 500" fill="none" xmlns="http://www.w3.org/2000/svg">
<path d="M344.8 414.1C365.9 411.1 387.7 407.9 407.3 396.5C430.3 383.2 446.1 360.8 450.6 335.1C454 315.3 450.6 294.4 440.9 276.3L439.9 274.5L440.8 272.6C444.9 264.5 447 255.5 447 246.4C447 221.8 431.4 199.8 408.2 191.7L404.5 190.4L464.5 13.5H171.1L231.2 191L227.6 192.4C218.1 196 209.7 202.1 203.3 210C194.9 220.3 190.3 233.2 190.3 246.5C190.3 263.8 197.9 280 211.1 291L214 293.4L211.7 296.4C205.5 304.7 198.6 312.5 190.9 319.7C176.6 333.1 160.8 343.6 143.9 350.9L141.7 351.8L139.8 350.4C125 339 119.4 319.7 126.2 303.7L127.4 300.9L128.9 300.3C150.6 291.3 164.6 270.3 164.6 246.8C164.6 214.8 138.6 188.8 106.6 188.8C74.5999 188.8 48.6999 214.8 48.6999 246.8C48.6999 260.6 53.3999 273.5 62.1999 284L63.8999 286L62.7999 288.3C61.7999 290.4 60.6999 292.6 59.5999 295C50.3999 313.9 39.9999 335.2 35.9999 359.2C27.9999 407.4 41.0999 446 72.6999 468C90.6999 480.4 109.7 486.5 130.9 486.5C167.2 486.5 203.7 468.4 238.9 450.9C263.9 438.5 289.8 425.6 315 419.4C324.7 417 334.5 415.6 344.8 414.1ZM417.7 246.5C417.7 249.3 417.3 252.1 416.5 254.7C414.7 260.8 410.8 266.2 405.5 269.9C400.7 273.3 395 275 389.2 275C376.3 275 365 266.3 361.7 253.9C361.1 251.5 360.7 249 360.7 246.5C360.7 242.7 361.4 239 362.9 235.5C363.6 233.8 364.5 232.2 365.6 230.6C370.9 222.7 379.8 218 389.2 218C390.1 218 390.9 218 391.9 218.1C406.3 219.4 417.7 231.9 417.7 246.5ZM212.1 43H423.4L372.7 192.5L317.9 80.7L262.7 192.3L212.1 43ZM346.9 206.7L345.2 208.7C340.9 213.7 337.5 219.4 335.1 225.6L334.1 228.2L331.3 228.1C323 227.9 314.4 227.9 306.2 228.1L303.4 228.2L302.4 225.6C299.8 218.9 296 212.7 291.1 207.4L289.2 205.4L317.9 147.4L346.9 206.7ZM244 218.2C245.4 218 246.8 217.9 248.2 217.9C257 217.9 265.2 221.9 270.7 229C272 230.7 273.1 232.5 274 234.4C275.8 238.2 276.7 242.3 276.7 246.5C276.7 248.7 276.4 250.9 275.9 253.1C273.1 264.9 263.1 273.6 251 274.9C250.1 275 249.1 275 248.2 275C242.7 275 237.3 273.4 232.7 270.4C224.5 265.1 219.6 256.1 219.6 246.4C219.7 232.4 230.2 220.3 244 218.2ZM106.9 218.2C122.6 218.2 135.4 231 135.4 246.7C135.4 252.1 133.8 257.5 130.9 262C126 269.6 117.8 274.5 108.8 275.1C108 275.2 107.4 275.2 106.8 275.2C103.4 275.2 99.9999 274.6 96.7999 273.4C90.5999 271.1 85.2999 266.6 81.9999 260.8C79.4999 256.5 78.1999 251.6 78.1999 246.7C78.3999 231 91.1999 218.2 106.9 218.2ZM226.1 424.5C200.3 437.3 175.9 449.5 153.1 454.5C145.6 456.2 138.4 457 131.6 457C116.2 457 102.6 452.6 89.6999 443.7C60.2999 423.3 61.6999 385 65.1999 363.9C68.4999 344.1 77.4999 325.6 86.1999 307.7L98.9999 281.6L94.8999 308C92.8999 320.8 94.6999 334 99.9999 346C106.7 360.9 118.7 373.4 133.8 381.2L139.5 384.1L145.5 382C169.5 373.4 191.6 359.7 211.2 341.2C222.5 330.5 232.5 318.7 241 306.1L242.3 304.2L244.6 304.3C245.8 304.4 247.1 304.4 248.3 304.4C274.9 304.4 298 286.4 304.5 260.5L305.2 257.5L308.2 257.4C315.1 257.2 322.2 257.2 329.1 257.4L332.2 257.5L332.9 260.5C339.4 286.3 362.5 304.4 389.1 304.4C397.8 304.4 406.2 302.5 414 298.8L418.1 296.8L419.5 301.2C422.5 310.7 423.2 320.4 421.5 330.1C418.5 347.2 407.9 362.2 392.5 371.1C377.8 379.6 359.7 382.2 340.5 385C329.9 386.5 319 388.1 308.2 390.8C279.8 397.8 252.5 411.3 226.1 424.5Z" fill="#FEF5F5"/>
</svg>
