<svg width="500" height="500" viewBox="0 0 500 500" fill="none" xmlns="http://www.w3.org/2000/svg">
<path d="M445.9 233.6C402.5 229 399 197.1 399 187C399 169.5 400.4 155.3 401.8 141.5C403.2 127.3 404.7 112.7 404.7 93.7998C404.7 35.6998 382 24.2998 342.9 24.2998H157.4C110.7 24.2998 94.9996 41.7998 94.9996 93.7998C94.9996 113.2 96.4996 128.3 97.9996 142.9C99.3996 157.1 100.8 170.4 100.8 186.9C100.8 207.4 88.3996 229.9 54.0996 234.2V266.7C68.7996 268.2 80.3996 273.2 88.4996 281.4C96.4996 289.5 100.8 300.5 100.8 313.1C100.8 329.6 99.4996 342.6 97.9996 356.3C96.4996 370.5 94.9996 385.1 94.9996 404.5C94.9996 462.6 117.7 474 156.8 474H184.3V447.7H180.9C150 447.7 143.8 430.2 143.8 402C143.8 387.5 144.4 374.3 145.1 360.4C145.8 346 146.5 331.2 146.5 314.2C146.5 274.2 133.3 263 111.9 257.9L106.1 256.5V242L112 240.7C133.3 235.9 146.5 224.8 146.5 184.4C146.5 168.1 145.8 153.3 145.2 139C144.5 124.8 143.9 111.3 143.9 96.6998C143.9 67.4998 149.8 51.5998 181 51.5998H212.4V315.8C212.4 343.5 217.2 363.5 227.2 377.1C237.8 391.6 254.6 398.7 278.4 398.7C292.2 398.7 302.9 396.9 310.3 394.9L303.3 350.4C301.7 350.5 300.4 350.5 299.1 350.5C288.2 350.5 277.2 341.3 277.2 320.8V50.8998H318.7C329.4 50.8998 341.3 52.1998 348.5 61.4998C354.5 69.3998 355.8 80.9998 355.8 95.8998C355.8 109.3 355.2 122.6 354.6 136.6C353.9 151.5 353.2 167 353.2 183.6C353.2 223.6 366.4 234.8 387.8 239.9L393.6 241.3V255.8L387.7 257.1C366.4 261.9 353.2 273 353.2 313.4C353.2 329.7 353.9 344.5 354.5 358.8C355.2 373 355.8 386.5 355.8 401.1C355.8 428.2 350.9 444 326.2 446.5V447.8H315.4V475.8H343C365.9 475.8 380.9 471.3 390.1 461.6C400.1 451.1 404.8 433.5 404.8 406.3C404.8 387.1 403.3 372.5 401.9 358.3C400.5 344.7 399.1 330.6 399.1 313.1C399.1 292.6 411.5 270.1 445.8 265.8L445.9 233.6Z" fill="#FEF5F5"/>
</svg>
