<?xml version="1.0" encoding="utf-8"?>
<!-- Generator: Adobe Illustrator 28.1.0, SVG Export Plug-In . SVG Version: 6.00 Build 0)  -->
<svg version="1.1" id="Camada_1" xmlns="http://www.w3.org/2000/svg" xmlns:xlink="http://www.w3.org/1999/xlink" x="0px" y="0px"
	 viewBox="0 0 500 500" style="enable-background:new 0 0 500 500;" xml:space="preserve">
<style type="text/css">
	.st0{fill:#BA12EE;}
</style>
<path class="st0" d="M-204,137.4c-8.3-27-9.5-60.1-8.6-85.7c1-26.6-19.9-51.1-47.9-51.1h-287.8c-28.1,0-48.8,24.5-47.9,51.1
	c0.9,25.6-0.3,58.7-8.6,85.7c-8.4,27.1-22.5,44.2-45.7,46.4v24.9c23.1,2.2,37.3,19.3,45.7,46.4c8.3,27,9.5,60.1,8.6,85.7
	c-1,26.6,19.9,51.1,47.9,51.1h287.8c28.1,0,48.9-24.5,47.9-51.1c-0.9-25.6,0.3-58.7,8.6-85.7c8.4-27.1,22.5-44.2,45.6-46.4v-24.9
	C-181.5,181.6-195.7,164.5-204,137.4z M-503.5,250.1h-67.3V142.6h22v85.6h45.3V250.1z M-420,164.3h-44.5v20h38.4v21.9h-38.4v22h44.5
	v21.9h-66.5V142.6h66.5V164.3z M-366.9,251.8c-17.1,0-31.3-7.9-37.9-21.2l-1.1-2.3l17.4-12.5l1.7,2.9c4,7,11.3,10.9,20.1,10.9
	c9.7,0,17-4.4,17-10.2c0-7.3-12.2-12.6-23-17.2l-0.3-0.1c-11.4-5.1-27-12-27-30.2c0-17.8,15.4-31.2,35.7-31.2
	c15.5,0,27.6,7.5,32.3,20.1l0.8,2.2l-16.7,11.6l-1.5-3.3c-2.5-5.5-8.2-8.9-14.8-8.9c-7.6,0-13.7,4.5-13.7,9.9
	c0,4.7,5.3,7.2,15.6,11.5c1.4,0.6,2.8,1.2,4.3,1.8c14.7,6.5,30.4,14.9,30.4,33.6C-327.7,238.4-343.8,251.8-366.9,251.8z
	 M-277.4,251.8c-17.1,0-31.3-7.9-37.9-21.2l-1.1-2.3l17.4-12.5l1.7,2.9c4,7,11.3,10.9,20.1,10.9c9.7,0,17-4.4,17-10.2
	c0-7.3-12.2-12.6-23-17.2l-0.3-0.1c-11.4-5.1-27-12-27-30.2c0-17.8,15.4-31.2,35.7-31.2c15.5,0,27.6,7.5,32.3,20.1l0.8,2.2
	l-16.8,11.6l-1.5-3.3c-2.5-5.5-8.2-8.9-14.8-8.9c-7.6,0-13.7,4.5-13.7,9.9c0,4.7,5.3,7.2,15.6,11.5c1.4,0.6,2.8,1.2,4.3,1.8
	c14.7,6.5,30.4,14.9,30.4,33.6C-238.2,238.4-254.3,251.8-277.4,251.8z"/>
<path class="st0" d="M446,233.4c-43.4-4.6-46.9-36.5-46.9-46.6c0-17.5,1.4-31.7,2.8-45.5c1.4-14.2,2.9-28.8,2.9-47.7
	c0-58.1-22.7-69.5-61.8-69.5H157.5c-46.7,0-62.4,17.5-62.4,69.5c0,19.4,1.5,34.5,3,49.1c1.4,14.2,2.8,27.5,2.8,44
	c0,20.5-12.4,43-46.7,47.3v32.5c14.7,1.5,26.3,6.5,34.4,14.7c8,8.1,12.3,19.1,12.3,31.7c0,16.5-1.3,29.5-2.8,43.2
	c-1.5,14.2-3,28.8-3,48.2c0,58.1,22.7,69.5,61.8,69.5h27.5v-26.3H181c-30.9,0-37.1-17.5-37.1-45.7c0-14.5,0.6-27.7,1.3-41.6
	c0.7-14.4,1.4-29.2,1.4-46.2c0-40-13.2-51.2-34.6-56.3l-5.8-1.4v-14.5l5.9-1.3c21.3-4.8,34.5-15.9,34.5-56.3
	c0-16.3-0.7-31.1-1.3-45.4c-0.7-14.2-1.3-27.7-1.3-42.3c0-29.2,5.9-45.1,37.1-45.1h31.4v264.2c0,27.7,4.8,47.7,14.8,61.3
	c10.6,14.5,27.4,21.6,51.2,21.6c13.8,0,24.5-1.8,31.9-3.8l-7-44.5c-1.6,0.1-2.9,0.1-4.2,0.1c-10.9,0-21.9-9.2-21.9-29.7V50.7h41.5
	c10.7,0,22.6,1.3,29.8,10.6c6,7.9,7.3,19.5,7.3,34.4c0,13.4-0.6,26.7-1.2,40.7c-0.7,14.9-1.4,30.4-1.4,47c0,40,13.2,51.2,34.6,56.3
	l5.8,1.4v14.5l-5.9,1.3c-21.3,4.8-34.5,15.9-34.5,56.3c0,16.3,0.7,31.1,1.3,45.4c0.7,14.2,1.3,27.7,1.3,42.3
	c0,27.1-4.9,42.9-29.6,45.4v1.3h-10.8v28h27.6c22.9,0,37.9-4.5,47.1-14.2c10-10.5,14.7-28.1,14.7-55.3c0-19.2-1.5-33.8-2.9-48
	c-1.4-13.6-2.8-27.7-2.8-45.2c0-20.5,12.4-43,46.7-47.3V233.4z"/>
</svg>
