<?xml version="1.0" encoding="utf-8"?>
<!-- Generator: Adobe Illustrator 28.1.0, SVG Export Plug-In . SVG Version: 6.00 Build 0)  -->
<svg version="1.1" id="Camada_1" xmlns="http://www.w3.org/2000/svg" xmlns:xlink="http://www.w3.org/1999/xlink" x="0px" y="0px"
	 viewBox="0 0 500 500" style="enable-background:new 0 0 500 500;" xml:space="preserve">
<style type="text/css">
	.st0{fill:#BA12EE;}
	.st1{opacity:0.3;fill:#121212;}
</style>
<path class="st0" d="M450.5,191.1c-8.3-27-9.5-60.1-8.6-85.7c1-26.6-19.9-51.1-47.9-51.1H106.2c-28.1,0-48.8,24.5-47.9,51.1
	c0.9,25.6-0.3,58.7-8.6,85.7c-8.4,27.1-22.5,44.2-45.7,46.4v24.9c23.1,2.2,37.3,19.3,45.7,46.4c8.3,27,9.5,60.1,8.6,85.7
	c-1,26.6,19.9,51.1,47.9,51.1H394c28.1,0,48.9-24.5,47.9-51.1c-0.9-25.6,0.3-58.7,8.6-85.7c8.4-27.1,22.5-44.2,45.6-46.4v-24.9
	C473,235.3,458.8,218.2,450.5,191.1z M151,303.8H83.7V196.3h22v85.6H151V303.8z M234.5,218h-44.5v20h38.4v21.9h-38.4v22h44.5v21.9
	h-66.5V196.3h66.5V218z M287.6,305.5c-17.1,0-31.3-7.9-37.9-21.2l-1.1-2.3l17.4-12.5l1.7,2.9c4,7,11.3,10.9,20.1,10.9
	c9.7,0,17-4.4,17-10.2c0-7.3-12.2-12.6-23-17.2l-0.3-0.1c-11.4-5.1-27-12-27-30.2c0-17.8,15.4-31.2,35.7-31.2
	c15.5,0,27.6,7.5,32.3,20.1l0.8,2.2l-16.7,11.6l-1.5-3.3c-2.5-5.5-8.2-8.9-14.8-8.9c-7.6,0-13.7,4.5-13.7,9.9
	c0,4.7,5.3,7.2,15.6,11.5c1.4,0.6,2.8,1.2,4.3,1.8c14.7,6.5,30.4,14.9,30.4,33.6C326.8,292.1,310.7,305.5,287.6,305.5z M377.1,305.5
	c-17.1,0-31.3-7.9-37.9-21.2l-1.1-2.3l17.4-12.5l1.7,2.9c4,7,11.3,10.9,20.1,10.9c9.7,0,17-4.4,17-10.2c0-7.3-12.2-12.6-23-17.2
	l-0.3-0.1c-11.4-5.1-27-12-27-30.2c0-17.8,15.4-31.2,35.7-31.2c15.5,0,27.6,7.5,32.3,20.1l0.8,2.2L396,228.3l-1.5-3.3
	c-2.5-5.5-8.2-8.9-14.8-8.9c-7.6,0-13.7,4.5-13.7,9.9c0,4.7,5.3,7.2,15.6,11.5c1.4,0.6,2.8,1.2,4.3,1.8
	c14.7,6.5,30.4,14.9,30.4,33.6C416.3,292.1,400.2,305.5,377.1,305.5z"/>
<path class="st1" d="M345.8,211.3c0-21.4,3.5-33.9,3.5-57c0-35.6-13.4-47.1-42.4-47.1h-19.2h-2.2h-14.2H229h-35.6
	c-29.6,0-42.8,11.3-42.8,47.1c0,23.4,3.5,36.6,3.5,57c0,11.5-7.2,23.7-28.6,24.7v28.4c21.6,0.6,28.6,12.5,28.6,24.1
	c0,20.4-3.5,32.5-3.5,55.9c0,35.6,13.4,47.1,42.4,47.1h21.4v-25.3h-6.6c-13.8,0-18.1-5.6-18.1-23.4c0-18.1,1.6-33.3,1.6-53.7
	c0-25.3-8.4-35-24.7-38.9v-1.6c16.5-3.7,24.7-13.6,24.7-38.9c0-19.7-1.6-35.6-1.6-53.7s3.9-23,18.1-23h14.6v157.1
	c0,33.5,11.5,55.3,45,55.3c10.5,0,18.7-1.6,24.7-3.7l-5.6-35.6c-3.1,0.6-4.7,0.6-6.4,0.6c-3.9,0-8.8-3.3-8.8-13.6V132.6h16.4v0h4.4
	c14.8,0,18.1,4.9,18.1,23c0,16.9-1.6,33.9-1.6,53.7c0,25.3,8.4,35,24.7,38.9v1.6c-16.5,3.7-24.7,13.6-24.7,38.9
	c0,19.7,1.6,35.6,1.6,53.7c0,18.5-3.9,23.4-18.1,23.4v0.6h-6.6v26.3H307c29.2,0,42.4-11.3,42.4-47.1c0-23.4-3.5-35.6-3.5-57
	c0-11.5,7.2-23.7,28.6-24.7v-28.4C352.8,234.8,345.8,222.9,345.8,211.3z"/>
</svg>
