<?xml version="1.0" encoding="utf-8"?>
<!-- Generator: Adobe Illustrator 28.1.0, SVG Export Plug-In . SVG Version: 6.00 Build 0)  -->
<svg version="1.1" id="Camada_2_00000008868032397062724930000000405460260899374269_"
	 xmlns="http://www.w3.org/2000/svg" xmlns:xlink="http://www.w3.org/1999/xlink" x="0px" y="0px" viewBox="0 0 500 500"
	 style="enable-background:new 0 0 500 500;" xml:space="preserve">
<style type="text/css">
	.st0{fill:url(#SVGID_1_);}
	.st1{fill:url(#SVGID_00000048479189958574761650000000534700234708705716_);}
	.st2{fill:url(#SVGID_00000014618805774089783970000017631391029938856119_);}
	.st3{fill:url(#SVGID_00000169526178897254669560000012228145446878279061_);}
	.st4{opacity:0.75;fill:url(#SVGID_00000083771431480070104810000001646560108956941213_);}
	.st5{fill:url(#SVGID_00000064314261675623388020000017507832740974551202_);}
	.st6{opacity:0.3;fill:#121212;enable-background:new    ;}
</style>
<g>
	
		<linearGradient id="SVGID_1_" gradientUnits="userSpaceOnUse" x1="-802.2419" y1="189.8696" x2="-548.0818" y2="134.4296" gradientTransform="matrix(1 0 0 -1 0 499)">
		<stop  offset="0" style="stop-color:#FA12E3"/>
		<stop  offset="0.54" style="stop-color:#7312FA"/>
		<stop  offset="1" style="stop-color:#415CA7"/>
	</linearGradient>
	<path class="st0" d="M-744.7,314.6h-6.8v12.8h6.8c2.4,0,4.6-0.8,6.1-2.3c0.8-0.8,1.8-2.1,1.8-4
		C-736.8,317.5-740.4,314.6-744.7,314.6z"/>
	
		<linearGradient id="SVGID_00000006684948381593406240000018025459279228656056_" gradientUnits="userSpaceOnUse" x1="-797.0482" y1="213.6797" x2="-542.8881" y2="158.2397" gradientTransform="matrix(1 0 0 -1 0 499)">
		<stop  offset="0" style="stop-color:#FA12E3"/>
		<stop  offset="0.54" style="stop-color:#7312FA"/>
		<stop  offset="1" style="stop-color:#415CA7"/>
	</linearGradient>
	<path style="fill:url(#SVGID_00000006684948381593406240000018025459279228656056_);" d="M-632.9,314.6h-5.6v11.9h5.6l0,0
		c1.7,0,3.4-0.7,4.7-1.9c1.2-1.1,1.8-2.6,1.8-4.1C-626.4,317.2-629.3,314.6-632.9,314.6z"/>
	
		<linearGradient id="SVGID_00000044881839158805441310000014828944987501720459_" gradientUnits="userSpaceOnUse" x1="-802.4213" y1="189.047" x2="-548.2613" y2="133.6069" gradientTransform="matrix(1 0 0 -1 0 499)">
		<stop  offset="0" style="stop-color:#FA12E3"/>
		<stop  offset="0.54" style="stop-color:#7312FA"/>
		<stop  offset="1" style="stop-color:#415CA7"/>
	</linearGradient>
	<polygon style="fill:url(#SVGID_00000044881839158805441310000014828944987501720459_);" points="-702.7,340.5 -688.1,340.5 
		-695.4,324.4 	"/>
	
		<linearGradient id="SVGID_00000088836802526290858480000007106264129389284233_" gradientUnits="userSpaceOnUse" x1="-849.2068" y1="167.6" x2="-357.1068" y2="167.6" gradientTransform="matrix(1 0 0 -1 0 499)">
		<stop  offset="0" style="stop-color:#FA12E3"/>
		<stop  offset="0.54" style="stop-color:#7312FA"/>
		<stop  offset="1" style="stop-color:#415CA7"/>
	</linearGradient>
	<path style="fill:url(#SVGID_00000088836802526290858480000007106264129389284233_);" d="M-402.7,272.5c-8.3-27-9.5-60.1-8.6-85.7
		c1-26.6-19.9-51.1-47.9-51.1H-747c-28.1,0-48.8,24.5-47.9,51.1c0.9,25.6-0.3,58.7-8.6,85.7c-8.4,27.1-22.5,44.2-45.7,46.4v24.9
		c23.1,2.2,37.3,19.3,45.7,46.4c8.3,27,9.5,60.1,8.6,85.7c-1,26.6,19.9,51.1,47.9,51.1h287.8c28.1,0,48.9-24.5,47.9-51.1
		c-0.9-25.6,0.3-58.7,8.6-85.7c8.4-27.1,22.5-44.2,45.6-46.4v-24.9C-380.2,316.8-394.4,299.6-402.7,272.5z M-751.5,344.9V366H-769
		v-68.8h24.3c14,0,25.4,10.8,25.4,24.1c0,13-11.4,23.7-25.4,23.7h-6.8V344.9z M-679.5,365.9l-4.2-9.2h-23.5l-4.2,9.2h-19.2
		l32.3-70.1h5.7l32.3,70.1H-679.5z M-620.7,365.9l-16.4-23.5h-1.4v23.5H-656v-68.8h22.9c13.6,0,24.6,10.6,24.6,23.5
		c0,7.5-3.9,14.5-10,18.5l19.5,26.8H-620.7z M-564.4,349.3c5.6,0,10.2-3.3,13-6.1l3.3-3.3l10.2,14.3l-2.4,2.4
		c-7,6.9-14.8,10.3-23.8,10.3c-19.6,0-35.5-15.9-35.5-35.4c0-19.2,16.2-35.5,35.4-35.5c8.8,0.1,17.1,3.7,23.9,10.4l2.5,2.4
		l-10.4,14.2l-3.3-3.3c-3.8-3.8-8.4-5.9-12.9-5.9c-9.3,0-17.5,8.3-17.5,17.8C-582,342.1-572.7,349.3-564.4,349.3z M-487.6,314.5
		h-26.7v7.6h23v17.5h-23v8.8h26.7v17.5h-44.2v-68.8h44.2V314.5z M-433.3,365.9H-478v-68.8h17.5v51.3h27.1v17.5H-433.3z"/>
</g>
<g>
	
		<linearGradient id="SVGID_00000004512560175680695150000008235639762721672074_" gradientUnits="userSpaceOnUse" x1="44.8" y1="250" x2="455.2" y2="250">
		<stop  offset="0" style="stop-color:#FA12E3"/>
		<stop  offset="0.54" style="stop-color:#7312FA"/>
		<stop  offset="1" style="stop-color:#415CA7"/>
	</linearGradient>
	<path style="opacity:0.75;fill:url(#SVGID_00000004512560175680695150000008235639762721672074_);" d="M455.2,158L384.4,44.8H115.6
		L44.8,158v297.2h410.3V158H455.2z"/>
	
		<linearGradient id="SVGID_00000152264798474053341780000003746023189270301847_" gradientUnits="userSpaceOnUse" x1="44.8" y1="101.4222" x2="455.0522" y2="101.4222">
		<stop  offset="0" style="stop-color:#FA12E3"/>
		<stop  offset="0.54" style="stop-color:#7312FA"/>
		<stop  offset="1" style="stop-color:#415CA7"/>
	</linearGradient>
	<path style="fill:url(#SVGID_00000152264798474053341780000003746023189270301847_);" d="M44.8,158h410.3L384.2,44.8H115.6
		L44.8,158z"/>
	<path class="st6" d="M207.6,412.8v42.4h84.9v-42.4L278.2,427L250,398.6l-28.2,28.2L207.6,412.8z"/>
	<path class="st6" d="M186.3,257.1h127.3v113.2H186.3V257.1z"/>
	<path class="st6" d="M257.1,334.9h-42.4c-3.8,0-7.1,3.1-7.1,7.1c0,4,3.1,7.1,7.1,7.1h42.4c3.8,0,7.1-3.1,7.1-7.1
		C264.2,338,260.9,334.9,257.1,334.9z M285.3,334.9h-7.1c-3.8,0-7.1,3.1-7.1,7.1c0,4,3.1,7.1,7.1,7.1h7.1c3.8,0,7.1-3.1,7.1-7.1
		C292.4,338,289.3,334.9,285.3,334.9z M242.9,292.4h42.4c3.8,0,7.1-3.1,7.1-7.1c0-4-3.1-7.1-7.1-7.1h-42.4c-3.8,0-7.1,3.1-7.1,7.1
		C235.8,289.3,239.1,292.4,242.9,292.4z M285.3,306.6h-14.2c-3.8,0-7.1,3.1-7.1,7.1c0,4,3.1,7.1,7.1,7.1h14.2c3.8,0,7.1-3.1,7.1-7.1
		C292.4,309.7,289.3,306.6,285.3,306.6z M214.7,320.8h14.2c3.8,0,7.1-3.1,7.1-7.1c0-4-3.1-7.1-7.1-7.1h-14.2c-3.8,0-7.1,3.1-7.1,7.1
		C207.6,317.7,210.7,320.8,214.7,320.8z M214.7,292.4h7.1c3.8,0,7.1-3.1,7.1-7.1c0-4-3.1-7.1-7.1-7.1h-7.1c-3.8,0-7.1,3.1-7.1,7.1
		C207.6,289.3,210.7,292.4,214.7,292.4z M245.1,308.7c-1.3,1.3-2.1,3.1-2.1,4.9c0,1.9,0.7,3.7,2.1,4.9c1.3,1.3,3.1,2.1,4.9,2.1
		c1.9,0,3.7-0.7,5-2.1s2.1-3.1,2.1-5c0-1.9-0.7-3.7-2.1-5C252.2,306,247.8,306,245.1,308.7L245.1,308.7z"/>
	<path class="st6" d="M207.6,44.8h84.9V158h-84.9L207.6,44.8L207.6,44.8z"/>
	<path class="st6" d="M292.4,207.6V158h-84.9v49.5l14.2-14.2l28.2,28.2l28.2-28.2L292.4,207.6z"/>
</g>
</svg>
