<svg width="500" height="500" viewBox="0 0 500 500" fill="none" xmlns="http://www.w3.org/2000/svg">
<path opacity="0.75" d="M455.2 158L384.4 44.7998H115.6L44.7998 158V455.2H455.1V158H455.2Z" fill="#FEF5F5"/>
<path d="M44.7998 158H455.1L384.2 44.7998H115.6L44.7998 158Z" fill="#FEF5F5"/>
<path opacity="0.3" d="M207.6 412.8V455.2H292.5V412.8L278.2 427L250 398.6L221.8 426.8L207.6 412.8Z" fill="#FEF5F5"/>
<path opacity="0.3" d="M186.3 257.1H313.6V370.3H186.3V257.1Z" fill="#FEF5F5"/>
<path opacity="0.3" d="M257.1 334.9H214.7C210.9 334.9 207.6 338 207.6 342C207.6 346 210.7 349.1 214.7 349.1H257.1C260.9 349.1 264.2 346 264.2 342C264.2 338 260.9 334.9 257.1 334.9ZM285.3 334.9H278.2C274.4 334.9 271.1 338 271.1 342C271.1 346 274.2 349.1 278.2 349.1H285.3C289.1 349.1 292.4 346 292.4 342C292.4 338 289.3 334.9 285.3 334.9ZM242.9 292.4H285.3C289.1 292.4 292.4 289.3 292.4 285.3C292.4 281.3 289.3 278.2 285.3 278.2H242.9C239.1 278.2 235.8 281.3 235.8 285.3C235.8 289.3 239.1 292.4 242.9 292.4ZM285.3 306.6H271.1C267.3 306.6 264 309.7 264 313.7C264 317.7 267.1 320.8 271.1 320.8H285.3C289.1 320.8 292.4 317.7 292.4 313.7C292.4 309.7 289.3 306.6 285.3 306.6ZM214.7 320.8H228.9C232.7 320.8 236 317.7 236 313.7C236 309.7 232.9 306.6 228.9 306.6H214.7C210.9 306.6 207.6 309.7 207.6 313.7C207.6 317.7 210.7 320.8 214.7 320.8ZM214.7 292.4H221.8C225.6 292.4 228.9 289.3 228.9 285.3C228.9 281.3 225.8 278.2 221.8 278.2H214.7C210.9 278.2 207.6 281.3 207.6 285.3C207.6 289.3 210.7 292.4 214.7 292.4ZM245.1 308.7C243.8 310 243 311.8 243 313.6C243 315.5 243.7 317.3 245.1 318.5C246.4 319.8 248.2 320.6 250 320.6C251.9 320.6 253.7 319.9 255 318.5C256.3 317.1 257.1 315.4 257.1 313.5C257.1 311.6 256.4 309.8 255 308.5C252.2 306 247.8 306 245.1 308.7Z" fill="#FEF5F5"/>
<path opacity="0.3" d="M207.6 44.7998H292.5V158H207.6V44.7998Z" fill="#FEF5F5"/>
<path opacity="0.3" d="M292.4 207.6V158H207.5V207.5L221.7 193.3L249.9 221.5L278.1 193.3L292.4 207.6Z" fill="#FEF5F5"/>
</svg>
