<svg width="500" height="500" viewBox="0 0 500 500" fill="none" xmlns="http://www.w3.org/2000/svg">
<path d="M228.8 213C208.6 224.7 201.7 250.5 213.3 270.7C225 290.9 250.8 297.8 271 286.2C291.2 274.6 298.1 248.7 286.5 228.5C274.8 208.3 249 201.4 228.8 213ZM418.1 258.9C415.3 255.7 412.4 252.6 409.3 249.4C411.5 247.1 413.5 244.9 415.5 242.6C453.5 199.9 469.5 157.1 454.7 131.4C440.5 106.7 398.1 99.4 345 109.7C339.8 110.7 334.6 111.9 329.4 113.2C328.4 109.8 327.4 106.4 326.2 103C308.2 48.8 279.1 13.5 249.4 13.5C220.9 13.5 193.4 46.6 175.8 97.7C174.1 102.7 172.5 107.8 171 113C167.5 112.2 164.1 111.4 160.6 110.7C104.6 99.2 59.4995 106.8 44.6995 132.5C30.4995 157.2 45.3995 197.6 80.8995 238.3C84.3995 242.3 87.9995 246.3 91.7995 250.1C87.3995 254.6 83.2995 259.1 79.3995 263.6C44.8995 303.6 30.7995 343.3 44.9995 367.9C59.6995 393.3 104.1 401.6 158.2 390.9C162.6 390 166.9 389.1 171.3 388C172.9 393.5 174.6 399 176.5 404.5C194 454.6 221.4 486.6 249.8 486.5C279.1 486.5 308.5 452.1 326.3 399.9C327.7 395.8 329 391.5 330.3 387.1C335.9 388.5 341.5 389.7 347.2 390.8C399.3 400.7 440.7 392.9 454.9 368.3C469.5 343 454.5 300.4 418.1 258.9ZM62.3995 142.4C71.4995 126.6 108.4 120.4 156.7 130.3C159.8 130.9 162.9 131.6 166.1 132.4C161.4 153.3 158.1 174.4 156.1 195.7C138.7 208 122 221.3 106.3 235.8C102.8 232.2 99.4995 228.6 96.1995 224.8C65.8995 189.9 53.7995 157.3 62.3995 142.4ZM154.4 277.9C142.3 268.8 131.1 259.4 120.9 250C131.1 240.6 142.3 231.3 154.4 222.2C154 231.5 153.8 240.8 153.8 250.1C153.7 259.3 153.9 268.6 154.4 277.9ZM154.3 371.1C133.8 375.7 112.6 376.4 91.8995 373.3C80.3995 372.4 69.7995 366.8 62.4995 357.8C53.8995 342.9 65.0995 311 94.7995 276.7C98.4995 272.4 102.4 268.2 106.3 264.1C122 278.6 138.7 292 156.1 304.3C158 325.9 161.4 347.3 166.2 368.5C162.3 369.4 158.3 370.3 154.3 371.1ZM322.3 181C314.4 176 306.3 171.2 298.2 166.5C290.2 161.9 282.1 157.5 273.9 153.2C287.9 147.3 301.7 142.3 315 138.2C318.2 152.3 320.6 166.6 322.3 181ZM195.1 104.2C210.2 60.4 232.4 33.7 249.6 33.7C267.9 33.7 291.6 62.5 307.2 109.3C308.2 112.4 309.2 115.4 310.1 118.5C289.7 124.8 269.7 132.5 250.3 141.5C231 132.4 211.1 124.7 190.7 118.3C192 113.5 193.5 108.8 195.1 104.2ZM185.6 137.8C199.5 142.2 213.1 147.2 226.5 153C209.9 161.6 193.8 170.9 178.1 180.9C180 165.9 182.5 151.4 185.6 137.8ZM178.1 319.1C185.9 324.1 193.9 328.9 202 333.6C210.2 338.3 218.6 342.9 227 347.2C213.5 353.1 199.7 358.4 185.7 362.9C182.6 349.1 180.1 334.4 178.1 319.1ZM307.2 393.5C300.9 413.5 291 432.3 277.9 448.7C271.4 458.2 261.2 464.6 249.8 466.4C232.6 466.4 210.6 440.7 195.6 397.9C193.8 392.8 192.2 387.7 190.7 382.6C211.2 376 231.2 368 250.5 358.7C270.1 367.7 290.2 375.5 310.8 381.8C309.7 385.7 308.5 389.6 307.2 393.5ZM315.8 362.2C302.3 358 288.3 352.9 274.1 346.9C282.1 342.7 290.2 338.2 298.3 333.5C306.7 328.7 314.8 323.7 322.7 318.7C321.2 333.3 318.8 347.8 315.8 362.2ZM326.3 250C326.3 264.4 325.9 278.7 325 293.1C313.3 301 301 308.7 288.2 316.1C275.5 323.5 262.8 330.2 250.4 336.3C237.4 330.1 224.6 323.3 212 316.1C199.5 308.9 187.4 301.3 175.5 293.2C174.4 278.9 173.9 264.5 173.9 250.1C173.9 235.7 174.4 221.4 175.5 207C187.2 199 199.4 191.3 212 184.1C224.7 176.8 237.5 170 250.2 163.9C263.1 170.2 275.7 176.9 288.1 184C300.6 191.2 312.8 198.7 324.7 206.7C325.8 221 326.3 235.5 326.3 250ZM349 129.5C394.5 120.7 428.7 126.6 437.3 141.5C446.4 157.3 433.3 192.3 400.5 229.2C398.7 231.2 396.8 233.3 394.9 235.3C378.9 220.9 362 207.5 344.2 195.4C342.4 174.3 339.2 153.4 334.6 132.7C339.5 131.5 344.3 130.4 349 129.5ZM345.9 221.4C357.9 230.2 369.4 239.5 380.5 249.5C369.5 259.6 358 269.2 346 278.1C346.4 268.7 346.5 259.4 346.5 250C346.5 240.4 346.3 230.9 345.9 221.4ZM437.4 358.3C428.8 373.2 395.6 379.5 351 371C345.9 370 340.6 368.9 335.3 367.6C339.8 346.7 342.8 325.5 344.5 304.2C362.3 291.8 379.2 278.3 395.1 263.6C397.9 266.5 400.5 269.4 403 272.2C417.2 287.7 428.5 305.6 436.2 325.1C441.1 335.5 441.6 347.6 437.4 358.3Z" fill="#FEF5F5"/>
</svg>
