<?xml version="1.0" encoding="utf-8"?>
<!-- Generator: Adobe Illustrator 28.1.0, SVG Export Plug-In . SVG Version: 6.00 Build 0)  -->
<svg version="1.1" id="Camada_1" xmlns="http://www.w3.org/2000/svg" xmlns:xlink="http://www.w3.org/1999/xlink" x="0px" y="0px"
	 viewBox="0 0 500 500" style="enable-background:new 0 0 500 500;" xml:space="preserve">
<style type="text/css">
	.st0{fill:url(#SVGID_1_);}
	.st1{fill:url(#SVGID_00000079464545956006123800000010785558573743079831_);}
	.st2{fill:url(#SVGID_00000054946774457840370870000010479821729945267343_);}
	.st3{fill:url(#SVGID_00000151540850410753079220000015081880987678466483_);}
	.st4{fill:url(#SVGID_00000130620304541088019320000001193417654251307952_);}
</style>
<linearGradient id="SVGID_1_" gradientUnits="userSpaceOnUse" x1="302.7949" y1="-10.75" x2="305.4434" y2="-10.75" gradientTransform="matrix(1 0 0 1 0 334)">
	<stop  offset="0" style="stop-color:#FA12E3"/>
	<stop  offset="0.5362" style="stop-color:#7312FA"/>
	<stop  offset="1" style="stop-color:#415CA7"/>
</linearGradient>
<path class="st0" d="M303.6,321.7h-0.8v3.1h0.7c0.8,0,1.2-0.2,1.4-0.5c0.3-0.2,0.5-0.6,0.5-1.4c0-0.6-0.2-0.8-0.3-0.8
	C305,321.8,304.5,321.7,303.6,321.7z"/>
<g>
	
		<linearGradient id="SVGID_00000103958627005402163530000000916731732348668567_" gradientUnits="userSpaceOnUse" x1="657.4781" y1="444.0147" x2="1149.5781" y2="444.0147">
		<stop  offset="0" style="stop-color:#FA12E3"/>
		<stop  offset="0.5362" style="stop-color:#7312FA"/>
		<stop  offset="1" style="stop-color:#415CA7"/>
	</linearGradient>
	<path style="fill:url(#SVGID_00000103958627005402163530000000916731732348668567_);" d="M1104,385.2c-8.3-27-9.5-60.1-8.6-85.7
		c1-26.6-19.9-51.1-47.9-51.1H759.7c-28.1,0-48.8,24.5-47.9,51.1c0.9,25.6-0.3,58.7-8.6,85.7c-8.4,27.1-22.5,44.2-45.7,46.4v24.9
		c23.1,2.2,37.3,19.3,45.7,46.4c8.3,27,9.5,60.1,8.6,85.7c-1,26.6,19.9,51.1,47.9,51.1h287.8c28.1,0,48.9-24.5,47.9-51.1
		c-0.9-25.6,0.3-58.7,8.6-85.7c8.4-27.1,22.5-44.2,45.6-46.4v-24.9C1126.5,429.4,1112.3,412.3,1104,385.2z M764.7,488.8L742,456.2
		h-6.5v32.6h-18.2l-0.1-89.2h28.7c17.1,0,31,13.3,31,29.6c0,10.5-6.1,20.2-15.3,24.6l25.5,35.1H764.7z M850.2,417.6h-36.9v16.6h31.9
		v18.2h-31.9v18.3h36.9v18.2h-55.2v-89.2h55.2V417.6z M925.1,488.8l-5.7-12.8h-36.6l-5.7,12.8h-19.8l41.9-90.9h4l41.9,90.9H925.1z
		 M988.2,471.9c8.8,0,15.8-5.1,20.1-9.3l2.1-2.1l10.6,14.8l-1.5,1.5c-9.1,9-19.2,13.4-30.8,13.4c-25.5,0-46.2-20.6-46.2-45.9
		c0-25,21.1-46.1,46-46.1c11.4,0.2,22.1,4.9,31,13.6l1.6,1.5l-10.7,14.5l-2.1-2.1c-5.9-5.9-13-9.1-20.1-9.1
		c-14.6,0-27.3,13-27.3,27.8C960.8,460.6,975.2,471.9,988.2,471.9z M1089.8,417.7h-22.6v71.1H1049v-71.1h-22.6v-18.1h63.4V417.7z"/>
	
		<linearGradient id="SVGID_00000180360245962614972480000009931555753229935499_" gradientUnits="userSpaceOnUse" x1="858.8289" y1="445.7245" x2="962.5089" y2="450.7645">
		<stop  offset="0" style="stop-color:#FA12E3"/>
		<stop  offset="0.1108" style="stop-color:#7312FA"/>
		<stop  offset="0.4474" style="stop-color:#415CA7"/>
	</linearGradient>
	<polygon style="fill:url(#SVGID_00000180360245962614972480000009931555753229935499_);" points="890.1,459.7 911.9,459.7 
		901,435.3 	"/>
	
		<linearGradient id="SVGID_00000095331034924929899770000018304713524586115732_" gradientUnits="userSpaceOnUse" x1="721.8492" y1="456.1656" x2="788.0893" y2="374.0856">
		<stop  offset="0.3051" style="stop-color:#FA12E3"/>
		<stop  offset="0.7624" style="stop-color:#7312FA"/>
		<stop  offset="1" style="stop-color:#415CA7"/>
	</linearGradient>
	<path style="fill:url(#SVGID_00000095331034924929899770000018304713524586115732_);" d="M746.2,417.7h-10.8v22.5h10.8
		c0,0,0.1,0,0.1,0c3.2,0,6.3-1.3,8.6-3.6c2.2-2.2,3.4-4.9,3.4-7.8C758.3,422.6,753,417.7,746.2,417.7z"/>
</g>
<linearGradient id="SVGID_00000043437180369373482390000005900849500710736831_" gradientUnits="userSpaceOnUse" x1="39.5508" y1="250" x2="460.4492" y2="250">
	<stop  offset="0" style="stop-color:#FA12E3"/>
	<stop  offset="0.5362" style="stop-color:#7312FA"/>
	<stop  offset="1" style="stop-color:#415CA7"/>
</linearGradient>
<path style="fill:url(#SVGID_00000043437180369373482390000005900849500710736831_);" d="M228.8,213c-20.2,11.7-27.1,37.5-15.5,57.7
	c11.7,20.2,37.5,27.1,57.7,15.5s27.1-37.5,15.5-57.7c0,0,0,0,0,0C274.8,208.3,249,201.4,228.8,213z M418.1,258.9
	c-2.8-3.2-5.7-6.3-8.8-9.5c2.2-2.3,4.2-4.5,6.2-6.8c38-42.7,54-85.5,39.2-111.2c-14.2-24.7-56.6-32-109.7-21.7
	c-5.2,1-10.4,2.2-15.6,3.5c-1-3.4-2-6.8-3.2-10.2c-18-54.2-47.1-89.5-76.8-89.5c-28.5,0-56,33.1-73.6,84.2c-1.7,5-3.3,10.1-4.8,15.3
	c-3.5-0.8-6.9-1.6-10.4-2.3c-56-11.5-101.1-3.9-115.9,21.8c-14.2,24.7,0.7,65.1,36.2,105.8c3.5,4,7.1,8,10.9,11.8
	c-4.4,4.5-8.5,9-12.4,13.5C44.9,303.6,30.8,343.3,45,367.9c14.7,25.4,59.1,33.7,113.2,23c4.4-0.9,8.7-1.8,13.1-2.9
	c1.6,5.5,3.3,11,5.2,16.5c17.5,50.1,44.9,82.1,73.3,82c29.3,0,58.7-34.4,76.5-86.6c1.4-4.1,2.7-8.4,4-12.8
	c5.6,1.4,11.2,2.6,16.9,3.7c52.1,9.9,93.5,2.1,107.7-22.5C469.5,343,454.5,300.4,418.1,258.9L418.1,258.9z M62.4,142.4
	c9.1-15.8,46-22,94.3-12.1c3.1,0.6,6.2,1.3,9.4,2.1c-4.7,20.9-8,42-10,63.3c-17.4,12.3-34.1,25.6-49.8,40.1
	c-3.5-3.6-6.8-7.2-10.1-11l0,0C65.9,189.9,53.8,157.3,62.4,142.4z M154.4,277.9c-12.1-9.1-23.3-18.5-33.5-27.9
	c10.2-9.4,21.4-18.7,33.5-27.8c-0.4,9.3-0.6,18.6-0.6,27.9C153.7,259.3,153.9,268.6,154.4,277.9z M154.3,371.1
	c-20.5,4.6-41.7,5.3-62.4,2.2c-11.5-0.9-22.1-6.5-29.4-15.5c-8.6-14.9,2.6-46.8,32.3-81.1c3.7-4.3,7.6-8.5,11.5-12.6
	c15.7,14.5,32.4,27.9,49.8,40.2c1.9,21.6,5.3,43,10.1,64.2C162.3,369.4,158.3,370.3,154.3,371.1z M322.3,181
	c-7.9-5-16-9.8-24.1-14.5c-8-4.6-16.1-9-24.3-13.3c14-5.9,27.8-10.9,41.1-15C318.2,152.3,320.6,166.6,322.3,181L322.3,181z
	 M195.1,104.2c15.1-43.8,37.3-70.5,54.5-70.5c18.3,0,42,28.8,57.6,75.6c1,3.1,2,6.1,2.9,9.2c-20.4,6.3-40.4,14-59.8,23
	c-19.3-9.1-39.2-16.8-59.6-23.2C192,113.5,193.5,108.8,195.1,104.2z M185.6,137.8c13.9,4.4,27.5,9.4,40.9,15.2
	c-16.6,8.6-32.7,17.9-48.4,27.9C180,165.9,182.5,151.4,185.6,137.8z M178.1,319.1c7.8,5,15.8,9.8,23.9,14.5
	c8.2,4.7,16.6,9.3,25,13.6c-13.5,5.9-27.3,11.2-41.3,15.7C182.6,349.1,180.1,334.4,178.1,319.1z M307.2,393.5
	c-6.3,20-16.2,38.8-29.3,55.2l0,0c-6.5,9.5-16.7,15.9-28.1,17.7c-17.2,0-39.2-25.7-54.2-68.5c-1.8-5.1-3.4-10.2-4.9-15.3
	c20.5-6.6,40.5-14.6,59.8-23.9c19.6,9,39.7,16.8,60.3,23.1C309.7,385.7,308.5,389.6,307.2,393.5L307.2,393.5z M315.8,362.2
	c-13.5-4.2-27.5-9.3-41.7-15.3c8-4.2,16.1-8.7,24.2-13.4c8.4-4.8,16.5-9.8,24.4-14.8C321.2,333.3,318.8,347.8,315.8,362.2
	L315.8,362.2z M326.3,250c0,14.4-0.4,28.7-1.3,43.1c-11.7,7.9-24,15.6-36.8,23c-12.7,7.4-25.4,14.1-37.8,20.2
	c-13-6.2-25.8-13-38.4-20.2c-12.5-7.2-24.6-14.8-36.5-22.9c-1.1-14.3-1.6-28.7-1.6-43.1l0,0c0-14.4,0.5-28.7,1.6-43.1
	c11.7-8,23.9-15.7,36.5-22.9c12.7-7.3,25.5-14.1,38.2-20.2c12.9,6.3,25.5,13,37.9,20.1c12.5,7.2,24.7,14.7,36.6,22.7
	C325.8,221,326.3,235.5,326.3,250L326.3,250z M349,129.5c45.5-8.8,79.7-2.9,88.3,12c9.1,15.8-4,50.8-36.8,87.7l0,0
	c-1.8,2-3.7,4.1-5.6,6.1c-16-14.4-32.9-27.8-50.7-39.9c-1.8-21.1-5-42-9.6-62.7C339.5,131.5,344.3,130.4,349,129.5L349,129.5z
	 M345.9,221.4c12,8.8,23.5,18.1,34.6,28.1c-11,10.1-22.5,19.7-34.5,28.6c0.4-9.4,0.5-18.7,0.5-28.1
	C346.5,240.4,346.3,230.9,345.9,221.4L345.9,221.4z M437.4,358.3c-8.6,14.9-41.8,21.2-86.4,12.7c-5.1-1-10.4-2.1-15.7-3.4
	c4.5-20.9,7.5-42.1,9.2-63.4c17.8-12.4,34.7-25.9,50.6-40.6c2.8,2.9,5.4,5.8,7.9,8.6v0c14.2,15.5,25.5,33.4,33.2,52.9
	C441.1,335.5,441.6,347.6,437.4,358.3L437.4,358.3z"/>
</svg>
