<?xml version="1.0" encoding="utf-8"?>
<!-- Generator: Adobe Illustrator 28.1.0, SVG Export Plug-In . SVG Version: 6.00 Build 0)  -->
<svg version="1.1" id="Camada_1" xmlns="http://www.w3.org/2000/svg" xmlns:xlink="http://www.w3.org/1999/xlink" x="0px" y="0px"
	 viewBox="0 0 500 500" style="enable-background:new 0 0 500 500;" xml:space="preserve">
<style type="text/css">
	.st0{fill:url(#SVGID_1_);}
	.st1{fill:url(#SVGID_00000101781968720098263720000005693012426809856404_);}
	.st2{fill:url(#SVGID_00000134237991700061914170000009655648890803625896_);}
	.st3{fill:url(#SVGID_00000150787228008207928020000012849373840688515480_);}
	.st4{fill:#121212;}
</style>
<g>
	<g>
		
			<linearGradient id="SVGID_1_" gradientUnits="userSpaceOnUse" x1="-429.5695" y1="-80" x2="-408.9005" y2="-80" gradientTransform="matrix(1 0 0 1 0 334)">
			<stop  offset="0" style="stop-color:#FA12E3"/>
			<stop  offset="0.5362" style="stop-color:#7312FA"/>
			<stop  offset="1" style="stop-color:#415CA7"/>
		</linearGradient>
		<polygon class="st0" points="-429.5,265.5 -408.9,265.5 -419.2,242.5 		"/>
		
			<linearGradient id="SVGID_00000155833730506550669180000017682158610198945965_" gradientUnits="userSpaceOnUse" x1="-627.7" y1="-84.5" x2="-135.5999" y2="-84.5" gradientTransform="matrix(1 0 0 1 0 334)">
			<stop  offset="0" style="stop-color:#FA12E3"/>
			<stop  offset="0.5362" style="stop-color:#7312FA"/>
			<stop  offset="1" style="stop-color:#415CA7"/>
		</linearGradient>
		<path style="fill:url(#SVGID_00000155833730506550669180000017682158610198945965_);" d="M-181.2,190.6c-8.3-27-9.5-60.1-8.6-85.7
			c1-26.6-19.9-51.1-47.9-51.1h-287.8c-28.2,0-48.9,24.5-48,51.2c0.9,25.6-0.3,58.7-8.6,85.7c-8.4,27.1-22.4,44.1-45.6,46.3v25
			c23.1,2.2,37.3,19.3,45.7,46.4c8.3,27,9.5,60.1,8.6,85.7c-1,26.6,19.9,51.1,47.9,51.1h287.8c28.1,0,48.9-24.5,47.9-51.1
			c-0.9-25.6,0.3-58.7,8.6-85.7c8.4-27.1,22.5-44.2,45.6-46.4v-25C-158.7,234.8-172.9,217.8-181.2,190.6z M-500.2,298
			c-14.8,0-27.1-6.9-32.8-18.4l-1.2-2.4l15.8-11.3l1.7,3c3.3,5.7,9.3,9,16.6,9c7.9,0,13.9-3.5,13.9-8.1c0-5.8-10.7-10.5-19.3-14.2
			l-0.3-0.1c-9.9-4.4-23.3-10.4-23.3-26.2c0-15.5,13.3-27.2,31-27.2c13.5,0,24,6.5,28.1,17.5l0.9,2.3l-15.2,10.5l-1.6-3.4
			c-2.1-4.5-6.7-7.3-12.1-7.3c-6.1,0-11.1,3.5-11.1,7.9c0,3.7,4.4,5.7,12.9,9.2c1.2,0.5,2.4,1,3.7,1.5c12.7,5.6,26.2,12.9,26.2,29.1
			C-466.2,286.3-480.2,298-500.2,298z M-394.9,296.6l-5.9-13.1h-36.9l-5.9,13.1h-21.7l43.6-94.6h4.8l43.6,94.6H-394.9z M-337.5,298
			c-14.8,0-27.1-6.9-32.8-18.4l-1.2-2.4l15.8-11.2l1.7,3c3.3,5.7,9.3,9,16.6,9c7.9,0,13.9-3.5,13.9-8.1c0-5.8-10.7-10.5-19.3-14.2
			l-0.3-0.1c-9.9-4.4-23.3-10.4-23.3-26.2c0-15.5,13.3-27.2,31-27.2c13.5,0,24,6.5,28.1,17.5l0.9,2.3l-15.2,10.5l-1.6-3.4
			c-2.1-4.5-6.7-7.3-12.1-7.3c-6.1,0-11.1,3.5-11.1,7.9c0,3.7,4.4,5.7,12.9,9.2c1.2,0.5,2.4,1,3.7,1.5c12.7,5.6,26.2,12.9,26.2,29.1
			C-303.5,286.3-317.5,298-337.5,298z M-261.2,298c-14.8,0-27.1-6.9-32.8-18.4l-1.2-2.4l15.8-11.3l1.7,3c3.3,5.7,9.3,9,16.6,9
			c7.9,0,13.9-3.5,13.9-8.1c0-5.8-10.7-10.5-19.3-14.2l-0.3-0.1c-9.9-4.4-23.3-10.4-23.3-26.2c0-15.5,13.3-27.2,31-27.2
			c13.5,0,24,6.5,28.1,17.5l0.9,2.3l-15.2,10.5l-1.6-3.4c-2.1-4.5-6.7-7.3-12.1-7.3c-6.1,0-11.1,3.5-11.1,7.9
			c0,3.7,4.4,5.7,12.9,9.2c1.2,0.5,2.4,1,3.7,1.5c12.7,5.6,26.2,12.9,26.2,29.1C-227.2,286.3-241.2,298-261.2,298z"/>
	</g>
	
		<linearGradient id="SVGID_00000025428097767835887920000005700807441428354483_" gradientUnits="userSpaceOnUse" x1="-390.2381" y1="519.6268" x2="-390.0839" y2="519.6268" gradientTransform="matrix(1 0 0 -1 0 833)">
		<stop  offset="0" style="stop-color:#FA12E3"/>
		<stop  offset="0.5362" style="stop-color:#7312FA"/>
		<stop  offset="1" style="stop-color:#415CA7"/>
	</linearGradient>
	<path style="fill:url(#SVGID_00000025428097767835887920000005700807441428354483_);" d="M-390.1,313.2
		C-390.3,313.8-390.2,313.5-390.1,313.2L-390.1,313.2z"/>
	
		<linearGradient id="SVGID_00000117671197818589444030000014576548410439275673_" gradientUnits="userSpaceOnUse" x1="-402.6798" y1="518.7289" x2="-320.8471" y2="518.7289" gradientTransform="matrix(1 0 0 -1 0 833)">
		<stop  offset="0" style="stop-color:#FA12E3"/>
		<stop  offset="0.5362" style="stop-color:#7312FA"/>
		<stop  offset="1" style="stop-color:#415CA7"/>
	</linearGradient>
	<path style="fill:url(#SVGID_00000117671197818589444030000014576548410439275673_);" d="M-349.3,311.5c-2.8,3.5-9.9,11.2-9.9,11.2
		s-1,1-0.5,1.3c0.6,0.4,1.9-0.1,3.3-0.8c4-2.5,12.8-8.7,12.9-18c0-0.3-0.1-0.5-0.1-0.8C-345.8,307-347.7,309.5-349.3,311.5z"/>
</g>
<path class="st4" d="M252.7,294.9c-8,3.7-16.7,8.4-34.1,18c-6.6,3.7-13.6,7.4-19.9,10.9c-0.4-0.4-0.9-1-1.3-1.5
	c-34.5-36.9-98.3-62.9-95.6-112.4c1-18,7.2-65.4,122.5-122.9c94.9-46.8,170.4-33.8,183.6-5c18.7,41-40.4,117.3-138.5,128.2
	c-22,4.4-44.9-1.3-62-15.6c-5.2-5.6-5.9-5.9-7.8-4.9c-3.1,1.6-1.2,6.8,0,9.7c7.5,13.7,20.4,23.8,35.4,27.9
	c38.5,8.4,78.8,4.4,114.9-11.4c59.5-23,105.8-86.9,92.2-140.5C428.5,21.2,338.2,3.2,252.9,33.6C199.5,51.6,150,79.9,107.5,117
	c-47.1,44-54.4,82.2-51.3,98.1c10.9,56.8,89.3,93.8,120.7,121.1c-1.6,0.9-3.1,1.6-4.3,2.4c-15.6,7.8-75.4,39-90.3,72
	c-17,37.5,2.7,64.2,15.6,67.9c40,9.6,81.7-7.2,103.9-42.1c18.6-28.5,22-64.3,9.3-95.9c3.7-3,7.7-5.6,11.8-7.8
	c8-4.7,15.6-9.4,22.4-13l0,0c23.2-10.8,48.4-16.4,73.9-16.4c53.7,6.3,64.2,39.8,62.3,53.9c-1.9,10.2-8.1,18.9-17,24.1
	c-3.7,2.4-5,3.1-4.6,4.9c0.4,2.5,2.2,2.4,5.5,1.9c16.5-5.2,28-20.1,29.2-37.3c1.6-33.1-29.8-69.3-85.7-69.1
	c-16.7,0-33.2,3.4-48.7,9.7C257.5,292.7,254.9,293.7,252.7,294.9L252.7,294.9z M173.1,424.6c-17.9,19.3-42.6,26.7-53.3,20.5
	c-11.5-6.6-6.9-35.3,14.9-55.8c13-11.7,27-22.1,41.8-31.3c2.7-1.6,6.5-3.8,11.1-6.6c0.7-0.4,1.2-0.7,1.2-0.7l2.7-1.6
	C199.3,375.8,192.2,404.5,173.1,424.6L173.1,424.6z"/>
</svg>
