<svg width="500" height="500" viewBox="0 0 500 500" fill="none" xmlns="http://www.w3.org/2000/svg">
<path d="M252.7 294.9C244.7 298.6 236 303.3 218.6 312.9C212 316.6 205 320.3 198.7 323.8C198.3 323.4 197.8 322.8 197.4 322.3C162.9 285.4 99.1002 259.4 101.8 209.9C102.8 191.9 109 144.5 224.3 86.9999C319.2 40.1999 394.7 53.1999 407.9 81.9999C426.6 123 367.5 199.3 269.4 210.2C247.4 214.6 224.5 208.9 207.4 194.6C202.2 189 201.5 188.7 199.6 189.7C196.5 191.3 198.4 196.5 199.6 199.4C207.1 213.1 220 223.2 235 227.3C273.5 235.7 313.8 231.7 349.9 215.9C409.4 192.9 455.7 129 442.1 75.3999C428.5 21.1999 338.2 3.19989 252.9 33.5999C199.5 51.5999 150 79.8999 107.5 117C60.4002 161 53.1002 199.2 56.2002 215.1C67.1002 271.9 145.5 308.9 176.9 336.2C175.3 337.1 173.8 337.8 172.6 338.6C157 346.4 97.2002 377.6 82.3002 410.6C65.3002 448.1 85.0002 474.8 97.9002 478.5C137.9 488.1 179.6 471.3 201.8 436.4C220.4 407.9 223.8 372.1 211.1 340.5C214.8 337.5 218.8 334.9 222.9 332.7C230.9 328 238.5 323.3 245.3 319.7C268.5 308.9 293.7 303.3 319.2 303.3C372.9 309.6 383.4 343.1 381.5 357.2C379.6 367.4 373.4 376.1 364.5 381.3C360.8 383.7 359.5 384.4 359.9 386.2C360.3 388.7 362.1 388.6 365.4 388.1C381.9 382.9 393.4 368 394.6 350.8C396.2 317.7 364.8 281.5 308.9 281.7C292.2 281.7 275.7 285.1 260.2 291.4C257.5 292.7 254.9 293.7 252.7 294.9ZM173.1 424.6C155.2 443.9 130.5 451.3 119.8 445.1C108.3 438.5 112.9 409.8 134.7 389.3C147.7 377.6 161.7 367.2 176.5 358C179.2 356.4 183 354.2 187.6 351.4C188.3 351 188.8 350.7 188.8 350.7L191.5 349.1C199.3 375.8 192.2 404.5 173.1 424.6Z" fill="#FEF5F5"/>
</svg>
