<?xml version="1.0" encoding="utf-8"?>
<!-- Generator: Adobe Illustrator 28.1.0, SVG Export Plug-In . SVG Version: 6.00 Build 0)  -->
<svg version="1.1" id="Camada_1" xmlns="http://www.w3.org/2000/svg" xmlns:xlink="http://www.w3.org/1999/xlink" x="0px" y="0px"
	 viewBox="0 0 500 500" style="enable-background:new 0 0 500 500;" xml:space="preserve">
<style type="text/css">
	.st0{fill:url(#SVGID_1_);}
	.st1{fill:url(#SVGID_00000000213897710456254690000007382509179134848642_);}
	.st2{fill:url(#SVGID_00000127736878510743936020000007183445725334834307_);}
	.st3{fill:url(#SVGID_00000026149900309651854880000009885391438866580136_);}
	.st4{opacity:0.4;fill:#121212;}
</style>
<g>
	<linearGradient id="SVGID_1_" gradientUnits="userSpaceOnUse" x1="201.1505" y1="253.9832" x2="221.8195" y2="253.9832">
		<stop  offset="0" style="stop-color:#FA12E3"/>
		<stop  offset="0.5362" style="stop-color:#7312FA"/>
		<stop  offset="1" style="stop-color:#415CA7"/>
	</linearGradient>
	<polygon class="st0" points="201.2,265.5 221.8,265.5 211.5,242.5 	"/>
	
		<linearGradient id="SVGID_00000170268366333686070390000006766013039611040172_" gradientUnits="userSpaceOnUse" x1="3" y1="249.5" x2="495.1" y2="249.5">
		<stop  offset="0" style="stop-color:#FA12E3"/>
		<stop  offset="0.5362" style="stop-color:#7312FA"/>
		<stop  offset="1" style="stop-color:#415CA7"/>
	</linearGradient>
	<path style="fill:url(#SVGID_00000170268366333686070390000006766013039611040172_);" d="M449.5,190.6c-8.3-27-9.5-60.1-8.6-85.7
		c1-26.6-19.9-51.1-47.9-51.1H105.2c-28.2,0-48.9,24.5-48,51.2c0.9,25.6-0.3,58.7-8.6,85.7C40.2,217.8,26.2,234.8,3,237v25
		c23.1,2.2,37.3,19.3,45.7,46.4c8.3,27,9.5,60.1,8.6,85.7c-1,26.6,19.9,51.1,47.9,51.1H393c28.1,0,48.9-24.5,47.9-51.1
		c-0.9-25.6,0.3-58.7,8.6-85.7c8.4-27.1,22.5-44.2,45.6-46.4v-25C472,234.8,457.8,217.8,449.5,190.6z M130.5,298
		c-14.8,0-27.1-6.9-32.8-18.4l-1.2-2.4l15.8-11.3l1.7,3c3.3,5.7,9.3,9,16.6,9c7.9,0,13.9-3.5,13.9-8.1c0-5.8-10.7-10.5-19.3-14.2
		l-0.3-0.1c-9.9-4.4-23.3-10.4-23.3-26.2c0-15.5,13.3-27.2,31-27.2c13.5,0,24,6.5,28.1,17.5l0.9,2.3l-15.2,10.5l-1.6-3.4
		c-2.1-4.5-6.7-7.3-12.1-7.3c-6.1,0-11.1,3.5-11.1,7.9c0,3.7,4.4,5.7,12.9,9.2c1.2,0.5,2.4,1,3.7,1.5c12.7,5.6,26.2,12.9,26.2,29.1
		C164.5,286.3,150.5,298,130.5,298z M235.8,296.6l-5.9-13.1h-36.9l-5.9,13.1h-21.7l43.6-94.6h4.8l43.6,94.6H235.8z M293.2,298
		c-14.8,0-27.1-6.9-32.8-18.4l-1.2-2.4L275,266l1.7,3c3.3,5.7,9.3,9,16.6,9c7.9,0,13.9-3.5,13.9-8.1c0-5.8-10.7-10.5-19.3-14.2
		l-0.3-0.1c-9.9-4.4-23.3-10.4-23.3-26.2c0-15.5,13.3-27.2,31-27.2c13.5,0,24,6.5,28.1,17.5l0.9,2.3l-15.2,10.5l-1.6-3.4
		c-2.1-4.5-6.7-7.3-12.1-7.3c-6.1,0-11.1,3.5-11.1,7.9c0,3.7,4.4,5.7,12.9,9.2c1.2,0.5,2.4,1,3.7,1.5c12.7,5.6,26.2,12.9,26.2,29.1
		C327.2,286.3,313.2,298,293.2,298z M369.5,298c-14.8,0-27.1-6.9-32.8-18.4l-1.2-2.4l15.8-11.3l1.7,3c3.3,5.7,9.3,9,16.6,9
		c7.9,0,13.9-3.5,13.9-8.1c0-5.8-10.7-10.5-19.3-14.2l-0.3-0.1c-9.9-4.4-23.3-10.4-23.3-26.2c0-15.5,13.3-27.2,31-27.2
		c13.5,0,24,6.5,28.1,17.5l0.9,2.3l-15.2,10.5l-1.6-3.4c-2.1-4.5-6.7-7.3-12.1-7.3c-6.1,0-11.1,3.5-11.1,7.9c0,3.7,4.4,5.7,12.9,9.2
		c1.2,0.5,2.4,1,3.7,1.5c12.7,5.6,26.2,12.9,26.2,29.1C403.5,286.3,389.5,298,369.5,298z"/>
</g>
<linearGradient id="SVGID_00000154426224046685127900000015781214426210269579_" gradientUnits="userSpaceOnUse" x1="240.4819" y1="185.6268" x2="240.6361" y2="185.6268" gradientTransform="matrix(1 0 0 -1 0 499)">
	<stop  offset="0" style="stop-color:#FA12E3"/>
	<stop  offset="0.5362" style="stop-color:#7312FA"/>
	<stop  offset="1" style="stop-color:#415CA7"/>
</linearGradient>
<path style="fill:url(#SVGID_00000154426224046685127900000015781214426210269579_);" d="M240.6,313.2
	C240.4,313.8,240.5,313.5,240.6,313.2L240.6,313.2z"/>
<linearGradient id="SVGID_00000077323023107355772390000014757832330862714009_" gradientUnits="userSpaceOnUse" x1="228.0402" y1="184.7289" x2="309.8729" y2="184.7289" gradientTransform="matrix(1 0 0 -1 0 499)">
	<stop  offset="0" style="stop-color:#FA12E3"/>
	<stop  offset="0.5362" style="stop-color:#7312FA"/>
	<stop  offset="1" style="stop-color:#415CA7"/>
</linearGradient>
<path style="fill:url(#SVGID_00000077323023107355772390000014757832330862714009_);" d="M281.4,311.5c-2.8,3.5-9.9,11.2-9.9,11.2
	s-1,1-0.5,1.3c0.6,0.4,1.9-0.1,3.3-0.8c4-2.5,12.8-8.7,12.9-18c0-0.3-0.1-0.5-0.1-0.8C284.9,307,283,309.5,281.4,311.5z"/>
<path class="st4" d="M251.9,280.4c-5.4,2.5-11.3,5.7-23.1,12.2c-4.5,2.5-9.2,5-13.5,7.4c-0.3-0.3-0.6-0.7-0.9-1
	c-23.4-25-66.6-42.6-64.8-76.2c0.7-12.2,4.9-44.3,83-83.3c64.3-31.7,115.5-22.9,124.4-3.4c12.7,27.8-27.4,79.5-93.9,86.9
	c-14.9,3-30.4-0.9-42-10.6c-3.5-3.8-4-4-5.3-3.3c-2.1,1.1-0.8,4.6,0,6.6c5.1,9.3,13.8,16.1,24,18.9c26.1,5.7,53.4,3,77.9-7.7
	c40.3-15.6,71.7-58.9,62.5-95.2c-9.2-36.8-70.4-49-128.2-28.4c-36.2,12.2-69.7,31.4-98.5,56.5c-31.9,29.8-36.9,55.7-34.8,66.5
	c7.4,38.5,60.5,63.6,81.8,82.1c-1.1,0.6-2.1,1.1-2.9,1.6c-10.6,5.3-51.1,26.4-61.2,48.8c-11.5,25.4,1.8,43.5,10.6,46
	c27.1,6.5,55.4-4.9,70.4-28.5c12.6-19.3,14.9-43.6,6.3-65c2.5-2,5.2-3.8,8-5.3c5.4-3.2,10.6-6.4,15.2-8.8l0,0
	c15.7-7.3,32.8-11.1,50.1-11.1c36.4,4.3,43.5,27,42.2,36.5c-1.3,6.9-5.5,12.8-11.5,16.3c-2.5,1.6-3.4,2.1-3.1,3.3
	c0.3,1.7,1.5,1.6,3.7,1.3c11.2-3.5,19-13.6,19.8-25.3c1.1-22.4-20.2-47-58.1-46.8c-11.3,0-22.5,2.3-33,6.6
	C255.1,278.9,253.4,279.6,251.9,280.4L251.9,280.4z M197.9,368.3c-12.1,13.1-28.9,18.1-36.1,13.9c-7.8-4.5-4.7-23.9,10.1-37.8
	c8.8-7.9,18.3-15,28.3-21.2c1.8-1.1,4.4-2.6,7.5-4.5c0.5-0.3,0.8-0.5,0.8-0.5l1.8-1.1C215.7,335.2,210.9,354.7,197.9,368.3
	L197.9,368.3z"/>
</svg>
