<svg width="500" height="500" viewBox="0 0 500 500" fill="none" xmlns="http://www.w3.org/2000/svg">
<path d="M411.5 280.5C410.3 280.5 408.2 282.3 407 284.4C404.8 288 407.4 290.3 440.9 311.2C460.8 323.8 476.9 334.6 476.5 335.4C476.1 336 459.8 346.6 440.3 358.8C404.9 380.7 404.7 380.9 408 385.4C412.1 390.7 408 392.5 453.9 363.8L487.2 342.5V326.4L450 303.4C430 290.9 412.5 280.7 411.5 280.5Z" fill="#FEF5F5"/>
<path d="M88.9002 287.4C87.9002 287.4 70.4002 297.8 50.3002 310.2L12.7002 333.2V349.3L50.1002 372.7C70.8002 385.5 88.3002 396.1 89.1002 396.1C89.9002 396.1 91.5002 394.3 93.2002 392C95.6002 388.1 93.6002 386.5 59.2002 364.8C26.5002 344.3 23.0002 341.4 26.3002 339.2C28.3002 337.8 43.8002 328.2 60.4002 317.9C98.4002 294.5 96.4002 296.1 93.3002 291.3C92.2002 289 90.1002 287.2 88.9002 287.4Z" fill="#FEF5F5"/>
<path d="M328.4 364H327.4V367.8H328.2C329.2 367.8 329.7 367.6 329.9 367.2C330.3 367 330.5 366.5 330.5 365.5C330.5 364.8 330.3 364.5 330.1 364.5C330.1 364.1 329.5 364 328.4 364Z" fill="#FEF5F5"/>
<path d="M393.6 81.2002L391.2 93.8002C387.5 117.7 388.8 124.5 399.1 133.4L409 141.6L398.8 187.3C392.7 214.6 385.2 237.4 380.4 244.9C376.3 251.4 371.5 260.9 370.5 266C368.8 272.1 363 278.3 354.1 283.7C346.3 288.1 330.9 300.1 320 309.6C311.3 317.4 305.3 322.2 302.1 324.3L291.5 332.7C288.1 338.2 286.2 342.6 285.4 345.9C284.7 349.3 285.1 351.6 286.2 353.3C287.3 354.9 289.1 356 291.6 356.7C294.6 357.4 297.6 357.6 300.7 357.4C307.6 356.9 314.4 355.7 321.1 353.8C323.4 353.2 325.1 352.6 326.7 352.1C329.1 349.2 334.6 343.6 344.4 334C370.3 308.5 380.2 294.5 370 298.2C366.2 299.6 367.9 296.1 374.4 289.3C388.1 276 395.9 255.9 412.3 192.8C425.3 143 425.3 142.3 434.8 142.3C439.3 142.3 451.9 143.1 451.9 143.1V81.2002H422.8H393.6Z" fill="#FEF5F5"/>
<path d="M278.801 187.7C269.401 187.6 249.201 202 188.601 251.4C186.001 257.6 185.801 261.9 187.001 264.7C187.801 266.6 189.201 267.9 191.201 268.9C193.101 269.9 195.601 270.4 198.401 270.7C203.901 271.2 210.401 270.3 215.701 269.3L219.201 268.5C220.401 266.9 222.001 265.6 223.801 264.7C227.501 262.6 243.201 248.3 258.901 233C286.501 205 293.001 192.4 281.701 188.3C280.801 187.9 279.901 187.7 278.801 187.7Z" fill="#FEF5F5"/>
<path d="M349.6 207.2C341.3 207.4 326.4 217 300.9 237.4C288.1 247.8 280 253.4 275.6 254.6L258.7 267.9C252.4 279.5 251.4 286.7 253.1 290.6C253.9 292.6 255.5 294.1 257.5 294.9C260 295.9 262.6 296.4 265.2 296.3C271.5 296.2 277.8 295.3 283.9 293.6C287.1 292.8 290.2 291.8 293.3 290.6L294.2 290.2L295.9 289.3C299.1 285.1 306.5 277.3 315.8 268.3C345.1 240 360.1 219.9 357 212.4C355.7 208.9 353.3 207 349.6 207.2Z" fill="#FEF5F5"/>
<path d="M271.5 241.9C269.1 242.2 263.8 246.3 254.1 254.7C240.2 267 225 274.1 219.8 270.9C218.6 271.2 217.4 271.4 216.1 271.7C210.8 272.8 204.1 273.6 198.1 273.1C195.3 272.9 192.5 272.2 190 271.1C187.6 270 185.7 268 184.6 265.6C183.4 262.7 183.4 259.1 184.8 254.5L163.9 271.7L116.4 311V374.6L271.7 252.3C271.7 251 271.8 249.6 272.2 248.3C273.4 244 273.4 241.8 271.5 241.9Z" fill="#FEF5F5"/>
<path d="M338.3 262.5C335.9 262.5 332 265.8 325.7 272.5C317.2 281.6 303.7 290.4 296.6 292.2L295.5 292.8C294.3 293.3 293.1 293.7 292 294.2C290.1 294.8 287.6 295.6 284.7 296.4C278.9 298 271.7 299.4 265.2 299.3C262.2 299.3 259.2 298.7 256.3 297.6C253.6 296.5 251.5 294.4 250.4 291.8C248.5 287.3 249.3 281 253.4 272.1L116.4 380V418.8H176.6L304.2 318.5C307.5 314.8 312.5 309.8 319.2 303.5C337.2 286.8 341.3 281 341.3 272.5C341.4 265.9 340.7 262.5 338.3 262.5Z" fill="#FEF5F5"/>
<path d="M368.701 325.4L357.801 336.3C351.701 342.1 340.801 349.3 333.301 352.3L331.801 352.9L331.701 353.1L331.401 353.4C331.101 353.6 331.001 353.7 330.801 353.8C327.801 354.9 324.801 355.9 321.701 356.8C314.901 358.8 307.901 360 300.801 360.5C297.401 360.7 294.101 360.4 290.801 359.6C288.001 359 285.501 357.3 283.801 355C282.301 352.6 281.801 349.4 282.701 345.5C283.401 342.7 284.401 340 285.801 337.4L182.801 418.8H319.801L336.001 400C358.501 373.8 368.701 355 368.701 339V325.4Z" fill="#FEF5F5"/>
</svg>
