<?xml version="1.0" encoding="utf-8"?>
<!-- Generator: Adobe Illustrator 28.1.0, SVG Export Plug-In . SVG Version: 6.00 Build 0)  -->
<svg version="1.1" id="Camada_1" xmlns="http://www.w3.org/2000/svg" xmlns:xlink="http://www.w3.org/1999/xlink" x="0px" y="0px"
	 viewBox="0 0 500 500" style="enable-background:new 0 0 500 500;" xml:space="preserve">
<style type="text/css">
	.st0{fill:url(#SVGID_1_);}
	.st1{fill:url(#SVGID_00000044890485542384083620000001144516220427978928_);}
	.st2{fill:url(#SVGID_00000170969858930584854870000011503515352535756988_);}
	.st3{fill:url(#SVGID_00000148646833277468738420000007382966575041679534_);}
	.st4{fill:url(#SVGID_00000093856105363360634740000013923324833831381951_);}
	.st5{fill:#303030;}
</style>
<g>
	
		<linearGradient id="SVGID_1_" gradientUnits="userSpaceOnUse" x1="802.6227" y1="-66.85" x2="892.2562" y2="-66.85" gradientTransform="matrix(1 0 0 1 0 334)">
		<stop  offset="0" style="stop-color:#FA12E3"/>
		<stop  offset="0.5362" style="stop-color:#7312FA"/>
		<stop  offset="1" style="stop-color:#415CA7"/>
	</linearGradient>
	<path class="st0" d="M833.8,262.2h-5.2v9.9h5.2l0,0c1.7,0,3.3-0.6,4.4-1.7c0.9-0.9,1.4-2,1.4-3.2
		C839.6,264.5,837,262.2,833.8,262.2z"/>
	
		<linearGradient id="SVGID_00000163766722315288096290000009363750912741309332_" gradientUnits="userSpaceOnUse" x1="828.1961" y1="-60.35" x2="909.6594" y2="-60.35" gradientTransform="matrix(1 0 0 1 0 334)">
		<stop  offset="0" style="stop-color:#FA12E3"/>
		<stop  offset="0.5362" style="stop-color:#7312FA"/>
		<stop  offset="1" style="stop-color:#415CA7"/>
	</linearGradient>
	<path style="fill:url(#SVGID_00000163766722315288096290000009363750912741309332_);" d="M873.4,261.6c-6.6,0-12,5.4-12,12.1
		c0,6.6,5.4,12,12,12c6.7,0,12.1-5.4,12.1-12C885.5,267,880,261.6,873.4,261.6z"/>
	
		<linearGradient id="SVGID_00000136406408731674805580000009963792157282667710_" gradientUnits="userSpaceOnUse" x1="731.9557" y1="-60.35" x2="844.6761" y2="-60.35" gradientTransform="matrix(1 0 0 1 0 334)">
		<stop  offset="0" style="stop-color:#FA12E3"/>
		<stop  offset="0.5362" style="stop-color:#7312FA"/>
		<stop  offset="1" style="stop-color:#415CA7"/>
	</linearGradient>
	<path style="fill:url(#SVGID_00000136406408731674805580000009963792157282667710_);" d="M744,261.6c-6.6,0-12,5.4-12,12.1
		c0,6.6,5.4,12,12,12c6.7,0,12.1-5.4,12.1-12C756.1,267,750.7,261.6,744,261.6z"/>
	
		<linearGradient id="SVGID_00000139972888637316910280000015373072393879884711_" gradientUnits="userSpaceOnUse" x1="899.4636" y1="-118" x2="977.032" y2="-118" gradientTransform="matrix(1 0 0 1 0 334)">
		<stop  offset="0" style="stop-color:#FA12E3"/>
		<stop  offset="0.5362" style="stop-color:#7312FA"/>
		<stop  offset="1" style="stop-color:#415CA7"/>
	</linearGradient>
	<path style="fill:url(#SVGID_00000139972888637316910280000015373072393879884711_);" d="M950.8,204.5h-3.3v23h3.4
		c7.5,0,12-4.3,12-11.5C962.8,208.8,958.3,204.5,950.8,204.5z"/>
	
		<linearGradient id="SVGID_00000037682278220445597410000003063635143083476159_" gradientUnits="userSpaceOnUse" x1="634.6" y1="-89.15" x2="1126.6" y2="-89.15" gradientTransform="matrix(1 0 0 1 0 334)">
		<stop  offset="0" style="stop-color:#FA12E3"/>
		<stop  offset="0.5362" style="stop-color:#7312FA"/>
		<stop  offset="1" style="stop-color:#415CA7"/>
	</linearGradient>
	<path style="fill:url(#SVGID_00000037682278220445597410000003063635143083476159_);" d="M1081.1,186c-8.3-27-9.5-60.1-8.6-85.7
		c1-26.6-19.9-51.1-47.9-51.1H736.8c-28.1,0-48.8,24.5-47.9,51.1c0.9,25.6-0.3,58.7-8.6,85.7c-8.4,27.1-22.5,44.2-45.7,46.4v24.9
		c23.1,2.2,37.3,19.3,45.7,46.4c1,3.2,1.8,6.4,2.6,9.7v1h0.2c5.7,24.7,6.5,52.7,5.7,75c-1,26.6,19.9,51.1,47.9,51.1h287.8
		c28.1,0,48.9-24.5,47.9-51.1c-0.9-25.6,0.3-58.7,8.6-85.7c8.4-27.1,22.5-44.2,45.6-46.4v-24.9
		C1103.6,230.2,1089.4,213.1,1081.1,186z M906,195.6h25.5v8.8h-16.6v6.7h14.3v8.9h-14.3v7.5h16.6v8.9H906V195.6z M844.6,195.6
		l7.9,13.6l8-13.6h10.2L857,219.2v17.3h-8.9v-17.3l-13.7-23.6L844.6,195.6L844.6,195.6z M706.1,285.8c3.8,0,6.9-2.2,8.8-4.1l1.3-1.2
		l5.2,7.3l-0.9,0.9c-4.2,4.1-8.8,6.1-14.1,6.1c-11.7,0-21.1-9.4-21.1-21c0-11.4,9.6-21.1,21-21.1c5.2,0.1,10.1,2.2,14.2,6.2l0.9,0.9
		l-5.3,7.1l-1.2-1.2c-2.6-2.6-5.7-4-8.8-4c-6.3,0-11.9,5.7-11.9,12.1C694.2,280.9,700.4,285.8,706.1,285.8z M744,294.8
		c-11.6,0-21-9.4-21-21c0-11.7,9.4-21.1,21.1-21.1c11.6,0,21.1,9.5,21.1,21.1C765.1,285.3,755.6,294.8,744,294.8z M770.4,227.8
		l7.1-5.1l0.8,1.4c1.4,2.5,4,3.9,7.2,3.9c3.4,0,6-1.5,6-3.4c0-2.5-4.6-4.5-8.4-6.1l-0.1-0.1c-4.3-1.9-10.3-4.6-10.3-11.6
		c0-6.9,5.9-12,13.7-12c6,0,10.6,2.9,12.4,7.7l0.4,1.1l-6.8,4.7l-0.7-1.6c-0.9-1.9-2.9-3.1-5.2-3.1c-2.6,0-4.7,1.5-4.7,3.3
		c0,1.5,1.9,2.4,5.6,3.9c0.5,0.2,1.1,0.4,1.6,0.7c5.6,2.5,11.5,5.7,11.5,12.9c0,7.4-6.2,12.5-15,12.5c-6.5,0-11.9-3-14.4-8.1
		L770.4,227.8z M811.5,294.1h-8.9v-17.2l-10.2,16.6h-1.7l-0.5-0.7l-9.8-15.9v17.2h-8.9v-41.7h2.8l17.3,26.3l17.3-26.3h2.8v41.7
		H811.5z M803.8,204.5v-8.9H833v8.9h-10.1v32h-9v-32H803.8z M833.8,281h-5.2v13.1h-8.9v-40.9h14.2c8.2,0,14.8,6.3,14.8,14
		C848.6,274.9,841.9,281,833.8,281z M873.4,294.8c-11.6,0-21-9.4-21-21c0-11.7,9.4-21.1,21.1-21.1c11.6,0,21.1,9.5,21.1,21.1
		C894.5,285.3,885,294.8,873.4,294.8z M900.4,236.4h-25.8v-40.9h8.9v31.9h16.9L900.4,236.4L900.4,236.4z M934.2,294.8h-2.4
		l-22.1-23.1v22.4h-8.9v-41.6h2.4l22,23v-22.4h9V294.8z M967.9,262.1h-16.6v6.7h14.3v8.9h-14.3v7.5h16.6v8.9h-25.5v-40.9h25.5V262.1
		z M950.8,236.4h-12.3v-40.9h12.3c0,0,0,0,0.1,0c6.4,0,11.7,2,15.4,5.7c3.6,3.6,5.5,8.7,5.5,14.8
		C971.8,228.4,963.6,236.4,950.8,236.4z M1008.3,294.8h-2.4l-22.1-23.1v22.4h-8.9v-41.6h2.4l22,23v-22.4h9V294.8z M1043.2,262.2
		H1033v32h-9v-32h-10.1v-8.9h29.3L1043.2,262.2L1043.2,262.2z M1061.1,294.8c-6.5,0-11.9-3-14.4-8.1l-0.6-1.1l7.1-5.1l0.8,1.4
		c1.4,2.5,4,3.9,7.2,3.9c3.4,0,6-1.5,6-3.4c0-2.5-4.6-4.5-8.4-6.1l-0.1-0.1c-4.3-1.9-10.3-4.6-10.3-11.6c0-6.9,5.9-12,13.7-12
		c6,0,10.6,2.9,12.4,7.7l0.4,1.1l-6.8,4.7l-0.7-1.6c-0.9-1.9-2.9-3.1-5.2-3.1c-2.6,0-4.7,1.5-4.7,3.3c0,1.5,1.9,2.4,5.6,3.9
		c0.5,0.2,1.1,0.4,1.6,0.7c5.6,2.5,11.5,5.7,11.5,12.9C1076.1,289.6,1070,294.8,1061.1,294.8z"/>
</g>
<g>
	<path class="st5" d="M411.5,280.5c-1.2,0-3.3,1.8-4.5,3.9c-2.2,3.6,0.4,5.9,33.9,26.8c19.9,12.6,36,23.4,35.6,24.2
		c-0.4,0.6-16.7,11.2-36.2,23.4c-35.4,21.9-35.6,22.1-32.3,26.6c4.1,5.3,0,7.1,45.9-21.6l33.3-21.3v-16.1l-37.2-23
		C430,290.9,412.5,280.7,411.5,280.5z"/>
	<path class="st5" d="M88.9,287.4c-1,0-18.5,10.4-38.6,22.8l-37.6,23v16.1l37.4,23.4c20.7,12.8,38.2,23.4,39,23.4s2.4-1.8,4.1-4.1
		c2.4-3.9,0.4-5.5-34-27.2c-32.7-20.5-36.2-23.4-32.9-25.6c2-1.4,17.5-11,34.1-21.3c38-23.4,36-21.8,32.9-26.6
		C92.2,289,90.1,287.2,88.9,287.4L88.9,287.4z"/>
	<g>
		<path class="st5" d="M328.4,364h-1v3.8h0.8c1,0,1.5-0.2,1.7-0.6c0.4-0.2,0.6-0.7,0.6-1.7c0-0.7-0.2-1-0.4-1
			C330.1,364.1,329.5,364,328.4,364z"/>
		<path class="st5" d="M393.6,81.2l-2.4,12.6c-3.7,23.9-2.4,30.7,7.9,39.6l9.9,8.2l-10.2,45.7c-6.1,27.3-13.6,50.1-18.4,57.6
			c-4.1,6.5-8.9,16-9.9,21.1c-1.7,6.1-7.5,12.3-16.4,17.7c-7.8,4.4-23.2,16.4-34.1,25.9c-8.7,7.8-14.7,12.6-17.9,14.7l-10.6,8.4
			c-3.4,5.5-5.3,9.9-6.1,13.2c-0.7,3.4-0.3,5.7,0.8,7.4c1.1,1.6,2.9,2.7,5.4,3.4c3,0.7,6,0.9,9.1,0.7c6.9-0.5,13.7-1.7,20.4-3.6
			c2.3-0.6,4-1.2,5.6-1.7c2.4-2.9,7.9-8.5,17.7-18.1c25.9-25.5,35.8-39.5,25.6-35.8c-3.8,1.4-2.1-2.1,4.4-8.9
			c13.7-13.3,21.5-33.4,37.9-96.5c13-49.8,13-50.5,22.5-50.5c4.5,0,17.1,0.8,17.1,0.8V81.2h-29.1H393.6z"/>
		<path class="st5" d="M278.8,187.7c-9.4-0.1-29.6,14.3-90.2,63.7c-2.6,6.2-2.8,10.5-1.6,13.3c0.8,1.9,2.2,3.2,4.2,4.2
			c1.9,1,4.4,1.5,7.2,1.8c5.5,0.5,12-0.4,17.3-1.4l3.5-0.8c1.2-1.6,2.8-2.9,4.6-3.8c3.7-2.1,19.4-16.4,35.1-31.7
			c27.6-28,34.1-40.6,22.8-44.7C280.8,187.9,279.9,187.7,278.8,187.7L278.8,187.7z"/>
		<path class="st5" d="M349.6,207.2c-8.3,0.2-23.2,9.8-48.7,30.2c-12.8,10.4-20.9,16-25.3,17.2l-16.9,13.3
			c-6.3,11.6-7.3,18.8-5.6,22.7c0.8,2,2.4,3.5,4.4,4.3c2.5,1,5.1,1.5,7.7,1.4c6.3-0.1,12.6-1,18.7-2.7c3.2-0.8,6.3-1.8,9.4-3
			l0.9-0.4l1.7-0.9c3.2-4.2,10.6-12,19.9-21c29.3-28.3,44.3-48.4,41.2-55.9C355.7,208.9,353.3,207,349.6,207.2z"/>
		<path class="st5" d="M271.5,241.9c-2.4,0.3-7.7,4.4-17.4,12.8c-13.9,12.3-29.1,19.4-34.3,16.2c-1.2,0.3-2.4,0.5-3.7,0.8
			c-5.3,1.1-12,1.9-18,1.4c-2.8-0.2-5.6-0.9-8.1-2c-2.4-1.1-4.3-3.1-5.4-5.5c-1.2-2.9-1.2-6.5,0.2-11.1l-20.9,17.2L116.4,311v63.6
			l155.3-122.3c0-1.3,0.1-2.7,0.5-4C273.4,244,273.4,241.8,271.5,241.9L271.5,241.9z"/>
		<path class="st5" d="M338.3,262.5c-2.4,0-6.3,3.3-12.6,10c-8.5,9.1-22,17.9-29.1,19.7l-1.1,0.6c-1.2,0.5-2.4,0.9-3.5,1.4
			c-1.9,0.6-4.4,1.4-7.3,2.2c-5.8,1.6-13,3-19.5,2.9c-3,0-6-0.6-8.9-1.7c-2.7-1.1-4.8-3.2-5.9-5.8c-1.9-4.5-1.1-10.8,3-19.7
			L116.4,380v38.8h60.2l127.6-100.3c3.3-3.7,8.3-8.7,15-15c18-16.7,22.1-22.5,22.1-31C341.4,265.9,340.7,262.5,338.3,262.5
			L338.3,262.5z"/>
		<path class="st5" d="M368.7,325.4l-10.9,10.9c-6.1,5.8-17,13-24.5,16l-1.5,0.6l-0.1,0.2l-0.3,0.3c-0.3,0.2-0.4,0.3-0.6,0.4
			c-3,1.1-6,2.1-9.1,3c-6.8,2-13.8,3.2-20.9,3.7c-3.4,0.2-6.7-0.1-10-0.9c-2.8-0.6-5.3-2.3-7-4.6c-1.5-2.4-2-5.6-1.1-9.5
			c0.7-2.8,1.7-5.5,3.1-8.1l-103,81.4h137L336,400c22.5-26.2,32.7-45,32.7-61V325.4z"/>
	</g>
</g>
</svg>
