<?xml version="1.0" encoding="utf-8"?>
<!-- Generator: Adobe Illustrator 28.1.0, SVG Export Plug-In . SVG Version: 6.00 Build 0)  -->
<svg version="1.1" id="Camada_1" xmlns="http://www.w3.org/2000/svg" xmlns:xlink="http://www.w3.org/1999/xlink" x="0px" y="0px"
	 viewBox="0 0 500 500" style="enable-background:new 0 0 500 500;" xml:space="preserve">
<style type="text/css">
	.st0{fill:url(#SVGID_1_);}
	.st1{fill:url(#SVGID_00000072249173818926861120000006399605441821690783_);}
	.st2{fill:url(#SVGID_00000144301819878587301630000018310102055214669484_);}
	.st3{fill:url(#SVGID_00000103234706335119042740000001560481811944033957_);}
	.st4{fill:url(#SVGID_00000161611173318960620250000005967389416627093132_);}
	.st5{fill:url(#SVGID_00000150791587682884808400000013043897025555505282_);}
	.st6{fill:url(#SVGID_00000044154355636168997150000009883417645961683109_);}
	.st7{fill:url(#SVGID_00000107549715810641761020000011533673072661775751_);}
	.st8{fill:url(#SVGID_00000097482829516683105620000003657454104859221655_);}
	.st9{fill:url(#SVGID_00000025406571561191764310000003539396839469300121_);}
	.st10{fill:url(#SVGID_00000044175114920273498700000017585641343085811129_);}
	.st11{fill:url(#SVGID_00000008113608358395922020000014136390636176554891_);}
	.st12{fill:url(#SVGID_00000167373782351891065580000008407646807258845075_);}
	.st13{fill:url(#SVGID_00000141457984962180359260000014358705854535002302_);}
</style>
<g>
	<linearGradient id="SVGID_1_" gradientUnits="userSpaceOnUse" x1="802.6227" y1="267.165" x2="892.2562" y2="267.165">
		<stop  offset="0" style="stop-color:#FA12E3"/>
		<stop  offset="0.5362" style="stop-color:#7312FA"/>
		<stop  offset="1" style="stop-color:#415CA7"/>
	</linearGradient>
	<path class="st0" d="M833.8,262.2h-5.2v9.9l5.2,0c0,0,0,0,0,0c1.7,0,3.3-0.6,4.4-1.7c0.9-0.9,1.4-2,1.4-3.2
		C839.6,264.5,837,262.2,833.8,262.2z"/>
	
		<linearGradient id="SVGID_00000167373915759420133560000016759803590554485951_" gradientUnits="userSpaceOnUse" x1="828.1961" y1="273.6816" x2="909.6594" y2="273.6816">
		<stop  offset="0" style="stop-color:#FA12E3"/>
		<stop  offset="0.5362" style="stop-color:#7312FA"/>
		<stop  offset="1" style="stop-color:#415CA7"/>
	</linearGradient>
	<path style="fill:url(#SVGID_00000167373915759420133560000016759803590554485951_);" d="M873.4,261.6c-6.6,0-12,5.4-12,12.1
		c0,6.6,5.4,12,12,12c6.7,0,12.1-5.4,12.1-12C885.5,267,880,261.6,873.4,261.6z"/>
	
		<linearGradient id="SVGID_00000005947812420612498620000017608855909827063201_" gradientUnits="userSpaceOnUse" x1="731.9557" y1="273.6816" x2="844.6761" y2="273.6816">
		<stop  offset="0" style="stop-color:#FA12E3"/>
		<stop  offset="0.5362" style="stop-color:#7312FA"/>
		<stop  offset="1" style="stop-color:#415CA7"/>
	</linearGradient>
	<path style="fill:url(#SVGID_00000005947812420612498620000017608855909827063201_);" d="M744,261.6c-6.6,0-12,5.4-12,12.1
		c0,6.6,5.4,12,12,12c6.7,0,12.1-5.4,12.1-12C756.1,267,750.7,261.6,744,261.6z"/>
	
		<linearGradient id="SVGID_00000120534532103605845100000010051144338823200425_" gradientUnits="userSpaceOnUse" x1="899.4636" y1="216.0019" x2="977.032" y2="216.0019">
		<stop  offset="0" style="stop-color:#FA12E3"/>
		<stop  offset="0.5362" style="stop-color:#7312FA"/>
		<stop  offset="1" style="stop-color:#415CA7"/>
	</linearGradient>
	<path style="fill:url(#SVGID_00000120534532103605845100000010051144338823200425_);" d="M950.8,204.5h-3.3v23h3.4
		c7.5,0,12-4.3,12-11.5C962.8,208.8,958.3,204.5,950.8,204.5z"/>
	
		<linearGradient id="SVGID_00000088851466516878874510000008334187513586707600_" gradientUnits="userSpaceOnUse" x1="634.5918" y1="244.8535" x2="1126.6919" y2="244.8535">
		<stop  offset="0" style="stop-color:#FA12E3"/>
		<stop  offset="0.5362" style="stop-color:#7312FA"/>
		<stop  offset="1" style="stop-color:#415CA7"/>
	</linearGradient>
	<path style="fill:url(#SVGID_00000088851466516878874510000008334187513586707600_);" d="M1081.1,186c-8.3-27-9.5-60.1-8.6-85.7
		c1-26.6-19.9-51.1-47.9-51.1H736.8c-28.1,0-48.8,24.5-47.9,51.1c0.9,25.6-0.3,58.7-8.6,85.7c-8.4,27.1-22.5,44.2-45.7,46.4v24.9
		c23.1,2.2,37.3,19.3,45.7,46.4c1,3.2,1.8,6.4,2.6,9.7v1h0.2c5.7,24.7,6.5,52.7,5.7,75c-1,26.6,19.9,51.1,47.9,51.1h287.8
		c28.1,0,48.9-24.5,47.9-51.1c-0.9-25.6,0.3-58.7,8.6-85.7c8.4-27.1,22.5-44.2,45.6-46.4v-24.9
		C1103.6,230.2,1089.4,213.1,1081.1,186z M906,195.6h25.5v8.8h-16.6v6.7h14.3v8.9h-14.3v7.5h16.6v8.9H906V195.6z M844.6,195.6
		l7.9,13.6l8-13.6h10.2L857,219.2v17.3h-8.9v-17.3l-13.7-23.6H844.6z M706.1,285.8c3.8,0,6.9-2.2,8.8-4.1l1.3-1.2l5.2,7.3l-0.9,0.9
		c-4.2,4.1-8.8,6.1-14.1,6.1c-11.7,0-21.1-9.4-21.1-21c0-11.4,9.6-21.1,21-21.1c5.2,0.1,10.1,2.2,14.2,6.2l0.9,0.9l-5.3,7.1
		l-1.2-1.2c-2.6-2.6-5.7-4-8.8-4c-6.3,0-11.9,5.7-11.9,12.1C694.2,280.9,700.4,285.8,706.1,285.8z M744,294.8c-11.6,0-21-9.4-21-21
		c0-11.7,9.4-21.1,21.1-21.1c11.6,0,21.1,9.5,21.1,21.1C765.1,285.3,755.6,294.8,744,294.8z M770.4,227.8l7.1-5.1l0.8,1.4
		c1.4,2.5,4,3.9,7.2,3.9c3.4,0,6-1.5,6-3.4c0-2.5-4.6-4.5-8.4-6.1l-0.1-0.1c-4.3-1.9-10.3-4.6-10.3-11.6c0-6.9,5.9-12,13.7-12
		c6,0,10.6,2.9,12.4,7.7l0.4,1.1l-6.8,4.7l-0.7-1.6c-0.9-1.9-2.9-3.1-5.2-3.1c-2.6,0-4.7,1.5-4.7,3.3c0,1.5,1.9,2.4,5.6,3.9
		c0.5,0.2,1.1,0.4,1.6,0.7c5.6,2.5,11.5,5.7,11.5,12.9c0,7.4-6.2,12.5-15,12.5c-6.5,0-11.9-3-14.4-8.1L770.4,227.8z M811.5,294.1
		h-8.9v-17.2l-10.2,16.6h-1.7l-0.5-0.7l-9.8-15.9v17.2h-8.9v-41.7h2.8l17.3,26.3l17.3-26.3h2.8V294.1z M803.8,204.5v-8.9H833v8.9
		h-10.1v32h-9v-32H803.8z M833.8,281h-5.2v13.1h-8.9v-40.9h14.2c8.2,0,14.8,6.3,14.8,14C848.6,274.9,841.9,281,833.8,281z
		 M873.4,294.8c-11.6,0-21-9.4-21-21c0-11.7,9.4-21.1,21.1-21.1c11.6,0,21.1,9.5,21.1,21.1C894.5,285.3,885,294.8,873.4,294.8z
		 M900.4,236.4h-25.8v-40.9h8.9v31.9h16.9V236.4z M934.2,294.8h-2.4l-22.1-23.1v22.4h-8.9v-41.6h2.4l22,23v-22.4h9V294.8z
		 M967.9,262.1h-16.6v6.7h14.3v8.9h-14.3v7.5h16.6v8.9h-25.5v-40.9h25.5V262.1z M950.8,236.4h-12.3v-40.9h12.3c0,0,0,0,0.1,0
		c6.4,0,11.7,2,15.4,5.7c3.6,3.6,5.5,8.7,5.5,14.8C971.8,228.4,963.6,236.4,950.8,236.4z M1008.3,294.8h-2.4l-22.1-23.1v22.4h-8.9
		v-41.6h2.4l22,23v-22.4h9V294.8z M1043.2,262.2H1033v32h-9v-32h-10.1v-8.9h29.3V262.2z M1061.1,294.8c-6.5,0-11.9-3-14.4-8.1
		l-0.6-1.1l7.1-5.1l0.8,1.4c1.4,2.5,4,3.9,7.2,3.9c3.4,0,6-1.5,6-3.4c0-2.5-4.6-4.5-8.4-6.1l-0.1-0.1c-4.3-1.9-10.3-4.6-10.3-11.6
		c0-6.9,5.9-12,13.7-12c6,0,10.6,2.9,12.4,7.7l0.4,1.1l-6.8,4.7l-0.7-1.6c-0.9-1.9-2.9-3.1-5.2-3.1c-2.6,0-4.7,1.5-4.7,3.3
		c0,1.5,1.9,2.4,5.6,3.9c0.5,0.2,1.1,0.4,1.6,0.7c5.6,2.5,11.5,5.7,11.5,12.9C1076.1,289.6,1070,294.8,1061.1,294.8z"/>
</g>
<g>
	
		<linearGradient id="SVGID_00000128475907961841814190000018432229745438475162_" gradientUnits="userSpaceOnUse" x1="406.4313" y1="334.525" x2="487.3053" y2="334.525">
		<stop  offset="0" style="stop-color:#FA12E3"/>
		<stop  offset="0.5362" style="stop-color:#7312FA"/>
		<stop  offset="1" style="stop-color:#415CA7"/>
	</linearGradient>
	<path style="fill:url(#SVGID_00000128475907961841814190000018432229745438475162_);" d="M411.5,280.5c-1.2,0-3.3,1.8-4.5,3.9
		c-2.2,3.6,0.4,5.9,33.9,26.8c19.9,12.6,36,23.4,35.6,24.2c-0.4,0.6-16.7,11.2-36.2,23.4c-35.4,21.9-35.6,22.1-32.3,26.6
		c4.1,5.3,0,7.1,45.9-21.6l33.3-21.3v-16.1l-37.2-23C430,290.9,412.5,280.7,411.5,280.5z"/>
	
		<linearGradient id="SVGID_00000082366465779097672030000000375884294574205375_" gradientUnits="userSpaceOnUse" x1="12.6947" y1="341.6785" x2="94.8922" y2="341.6785">
		<stop  offset="0" style="stop-color:#FA12E3"/>
		<stop  offset="0.5362" style="stop-color:#7312FA"/>
		<stop  offset="1" style="stop-color:#415CA7"/>
	</linearGradient>
	<path style="fill:url(#SVGID_00000082366465779097672030000000375884294574205375_);" d="M88.9,287.4c-1,0-18.5,10.4-38.6,22.8
		l-37.6,23v16.1l37.4,23.4c20.7,12.8,38.2,23.4,39,23.4c0.8,0,2.4-1.8,4.1-4.1c2.4-3.9,0.4-5.5-34-27.2
		c-32.7-20.5-36.2-23.4-32.9-25.6c2-1.4,17.5-11,34.1-21.3c38-23.4,36-21.8,32.9-26.6C92.2,289,90.1,287.2,88.9,287.4L88.9,287.4z"
		/>
	<g>
		
			<linearGradient id="SVGID_00000034079622241217119440000012714220767075934385_" gradientUnits="userSpaceOnUse" x1="327.413" y1="31.8991" x2="330.625" y2="31.8991" gradientTransform="matrix(1 0 0 1 0 334)">
			<stop  offset="0" style="stop-color:#FA12E3"/>
			<stop  offset="0.5362" style="stop-color:#7312FA"/>
			<stop  offset="1" style="stop-color:#415CA7"/>
		</linearGradient>
		<path style="fill:url(#SVGID_00000034079622241217119440000012714220767075934385_);" d="M328.4,364h-1v3.8h0.8
			c1,0,1.5-0.2,1.7-0.6c0.4-0.2,0.6-0.7,0.6-1.7c0-0.7-0.2-1-0.4-1C330.1,364.1,329.5,364,328.4,364z"/>
		
			<linearGradient id="SVGID_00000181767894971407936560000018078858464050608805_" gradientUnits="userSpaceOnUse" x1="284.8999" y1="219.4601" x2="451.6141" y2="219.4601">
			<stop  offset="0" style="stop-color:#FA12E3"/>
			<stop  offset="0.5362" style="stop-color:#7312FA"/>
			<stop  offset="1" style="stop-color:#415CA7"/>
		</linearGradient>
		<path style="fill:url(#SVGID_00000181767894971407936560000018078858464050608805_);" d="M393.6,81.2l-2.4,12.6
			c-3.7,23.9-2.4,30.7,7.9,39.6l9.9,8.2l-10.2,45.7c-6.1,27.3-13.6,50.1-18.4,57.6c-4.1,6.5-8.9,16-9.9,21.1
			c-1.7,6.1-7.5,12.3-16.4,17.7c-7.8,4.4-23.2,16.4-34.1,25.9c-8.7,7.8-14.7,12.6-17.9,14.7l-10.6,8.4c-3.4,5.5-5.3,9.9-6.1,13.2
			c-0.7,3.4-0.3,5.7,0.8,7.4c1.1,1.6,2.9,2.7,5.4,3.4c3,0.7,6,0.9,9.1,0.7c6.9-0.5,13.7-1.7,20.4-3.6c2.3-0.6,4-1.2,5.6-1.7
			c2.4-2.9,7.9-8.5,17.7-18.1c25.9-25.5,35.8-39.5,25.6-35.8c-3.8,1.4-2.1-2.1,4.4-8.9c13.7-13.3,21.5-33.4,37.9-96.5
			c13-49.8,13-50.5,22.5-50.5c4.5,0,17.1,0.8,17.1,0.8V81.2h-29.1L393.6,81.2z"/>
		
			<linearGradient id="SVGID_00000070113785669629821550000013954087870787120022_" gradientUnits="userSpaceOnUse" x1="186.2834" y1="229.2718" x2="287.0077" y2="229.2718">
			<stop  offset="0" style="stop-color:#FA12E3"/>
			<stop  offset="0.5362" style="stop-color:#7312FA"/>
			<stop  offset="1" style="stop-color:#415CA7"/>
		</linearGradient>
		<path style="fill:url(#SVGID_00000070113785669629821550000013954087870787120022_);" d="M278.8,187.7
			c-9.4-0.1-29.6,14.3-90.2,63.7c-2.6,6.2-2.8,10.5-1.6,13.3c0.8,1.9,2.2,3.2,4.2,4.2c1.9,1,4.4,1.5,7.2,1.8
			c5.5,0.5,12-0.4,17.3-1.4l3.5-0.8c1.2-1.6,2.8-2.9,4.6-3.8c3.7-2.1,19.4-16.4,35.1-31.7c27.6-28,34.1-40.6,22.8-44.7
			C280.8,187.9,279.9,187.7,278.8,187.7L278.8,187.7z"/>
		
			<linearGradient id="SVGID_00000051374351193039500640000005806096891882835618_" gradientUnits="userSpaceOnUse" x1="252.3227" y1="251.769" x2="357.4784" y2="251.769">
			<stop  offset="0" style="stop-color:#FA12E3"/>
			<stop  offset="0.5362" style="stop-color:#7312FA"/>
			<stop  offset="1" style="stop-color:#415CA7"/>
		</linearGradient>
		<path style="fill:url(#SVGID_00000051374351193039500640000005806096891882835618_);" d="M349.6,207.2
			c-8.3,0.2-23.2,9.8-48.7,30.2c-12.8,10.4-20.9,16-25.3,17.2l-16.9,13.3c-6.3,11.6-7.3,18.8-5.6,22.7c0.8,2,2.4,3.5,4.4,4.3
			c2.5,1,5.1,1.5,7.7,1.4c6.3-0.1,12.6-1,18.7-2.7c3.2-0.8,6.3-1.8,9.4-3l0.9-0.4l1.7-0.9c3.2-4.2,10.6-12,19.9-21
			c29.3-28.3,44.3-48.4,41.2-55.9C355.7,208.9,353.3,207,349.6,207.2z"/>
		
			<linearGradient id="SVGID_00000046307717458896623460000002085031486497668011_" gradientUnits="userSpaceOnUse" x1="116.4181" y1="308.2663" x2="273.0217" y2="308.2663">
			<stop  offset="0" style="stop-color:#FA12E3"/>
			<stop  offset="0.5362" style="stop-color:#7312FA"/>
			<stop  offset="1" style="stop-color:#415CA7"/>
		</linearGradient>
		<path style="fill:url(#SVGID_00000046307717458896623460000002085031486497668011_);" d="M271.5,241.9c-2.4,0.3-7.7,4.4-17.4,12.8
			c-13.9,12.3-29.1,19.4-34.3,16.2c-1.2,0.3-2.4,0.5-3.7,0.8c-5.3,1.1-12,1.9-18,1.4c-2.8-0.2-5.6-0.9-8.1-2
			c-2.4-1.1-4.3-3.1-5.4-5.5c-1.2-2.9-1.2-6.5,0.2-11.1l-20.9,17.2L116.4,311v63.6l155.3-122.3c0-1.3,0.1-2.7,0.5-4
			C273.4,244,273.4,241.8,271.5,241.9L271.5,241.9z"/>
		
			<linearGradient id="SVGID_00000183244581655989400770000007355464626763073170_" gradientUnits="userSpaceOnUse" x1="116.3859" y1="340.6292" x2="341.3965" y2="340.6292">
			<stop  offset="0" style="stop-color:#FA12E3"/>
			<stop  offset="0.5362" style="stop-color:#7312FA"/>
			<stop  offset="1" style="stop-color:#415CA7"/>
		</linearGradient>
		<path style="fill:url(#SVGID_00000183244581655989400770000007355464626763073170_);" d="M338.3,262.5c-2.4,0-6.3,3.3-12.6,10
			c-8.5,9.1-22,17.9-29.1,19.7l-1.1,0.6c-1.2,0.5-2.4,0.9-3.5,1.4c-1.9,0.6-4.4,1.4-7.3,2.2c-5.8,1.6-13,3-19.5,2.9
			c-3,0-6-0.6-8.9-1.7c-2.7-1.1-4.8-3.2-5.9-5.8c-1.9-4.5-1.1-10.8,3-19.7l-137,107.9v38.8h60.2l127.6-100.3c3.3-3.7,8.3-8.7,15-15
			c18-16.7,22.1-22.5,22.1-31C341.4,265.9,340.7,262.5,338.3,262.5L338.3,262.5z"/>
		
			<linearGradient id="SVGID_00000074425425593946881940000015617772715291531156_" gradientUnits="userSpaceOnUse" x1="182.5939" y1="372.058" x2="368.6851" y2="372.058">
			<stop  offset="0" style="stop-color:#FA12E3"/>
			<stop  offset="0.5362" style="stop-color:#7312FA"/>
			<stop  offset="1" style="stop-color:#415CA7"/>
		</linearGradient>
		<path style="fill:url(#SVGID_00000074425425593946881940000015617772715291531156_);" d="M368.7,325.4l-10.9,10.9
			c-6.1,5.8-17,13-24.5,16l-1.5,0.6l-0.1,0.2l-0.3,0.3c-0.3,0.2-0.4,0.3-0.6,0.4c-3,1.1-6,2.1-9.1,3c-6.8,2-13.8,3.2-20.9,3.7
			c-3.4,0.2-6.7-0.1-10-0.9c-2.8-0.6-5.3-2.3-7-4.6c-1.5-2.4-2-5.6-1.1-9.5c0.7-2.8,1.7-5.5,3.1-8.1l-103,81.4h137L336,400
			c22.5-26.2,32.7-45,32.7-61V325.4z"/>
	</g>
</g>
</svg>
