<?xml version="1.0" encoding="utf-8"?>
<!-- Generator: Adobe Illustrator 28.1.0, SVG Export Plug-In . SVG Version: 6.00 Build 0)  -->
<svg version="1.1" id="Camada_1" xmlns="http://www.w3.org/2000/svg" xmlns:xlink="http://www.w3.org/1999/xlink" x="0px" y="0px"
	 viewBox="0 0 500 500" style="enable-background:new 0 0 500 500;" xml:space="preserve">
<style type="text/css">
	.st0{fill:url(#SVGID_1_);}
	.st1{fill:url(#SVGID_00000088119939596482329820000010615276725239725229_);}
	.st2{fill:url(#SVGID_00000036958193361527859430000008092181950516533951_);}
	.st3{fill:url(#SVGID_00000150812639104916999050000012518314233340798876_);}
	.st4{fill-rule:evenodd;clip-rule:evenodd;fill:url(#SVGID_00000137832233816808750470000005454491957902549391_);}
	.st5{fill-rule:evenodd;clip-rule:evenodd;fill:url(#SVGID_00000037654948717955466560000004695514970039407249_);}
	.st6{fill:url(#SVGID_00000047032314942390303600000003163872552845116859_);}
	.st7{fill:url(#SVGID_00000163063874800123811060000006764976161279436429_);}
</style>
<g>
	
		<linearGradient id="SVGID_1_" gradientUnits="userSpaceOnUse" x1="-676.601" y1="306.51" x2="-562.4068" y2="306.51" gradientTransform="matrix(1 0 0 -1 0 499)">
		<stop  offset="0" style="stop-color:#FA12E3"/>
		<stop  offset="0.5362" style="stop-color:#7312FA"/>
		<stop  offset="1" style="stop-color:#415CA7"/>
	</linearGradient>
	<path class="st0" d="M-594.5,187.9h-4.3v9.1h4.3c1.4,0,2.6-0.5,3.6-1.5c0.9-0.9,1.4-2,1.4-3.2
		C-589.5,189.9-591.7,187.9-594.5,187.9z"/>
	
		<linearGradient id="SVGID_00000171700246338516273630000008995939038388181656_" gradientUnits="userSpaceOnUse" x1="-785.3883" y1="306.16" x2="-714.0397" y2="306.16" gradientTransform="matrix(1 0 0 -1 0 499)">
		<stop  offset="0" style="stop-color:#FA12E3"/>
		<stop  offset="0.5362" style="stop-color:#7312FA"/>
		<stop  offset="1" style="stop-color:#415CA7"/>
	</linearGradient>
	<path style="fill:url(#SVGID_00000171700246338516273630000008995939038388181656_);" d="M-756.2,187.9h-5.2v9.8h5.2
		c1.8,0,3.4-0.6,4.6-1.8c0.9-0.9,1.4-2,1.4-3.1C-750.3,190.1-752.9,187.9-756.2,187.9z"/>
	
		<linearGradient id="SVGID_00000072980342748492485690000015888136529371607951_" gradientUnits="userSpaceOnUse" x1="-547.2838" y1="306.16" x2="-528.64" y2="306.16" gradientTransform="matrix(1 0 0 -1 0 499)">
		<stop  offset="0" style="stop-color:#FA12E3"/>
		<stop  offset="0.1633" style="stop-color:#7312FA"/>
		<stop  offset="1" style="stop-color:#415CA7"/>
	</linearGradient>
	<path style="fill:url(#SVGID_00000072980342748492485690000015888136529371607951_);" d="M-531.5,187.9h-5.2v9.8h5.2l0,0
		c1.7,0,3.4-0.6,4.5-1.8c0.9-0.9,1.4-2,1.4-3.1C-525.6,190.1-528.3,187.9-531.5,187.9z"/>
	
		<linearGradient id="SVGID_00000040576733249934408450000011649393293395472793_" gradientUnits="userSpaceOnUse" x1="-911.84" y1="294.41" x2="-419.74" y2="294.41" gradientTransform="matrix(1 0 0 -1 0 499)">
		<stop  offset="0" style="stop-color:#FA12E3"/>
		<stop  offset="0.5362" style="stop-color:#7312FA"/>
		<stop  offset="1" style="stop-color:#415CA7"/>
	</linearGradient>
	<path style="fill:url(#SVGID_00000040576733249934408450000011649393293395472793_);" d="M-465.3,145.7c-8.3-27-9.5-60.1-8.6-85.7
		c1-26.6-19.9-51.1-47.9-51.1h-287.8c-28.1,0-48.8,24.5-47.9,51.1c0.9,25.6-0.3,58.7-8.6,85.7c-8.4,27.1-22.5,44.2-45.7,46.4V217
		c23.1,2.2,37.3,19.3,45.7,46.4c8.3,27,9.5,60.1,8.6,85.7c-1,26.6,19.9,51.1,47.9,51.1h287.8c28.1,0,48.9-24.5,47.9-51.1
		c-0.9-25.6,0.3-58.7,8.6-85.7c8.4-27.1,22.5-44.2,45.6-46.4v-24.9C-442.8,189.9-457,172.8-465.3,145.7z M-820.6,187.9h-11.5V224
		h-11.6v-36.1h-11.4v-11.5h34.5V187.9z M-792.5,204v20.1H-804V204l-16-27.6h13.2l8.6,14.7l8.6-14.7h13.2L-792.5,204z M-756.2,209.2
		h-5.2V224H-773v-47.6h16.7c9.6,0,17.5,7.4,17.5,16.5C-738.7,201.9-746.5,209.2-756.2,209.2z M-702.4,187.8h-18.8v6.1h16.2v11.5
		h-16.2v7h18.8v11.5h-30.4v-47.6h30.3L-702.4,187.8L-702.4,187.8z M-680.1,224.7c-7.7,0-14-3.6-17-9.6l-0.9-1.8l9.2-6.6l1.3,2.3
		c1.5,2.6,4.2,4,7.5,4c3.4,0,6-1.4,6-3.2c0-2.3-5.2-4.6-9-6.2l-0.1-0.1c-4.8-2.1-12.1-5.4-12.1-13.8c0-8.2,7-14.3,16.2-14.3
		c7,0,12.5,3.4,14.7,9.2l0.7,1.8l-8.9,6.2l-1.2-2.6c-0.9-1.9-2.9-3.1-5.2-3.1c-2.5,0-4.6,1.4-4.6,3c0,1.3,2.2,2.3,5.9,3.8
		c0.6,0.2,1.2,0.5,1.8,0.8c6.5,2.9,13.5,6.6,13.5,15.2C-662.4,218.6-669.7,224.7-680.1,224.7z M-633.7,213.1c4.1,0,7.4-2.4,9.4-4.4
		l2-2l6.7,9.4l-1.5,1.5c-4.9,4.8-10.2,7.1-16.5,7.1c-13.6,0-24.6-11-24.6-24.5c0-13.3,11.2-24.6,24.5-24.6
		c6.1,0.1,11.8,2.6,16.6,7.2l1.5,1.5l-6.8,9.2l-2-2c-2.8-2.8-6.1-4.3-9.4-4.3c-6.8,0-12.7,6.1-12.7,12.9
		C-646.5,207.8-639.7,213.1-633.7,213.1z M-585.7,224l-11.5-16.6h-1.6V224h-11.6v-47.6h15.7c9.3,0,16.9,7.3,16.9,16.2
		c0,5.3-2.8,10.2-7.2,12.9l13.5,18.6L-585.7,224L-585.7,224z M-557.1,224h-11.6v-47.6h11.6V224z M-531.5,209.2h-5.2V224h-11.6v-47.6
		h16.7c9.6,0,17.5,7.4,17.5,16.5C-514,201.9-521.9,209.2-531.5,209.2z M-476.4,187.9h-11.5V224h-11.6v-36.1H-511v-11.5h34.5v11.5
		H-476.4z"/>
</g>
<linearGradient id="SVGID_00000117645539157155827740000005014256572262835605_" gradientUnits="userSpaceOnUse" x1="856.2" y1="392.4" x2="863.8" y2="392.4" gradientTransform="matrix(1 0 0 -1 0 833)">
	<stop  offset="0" style="stop-color:#FA12E3"/>
	<stop  offset="0.5362" style="stop-color:#7312FA"/>
	<stop  offset="1" style="stop-color:#415CA7"/>
</linearGradient>
<path style="fill-rule:evenodd;clip-rule:evenodd;fill:url(#SVGID_00000117645539157155827740000005014256572262835605_);" d="
	M856.2,441.7L856.2,441.7L856.2,441.7c2.6-0.7,5.1-1.4,7.6-2.2C861.3,440.2,858.8,441,856.2,441.7z"/>
<linearGradient id="SVGID_00000007390289253837803040000009398338209819612087_" gradientUnits="userSpaceOnUse" x1="839.9" y1="367.2" x2="847.5" y2="367.2" gradientTransform="matrix(1 0 0 -1 0 833)">
	<stop  offset="0" style="stop-color:#FA12E3"/>
	<stop  offset="0.5362" style="stop-color:#7312FA"/>
	<stop  offset="1" style="stop-color:#415CA7"/>
</linearGradient>
<path style="fill-rule:evenodd;clip-rule:evenodd;fill:url(#SVGID_00000007390289253837803040000009398338209819612087_);" d="
	M839.9,466.9L839.9,466.9L839.9,466.9c2.6-0.7,5.1-1.4,7.6-2.2C845,465.4,842.5,466.2,839.9,466.9z"/>
<g>
	
		<linearGradient id="SVGID_00000172398816086604188630000009821854672347531650_" gradientUnits="userSpaceOnUse" x1="33.6164" y1="250.155" x2="250" y2="250.155">
		<stop  offset="0" style="stop-color:#FA12E3"/>
		<stop  offset="0.5362" style="stop-color:#7312FA"/>
		<stop  offset="1" style="stop-color:#415CA7"/>
	</linearGradient>
	<polygon style="fill:url(#SVGID_00000172398816086604188630000009821854672347531650_);" points="113,394.2 170.9,394.2 
		170.9,161.1 250,161.1 250,106.1 33.6,106.1 33.6,161.1 113,161.1 	"/>
	
		<linearGradient id="SVGID_00000114045997787518715110000009724791175279912064_" gradientUnits="userSpaceOnUse" x1="257.5884" y1="250" x2="466.3836" y2="250">
		<stop  offset="0" style="stop-color:#FA12E3"/>
		<stop  offset="0.5362" style="stop-color:#7312FA"/>
		<stop  offset="1" style="stop-color:#415CA7"/>
	</linearGradient>
	<path style="fill:url(#SVGID_00000114045997787518715110000009724791175279912064_);" d="M287.7,373.1c19.8,17.1,45,25.7,74.6,25.7
		c29.5,0,54.1-8.4,73.9-25c20-16.6,30.2-38.8,30.2-65.1c0-43.4-30.8-72.5-91.8-87.1c-35.3-8.1-53.3-20.6-53.3-37.8
		c0-8.7,3.7-15.7,11-21.1c7.4-5.9,17.2-8.7,28.8-8.7c11.9,0,21.7,3.3,29.8,9.9c7.8,6.5,11.6,14.3,11.6,23.7v5.1h59.2v-5.1
		c0-24.8-9.8-45.6-29-62.2c-18.9-16.3-42.9-24.5-71.1-24.5c-28.2,0-52.1,7.9-70.7,23.9c-19.1,16-28.5,37-28.5,62.5
		c0,23.3,8.4,42.6,24.8,56.9c15.8,14,36.9,23.9,62.6,29.8c38.1,8.5,57.4,21.7,57.4,39.1c0,9.3-4,16.9-12.1,22.9
		c-8.5,6.5-19.1,9.8-31.6,9.8c-13.3,0-24.8-3.7-33.6-11c-8.7-7.1-13-15.8-13-26.4v-5.1h-59.2v5.1
		C257.3,334.1,267.7,355.9,287.7,373.1z"/>
</g>
</svg>
