<?xml version="1.0" encoding="utf-8"?>
<!-- Generator: Adobe Illustrator 28.1.0, SVG Export Plug-In . SVG Version: 6.00 Build 0)  -->
<svg version="1.1" id="Camada_1" xmlns="http://www.w3.org/2000/svg" xmlns:xlink="http://www.w3.org/1999/xlink" x="0px" y="0px"
	 viewBox="0 0 500 500" style="enable-background:new 0 0 500 500;" xml:space="preserve">
<style type="text/css">
	.st0{fill:url(#SVGID_1_);}
	.st1{fill:url(#SVGID_00000098220512435509113070000010206108164412994201_);}
	.st2{fill:url(#SVGID_00000111173881756734101150000015579098528188157587_);}
	.st3{fill:url(#SVGID_00000173881258585786300930000005939635866273730723_);}
	.st4{fill-rule:evenodd;clip-rule:evenodd;fill:url(#SVGID_00000145746340041542410210000003213560886999491462_);}
	.st5{fill-rule:evenodd;clip-rule:evenodd;fill:url(#SVGID_00000033338062384707096800000006924685658639325099_);}
	.st6{fill:url(#SVGID_00000152962590180391320840000011870133694705502099_);}
	.st7{fill:url(#SVGID_00000090254278075142024740000000909017009615951252_);}
</style>
<g>
	
		<linearGradient id="SVGID_1_" gradientUnits="userSpaceOnUse" x1="-676.601" y1="-141.55" x2="-562.4068" y2="-141.55" gradientTransform="matrix(1 0 0 1 0 334)">
		<stop  offset="0" style="stop-color:#FA12E3"/>
		<stop  offset="0.5362" style="stop-color:#7312FA"/>
		<stop  offset="1" style="stop-color:#415CA7"/>
	</linearGradient>
	<path class="st0" d="M-594.5,187.9h-4.3v9.1h4.3c1.4,0,2.6-0.5,3.6-1.5c0.9-0.9,1.4-2,1.4-3.2
		C-589.5,189.9-591.7,187.9-594.5,187.9z"/>
	
		<linearGradient id="SVGID_00000039101775354131707170000006015857945296267908_" gradientUnits="userSpaceOnUse" x1="-785.3883" y1="-141.2" x2="-714.0397" y2="-141.2" gradientTransform="matrix(1 0 0 1 0 334)">
		<stop  offset="0" style="stop-color:#FA12E3"/>
		<stop  offset="0.5362" style="stop-color:#7312FA"/>
		<stop  offset="1" style="stop-color:#415CA7"/>
	</linearGradient>
	<path style="fill:url(#SVGID_00000039101775354131707170000006015857945296267908_);" d="M-756.2,187.9h-5.2v9.8h5.2
		c1.8,0,3.4-0.6,4.6-1.8c0.9-0.9,1.4-2,1.4-3.1C-750.3,190.1-752.9,187.9-756.2,187.9z"/>
	
		<linearGradient id="SVGID_00000003089974758321122500000004556396064853401784_" gradientUnits="userSpaceOnUse" x1="-547.2838" y1="-141.2" x2="-528.64" y2="-141.2" gradientTransform="matrix(1 0 0 1 0 334)">
		<stop  offset="0" style="stop-color:#FA12E3"/>
		<stop  offset="0.1633" style="stop-color:#7312FA"/>
		<stop  offset="1" style="stop-color:#415CA7"/>
	</linearGradient>
	<path style="fill:url(#SVGID_00000003089974758321122500000004556396064853401784_);" d="M-531.5,187.9h-5.2v9.8h5.2l0,0
		c1.7,0,3.4-0.6,4.5-1.8c0.9-0.9,1.4-2,1.4-3.1C-525.6,190.1-528.3,187.9-531.5,187.9z"/>
	
		<linearGradient id="SVGID_00000020382152366089452240000010402209624087607192_" gradientUnits="userSpaceOnUse" x1="-911.8" y1="-129.45" x2="-419.7" y2="-129.45" gradientTransform="matrix(1 0 0 1 0 334)">
		<stop  offset="0" style="stop-color:#FA12E3"/>
		<stop  offset="0.5362" style="stop-color:#7312FA"/>
		<stop  offset="1" style="stop-color:#415CA7"/>
	</linearGradient>
	<path style="fill:url(#SVGID_00000020382152366089452240000010402209624087607192_);" d="M-465.3,145.7c-8.3-27-9.5-60.1-8.6-85.7
		c1-26.6-19.9-51.1-47.9-51.1h-287.8c-28.1,0-48.8,24.5-47.9,51.1c0.9,25.6-0.3,58.7-8.6,85.7c-8.4,27.1-22.5,44.2-45.7,46.4V217
		c23.1,2.2,37.3,19.3,45.7,46.4c8.3,27,9.5,60.1,8.6,85.7c-1,26.6,19.9,51.1,47.9,51.1h287.8c28.1,0,48.9-24.5,47.9-51.1
		c-0.9-25.6,0.3-58.7,8.6-85.7c8.4-27.1,22.5-44.2,45.6-46.4v-24.9C-442.8,189.9-457,172.8-465.3,145.7z M-820.6,187.9h-11.5V224
		h-11.6v-36.1h-11.4v-11.5h34.5V187.9z M-792.5,204v20.1H-804V204l-16-27.6h13.2l8.6,14.7l8.6-14.7h13.2L-792.5,204z M-756.2,209.2
		h-5.2V224H-773v-47.6h16.7c9.6,0,17.5,7.4,17.5,16.5C-738.7,201.9-746.5,209.2-756.2,209.2z M-702.4,187.8h-18.8v6.1h16.2v11.5
		h-16.2v7h18.8v11.5h-30.4v-47.6h30.3L-702.4,187.8L-702.4,187.8z M-680.1,224.7c-7.7,0-14-3.6-17-9.6l-0.9-1.8l9.2-6.6l1.3,2.3
		c1.5,2.6,4.2,4,7.5,4c3.4,0,6-1.4,6-3.2c0-2.3-5.2-4.6-9-6.2l-0.1-0.1c-4.8-2.1-12.1-5.4-12.1-13.8c0-8.2,7-14.3,16.2-14.3
		c7,0,12.5,3.4,14.7,9.2l0.7,1.8l-8.9,6.2l-1.2-2.6c-0.9-1.9-2.9-3.1-5.2-3.1c-2.5,0-4.6,1.4-4.6,3c0,1.3,2.2,2.3,5.9,3.8
		c0.6,0.2,1.2,0.5,1.8,0.8c6.5,2.9,13.5,6.6,13.5,15.2C-662.4,218.6-669.7,224.7-680.1,224.7z M-633.7,213.1c4.1,0,7.4-2.4,9.4-4.4
		l2-2l6.7,9.4l-1.5,1.5c-4.9,4.8-10.2,7.1-16.5,7.1c-13.6,0-24.6-11-24.6-24.5c0-13.3,11.2-24.6,24.5-24.6
		c6.1,0.1,11.8,2.6,16.6,7.2l1.5,1.5l-6.8,9.2l-2-2c-2.8-2.8-6.1-4.3-9.4-4.3c-6.8,0-12.7,6.1-12.7,12.9
		C-646.5,207.8-639.7,213.1-633.7,213.1z M-585.7,224l-11.5-16.6h-1.6V224h-11.6v-47.6h15.7c9.3,0,16.9,7.3,16.9,16.2
		c0,5.3-2.8,10.2-7.2,12.9l13.5,18.6L-585.7,224L-585.7,224z M-557.1,224h-11.6v-47.6h11.6V224z M-531.5,209.2h-5.2V224h-11.6v-47.6
		h16.7c9.6,0,17.5,7.4,17.5,16.5C-514,201.9-521.9,209.2-531.5,209.2z M-476.4,187.9h-11.5V224h-11.6v-36.1H-511v-11.5h34.5v11.5
		H-476.4z"/>
</g>
<linearGradient id="SVGID_00000104704697157212189090000007321621421433801351_" gradientUnits="userSpaceOnUse" x1="856.2" y1="-227.4" x2="863.8" y2="-227.4" gradientTransform="matrix(1 0 0 1 0 668)">
	<stop  offset="0" style="stop-color:#FA12E3"/>
	<stop  offset="0.5362" style="stop-color:#7312FA"/>
	<stop  offset="1" style="stop-color:#415CA7"/>
</linearGradient>
<path style="fill-rule:evenodd;clip-rule:evenodd;fill:url(#SVGID_00000104704697157212189090000007321621421433801351_);" d="
	M856.2,441.7L856.2,441.7L856.2,441.7c2.6-0.7,5.1-1.4,7.6-2.2C861.3,440.2,858.8,441,856.2,441.7z"/>
<linearGradient id="SVGID_00000160187850856692081120000015044540102978447784_" gradientUnits="userSpaceOnUse" x1="839.9" y1="-202.2" x2="847.5" y2="-202.2" gradientTransform="matrix(1 0 0 1 0 668)">
	<stop  offset="0" style="stop-color:#FA12E3"/>
	<stop  offset="0.5362" style="stop-color:#7312FA"/>
	<stop  offset="1" style="stop-color:#415CA7"/>
</linearGradient>
<path style="fill-rule:evenodd;clip-rule:evenodd;fill:url(#SVGID_00000160187850856692081120000015044540102978447784_);" d="
	M839.9,466.9L839.9,466.9L839.9,466.9c2.6-0.7,5.1-1.4,7.6-2.2C845,465.4,842.5,466.2,839.9,466.9z"/>
<g>
	
		<linearGradient id="SVGID_00000142149955451530083380000003538591623375985339_" gradientUnits="userSpaceOnUse" x1="1.4923" y1="248.6555" x2="250" y2="248.6555" gradientTransform="matrix(1 0 0 -1 0 499)">
		<stop  offset="0" style="stop-color:#FA12E3"/>
		<stop  offset="0.5362" style="stop-color:#7312FA"/>
		<stop  offset="1" style="stop-color:#415CA7"/>
	</linearGradient>
	<polygon style="fill:url(#SVGID_00000142149955451530083380000003538591623375985339_);" points="92.7,415.8 159.2,415.8 
		159.2,148.1 250,148.1 250,84.9 1.5,84.9 1.5,148.1 92.7,148.1 	"/>
	
		<linearGradient id="SVGID_00000013906035813062856550000008918437275609731972_" gradientUnits="userSpaceOnUse" x1="258.8297" y1="249" x2="498.5077" y2="249" gradientTransform="matrix(1 0 0 -1 0 499)">
		<stop  offset="0" style="stop-color:#FA12E3"/>
		<stop  offset="0.5362" style="stop-color:#7312FA"/>
		<stop  offset="1" style="stop-color:#415CA7"/>
	</linearGradient>
	<path style="fill:url(#SVGID_00000013906035813062856550000008918437275609731972_);" d="M293.3,391.5C316,411.2,345,421,379,421
		c33.9,0,62.1-9.6,84.9-28.7c23-19.1,34.7-44.6,34.7-74.8c0-49.8-35.4-83.3-105.4-100c-40.5-9.3-61.2-23.7-61.2-43.4
		c0-10,4.2-18,12.6-24.2c8.5-6.8,19.8-10,33.1-10c13.7,0,24.9,3.8,34.2,11.4c9,7.5,13.3,16.4,13.3,27.2v5.9h68v-5.9
		c0-28.5-11.3-52.4-33.3-71.4c-21.7-18.7-49.3-28.1-81.6-28.1S318.3,88,297,106.4c-21.9,18.4-32.7,42.5-32.7,71.8
		c0,26.8,9.6,48.9,28.5,65.3c18.1,16.1,42.4,27.4,71.9,34.2c43.8,9.8,65.9,24.9,65.9,44.9c0,10.7-4.6,19.4-13.9,26.3
		c-9.8,7.5-21.9,11.3-36.3,11.3c-15.3,0-28.5-4.2-38.6-12.6c-10-8.2-14.9-18.1-14.9-30.3v-5.9h-68v5.9
		C258.4,346.8,270.3,371.8,293.3,391.5z"/>
</g>
</svg>
