<svg width="500" height="500" viewBox="0 0 500 500" fill="none" xmlns="http://www.w3.org/2000/svg">
<g clip-path="url(#clip0_4003_338)">
<path d="M92.7 415.8H159.2V148.1H250V84.8999H1.5V148.1H92.7V415.8Z" fill="#FEF5F5"/>
<path d="M293.3 391.5C316 411.2 345 421 379 421C412.9 421 441.1 411.4 463.9 392.3C486.9 373.2 498.6 347.7 498.6 317.5C498.6 267.7 463.2 234.2 393.2 217.5C352.7 208.2 332 193.8 332 174.1C332 164.1 336.2 156.1 344.6 149.9C353.1 143.1 364.4 139.9 377.7 139.9C391.4 139.9 402.6 143.7 411.9 151.3C420.9 158.8 425.2 167.7 425.2 178.5V184.4H493.2V178.5C493.2 150 481.9 126.1 459.9 107.1C438.2 88.4 410.6 79 378.3 79C346 79 318.3 88 297 106.4C275.1 124.8 264.3 148.9 264.3 178.2C264.3 205 273.9 227.1 292.8 243.5C310.9 259.6 335.2 270.9 364.7 277.7C408.5 287.5 430.6 302.6 430.6 322.6C430.6 333.3 426 342 416.7 348.9C406.9 356.4 394.8 360.2 380.4 360.2C365.1 360.2 351.9 356 341.8 347.6C331.8 339.4 326.9 329.5 326.9 317.3V311.4H258.9V317.3C258.4 346.8 270.3 371.8 293.3 391.5Z" fill="#FEF5F5"/>
</g>
<defs>
<clipPath id="clip0_4003_338">
<rect width="500" height="500" fill="white"/>
</clipPath>
</defs>
</svg>
