<?xml version="1.0" encoding="utf-8"?>
<!-- Generator: Adobe Illustrator 28.1.0, SVG Export Plug-In . SVG Version: 6.00 Build 0)  -->
<svg version="1.1" id="Camada_1" xmlns="http://www.w3.org/2000/svg" xmlns:xlink="http://www.w3.org/1999/xlink" x="0px" y="0px"
	 viewBox="0 0 500 500" style="enable-background:new 0 0 500 500;" xml:space="preserve">
<style type="text/css">
	.st0{fill:url(#SVGID_1_);}
	.st1{fill:url(#SVGID_00000007409140739685711610000000481243128301754032_);}
	.st2{fill:url(#SVGID_00000155827387113855810940000014862898584278364856_);}
	.st3{fill:url(#SVGID_00000007426670205922188810000017868159347947915184_);}
	.st4{fill-rule:evenodd;clip-rule:evenodd;fill:url(#SVGID_00000065069939905296887250000001503847683623565731_);}
	.st5{fill-rule:evenodd;clip-rule:evenodd;fill:url(#SVGID_00000027579579749023307920000007175858593813773953_);}
	.st6{opacity:0.3;enable-background:new    ;}
	.st7{fill:#121212;}
</style>
<linearGradient id="SVGID_1_" gradientUnits="userSpaceOnUse" x1="239.239" y1="237.8678" x2="353.4332" y2="237.8678">
	<stop  offset="0" style="stop-color:#FA12E3"/>
	<stop  offset="0.5362" style="stop-color:#7312FA"/>
	<stop  offset="1" style="stop-color:#415CA7"/>
</linearGradient>
<path class="st0" d="M321.3,233.3H317v9.1h4.3c1.4,0,2.6-0.5,3.6-1.5c0.9-0.9,1.4-2,1.4-3.2C326.3,235.3,324.1,233.3,321.3,233.3z"
	/>
<linearGradient id="SVGID_00000139267596829017615280000000948748735718563005_" gradientUnits="userSpaceOnUse" x1="130.4517" y1="238.1988" x2="201.8003" y2="238.1988">
	<stop  offset="0" style="stop-color:#FA12E3"/>
	<stop  offset="0.5362" style="stop-color:#7312FA"/>
	<stop  offset="1" style="stop-color:#415CA7"/>
</linearGradient>
<path style="fill:url(#SVGID_00000139267596829017615280000000948748735718563005_);" d="M159.6,233.3h-5.2v9.8l5.2,0
	c1.8,0,3.4-0.6,4.6-1.8c0.9-0.9,1.4-2,1.4-3.1C165.5,235.5,162.9,233.3,159.6,233.3z"/>
<linearGradient id="SVGID_00000082340098442789014700000008780209543950215868_" gradientUnits="userSpaceOnUse" x1="368.5562" y1="238.1987" x2="387.2" y2="238.1987">
	<stop  offset="0" style="stop-color:#FA12E3"/>
	<stop  offset="0.1633" style="stop-color:#7312FA"/>
	<stop  offset="1" style="stop-color:#415CA7"/>
</linearGradient>
<path style="fill:url(#SVGID_00000082340098442789014700000008780209543950215868_);" d="M384.3,233.3h-5.2v9.8l5.2,0c0,0,0,0,0,0
	c1.7,0,3.4-0.6,4.5-1.8c0.9-0.9,1.4-2,1.4-3.1C390.2,235.5,387.5,233.3,384.3,233.3z"/>
<linearGradient id="SVGID_00000079482105536163822940000007472397377640895650_" gradientUnits="userSpaceOnUse" x1="4" y1="249.95" x2="496.1" y2="249.95">
	<stop  offset="0" style="stop-color:#FA12E3"/>
	<stop  offset="0.5362" style="stop-color:#7312FA"/>
	<stop  offset="1" style="stop-color:#415CA7"/>
</linearGradient>
<path style="fill:url(#SVGID_00000079482105536163822940000007472397377640895650_);" d="M450.5,191.1c-8.3-27-9.5-60.1-8.6-85.7
	c1-26.6-19.9-51.1-47.9-51.1H106.2c-28.1,0-48.8,24.5-47.9,51.1c0.9,25.6-0.3,58.7-8.6,85.7c-8.4,27.1-22.5,44.2-45.7,46.4v24.9
	c23.1,2.2,37.3,19.3,45.7,46.4c8.3,27,9.5,60.1,8.6,85.7c-1,26.6,19.9,51.1,47.9,51.1H394c28.1,0,48.9-24.5,47.9-51.1
	c-0.9-25.6,0.3-58.7,8.6-85.7c8.4-27.1,22.5-44.2,45.6-46.4v-24.9C473,235.3,458.8,218.2,450.5,191.1z M95.2,233.3H83.7v36.1H72.1
	v-36.1H60.7v-11.5h34.5V233.3z M123.3,249.4v20.1h-11.5v-20.1l-16-27.6H109l8.6,14.7l8.6-14.7h13.2L123.3,249.4z M159.6,254.6h-5.2
	v14.8h-11.6v-47.6h16.7c9.6,0,17.5,7.4,17.5,16.5C177.1,247.3,169.3,254.6,159.6,254.6z M213.4,233.2h-18.8v6.1h16.2v11.5h-16.2v7
	h18.8v11.5H183v-47.6h30.3V233.2z M235.7,270.1c-7.7,0-14-3.6-17-9.6l-0.9-1.8l9.2-6.6l1.3,2.3c1.5,2.6,4.2,4,7.5,4
	c3.4,0,6-1.4,6-3.2c0-2.3-5.2-4.6-9-6.2l-0.1-0.1c-4.8-2.1-12.1-5.4-12.1-13.8c0-8.2,7-14.3,16.2-14.3c7,0,12.5,3.4,14.7,9.2
	l0.7,1.8l-8.9,6.2l-1.2-2.6c-0.9-1.9-2.9-3.1-5.2-3.1c-2.5,0-4.6,1.4-4.6,3c0,1.3,2.2,2.3,5.9,3.8c0.6,0.2,1.2,0.5,1.8,0.8
	c6.5,2.9,13.5,6.6,13.5,15.2C253.4,264,246.1,270.1,235.7,270.1z M282.1,258.5c4.1,0,7.4-2.4,9.4-4.4l2-2l6.7,9.4l-1.5,1.5
	c-4.9,4.8-10.2,7.1-16.5,7.1c-13.6,0-24.6-11-24.6-24.5c0-13.3,11.2-24.6,24.5-24.6c6.1,0.1,11.8,2.6,16.6,7.2l1.5,1.5l-6.8,9.2
	l-2-2c-2.8-2.8-6.1-4.3-9.4-4.3c-6.8,0-12.7,6.1-12.7,12.9C269.3,253.2,276.1,258.5,282.1,258.5z M330.1,269.4l-11.5-16.6H317v16.6
	h-11.6l0-47.6h15.7c9.3,0,16.9,7.3,16.9,16.2c0,5.3-2.8,10.2-7.2,12.9l13.5,18.6H330.1z M358.7,269.4h-11.6v-47.6h11.6V269.4z
	 M384.3,254.6h-5.2v14.8h-11.6v-47.6h16.7c9.6,0,17.5,7.4,17.5,16.5C401.8,247.3,393.9,254.6,384.3,254.6z M439.4,233.3h-11.5v36.1
	h-11.6v-36.1h-11.5v-11.5h34.5V233.3z"/>
<linearGradient id="SVGID_00000082344497024166068220000016690628858656428451_" gradientUnits="userSpaceOnUse" x1="856.2" y1="106.6" x2="863.8" y2="106.6" gradientTransform="matrix(1 0 0 1 0 334)">
	<stop  offset="0" style="stop-color:#FA12E3"/>
	<stop  offset="0.5362" style="stop-color:#7312FA"/>
	<stop  offset="1" style="stop-color:#415CA7"/>
</linearGradient>
<path style="fill-rule:evenodd;clip-rule:evenodd;fill:url(#SVGID_00000082344497024166068220000016690628858656428451_);" d="
	M856.2,441.7L856.2,441.7L856.2,441.7c2.6-0.7,5.1-1.4,7.6-2.2C861.3,440.2,858.8,441,856.2,441.7z"/>
<linearGradient id="SVGID_00000005266860867599755890000014364658192507032240_" gradientUnits="userSpaceOnUse" x1="839.9" y1="131.8" x2="847.5" y2="131.8" gradientTransform="matrix(1 0 0 1 0 334)">
	<stop  offset="0" style="stop-color:#FA12E3"/>
	<stop  offset="0.5362" style="stop-color:#7312FA"/>
	<stop  offset="1" style="stop-color:#415CA7"/>
</linearGradient>
<path style="fill-rule:evenodd;clip-rule:evenodd;fill:url(#SVGID_00000005266860867599755890000014364658192507032240_);" d="
	M839.9,466.9L839.9,466.9L839.9,466.9c2.6-0.7,5.1-1.4,7.6-2.2C845,465.4,842.5,466.2,839.9,466.9z"/>
<g class="st6">
	<polygon class="st7" points="161.6,343.1 199,343.1 199,192.7 250,192.7 250,157.2 110.4,157.2 110.4,192.7 161.6,192.7 	"/>
	<path class="st7" d="M274.3,329.5c12.8,11,29,16.6,48.1,16.6c19,0,34.9-5.4,47.7-16.1c12.9-10.7,19.5-25,19.5-42
		c0-28-19.9-46.8-59.2-56.2c-22.8-5.2-34.4-13.3-34.4-24.4c0-5.6,2.4-10.1,7.1-13.6c4.8-3.8,11.1-5.6,18.6-5.6
		c7.7,0,14,2.1,19.2,6.4c5,4.2,7.5,9.2,7.5,15.3v3.3h38.2v-3.3c0-16-6.3-29.4-18.7-40.1c-12.2-10.5-27.7-15.8-45.9-15.8
		c-18.2,0-33.6,5.1-45.6,15.4c-12.3,10.3-18.4,23.9-18.4,40.3c0,15,5.4,27.5,16,36.7c10.2,9,23.8,15.4,40.4,19.2
		c24.6,5.5,37,14,37,25.2c0,6-2.6,10.9-7.8,14.8c-5.5,4.2-12.3,6.3-20.4,6.3c-8.6,0-16-2.4-21.7-7.1c-5.6-4.6-8.4-10.2-8.4-17v-3.3
		h-38.2v3.3C254.7,304.3,261.4,318.4,274.3,329.5z"/>
</g>
</svg>
