<?xml version="1.0" encoding="utf-8"?>
<!-- Generator: Adobe Illustrator 28.1.0, SVG Export Plug-In . SVG Version: 6.00 Build 0)  -->
<svg version="1.1" id="Camada_1" xmlns="http://www.w3.org/2000/svg" xmlns:xlink="http://www.w3.org/1999/xlink" x="0px" y="0px"
	 viewBox="0 0 500 500" style="enable-background:new 0 0 500 500;" xml:space="preserve">
<style type="text/css">
	.st0{fill:url(#SVGID_1_);}
	.st1{fill:url(#SVGID_00000003793090693001194390000008928159769298985865_);}
	.st2{fill:url(#SVGID_00000054973661677484843650000000088088963033831045_);}
	.st3{opacity:0.3;fill:#121212;}
</style>
<linearGradient id="SVGID_1_" gradientUnits="userSpaceOnUse" x1="88.8878" y1="245.9958" x2="237.2078" y2="247.4359">
	<stop  offset="0.3041" style="stop-color:#FA12E3"/>
	<stop  offset="0.8189" style="stop-color:#7312FA"/>
</linearGradient>
<path class="st0" d="M177.9,240.8c-8.8,0-15.1,4.6-17.4,12h34.8C193.1,245.4,186.8,240.8,177.9,240.8z"/>
<g>
	
		<linearGradient id="SVGID_00000049182110234102428410000016865563024686251967_" gradientUnits="userSpaceOnUse" x1="0.572" y1="250" x2="492.6721" y2="250">
		<stop  offset="0" style="stop-color:#FA12E3"/>
		<stop  offset="0.54" style="stop-color:#7312FA"/>
		<stop  offset="1" style="stop-color:#415CA7"/>
	</linearGradient>
	<path style="fill:url(#SVGID_00000049182110234102428410000016865563024686251967_);" d="M447.1,191.2c-8.3-27-9.5-60.1-8.6-85.7
		c1-26.6-19.9-51.1-47.9-51.1H102.8c-28.1,0-48.8,24.5-47.9,51.1c0.9,25.6-0.3,58.7-8.6,85.7c-8.4,27.1-22.5,44.2-45.7,46.4v24.9
		c23.1,2.2,37.3,19.3,45.7,46.4c8.3,27,9.5,60.1,8.6,85.7c-1,26.6,19.9,51.1,47.9,51.1h287.8c28.1,0,48.9-24.5,47.9-51.1
		c-0.9-25.6,0.3-58.7,8.6-85.7c8.4-27.1,22.5-44.2,45.6-46.4v-24.9C469.6,235.3,455.4,218.2,447.1,191.2z M54.3,205.8h19.1
		l31.9,55.3l31.9-55.3h19.1l-51,88.4L54.3,205.8z M212.3,265.6h-51.6c2.8,7.4,10.3,12,19.1,12c6.4,0,12-2.4,15.7-6.4l14.1,8.1
		c-6.7,8.2-17.5,13.1-29.8,13.1c-20.3,0-36.8-13.3-36.8-33.2c0-19.9,14.7-33.2,35-33.2s35,13.3,35,33.1
		C213,261.4,212.7,263.6,212.3,265.6z M264.9,245.7c-1.8-0.5-3.8-0.9-5.9-0.9c-10.7,0-18.4,7.4-18.4,18.4v27.3H224v-62.6h16.6v16.9
		c0-9.4,10.9-16.9,24.3-16.9V245.7z M305.4,277.6c7.6,0,13.3-3.4,16.2-9.1l14.1,8.2c-5.9,9.8-16.8,15.6-30.4,15.6
		c-20.4,0-35-13.3-35-33.2s14.7-33.2,35-33.2c13.5,0,24.5,5.9,30.4,15.6l-14.1,8.2c-2.9-5.6-8.6-9.1-16.2-9.1
		c-11.2,0-18.4,7.4-18.4,18.4S294.2,277.6,305.4,277.6z M410.7,265.6H359c2.8,7.4,10.3,12,19.1,12c6.4,0,12-2.4,15.7-6.4l14.1,8.1
		c-6.7,8.2-17.5,13.1-29.8,13.1c-20.3,0-36.8-13.3-36.8-33.2c0-19.9,14.7-33.2,35-33.2h0c20.3,0,35,13.3,35,33.1
		C411.3,261.4,411.1,263.6,410.7,265.6z M438.9,290.5h-16.6v-84.7h16.6V290.5z"/>
	
		<linearGradient id="SVGID_00000108288747206910463520000007131694342850012068_" gradientUnits="userSpaceOnUse" x1="313.2907" y1="251.4918" x2="429.4507" y2="243.8118">
		<stop  offset="0" style="stop-color:#FA12E3"/>
		<stop  offset="0.4904" style="stop-color:#7312FA"/>
		<stop  offset="1" style="stop-color:#415CA7"/>
	</linearGradient>
	<path style="fill:url(#SVGID_00000108288747206910463520000007131694342850012068_);" d="M376.3,240.8c-8.8,0-15.1,4.6-17.4,12
		h34.8C391.4,245.4,385.1,240.8,376.3,240.8z"/>
</g>
<polygon class="st3" points="250,108.9 385.3,343.2 114.7,343.2 "/>
</svg>
