<?xml version="1.0" encoding="utf-8"?>
<!-- Generator: Adobe Illustrator 28.1.0, SVG Export Plug-In . SVG Version: 6.00 Build 0)  -->
<svg version="1.1" id="Camada_1" xmlns="http://www.w3.org/2000/svg" xmlns:xlink="http://www.w3.org/1999/xlink" x="0px" y="0px"
	 viewBox="0 0 500 500" style="enable-background:new 0 0 500 500;" xml:space="preserve">
<style type="text/css">
	.st0{fill:url(#SVGID_1_);}
	.st1{fill:url(#SVGID_00000072244075058115916410000018333426523664195261_);}
	.st2{fill:url(#SVGID_00000018232941939983259810000003550218678811014846_);}
	.st3{fill:#303030;}
</style>
<g>
	
		<linearGradient id="SVGID_1_" gradientUnits="userSpaceOnUse" x1="-569.9129" y1="596.1804" x2="-421.5929" y2="594.7403" gradientTransform="matrix(1 0 0 -1 0 833)">
		<stop  offset="0.3041" style="stop-color:#FA12E3"/>
		<stop  offset="0.8189" style="stop-color:#7312FA"/>
	</linearGradient>
	<path class="st0" d="M-480.9,231.6c-8.8,0-15.1,4.6-17.4,12h34.8C-465.7,236.2-472,231.6-480.9,231.6z"/>
	<g>
		
			<linearGradient id="SVGID_00000138567257374308269750000002963363633490885556_" gradientUnits="userSpaceOnUse" x1="-658.2" y1="592.15" x2="-166.1" y2="592.15" gradientTransform="matrix(1 0 0 -1 0 833)">
			<stop  offset="0" style="stop-color:#FA12E3"/>
			<stop  offset="0.54" style="stop-color:#7312FA"/>
			<stop  offset="1" style="stop-color:#415CA7"/>
		</linearGradient>
		<path style="fill:url(#SVGID_00000138567257374308269750000002963363633490885556_);" d="M-211.7,182c-8.3-27-9.5-60.1-8.6-85.7
			c1-26.6-19.9-51.1-47.9-51.1H-556c-28.1,0-48.8,24.5-47.9,51.1c0.9,25.6-0.3,58.7-8.6,85.7c-8.4,27.1-22.5,44.2-45.7,46.4v24.9
			c23.1,2.2,37.3,19.3,45.7,46.4c8.3,27,9.5,60.1,8.6,85.7c-1,26.6,19.9,51.1,47.9,51.1h287.8c28.1,0,48.9-24.5,47.9-51.1
			c-0.9-25.6,0.3-58.7,8.6-85.7c8.4-27.1,22.5-44.2,45.6-46.4v-24.9C-189.2,226.1-203.4,209-211.7,182z M-604.5,196.6h19.1
			l31.9,55.3l31.9-55.3h19.1l-51,88.4L-604.5,196.6z M-446.5,256.4h-51.6c2.8,7.4,10.3,12,19.1,12c6.4,0,12-2.4,15.7-6.4l14.1,8.1
			c-6.7,8.2-17.5,13.1-29.8,13.1c-20.3,0-36.8-13.3-36.8-33.2s14.7-33.2,35-33.2s35,13.3,35,33.1
			C-445.8,252.2-446.1,254.4-446.5,256.4z M-393.9,236.5c-1.8-0.5-3.8-0.9-5.9-0.9c-10.7,0-18.4,7.4-18.4,18.4v27.3h-16.6v-62.6
			h16.6v16.9c0-9.4,10.9-16.9,24.3-16.9V236.5z M-353.4,268.4c7.6,0,13.3-3.4,16.2-9.1l14.1,8.2c-5.9,9.8-16.8,15.6-30.4,15.6
			c-20.4,0-35-13.3-35-33.2s14.7-33.2,35-33.2c13.5,0,24.5,5.9,30.4,15.6l-14.1,8.2c-2.9-5.6-8.6-9.1-16.2-9.1
			c-11.2,0-18.4,7.4-18.4,18.4C-371.8,260.8-364.6,268.4-353.4,268.4z M-248.1,256.4h-51.7c2.8,7.4,10.3,12,19.1,12
			c6.4,0,12-2.4,15.7-6.4l14.1,8.1c-6.7,8.2-17.5,13.1-29.8,13.1c-20.3,0-36.8-13.3-36.8-33.2s14.7-33.2,35-33.2l0,0
			c20.3,0,35,13.3,35,33.1C-247.5,252.2-247.7,254.4-248.1,256.4z M-219.9,281.2h-16.6v-84.7h16.6V281.2z"/>
		
			<linearGradient id="SVGID_00000153680631493923999560000012082583319671991466_" gradientUnits="userSpaceOnUse" x1="-345.5045" y1="590.686" x2="-229.3445" y2="598.366" gradientTransform="matrix(1 0 0 -1 0 833)">
			<stop  offset="0" style="stop-color:#FA12E3"/>
			<stop  offset="0.4904" style="stop-color:#7312FA"/>
			<stop  offset="1" style="stop-color:#415CA7"/>
		</linearGradient>
		<path style="fill:url(#SVGID_00000153680631493923999560000012082583319671991466_);" d="M-282.5,231.6c-8.8,0-15.1,4.6-17.4,12
			h34.8C-267.4,236.2-273.7,231.6-282.5,231.6z"/>
	</g>
</g>
<polygon class="st3" points="250,72.1 455.5,427.9 44.5,427.9 "/>
</svg>
