<svg width="500" height="500" viewBox="0 0 500 500" fill="none" xmlns="http://www.w3.org/2000/svg">
<path fill-rule="evenodd" clip-rule="evenodd" d="M463.1 421.3C467.8 419.1 470.8 414.3 470.8 409.1V90.9001C470.8 87.7001 469.7 84.7001 467.6 82.3001L467.5 82.2001C466.2 80.7001 464.7 79.5001 463 78.7001L389 43.0001L365.5 31.7001C363.1 30.5001 360.5 30.1001 357.9 30.5001L357.5 30.6001H357.4C357.1 30.7001 356.8 30.7001 356.6 30.8001H356.5C356.2 30.9001 355.9 31.0001 355.6 31.1001L355.4 31.2001C355.1 31.3001 354.9 31.4001 354.6 31.5001H354.5C354.2 31.6001 354 31.7001 353.7 31.9001L353.5 32.0001C353.3 32.1001 353.1 32.2001 352.9 32.3001L352.3 32.7001C352.1 32.9001 351.8 33.0001 351.6 33.2001L351.4 33.3001C351.3 33.4001 351.2 33.5001 351.1 33.6001L350.9 33.7001C350.7 33.9001 350.5 34.1001 350.3 34.3001L349.7 34.8001L153.1 214.2L60.9996 144.3C59.6996 143.3 57.5996 143.5 56.1996 144.7L30.2996 168.2C29.2996 169.2 29.0996 170.2 29.0996 171C29.0996 171.8 29.2996 172.9 30.2996 173.9L113.9 250L30.2996 326C29.2996 327 29.0996 328 29.0996 328.8C29.0996 329.6 29.2996 330.7 30.2996 331.7L56.1996 355.2C57.5996 356.4 59.6996 356.6 61.0996 355.6L153.1 285.8L350.7 466C350.7 466 350.9 466.2 351.1 466.4C352.2 467.4 353.4 468.1 354.8 468.6L354.9 468.7L355.2 468.8C358.6 470 362.2 469.8 365.4 468.3L463.1 421.3ZM200.3 250L384.3 110.4V389.7L200.3 250Z" fill="#FEF5F5"/>
</svg>
