<?xml version="1.0" encoding="utf-8"?>
<!-- Generator: Adobe Illustrator 28.1.0, SVG Export Plug-In . SVG Version: 6.00 Build 0)  -->
<svg version="1.1" id="Camada_1" xmlns="http://www.w3.org/2000/svg" xmlns:xlink="http://www.w3.org/1999/xlink" x="0px" y="0px"
	 viewBox="0 0 500 500" style="enable-background:new 0 0 500 500;" xml:space="preserve">
<style type="text/css">
	.st0{fill:url(#SVGID_1_);}
	.st1{fill:url(#SVGID_00000085208767200771368130000015706479037881687228_);}
	.st2{fill:url(#SVGID_00000049908767202192229570000000685063984548924349_);}
	.st3{fill:url(#SVGID_00000087394791596160875550000015388607589625597096_);}
	.st4{fill:url(#SVGID_00000180359729000749574710000008587638892310693813_);}
	.st5{fill:url(#SVGID_00000097466688768300926700000017842811799220356783_);}
	.st6{fill-rule:evenodd;clip-rule:evenodd;fill:url(#SVGID_00000072271066596448190610000001027346754762630791_);}
</style>
<g>
	
		<linearGradient id="SVGID_1_" gradientUnits="userSpaceOnUse" x1="-595.2004" y1="227.9" x2="-499.1083" y2="227.9" gradientTransform="matrix(1 0 0 -1 0 499)">
		<stop  offset="0" style="stop-color:#FA12E3"/>
		<stop  offset="0.54" style="stop-color:#7312FA"/>
		<stop  offset="1" style="stop-color:#415CA7"/>
	</linearGradient>
	<path class="st0" d="M-542.6,251.5c-10.8,0-19.6,8.8-19.6,19.7c0,10.8,8.8,19.6,19.6,19.6c10.9,0,19.7-8.8,19.7-19.6
		C-522.9,260.2-531.8,251.5-542.6,251.5z"/>
	
		<linearGradient id="SVGID_00000098206004338711965530000011074108663613769393_" gradientUnits="userSpaceOnUse" x1="-830.76" y1="222" x2="-338.66" y2="222" gradientTransform="matrix(1 0 0 -1 0 499)">
		<stop  offset="0" style="stop-color:#FA12E3"/>
		<stop  offset="0.54" style="stop-color:#7312FA"/>
		<stop  offset="1" style="stop-color:#415CA7"/>
	</linearGradient>
	<path style="fill:url(#SVGID_00000098206004338711965530000011074108663613769393_);" d="M-384.4,218.2c-8.3-27-9.5-60.1-8.6-85.7
		c1-26.6-19.9-51.1-47.9-51.1h-287.7c-28.1,0-48.8,24.5-47.9,51.1c0.9,25.6-0.3,58.7-8.6,85.7c-8.4,27.1-22.5,44.2-45.7,46.4v24.9
		c23.1,2.2,37.3,19.3,45.7,46.4c8.3,27,9.5,60.1,8.6,85.7c-1,26.6,19.9,51.1,47.9,51.1h287.8c28.1,0,48.9-24.5,47.9-51.1
		c-0.9-25.6,0.3-58.7,8.6-85.7c8.4-27.1,22.5-44.2,45.6-46.4v-25C-361.9,262.2-376,245.2-384.4,218.2z M-738.3,305.8h-3.9l-30.6-68
		h15.8l16.8,38.1l16.8-38.1h15.9L-738.3,305.8z M-687.4,305.6c-10.7,0-19.5-5-23.6-13.3l-0.9-1.9l11.6-8.3l1.4,2.4
		c2.3,4,6.5,6.3,11.7,6.3c5.5,0,9.7-2.4,9.7-5.5c0-4-7.6-7.3-13.6-9.9l-0.2-0.1c-7.1-3.2-16.8-7.5-16.8-19
		c0-11.2,9.6-19.7,22.4-19.7c9.7,0,17.3,4.7,20.3,12.7l0.7,1.8l-11.3,7.8l-1.2-2.7c-1.4-3.1-4.6-5.1-8.4-5.1c-4.2,0-7.7,2.4-7.7,5.4
		c0,2.5,3.1,3.9,9.1,6.4c0.8,0.4,1.7,0.7,2.6,1.1l0,0c9.1,4,18.9,9.3,18.9,21C-662.9,297.1-673,305.6-687.4,305.6z M-577.2,295.5
		c-6.8,6.7-14.4,10-23.1,10c-19,0-34.5-15.4-34.5-34.3c0-18.7,15.7-34.5,34.4-34.5c8.5,0.1,16.5,3.6,23.2,10.1l1.6,1.5l-8.7,11.7
		l-2.1-2.1c-4.2-4.2-9.2-6.5-14.2-6.5c-10.3,0-19.4,9.2-19.4,19.7c0,11.5,10.2,19.6,19.4,19.6c6.2,0,11.2-3.6,14.3-6.6l2.1-2.1
		l8.5,11.9L-577.2,295.5z M-542.6,305.5c-19,0-34.4-15.4-34.4-34.3c0-19,15.4-34.5,34.4-34.5s34.5,15.5,34.5,34.5
		C-508.1,290.1-523.6,305.5-542.6,305.5z M-481.8,304.5h-20.1v-66.8h20.1h0.1c10.4,0,19.1,3.2,25.2,9.3c5.9,5.9,9.1,14.3,9.1,24.2
		C-447.5,291.5-460.9,304.5-481.8,304.5z M-399.4,252.3h-27.1v10.8h23.4v14.7h-23.4v12.1h27.1v14.6h-41.8v-66.8h41.8V252.3z"/>
	
		<linearGradient id="SVGID_00000176012075142180803170000010976243442602349702_" gradientUnits="userSpaceOnUse" x1="-567.1985" y1="227.9" x2="-428.5145" y2="227.9" gradientTransform="matrix(1 0 0 -1 0 499)">
		<stop  offset="0" style="stop-color:#FA12E3"/>
		<stop  offset="0.54" style="stop-color:#7312FA"/>
		<stop  offset="1" style="stop-color:#415CA7"/>
	</linearGradient>
	<path style="fill:url(#SVGID_00000176012075142180803170000010976243442602349702_);" d="M-481.8,252.4h-5.4v37.5h5.5
		c12.2,0,19.5-7,19.5-18.7C-462.3,259.4-469.6,252.4-481.8,252.4z"/>
</g>
<g transform="matrix(1.05404 0 0 1.05404 145.165 65.0823)">
	<g>
		
			<linearGradient id="SVGID_00000115497697594366890750000017960012145691446161_" gradientUnits="userSpaceOnUse" x1="-88.7593" y1="130.4601" x2="308.0224" y2="130.4601">
			<stop  offset="0" style="stop-color:#FA12E3"/>
			<stop  offset="0.54" style="stop-color:#7312FA"/>
			<stop  offset="1" style="stop-color:#415CA7"/>
		</linearGradient>
		<path style="fill:url(#SVGID_00000115497697594366890750000017960012145691446161_);" d="M274.3,28L196.8-9.4
			c-9-4.4-19.7-2.5-26.7,4.5L-83.6,226.5c-6.8,6.3-6.8,16.9,0,23.2l20.7,18.8c5.6,5,14.1,5.5,20.1,1L262.7,37.7
			c10.2-7.8,25-0.4,25,12.4v-1C287.7,40.1,282.5,31.8,274.3,28L274.3,28z"/>
		
			<linearGradient id="SVGID_00000032650174537565541630000016689354186887577999_" gradientUnits="userSpaceOnUse" x1="-88.7593" y1="220.3512" x2="308.0224" y2="220.3512">
			<stop  offset="0" style="stop-color:#FA12E3"/>
			<stop  offset="0.54" style="stop-color:#7312FA"/>
			<stop  offset="1" style="stop-color:#415CA7"/>
		</linearGradient>
		<path style="fill:url(#SVGID_00000032650174537565541630000016689354186887577999_);" d="M274.3,322.9l-77.5,37.3
			c-9,4.4-19.7,2.5-26.7-4.5L-83.6,124.3c-6.8-6.3-6.8-16.9,0-23.2l20.7-18.8c5.6-5,14.1-5.5,20.1-1l305.5,231.9
			c10.2,7.8,25,0.4,25-12.4v1C287.7,310.7,282.5,318.9,274.3,322.9L274.3,322.9z"/>
		
			<linearGradient id="SVGID_00000117671924272060124640000011412666085551913094_" gradientUnits="userSpaceOnUse" x1="170.0467" y1="175.4909" x2="294.0365" y2="175.4909">
			<stop  offset="0" style="stop-color:#FA12E3"/>
			<stop  offset="0.54" style="stop-color:#7312FA"/>
			<stop  offset="1" style="stop-color:#415CA7"/>
		</linearGradient>
		<path style="fill:url(#SVGID_00000117671924272060124640000011412666085551913094_);" d="M196.8,360.3c-9,4.4-19.7,2.5-26.7-4.5
			c8.7,8.7,23.5,2.6,23.5-9.7V4.9c0-12.3-14.9-18.4-23.5-9.7c7.1-7.1,17.7-8.9,26.7-4.5L274.3,28c8.2,4,13.4,12.1,13.4,21.2v252.6
			c0,9-5.2,17.3-13.4,21.2L196.8,360.3z"/>
	</g>
	
		<linearGradient id="SVGID_00000174581407379012579900000017411378777416984759_" gradientUnits="userSpaceOnUse" x1="-88.7593" y1="175.4196" x2="307.8786" y2="175.4196">
		<stop  offset="0" style="stop-color:#FA12E3"/>
		<stop  offset="0.54" style="stop-color:#7312FA"/>
		<stop  offset="1" style="stop-color:#415CA7"/>
	</linearGradient>
	<path style="fill-rule:evenodd;clip-rule:evenodd;fill:url(#SVGID_00000174581407379012579900000017411378777416984759_);" d="
		M178,361c5.9,2.3,12.7,2.2,18.7-0.7l77.5-37.3c8.2-4,13.4-12.1,13.4-21.2V49c0-9-5.2-17.3-13.4-21.2L196.7-9.4
		c-7.9-3.8-17.1-2.9-23.9,2.2c-1,0.7-1.9,1.5-2.9,2.5L21.7,130.5l-64.5-49c-6-4.5-14.5-4.2-20.1,1l-20.7,18.7
		c-6.8,6.3-6.8,16.9,0,23.2l56,51l-56,51c-6.8,6.3-6.8,16.9,0,23.2l20.7,18.8c5.6,5,14.1,5.5,20.1,1l64.5-49L170,355.6
		C172.2,358,175.1,359.7,178,361L178,361z M193.4,90.1L80.9,175.5l112.4,85.4V90.1z"/>
</g>
</svg>
