<?xml version="1.0" encoding="utf-8"?>
<!-- Generator: Adobe Illustrator 28.1.0, SVG Export Plug-In . SVG Version: 6.00 Build 0)  -->
<svg version="1.1" id="Camada_1" xmlns="http://www.w3.org/2000/svg" xmlns:xlink="http://www.w3.org/1999/xlink" x="0px" y="0px"
	 viewBox="0 0 500 500" style="enable-background:new 0 0 500 500;" xml:space="preserve">
<style type="text/css">
	.st0{fill:url(#SVGID_1_);}
	.st1{fill:url(#SVGID_00000142875215275418177870000005182665785941595300_);}
	.st2{fill:url(#SVGID_00000131326018471088202130000012287387194819358895_);}
	.st3{opacity:0.3;}
	.st4{fill:#121212;}
	.st5{fill-rule:evenodd;clip-rule:evenodd;fill:#121212;}
</style>
<linearGradient id="SVGID_1_" gradientUnits="userSpaceOnUse" x1="238.5596" y1="243.6021" x2="334.6517" y2="243.6021">
	<stop  offset="0" style="stop-color:#FA12E3"/>
	<stop  offset="0.54" style="stop-color:#7312FA"/>
	<stop  offset="1" style="stop-color:#415CA7"/>
</linearGradient>
<path class="st0" d="M291.2,224c-10.8,0-19.6,8.8-19.6,19.7c0,10.8,8.8,19.6,19.6,19.6c10.9,0,19.7-8.8,19.7-19.6
	C310.9,232.8,302,224,291.2,224z"/>
<linearGradient id="SVGID_00000009575466250707691030000015990659482643693228_" gradientUnits="userSpaceOnUse" x1="2.95" y1="249.5" x2="495.05" y2="249.5">
	<stop  offset="0" style="stop-color:#FA12E3"/>
	<stop  offset="0.54" style="stop-color:#7312FA"/>
	<stop  offset="1" style="stop-color:#415CA7"/>
</linearGradient>
<path style="fill:url(#SVGID_00000009575466250707691030000015990659482643693228_);" d="M449.4,190.7c-8.3-27-9.5-60.1-8.6-85.7
	c1-26.6-19.9-51.1-47.9-51.1H105.2c-28.1,0-48.8,24.5-47.9,51.1c0.9,25.6-0.3,58.7-8.6,85.7c-8.4,27.1-22.5,44.2-45.7,46.4v24.9
	c23.1,2.2,37.3,19.3,45.7,46.4c8.3,27,9.5,60.1,8.6,85.7c-1,26.6,19.9,51.1,47.9,51.1h287.8c28.1,0,48.9-24.5,47.9-51.1
	c-0.9-25.6,0.3-58.7,8.6-85.7c8.4-27.1,22.5-44.2,45.6-46.4V237C471.9,234.8,457.8,217.7,449.4,190.7z M95.5,278.3h-3.9l-30.6-68
	h15.8l16.8,38.1l16.8-38.1h15.9L95.5,278.3z M146.4,278.1c-10.7,0-19.5-5-23.6-13.3l-0.9-1.9l11.6-8.3l1.4,2.4
	c2.3,4,6.5,6.3,11.7,6.3c5.5,0,9.7-2.4,9.7-5.5c0-4-7.6-7.3-13.6-9.9l-0.2-0.1c-7.1-3.2-16.8-7.5-16.8-19c0-11.2,9.6-19.7,22.4-19.7
	c9.7,0,17.3,4.7,20.3,12.7l0.7,1.8l-11.3,7.8l-1.2-2.7c-1.4-3.1-4.6-5.1-8.4-5.1c-4.2,0-7.7,2.4-7.7,5.4c0,2.5,3.1,3.9,9.1,6.4
	c0.8,0.4,1.7,0.7,2.6,1.1l0,0c9.1,4,18.9,9.3,18.9,21C170.9,269.6,160.8,278.1,146.4,278.1z M256.6,268c-6.8,6.7-14.4,10-23.1,10
	c-19,0-34.5-15.4-34.5-34.3c0-18.7,15.7-34.5,34.4-34.5c8.5,0.1,16.5,3.6,23.2,10.1l1.6,1.5l-8.7,11.7l-2.1-2.1
	c-4.2-4.2-9.2-6.5-14.2-6.5c-10.3,0-19.4,9.2-19.4,19.7c0,11.5,10.2,19.6,19.4,19.6c6.2,0,11.2-3.6,14.3-6.6l2.1-2.1l8.5,11.9
	L256.6,268z M291.2,278c-19,0-34.4-15.4-34.4-34.3c0-19,15.4-34.5,34.4-34.5c19,0,34.5,15.5,34.5,34.5
	C325.7,262.6,310.2,278,291.2,278z M352,277h-20.1v-66.8H352c0,0,0.1,0,0.1,0c10.4,0,19.1,3.2,25.2,9.3c5.9,5.9,9.1,14.3,9.1,24.2
	C386.3,264,372.9,277,352,277z M434.4,224.8h-27.1v10.8h23.4v14.7h-23.4v12.1h27.1V277h-41.8v-66.8h41.8V224.8z"/>
<linearGradient id="SVGID_00000075877448807020671150000003815316371881160590_" gradientUnits="userSpaceOnUse" x1="266.5615" y1="243.6401" x2="405.2455" y2="243.6401">
	<stop  offset="0" style="stop-color:#FA12E3"/>
	<stop  offset="0.54" style="stop-color:#7312FA"/>
	<stop  offset="1" style="stop-color:#415CA7"/>
</linearGradient>
<path style="fill:url(#SVGID_00000075877448807020671150000003815316371881160590_);" d="M352,224.9h-5.4v37.5h5.5
	c12.2,0,19.5-7,19.5-18.7C371.5,231.9,364.2,224.9,352,224.9z"/>
<g transform="matrix(1.05404 0 0 1.05404 145.165 65.0823)" class="st3">
	<g>
		<path class="st4" d="M227.6,67.4L170.8,40c-6.6-3.2-14.4-1.8-19.6,3.3L-34.7,212.9c-5,4.6-5,12.4,0,17l15.2,13.8
			c4.1,3.7,10.3,4,14.7,0.7L219.1,74.5c7.5-5.7,18.3-0.3,18.3,9.1v-0.7C237.4,76.3,233.6,70.2,227.6,67.4L227.6,67.4z"/>
		<path class="st4" d="M227.6,283.5l-56.8,27.3c-6.6,3.2-14.4,1.8-19.6-3.3L-34.7,138c-5-4.6-5-12.4,0-17l15.2-13.8
			c4.1-3.7,10.3-4,14.7-0.7l223.9,169.9c7.5,5.7,18.3,0.3,18.3-9.1v0.7C237.4,274.6,233.6,280.6,227.6,283.5L227.6,283.5z"/>
		<path class="st4" d="M170.8,310.9c-6.6,3.2-14.4,1.8-19.6-3.3c6.4,6.4,17.2,1.9,17.2-7.1V50.5c0-9-10.9-13.5-17.2-7.1
			c5.2-5.2,13-6.5,19.6-3.3l56.8,27.3c6,2.9,9.8,8.9,9.8,15.5V268c0,6.6-3.8,12.7-9.8,15.5L170.8,310.9z"/>
	</g>
	<path class="st5" d="M157,311.4c4.3,1.7,9.3,1.6,13.7-0.5l56.8-27.3c6-2.9,9.8-8.9,9.8-15.5V82.8c0-6.6-3.8-12.7-9.8-15.5L170.7,40
		c-5.8-2.8-12.5-2.1-17.5,1.6c-0.7,0.5-1.4,1.1-2.1,1.8L42.5,142.5l-47.3-35.9c-4.4-3.3-10.6-3.1-14.7,0.7L-34.7,121
		c-5,4.6-5,12.4,0,17l41,37.4l-41,37.4c-5,4.6-5,12.4,0,17l15.2,13.8c4.1,3.7,10.3,4,14.7,0.7l47.3-35.9l108.7,99.1
		C152.8,309.2,154.9,310.5,157,311.4L157,311.4z M168.3,112.9l-82.4,62.6l82.4,62.6V112.9z"/>
</g>
</svg>
