<?xml version="1.0" encoding="utf-8"?>
<!-- Generator: Adobe Illustrator 28.1.0, SVG Export Plug-In . SVG Version: 6.00 Build 0)  -->
<svg version="1.1" id="Camada_1" xmlns="http://www.w3.org/2000/svg" xmlns:xlink="http://www.w3.org/1999/xlink" x="0px" y="0px"
	 viewBox="0 0 500 500" style="enable-background:new 0 0 500 500;" xml:space="preserve">
<style type="text/css">
	.st0{fill:url(#SVGID_1_);}
	.st1{fill:url(#SVGID_00000023272305992640697460000004240120227828615827_);}
	.st2{fill:url(#SVGID_00000037675372138227582230000009071269300858607274_);}
	.st3{fill-rule:evenodd;clip-rule:evenodd;fill:#121212;}
</style>
<g>
	
		<linearGradient id="SVGID_1_" gradientUnits="userSpaceOnUse" x1="-595.2004" y1="561.85" x2="-499.1083" y2="561.85" gradientTransform="matrix(1 0 0 -1 0 833)">
		<stop  offset="0" style="stop-color:#FA12E3"/>
		<stop  offset="0.54" style="stop-color:#7312FA"/>
		<stop  offset="1" style="stop-color:#415CA7"/>
	</linearGradient>
	<path class="st0" d="M-542.6,251.5c-10.8,0-19.6,8.8-19.6,19.7c0,10.8,8.8,19.6,19.6,19.6c10.9,0,19.7-8.8,19.7-19.6
		C-522.9,260.2-531.8,251.5-542.6,251.5z"/>
	
		<linearGradient id="SVGID_00000004532133411265835260000001864042324096214673_" gradientUnits="userSpaceOnUse" x1="-830.8" y1="555.95" x2="-338.7" y2="555.95" gradientTransform="matrix(1 0 0 -1 0 833)">
		<stop  offset="0" style="stop-color:#FA12E3"/>
		<stop  offset="0.54" style="stop-color:#7312FA"/>
		<stop  offset="1" style="stop-color:#415CA7"/>
	</linearGradient>
	<path style="fill:url(#SVGID_00000004532133411265835260000001864042324096214673_);" d="M-384.4,218.2c-8.3-27-9.5-60.1-8.6-85.7
		c1-26.6-19.9-51.1-47.9-51.1h-287.7c-28.1,0-48.8,24.5-47.9,51.1c0.9,25.6-0.3,58.7-8.6,85.7c-8.4,27.1-22.5,44.2-45.7,46.4v24.9
		c23.1,2.2,37.3,19.3,45.7,46.4c8.3,27,9.5,60.1,8.6,85.7c-1,26.6,19.9,51.1,47.9,51.1h287.8c28.1,0,48.9-24.5,47.9-51.1
		c-0.9-25.6,0.3-58.7,8.6-85.7c8.4-27.1,22.5-44.2,45.6-46.4v-25C-361.9,262.2-376,245.2-384.4,218.2z M-738.3,305.8h-3.9l-30.6-68
		h15.8l16.8,38.1l16.8-38.1h15.9L-738.3,305.8z M-687.4,305.6c-10.7,0-19.5-5-23.6-13.3l-0.9-1.9l11.6-8.3l1.4,2.4
		c2.3,4,6.5,6.3,11.7,6.3c5.5,0,9.7-2.4,9.7-5.5c0-4-7.6-7.3-13.6-9.9l-0.2-0.1c-7.1-3.2-16.8-7.5-16.8-19
		c0-11.2,9.6-19.7,22.4-19.7c9.7,0,17.3,4.7,20.3,12.7l0.7,1.8l-11.3,7.8l-1.2-2.7c-1.4-3.1-4.6-5.1-8.4-5.1c-4.2,0-7.7,2.4-7.7,5.4
		c0,2.5,3.1,3.9,9.1,6.4c0.8,0.4,1.7,0.7,2.6,1.1l0,0c9.1,4,18.9,9.3,18.9,21C-662.9,297.1-673,305.6-687.4,305.6z M-577.2,295.5
		c-6.8,6.7-14.4,10-23.1,10c-19,0-34.5-15.4-34.5-34.3c0-18.7,15.7-34.5,34.4-34.5c8.5,0.1,16.5,3.6,23.2,10.1l1.6,1.5l-8.7,11.7
		l-2.1-2.1c-4.2-4.2-9.2-6.5-14.2-6.5c-10.3,0-19.4,9.2-19.4,19.7c0,11.5,10.2,19.6,19.4,19.6c6.2,0,11.2-3.6,14.3-6.6l2.1-2.1
		l8.5,11.9L-577.2,295.5z M-542.6,305.5c-19,0-34.4-15.4-34.4-34.3c0-19,15.4-34.5,34.4-34.5s34.5,15.5,34.5,34.5
		C-508.1,290.1-523.6,305.5-542.6,305.5z M-481.8,304.5h-20.1v-66.8h20.1h0.1c10.4,0,19.1,3.2,25.2,9.3c5.9,5.9,9.1,14.3,9.1,24.2
		C-447.5,291.5-460.9,304.5-481.8,304.5z M-399.4,252.3h-27.1v10.8h23.4v14.7h-23.4v12.1h27.1v14.6h-41.8v-66.8h41.8V252.3z"/>
	
		<linearGradient id="SVGID_00000086674127259379616120000004230487925271719579_" gradientUnits="userSpaceOnUse" x1="-567.1985" y1="561.85" x2="-428.5145" y2="561.85" gradientTransform="matrix(1 0 0 -1 0 833)">
		<stop  offset="0" style="stop-color:#FA12E3"/>
		<stop  offset="0.54" style="stop-color:#7312FA"/>
		<stop  offset="1" style="stop-color:#415CA7"/>
	</linearGradient>
	<path style="fill:url(#SVGID_00000086674127259379616120000004230487925271719579_);" d="M-481.8,252.4h-5.4v37.5h5.5
		c12.2,0,19.5-7,19.5-18.7C-462.3,259.4-469.6,252.4-481.8,252.4z"/>
</g>
<path class="st3" d="M463.1,421.3c4.7-2.2,7.7-7,7.7-12.2V90.9c0-3.2-1.1-6.2-3.2-8.6l-0.1-0.1c-1.3-1.5-2.8-2.7-4.5-3.5L389,43
	l-23.5-11.3c-2.4-1.2-5-1.6-7.6-1.2l-0.4,0.1h-0.1c-0.3,0.1-0.6,0.1-0.8,0.2h-0.1c-0.3,0.1-0.6,0.2-0.9,0.3l-0.2,0.1
	c-0.3,0.1-0.5,0.2-0.8,0.3h-0.1c-0.3,0.1-0.5,0.2-0.8,0.4l-0.2,0.1c-0.2,0.1-0.4,0.2-0.6,0.3l-0.6,0.4c-0.2,0.2-0.5,0.3-0.7,0.5
	l-0.2,0.1c-0.1,0.1-0.2,0.2-0.3,0.3l-0.2,0.1c-0.2,0.2-0.4,0.4-0.6,0.6l-0.6,0.5L153.1,214.2L61,144.3c-1.3-1-3.4-0.8-4.8,0.4
	l-25.9,23.5c-1,1-1.2,2-1.2,2.8s0.2,1.9,1.2,2.9l83.6,76.1l-83.6,76c-1,1-1.2,2-1.2,2.8s0.2,1.9,1.2,2.9l25.9,23.5
	c1.4,1.2,3.5,1.4,4.9,0.4l92-69.8L350.7,466c0,0,0.2,0.2,0.4,0.4l0,0c1.1,1,2.3,1.7,3.7,2.2l0.1,0.1l0.3,0.1c3.4,1.2,7,1,10.2-0.5
	L463.1,421.3z M200.3,250l184-139.6v279.3L200.3,250z"/>
</svg>
