<svg width="500" height="500" viewBox="0 0 500 500" fill="none" xmlns="http://www.w3.org/2000/svg">
<path d="M250 460.3C365.9 460.3 460.3 365.9 460.3 250C460.3 134.1 365.9 39.7002 250 39.7002C134.1 39.7002 39.7002 134.1 39.7002 250C39.7002 365.9 134.1 460.3 250 460.3ZM250 439.1C231.3 439.1 213.4 436.4 196.6 431.4L253.4 266.6L311.5 425.8C311.8 426.8 312.3 427.6 312.8 428.5C293.1 435.4 272 439.1 250 439.1ZM402.7 246.5C413.4 219.4 417.1 197.9 417.1 178.7C417.1 171.9 416.8 165.3 415.9 159.3C430.8 186.2 439.1 217.1 439.1 250C439.1 319.8 401.4 380.8 345.1 413.5L402.7 246.5ZM249.8 60.9002C299.1 60.9002 344 79.8002 377.6 110.5C376.9 110.5 376.1 110.3 375.3 110.3C356.8 110.3 343.6 126.5 343.6 143.9C343.6 159.4 352.6 172.6 362.1 188.2C369.4 201.1 377.8 217.1 377.8 240.5C377.8 256.5 371.5 275.4 362.9 301.8L344 364.8L275.7 161.5C287.1 161 297.4 159.8 297.4 159.8C307.6 158.6 306.4 143.6 296.2 144.3C296.2 144.3 265.6 146.6 245.8 146.6C227.3 146.6 196 144.3 196 144.3C185.8 143.6 184.6 159.3 194.8 159.8C194.8 159.8 204.5 161 214.7 161.5L244.1 242.2L202.7 366.3L133.9 161.5C145.3 161 155.6 159.8 155.6 159.8C165.8 158.6 164.6 143.6 154.4 144.3C154.4 144.3 124 146.6 104.1 146.6C100.4 146.6 96.3002 146.4 91.9002 146.3C125.6 94.8002 183.9 60.9002 249.8 60.9002ZM77.3002 173.2L167.5 420.2C104.4 389.5 60.9002 324.8 60.9002 250C60.9002 222.6 67.0002 196.6 77.3002 173.2Z" fill="#FEF5F5"/>
</svg>
