<?xml version="1.0" encoding="utf-8"?>
<!-- Generator: Adobe Illustrator 28.1.0, SVG Export Plug-In . SVG Version: 6.00 Build 0)  -->
<svg version="1.1" id="Capa_1" xmlns="http://www.w3.org/2000/svg" xmlns:xlink="http://www.w3.org/1999/xlink" x="0px" y="0px"
	 viewBox="0 0 500 500" style="enable-background:new 0 0 500 500;" xml:space="preserve">
<style type="text/css">
	.st0{fill:url(#SVGID_1_);}
	.st1{fill:url(#SVGID_00000162320022445714657870000001958031372248447912_);}
	.st2{fill:url(#SVGID_00000141418957116091972820000012431093713292476848_);}
	.st3{fill:url(#SVGID_00000041278115976210663070000001783000144394494377_);}
	.st4{fill:url(#SVGID_00000030481652805563366640000017281499908200520583_);}
	.st5{fill:url(#SVGID_00000181804575790377125860000011677859287252881537_);}
	.st6{fill:#121212;}
</style>
<g>
	
		<linearGradient id="SVGID_1_" gradientUnits="userSpaceOnUse" x1="-505.702" y1="-129.7986" x2="-115.462" y2="-103.8786" gradientTransform="matrix(1 0 0 1 0 334)">
		<stop  offset="3.264490e-03" style="stop-color:#FA12E3"/>
		<stop  offset="0.5362" style="stop-color:#7312FA"/>
		<stop  offset="1" style="stop-color:#415CA7"/>
	</linearGradient>
	<path class="st0" d="M-356.9,202.3h-3.2v23.4h3.3c7.6,0,12.2-4.4,12.2-11.7C-344.7,206.7-349.2,202.3-356.9,202.3z"/>
	
		<linearGradient id="SVGID_00000053506866834486173490000002472268333515155344_" gradientUnits="userSpaceOnUse" x1="-505.0676" y1="-139.3493" x2="-114.8275" y2="-113.4293" gradientTransform="matrix(1 0 0 1 0 334)">
		<stop  offset="3.264490e-03" style="stop-color:#FA12E3"/>
		<stop  offset="0.5362" style="stop-color:#7312FA"/>
		<stop  offset="1" style="stop-color:#415CA7"/>
	</linearGradient>
	<path style="fill:url(#SVGID_00000053506866834486173490000002472268333515155344_);" d="M-312.9,202.3h-5.2v9.9h5.2l0,0
		c1.7,0,3.3-0.6,4.5-1.7c0.9-0.9,1.4-2,1.4-3.1C-307,204.5-309.6,202.3-312.9,202.3z"/>
	
		<linearGradient id="SVGID_00000120547256503215317480000012844747220091691149_" gradientUnits="userSpaceOnUse" x1="-505.4023" y1="-134.3097" x2="-115.1623" y2="-108.3898" gradientTransform="matrix(1 0 0 1 0 334)">
		<stop  offset="3.264490e-03" style="stop-color:#FA12E3"/>
		<stop  offset="0.5362" style="stop-color:#7312FA"/>
		<stop  offset="1" style="stop-color:#415CA7"/>
	</linearGradient>
	<path style="fill:url(#SVGID_00000120547256503215317480000012844747220091691149_);" d="M-394,202.3h-4.4v9.3h4.4l0,0
		c1.3,0,2.6-0.5,3.6-1.5c0.9-0.9,1.4-2,1.4-3.2C-389,204.3-391.2,202.3-394,202.3z"/>
	
		<linearGradient id="SVGID_00000064348313183461117780000011569362274249621933_" gradientUnits="userSpaceOnUse" x1="-506.0462" y1="-124.6159" x2="-115.8062" y2="-98.6958" gradientTransform="matrix(1 0 0 1 0 334)">
		<stop  offset="3.264490e-03" style="stop-color:#FA12E3"/>
		<stop  offset="0.5362" style="stop-color:#7312FA"/>
		<stop  offset="1" style="stop-color:#415CA7"/>
	</linearGradient>
	<path style="fill:url(#SVGID_00000064348313183461117780000011569362274249621933_);" d="M-437.3,201.7c-6.8,0-12.3,5.5-12.3,12.3
		s5.5,12.2,12.3,12.2s12.3-5.5,12.3-12.2C-425,207.2-430.5,201.7-437.3,201.7z"/>
	
		<linearGradient id="SVGID_00000141448380989846746030000005816719403371813023_" gradientUnits="userSpaceOnUse" x1="-504.8875" y1="-142.06" x2="-114.6476" y2="-116.14" gradientTransform="matrix(1 0 0 1 0 334)">
		<stop  offset="3.264490e-03" style="stop-color:#FA12E3"/>
		<stop  offset="0.5362" style="stop-color:#7312FA"/>
		<stop  offset="1" style="stop-color:#415CA7"/>
	</linearGradient>
	<path style="fill:url(#SVGID_00000141448380989846746030000005816719403371813023_);" d="M-276.8,202.3h-4.4v9.3h4.4l0,0
		c1.3,0,2.6-0.5,3.6-1.5c0.9-0.9,1.4-2,1.4-3.2C-271.8,204.3-274,202.3-276.8,202.3z"/>
	
		<linearGradient id="SVGID_00000011739037841790510170000013011656058990843011_" gradientUnits="userSpaceOnUse" x1="-576.2" y1="-122.75" x2="-84.1" y2="-122.75" gradientTransform="matrix(1 0 0 1 0 334)">
		<stop  offset="3.264490e-03" style="stop-color:#FA12E3"/>
		<stop  offset="0.5362" style="stop-color:#7312FA"/>
		<stop  offset="1" style="stop-color:#415CA7"/>
	</linearGradient>
	<path style="fill:url(#SVGID_00000011739037841790510170000013011656058990843011_);" d="M-129.8,152.4c-7.9-25.6-7.4-50.8-8-77.2
		c-0.6-29.1-15.5-59.6-48.5-59.6H-474c-18.8,0-34.3,11-42.2,26.3c-3.9,7.5-6,16.1-5.7,24.8c0.9,25.6-0.3,58.7-8.6,85.7
		c-8.4,27.1-22.5,44.2-45.7,46.4v24.9c23.1,2.2,37.3,19.3,45.7,46.4c8.3,27,9.5,60.1,8.6,85.7c-1,26.6,19.9,51.1,47.9,51.1h287.8
		c24.3,0,43.1-18.3,47.1-40.4v-0.1c0.6-3.5,0.9-7.1,0.8-10.7c-0.9-25.6,0.3-58.7,8.6-85.7c8.4-27.1,22.5-44.2,45.6-46.4v-24.9
		C-107.3,196.6-121.5,179.5-129.8,152.4z M-473.5,235.8h-3l-8.9-20.9l-8.7,20.9h-3.1l-13.6-43.2h10.4l6.2,20.6l7.5-19h2.7l7.5,18.9
		l6.2-20.6h10.4L-473.5,235.8z M-437.3,236.1c-12.2,0-22-9.9-22-22c0-12.2,9.9-22.1,22.1-22.1s22.1,9.9,22.1,22.1
		C-415.2,226.2-425.1,236.1-437.3,236.1z M-385.7,235.4l-10.6-15.2h-2.1v15.2h-9.7v-42.8h14c8.3,0,15.1,6.5,15.1,14.4
		c0,4.9-2.7,9.4-6.8,11.7l12.2,16.7L-385.7,235.4L-385.7,235.4z M-356.9,235.4h-13v-42.8h13c0,0,0,0,0.1,0c6.7,0,12.2,2.1,16.1,5.9
		c3.8,3.8,5.8,9.2,5.8,15.5C-334.9,227-343.5,235.4-356.9,235.4z M-312.9,221.8h-5.2v13.6h-9.7v-42.8h14.9c8.6,0,15.6,6.6,15.6,14.7
		C-297.3,215.3-304.3,221.8-312.9,221.8z M-268.5,235.4l-10.6-15.2h-2.1v15.2h-9.7v-42.8h14c8.3,0,15.1,6.5,15.1,14.4
		c0,4.9-2.7,9.4-6.8,11.7l12.2,16.7L-268.5,235.4L-268.5,235.4z M-225.7,202.2h-17.2v6.5h14.9v9.7h-14.9v7.3h17.2v9.7h-26.9v-42.8
		h26.9V202.2z M-204.8,236.1c-6.9,0-12.5-3.2-15.2-8.5l-0.7-1.4l7.7-5.5l1,1.7c1.4,2.5,4.1,3.9,7.2,3.9c3.4,0,6-1.4,6-3.3
		c0-2.4-4.7-4.5-8.5-6.1l-0.1-0.1c-4.6-2-10.8-4.8-10.8-12.2c0-7.2,6.2-12.7,14.4-12.7c6.3,0,11.2,3.1,13.1,8.2l0.5,1.3l-7.5,5.2
		l-0.9-1.9c-0.9-1.9-2.9-3.1-5.2-3.1c-2.5,0-4.7,1.5-4.7,3.2c0,1.4,2,2.4,5.7,3.9c0.5,0.2,1.1,0.5,1.7,0.7c5.9,2.6,12.1,6,12.1,13.5
		C-189,230.7-195.5,236.1-204.8,236.1z M-169.2,236.1c-6.9,0-12.5-3.2-15.2-8.5l-0.7-1.4l7.7-5.5l1,1.7c1.4,2.5,4.1,3.9,7.2,3.9
		c3.4,0,6-1.4,6-3.3c0-2.4-4.7-4.5-8.5-6.1l-0.1-0.1c-4.6-2-10.8-4.8-10.8-12.2c0-7.2,6.2-12.7,14.4-12.7c6.3,0,11.2,3.1,13.1,8.2
		l0.5,1.3l-7.5,5.2l-0.9-1.9c-0.9-1.9-2.9-3.1-5.2-3.1c-2.5,0-4.7,1.5-4.7,3.2c0,1.4,2,2.4,5.7,3.9c0.5,0.2,1.1,0.5,1.7,0.7
		c5.9,2.6,12.1,6,12.1,13.5C-153.4,230.7-159.9,236.1-169.2,236.1z"/>
</g>
<path class="st6" d="M250,460.3c115.9,0,210.3-94.4,210.3-210.3S365.9,39.7,250,39.7S39.7,134.1,39.7,250S134.1,460.3,250,460.3z
	 M250,439.1c-18.7,0-36.6-2.7-53.4-7.7l56.8-164.8l58.1,159.2c0.3,1,0.8,1.8,1.3,2.7C293.1,435.4,272,439.1,250,439.1z M402.7,246.5
	c10.7-27.1,14.4-48.6,14.4-67.8c0-6.8-0.3-13.4-1.2-19.4c14.9,26.9,23.2,57.8,23.2,90.7c0,69.8-37.7,130.8-94,163.5L402.7,246.5z
	 M249.8,60.9c49.3,0,94.2,18.9,127.8,49.6c-0.7,0-1.5-0.2-2.3-0.2c-18.5,0-31.7,16.2-31.7,33.6c0,15.5,9,28.7,18.5,44.3
	c7.3,12.9,15.7,28.9,15.7,52.3c0,16-6.3,34.9-14.9,61.3l-18.9,63l-68.3-203.3c11.4-0.5,21.7-1.7,21.7-1.7c10.2-1.2,9-16.2-1.2-15.5
	c0,0-30.6,2.3-50.4,2.3c-18.5,0-49.8-2.3-49.8-2.3c-10.2-0.7-11.4,15-1.2,15.5c0,0,9.7,1.2,19.9,1.7l29.4,80.7l-41.4,124.1
	l-68.8-204.8c11.4-0.5,21.7-1.7,21.7-1.7c10.2-1.2,9-16.2-1.2-15.5c0,0-30.4,2.3-50.3,2.3c-3.7,0-7.8-0.2-12.2-0.3
	C125.6,94.8,183.9,60.9,249.8,60.9z M77.3,173.2l90.2,247C104.4,389.5,60.9,324.8,60.9,250C60.9,222.6,67,196.6,77.3,173.2z"/>
</svg>
