<?xml version="1.0" encoding="utf-8"?>
<!-- Generator: Adobe Illustrator 28.1.0, SVG Export Plug-In . SVG Version: 6.00 Build 0)  -->
<svg version="1.1" id="Camada_1" xmlns="http://www.w3.org/2000/svg" xmlns:xlink="http://www.w3.org/1999/xlink" x="0px" y="0px"
	 viewBox="0 0 500 500" style="enable-background:new 0 0 500 500;" xml:space="preserve">
<style type="text/css">
	.st0{fill:url(#SVGID_1_);}
	.st1{fill:url(#SVGID_00000084509783831337000360000009615442890269224102_);}
	.st2{fill:url(#SVGID_00000079447843372982731350000016017896935927739047_);}
	.st3{fill:url(#SVGID_00000125593375531805928610000000785643822371048591_);}
	.st4{fill:url(#SVGID_00000122712762975355328210000002078144578449593757_);}
	.st5{fill:url(#SVGID_00000052782448493774241040000007147245046604143244_);}
	.st6{fill:url(#SVGID_00000150819348708746576330000003747165930542198713_);}
	.st7{fill:url(#SVGID_00000029741735618200279760000006080446554612370339_);}
	.st8{opacity:0.3;fill:#121212;}
</style>
<linearGradient id="SVGID_1_" gradientUnits="userSpaceOnUse" x1="299.6397" y1="240.9159" x2="348.6419" y2="240.9159">
	<stop  offset="0" style="stop-color:#FA12E3"/>
	<stop  offset="0.5362" style="stop-color:#7312FA"/>
	<stop  offset="1" style="stop-color:#415CA7"/>
</linearGradient>
<path class="st0" d="M328.3,235.4c-1.2,0-2.2,0.1-3,0.1v10.9h3.2c4.4,0,7-2.1,7-5.6C335.6,239.5,335.6,235.5,328.3,235.4z"/>
<linearGradient id="SVGID_00000047049212697476810540000013164937985041836182_" gradientUnits="userSpaceOnUse" x1="113.0808" y1="249.9996" x2="150.8228" y2="249.9996">
	<stop  offset="0" style="stop-color:#FA12E3"/>
	<stop  offset="0.567" style="stop-color:#7312FA"/>
</linearGradient>
<path style="fill:url(#SVGID_00000047049212697476810540000013164937985041836182_);" d="M129.6,235.3c-8.1,0-11,8.1-11,15
	c0,7,3.4,14.5,10.9,14.5c7.6,0,11-7.5,11-14.9C140.5,242.8,137.1,235.3,129.6,235.3z"/>
<linearGradient id="SVGID_00000123439887468696036040000010431747784928622241_" gradientUnits="userSpaceOnUse" x1="156.7074" y1="249.9996" x2="204.7224" y2="249.9996">
	<stop  offset="0" style="stop-color:#FA12E3"/>
	<stop  offset="0.5362" style="stop-color:#7312FA"/>
	<stop  offset="1" style="stop-color:#415CA7"/>
</linearGradient>
<path style="fill:url(#SVGID_00000123439887468696036040000010431747784928622241_);" d="M178,235.3c-8.1,0-11,8.1-11,15
	c0,7,3.4,14.5,10.9,14.5c7.6,0,11-7.5,11-14.9C188.9,242.8,185.5,235.3,178,235.3z"/>
<linearGradient id="SVGID_00000137826157335103276040000000756633886808747678_" gradientUnits="userSpaceOnUse" x1="79.1234" y1="258.8685" x2="109.509" y2="258.8685">
	<stop  offset="0" style="stop-color:#FA12E3"/>
	<stop  offset="0.5362" style="stop-color:#7312FA"/>
	<stop  offset="1" style="stop-color:#415CA7"/>
</linearGradient>
<path style="fill:url(#SVGID_00000137826157335103276040000000756633886808747678_);" d="M83.4,253.1h-2.1v11.4c0.6,0,1.4,0,2.2,0
	c5.5,0,8.3-1.9,8.3-5.8C91.8,253.9,86.6,253.1,83.4,253.1z"/>
<linearGradient id="SVGID_00000135669499082548336020000009858466270669131136_" gradientUnits="userSpaceOnUse" x1="79.6034" y1="239.9647" x2="105.999" y2="239.9647">
	<stop  offset="0" style="stop-color:#FA12E3"/>
	<stop  offset="0.5362" style="stop-color:#7312FA"/>
	<stop  offset="1" style="stop-color:#415CA7"/>
</linearGradient>
<path style="fill:url(#SVGID_00000135669499082548336020000009858466270669131136_);" d="M90.5,239.9c0-1.3,0-4.5-6.8-4.5
	c-0.9,0-1.7,0-2.4,0.1v9h2.6C88,244.5,90.5,242.7,90.5,239.9z"/>
<linearGradient id="SVGID_00000092446732112582746780000001870213890505007257_" gradientUnits="userSpaceOnUse" x1="4" y1="249.65" x2="496.1" y2="249.65">
	<stop  offset="0" style="stop-color:#FA12E3"/>
	<stop  offset="0.5362" style="stop-color:#7312FA"/>
	<stop  offset="1" style="stop-color:#415CA7"/>
</linearGradient>
<path style="fill:url(#SVGID_00000092446732112582746780000001870213890505007257_);" d="M450.5,190.8c-8.3-27-9.5-60.1-8.6-85.7
	C442.9,78.5,422,54,394,54H106.2c-28.1,0-48.8,24.5-47.9,51.1c0.9,25.6-0.3,58.7-8.6,85.7C41.3,217.9,27.2,235,4,237.2v24.9
	c23.1,2.2,37.3,19.3,45.7,46.4c8.3,27,9.5,60.1,8.6,85.7c-1,26.6,19.9,51.1,47.9,51.1H394c28.1,0,48.9-24.5,47.9-51.1
	c-0.9-25.6,0.3-58.7,8.6-85.7c8.4-27.1,22.5-44.2,45.6-46.4v-24.9C473,235,458.8,217.9,450.5,190.8z M97.8,268.8
	c-3.4,3.1-8.4,4.5-15.9,4.5c-4.2,0-7.2-0.3-8.6-0.5l-2-0.3V228l1.8-0.4c2.7-0.6,6.6-0.9,10.2-0.9c5.8,0,9.8,1.1,12.8,3.5
	c2.8,2.1,4.3,5.3,4.3,9.1c0,3.5-1.6,6.7-4.3,8.9c3.2,2.1,5.9,5.6,5.9,10.7C102,262.8,100.6,266.1,97.8,268.8z M129.2,273.6
	c-12.3,0-20.9-9.6-20.9-23.3c0-14.1,8.8-24,21.5-24c12.3,0,20.9,9.5,20.9,23.2C150.7,266.2,139.9,273.6,129.2,273.6z M177.6,273.6
	c-12.3,0-20.9-9.6-20.9-23.3c0-14.1,8.8-24,21.5-24c12.3,0,20.9,9.5,20.9,23.2C199.1,266.2,188.3,273.6,177.6,273.6z M236.6,236.1
	h-12.6V273h-10v-36.8h-12.6V227h35.2V236.1z M253.1,273.6c-4.3,0-9.2-1.2-11.8-3l-1.4-0.9l2.7-8.9l2.5,1.6c2.4,1.5,5.5,2.4,8.4,2.4
	c4,0,6.4-1.8,6.4-4.8c0-2-0.5-3.8-6.3-6.1c-8.3-2.9-12.4-7.5-12.4-13.9c0-7.8,6.6-13.5,15.7-13.5c5.4,0,8.7,1.5,10.3,2.3l1.6,0.9
	l-2.9,8.7l-2.4-1.3c-1.4-0.8-3.7-1.7-6.8-1.7c-4.1,0-5.5,2-5.5,3.9c0,2.2,1,3.6,6.8,5.9c5.6,2.2,12,5.7,12,14.3
	C269.9,266.5,264.7,273.6,253.1,273.6z M309.2,236.1h-12.6V273h-10v-36.8h-12.6V227h35.2V236.1z M337.8,273l-0.7-1.1
	c-0.8-1.3-1.6-4.2-3-10.5c-1.1-5.2-2.8-6.1-6.1-6.3h-2.7V273h-9.9v-45l1.8-0.4c2.8-0.6,6.8-0.9,10.7-0.9c6.3,0,10.5,1.2,13.5,4
	c2.6,2.3,4,5.7,4,9.5c0,4.5-2.1,8.4-5.6,10.9c1.8,1.8,3.1,4.4,3.9,7.7c1,4.1,2.2,9.3,3,10.8l1.8,3.4H337.8z M381.3,273l-4.4-13
	h-11.4l-4.3,13h-10.4l15.6-45.9h9.7l15.7,45.9H381.3z M424.8,251.5c-3.2,3.4-8.2,5.2-14.3,5.2c-0.7,0-1.3,0-2,0V273h-9.9v-45.1
	l1.9-0.3c3.3-0.6,6.8-0.8,10.6-0.8c5.7,0,10.2,1.4,13.1,4c2.8,2.4,4.4,6.1,4.4,10.4C428.6,245.4,427.3,248.9,424.8,251.5z"/>
<linearGradient id="SVGID_00000106844409625152133690000000161239865693244093_" gradientUnits="userSpaceOnUse" x1="363.8189" y1="246.7265" x2="369.9147" y2="246.7265">
	<stop  offset="0" style="stop-color:#FA12E3"/>
	<stop  offset="0.5362" style="stop-color:#7312FA"/>
	<stop  offset="1" style="stop-color:#415CA7"/>
</linearGradient>
<path style="fill:url(#SVGID_00000106844409625152133690000000161239865693244093_);" d="M371.2,242.2l-3,9h6.1L371.2,242.2
	C371.2,242.3,371.2,242.3,371.2,242.2z"/>
<linearGradient id="SVGID_00000040538852462837385880000004103635152464704168_" gradientUnits="userSpaceOnUse" x1="400.5648" y1="241.7141" x2="410.7969" y2="241.7141">
	<stop  offset="0" style="stop-color:#FA12E3"/>
	<stop  offset="0.5362" style="stop-color:#7312FA"/>
	<stop  offset="1" style="stop-color:#415CA7"/>
</linearGradient>
<path style="fill:url(#SVGID_00000040538852462837385880000004103635152464704168_);" d="M411.2,235.5c-1.1,0-2,0-2.8,0.1v12.2
	c0.6,0.1,1.3,0.1,2.1,0.1c3.7,0,8.1-1.1,8.1-6.6C418.7,237.5,416.2,235.5,411.2,235.5z"/>
<path class="st8" d="M310.7,240.4c21.7-11.3,36.9-34.7,36.9-59.9c0-22.4-8.7-41.4-25.1-54.9c-16-13.2-38.3-20.2-64.5-20.2H138.5
	v289.1h120.1c31,0,56.9-7.7,74.9-22.2c18.3-14.8,28.1-36.4,28.1-62.3v0C361.5,276.8,341.8,250.6,310.7,240.4z M238,223.4h-43.5
	v-70.8h52.7c20.1,0,44.1,5.9,44.1,33.9C291.3,216.8,262.3,223.3,238,223.4z M304.3,307.4c0,26.5-18.5,39.9-55,39.9h-55v-79.2h52.4
	C285.5,268.1,304.3,280.9,304.3,307.4z"/>
</svg>
