<?xml version="1.0" encoding="utf-8"?>
<!-- Generator: Adobe Illustrator 28.1.0, SVG Export Plug-In . SVG Version: 6.00 Build 0)  -->
<svg version="1.1" id="Camada_1" xmlns="http://www.w3.org/2000/svg" xmlns:xlink="http://www.w3.org/1999/xlink" x="0px" y="0px"
	 viewBox="0 0 500 500" style="enable-background:new 0 0 500 500;" xml:space="preserve">
<style type="text/css">
	.st0{fill:url(#SVGID_1_);}
	.st1{opacity:0.3;fill:#121212;enable-background:new    ;}
</style>
<linearGradient id="SVGID_1_" gradientUnits="userSpaceOnUse" x1="3.8" y1="248.15" x2="495.9" y2="248.15">
	<stop  offset="0" style="stop-color:#FA12E3"/>
	<stop  offset="0.5362" style="stop-color:#7312FA"/>
	<stop  offset="1" style="stop-color:#415CA7"/>
</linearGradient>
<path class="st0" d="M450.2,189.3c-8.3-27-9.5-60.1-8.6-85.7c1-26.6-19.9-51.1-47.9-51.1H106c-28.2,0-48.8,24.5-48,51.1
	c0.9,25.6-0.3,58.7-8.6,85.7C41,216.4,27,233.5,3.8,235.7v24.9c23.1,2.2,37.3,19.3,45.7,46.4c8.3,27,9.5,60.1,8.6,85.7
	c-1,26.6,19.9,51.1,47.9,51.1h287.8c28.1,0,48.9-24.5,47.9-51.1c-0.9-25.6,0.3-58.7,8.6-85.7c8.4-27.1,22.5-44.2,45.6-46.4v-24.9
	C472.8,233.5,458.5,216.4,450.2,189.3z M184.2,310.6c-33.7,0-61.1-27.1-61.1-60.5c0-33.5,27.2-60.7,60.5-60.7
	c14.8,0.1,31.6,7.1,42.7,17.9l2.4,2.3l-14.1,21l-3.4-3.4c-7.9-7.8-18.5-12.6-27.7-12.6c-16.8,0-34.9,14.2-34.9,35.4
	c0,19.7,16,35.1,36.4,35.1c15.5,0,26.8-8.3,28.7-20.5H180V241h59.4l0.4,3.6c0.2,2.1,0.5,5.4,0.5,9
	C240.3,286.6,216.7,310.6,184.2,310.6z M280.3,308.8h-25.2V191.2h25.2V308.8z M376.9,216.3h-29.4v92.5h-25.3v-92.5H293v-25.1h84
	V216.3z"/>
<path class="st1" d="M181.4,112c-6.4,15.2-3.4,33.4,9,45.8c4,4,8.8,7.1,13.7,9.1v150.2c-5,2-9.7,5.1-13.7,9.1
	c-16.4,16.4-16.4,42.9,0,59.3s42.9,16.4,59.3,0s16.4-42.9,0-59.3c-3.3-3.3-7.1-5.9-11.1-7.9V169.6l56.6,56.6
	c-6.2,15.2-3.2,33.3,9.1,45.6c16.4,16.4,42.9,16.4,59.3,0s16.4-42.9,0-59.3c-11.7-11.7-28.6-15-43.3-10l-60.6-60.6
	c5-14.7,1.7-31.6-10-43.3c-11.6-11.6-28.4-14.9-43-10l-36-36H122L181.4,112z"/>
</svg>
