<?xml version="1.0" encoding="utf-8"?>
<!-- Generator: Adobe Illustrator 28.1.0, SVG Export Plug-In . SVG Version: 6.00 Build 0)  -->
<svg version="1.1" id="Camada_1" xmlns="http://www.w3.org/2000/svg" xmlns:xlink="http://www.w3.org/1999/xlink" x="0px" y="0px"
	 viewBox="0 0 500 500" style="enable-background:new 0 0 500 500;" xml:space="preserve">
<style type="text/css">
	.st0{fill:url(#SVGID_1_);}
	.st1{fill:url(#SVGID_00000154399347133857860620000004512063184219935671_);}
	.st2{fill:url(#SVGID_00000124862319092418935260000003499303245442391944_);}
	.st3{fill:url(#SVGID_00000119084552064688494110000004207886835506246844_);}
	.st4{fill:url(#SVGID_00000057868678741575756260000013859032316679358601_);}
	.st5{fill:url(#SVGID_00000004518510195860101940000018309224264120915352_);}
	.st6{opacity:0.3;fill:#121212;enable-background:new    ;}
</style>
<linearGradient id="SVGID_1_" gradientUnits="userSpaceOnUse" x1="4" y1="249.05" x2="496.1" y2="249.05" gradientTransform="matrix(1 0 0 -1 0 499)">
	<stop  offset="0" style="stop-color:#FA12E3"/>
	<stop  offset="0.5362" style="stop-color:#7312FA"/>
	<stop  offset="1" style="stop-color:#415CA7"/>
</linearGradient>
<path class="st0" d="M450.5,191.1c-8.3-27-9.5-60.1-8.6-85.7c1-26.6-19.9-51.1-47.9-51.1H106.2c-28.1,0-48.8,24.5-47.9,51.1
	c0.9,25.6-0.3,58.7-8.6,85.7c-8.4,27.1-22.5,44.2-45.7,46.4v24.9c23.1,2.2,37.3,19.3,45.7,46.4c8.3,27,9.5,60.1,8.6,85.7
	c-1,26.6,19.9,51.1,47.9,51.1H394c28.1,0,48.9-24.5,47.9-51.1c-0.9-25.6,0.3-58.7,8.6-85.7c8.4-27.1,22.5-44.2,45.6-46.4v-24.9
	C473,235.3,458.8,218.2,450.5,191.1z M70.1,271h-0.3c-4,0-8.1-1.3-11.3-3.5l-1.9-1.3l6.1-10.7l2.3,1.9c1.2,1,3,1.7,4.8,1.7H70
	c4.5,0,8.2-3.8,8.2-8.4L78.1,221H90l0.1,29.8C90.2,262,81.2,271,70.1,271z M126.5,270.2l-3-6.7h-17.7l-3,6.7h-13l23.1-50.1h3.6
	l23.1,50.1H126.5z M150.2,271.1L127.7,221h12.9l11.5,26.2l11.6-26.2h12.9l-22.7,50.1H150.2z M201.5,270.2l-3-6.7h-17.7l-3,6.7h-13
	l23.1-50.1h3.6l23.1,50.1H201.5z M232.5,270.9c-7.9,0-14.5-3.7-17.5-9.9l-0.9-1.9l9.5-6.8l1.4,2.4c1.5,2.6,4.3,4.2,7.7,4.2
	c3.5,0,6.2-1.4,6.2-3.3c0-2.4-5.4-4.7-9.3-6.4l-0.1-0.1c-5-2.2-12.4-5.5-12.4-14.2c0-8.4,7.2-14.8,16.7-14.8
	c7.3,0,12.9,3.6,15.2,9.5l0.7,1.8l-9.2,6.4l-1.2-2.7c-0.9-2-3-3.2-5.3-3.2c-2.6,0-4.8,1.4-4.8,3.1c0,1.3,2.3,2.3,6.1,3.9
	c0.6,0.3,1.2,0.5,1.9,0.8c6.8,3,13.9,6.9,13.9,15.7C250.7,264.6,243.2,270.9,232.5,270.9z M280.4,258.9c4.2,0,7.6-2.5,9.7-4.5
	l2.1-2.1l7,9.7l-1.5,1.5c-5,4.9-10.6,7.4-17,7.4c-14,0-25.4-11.3-25.4-25.3c0-13.8,11.6-25.4,25.3-25.4c6.3,0.1,12.2,2.7,17.1,7.5
	l1.6,1.5l-7,9.5l-2.1-2.1c-2.8-2.9-6.3-4.4-9.7-4.4c-7,0-13.1,6.2-13.1,13.4C267.2,253.5,274.1,258.9,280.4,258.9z M329.9,270.2
	L318,253.1h-1.6v17.1h-11.9V221h16.2c9.6,0,17.5,7.5,17.5,16.7c0,5.5-2.9,10.6-7.4,13.3l14,19.2H329.9z M359.5,270.2h-11.9V221h11.9
	V270.2z M385.8,254.9h-5.3v15.3h-11.9V221h17.3c9.9,0,18,7.7,18,17.1C403.9,247.3,395.8,254.9,385.8,254.9z M442.7,232.9h-11.8v37.3
	h-12v-37.3H407V221h35.6v11.9H442.7z"/>
<linearGradient id="SVGID_00000000911262256351679120000003285079812762624899_" gradientUnits="userSpaceOnUse" x1="102.8036" y1="250.85" x2="155.445" y2="250.85" gradientTransform="matrix(1 0 0 -1 0 499)">
	<stop  offset="0" style="stop-color:#FA12E3"/>
	<stop  offset="0.5362" style="stop-color:#7312FA"/>
	<stop  offset="1" style="stop-color:#415CA7"/>
</linearGradient>
<polygon style="fill:url(#SVGID_00000000911262256351679120000003285079812762624899_);" points="110.7,252.5 118.5,252.5 
	114.6,243.8 "/>
<linearGradient id="SVGID_00000175286702440657146240000011821222240651887003_" gradientUnits="userSpaceOnUse" x1="172.9944" y1="250.85" x2="213.2472" y2="250.85" gradientTransform="matrix(1 0 0 -1 0 499)">
	<stop  offset="0" style="stop-color:#FA12E3"/>
	<stop  offset="0.5362" style="stop-color:#7312FA"/>
	<stop  offset="1" style="stop-color:#415CA7"/>
</linearGradient>
<polygon style="fill:url(#SVGID_00000175286702440657146240000011821222240651887003_);" points="185.7,252.5 193.5,252.5 
	189.6,243.8 "/>
<linearGradient id="SVGID_00000147216213516100522860000009236706047186045332_" gradientUnits="userSpaceOnUse" x1="297.1808" y1="261.4" x2="335.4419" y2="261.4" gradientTransform="matrix(1 0 0 -1 0 499)">
	<stop  offset="0" style="stop-color:#FA12E3"/>
	<stop  offset="0.5362" style="stop-color:#7312FA"/>
	<stop  offset="1" style="stop-color:#415CA7"/>
</linearGradient>
<path style="fill:url(#SVGID_00000147216213516100522860000009236706047186045332_);" d="M320.8,232.9h-4.5v9.4h4.5
	c1.4,0,2.7-0.5,3.7-1.5c0.9-0.9,1.4-2.1,1.4-3.3C326,234.9,323.7,232.9,320.8,232.9z"/>
<linearGradient id="SVGID_00000020364140066334745890000006929355988053894278_" gradientUnits="userSpaceOnUse" x1="361.2912" y1="261.05" x2="393.3387" y2="261.05" gradientTransform="matrix(1 0 0 -1 0 499)">
	<stop  offset="0" style="stop-color:#FA12E3"/>
	<stop  offset="0.5362" style="stop-color:#7312FA"/>
	<stop  offset="1" style="stop-color:#415CA7"/>
</linearGradient>
<path style="fill:url(#SVGID_00000020364140066334745890000006929355988053894278_);" d="M385.8,232.9h-5.3V243h5.3
	c1.8,0,3.5-0.7,4.7-1.8c0.9-0.9,1.4-2,1.4-3.2C391.9,235.2,389.2,232.9,385.8,232.9z"/>
<linearGradient id="SVGID_00000148644712338670537400000001229716707829224606_" gradientUnits="userSpaceOnUse" x1="302.7949" y1="-10.75" x2="305.4434" y2="-10.75" gradientTransform="matrix(1 0 0 1 0 334)">
	<stop  offset="0" style="stop-color:#FA12E3"/>
	<stop  offset="0.5362" style="stop-color:#7312FA"/>
	<stop  offset="1" style="stop-color:#415CA7"/>
</linearGradient>
<path style="fill:url(#SVGID_00000148644712338670537400000001229716707829224606_);" d="M303.6,321.7h-0.8v3.1h0.7
	c0.8,0,1.2-0.2,1.4-0.5c0.3-0.2,0.5-0.6,0.5-1.4c0-0.6-0.2-0.8-0.3-0.8C305,321.8,304.5,321.7,303.6,321.7z"/>
<polygon class="st6" points="299.4,162 303.6,204.1 349.1,204.1 340.5,112.1 165.2,112.9 151.1,272.2 151.1,272.5 300.2,272.5 
	294.3,327.8 245.7,340.5 198.5,327.9 195.4,293.5 150.9,293.5 157.8,362.6 247.2,387.9 336.2,361.8 348.9,229.8 199.6,227.8 
	206.3,160.4 "/>
</svg>
