<?xml version="1.0" encoding="utf-8"?>
<!-- Generator: Adobe Illustrator 28.1.0, SVG Export Plug-In . SVG Version: 6.00 Build 0)  -->
<svg version="1.1" id="Capa_1" xmlns="http://www.w3.org/2000/svg" xmlns:xlink="http://www.w3.org/1999/xlink" x="0px" y="0px"
	 viewBox="0 0 500 500" style="enable-background:new 0 0 500 500;" xml:space="preserve">
<style type="text/css">
	.st0{fill:url(#SVGID_1_);}
	.st1{fill:url(#SVGID_00000046320536106969174040000002312101207141480594_);}
	.st2{fill:url(#SVGID_00000079453067402542248810000017608990899730683063_);}
	.st3{fill:url(#SVGID_00000004514349182121218430000013142817117512905143_);}
	.st4{fill:url(#SVGID_00000168111014305271652370000008581108991042976143_);}
	.st5{fill:url(#SVGID_00000069376931656311809440000006404685408924375479_);}
	.st6{opacity:0.3;fill:#121212;}
</style>
<linearGradient id="SVGID_1_" gradientUnits="userSpaceOnUse" x1="76.0573" y1="240.2131" x2="466.2973" y2="266.1331">
	<stop  offset="3.264490e-03" style="stop-color:#FA12E3"/>
	<stop  offset="0.5362" style="stop-color:#7312FA"/>
	<stop  offset="1" style="stop-color:#415CA7"/>
</linearGradient>
<path class="st0" d="M224.9,238.3h-3.2v23.4h3.3c7.6,0,12.2-4.4,12.2-11.7C237.1,242.7,232.6,238.3,224.9,238.3z"/>
<linearGradient id="SVGID_00000067947153188406885980000015897914083980389295_" gradientUnits="userSpaceOnUse" x1="76.6946" y1="230.6179" x2="466.9346" y2="256.5379">
	<stop  offset="3.264490e-03" style="stop-color:#FA12E3"/>
	<stop  offset="0.5362" style="stop-color:#7312FA"/>
	<stop  offset="1" style="stop-color:#415CA7"/>
</linearGradient>
<path style="fill:url(#SVGID_00000067947153188406885980000015897914083980389295_);" d="M268.9,238.3h-5.2v9.9l5.2,0c0,0,0,0,0,0
	c1.7,0,3.3-0.6,4.5-1.7c0.9-0.9,1.4-2,1.4-3.1C274.8,240.5,272.2,238.3,268.9,238.3z"/>
<linearGradient id="SVGID_00000021840836627160434670000002252324828324453283_" gradientUnits="userSpaceOnUse" x1="76.3595" y1="235.6634" x2="466.5995" y2="261.5834">
	<stop  offset="3.264490e-03" style="stop-color:#FA12E3"/>
	<stop  offset="0.5362" style="stop-color:#7312FA"/>
	<stop  offset="1" style="stop-color:#415CA7"/>
</linearGradient>
<path style="fill:url(#SVGID_00000021840836627160434670000002252324828324453283_);" d="M187.8,238.3h-4.4v9.3h4.4c0,0,0,0,0,0
	c1.3,0,2.6-0.5,3.6-1.5c0.9-0.9,1.4-2,1.4-3.2C192.8,240.3,190.6,238.3,187.8,238.3z"/>
<linearGradient id="SVGID_00000047052257161605851470000018300039902308239548_" gradientUnits="userSpaceOnUse" x1="75.7114" y1="245.4206" x2="465.9514" y2="271.3406">
	<stop  offset="3.264490e-03" style="stop-color:#FA12E3"/>
	<stop  offset="0.5362" style="stop-color:#7312FA"/>
	<stop  offset="1" style="stop-color:#415CA7"/>
</linearGradient>
<path style="fill:url(#SVGID_00000047052257161605851470000018300039902308239548_);" d="M144.5,237.7c-6.8,0-12.3,5.5-12.3,12.3
	c0,6.8,5.5,12.2,12.3,12.2c6.8,0,12.3-5.5,12.3-12.2C156.8,243.2,151.3,237.7,144.5,237.7z"/>
<linearGradient id="SVGID_00000015332121791428124580000018265630890595799436_" gradientUnits="userSpaceOnUse" x1="76.8741" y1="227.9156" x2="467.1141" y2="253.8356">
	<stop  offset="3.264490e-03" style="stop-color:#FA12E3"/>
	<stop  offset="0.5362" style="stop-color:#7312FA"/>
	<stop  offset="1" style="stop-color:#415CA7"/>
</linearGradient>
<path style="fill:url(#SVGID_00000015332121791428124580000018265630890595799436_);" d="M305,238.3h-4.4v9.3h4.4c0,0,0,0,0,0
	c1.3,0,2.6-0.5,3.6-1.5c0.9-0.9,1.4-2,1.4-3.2C310,240.3,307.8,238.3,305,238.3z"/>
<linearGradient id="SVGID_00000110458115578274837460000001673725808042622617_" gradientUnits="userSpaceOnUse" x1="5.6" y1="247.25" x2="497.7" y2="247.25">
	<stop  offset="3.264490e-03" style="stop-color:#FA12E3"/>
	<stop  offset="0.5362" style="stop-color:#7312FA"/>
	<stop  offset="1" style="stop-color:#415CA7"/>
</linearGradient>
<path style="fill:url(#SVGID_00000110458115578274837460000001673725808042622617_);" d="M452,188.4c-7.9-25.6-7.4-50.8-8-77.2
	c-0.6-29.1-15.5-59.6-48.5-59.6H107.8c-18.8,0-34.3,11-42.2,26.3c-3.9,7.5-6,16.1-5.7,24.8c0.9,25.6-0.3,58.7-8.6,85.7
	c-8.4,27.1-22.5,44.2-45.7,46.4v24.9c23.1,2.2,37.3,19.3,45.7,46.4c8.3,27,9.5,60.1,8.6,85.7c-1,26.6,19.9,51.1,47.9,51.1h287.8
	c24.3,0,43.1-18.3,47.1-40.4v-0.1c0.6-3.5,0.9-7.1,0.8-10.7c-0.9-25.6,0.3-58.7,8.6-85.7c8.4-27.1,22.5-44.2,45.6-46.4v-24.9
	C474.5,232.6,460.3,215.5,452,188.4z M108.3,271.8h-3l-8.9-20.9l-8.7,20.9h-3.1L71,228.6h10.4l6.2,20.6l7.5-19h2.7l7.5,18.9
	l6.2-20.6h10.4L108.3,271.8z M144.5,272.1c-12.2,0-22-9.9-22-22c0-12.2,9.9-22.1,22.1-22.1c12.2,0,22.1,9.9,22.1,22.1
	C166.6,262.2,156.7,272.1,144.5,272.1z M196.1,271.4l-10.6-15.2h-2.1v15.2h-9.7l0-42.8h14c8.3,0,15.1,6.5,15.1,14.4
	c0,4.9-2.7,9.4-6.8,11.7l12.2,16.7H196.1z M224.9,271.4h-13v-42.8h13c0,0,0,0,0.1,0c6.7,0,12.2,2.1,16.1,5.9
	c3.8,3.8,5.8,9.2,5.8,15.5C246.9,263,238.3,271.4,224.9,271.4z M268.9,257.8h-5.2v13.6H254v-42.8h14.9c8.6,0,15.6,6.6,15.6,14.7
	C284.5,251.3,277.5,257.8,268.9,257.8z M313.3,271.4l-10.6-15.2h-2.1v15.2h-9.7l0-42.8h14c8.3,0,15.1,6.5,15.1,14.4
	c0,4.9-2.7,9.4-6.8,11.7l12.2,16.7H313.3z M356.1,238.2h-17.2v6.5h14.9v9.7h-14.9v7.3h17.2v9.7h-26.9v-42.8h26.9V238.2z M377,272.1
	c-6.9,0-12.5-3.2-15.2-8.5l-0.7-1.4l7.7-5.5l1,1.7c1.4,2.5,4.1,3.9,7.2,3.9c3.4,0,6-1.4,6-3.3c0-2.4-4.7-4.5-8.5-6.1l-0.1-0.1
	c-4.6-2-10.8-4.8-10.8-12.2c0-7.2,6.2-12.7,14.4-12.7c6.3,0,11.2,3.1,13.1,8.2l0.5,1.3l-7.5,5.2l-0.9-1.9c-0.9-1.9-2.9-3.1-5.2-3.1
	c-2.5,0-4.7,1.5-4.7,3.2c0,1.4,2,2.4,5.7,3.9c0.5,0.2,1.1,0.5,1.7,0.7c5.9,2.6,12.1,6,12.1,13.5C392.8,266.7,386.3,272.1,377,272.1z
	 M412.6,272.1c-6.9,0-12.5-3.2-15.2-8.5l-0.7-1.4l7.7-5.5l1,1.7c1.4,2.5,4.1,3.9,7.2,3.9c3.4,0,6-1.4,6-3.3c0-2.4-4.7-4.5-8.5-6.1
	l-0.1-0.1c-4.6-2-10.8-4.8-10.8-12.2c0-7.2,6.2-12.7,14.4-12.7c6.3,0,11.2,3.1,13.1,8.2l0.5,1.3l-7.5,5.2l-0.9-1.9
	c-0.9-1.9-2.9-3.1-5.2-3.1c-2.5,0-4.7,1.5-4.7,3.2c0,1.4,2,2.4,5.7,3.9c0.5,0.2,1.1,0.5,1.7,0.7c5.9,2.6,12.1,6,12.1,13.5
	C428.4,266.7,421.9,272.1,412.6,272.1z"/>
<path class="st6" d="M250,375.9c69.4,0,125.9-56.5,125.9-125.9S319.4,124.1,250,124.1S124.1,180.6,124.1,250S180.6,375.9,250,375.9z
	 M250,363.2c-11.2,0-21.9-1.6-32-4.6l34-98.7l34.8,95.3c0.2,0.6,0.5,1.1,0.8,1.6C275.8,361,263.2,363.2,250,363.2z M341.4,247.9
	c6.4-16.2,8.6-29.1,8.6-40.6c0-4.1-0.2-8-0.7-11.6c8.9,16.1,13.9,34.6,13.9,54.3c0,41.8-22.6,78.3-56.3,97.9L341.4,247.9z
	 M249.9,136.8c29.5,0,56.4,11.3,76.5,29.7c-0.4,0-0.9-0.1-1.4-0.1c-11.1,0-19,9.7-19,20.1c0,9.3,5.4,17.2,11.1,26.5
	c4.4,7.7,9.4,17.3,9.4,31.3c0,9.6-3.8,20.9-8.9,36.7l-11.3,37.7L265.4,197c6.8-0.3,13-1,13-1c6.1-0.7,5.4-9.7-0.7-9.3
	c0,0-18.3,1.4-30.2,1.4c-11.1,0-29.8-1.4-29.8-1.4c-6.1-0.4-6.8,9-0.7,9.3c0,0,5.8,0.7,11.9,1l17.6,48.3l-24.8,74.3L180.5,197
	c6.8-0.3,13-1,13-1c6.1-0.7,5.4-9.7-0.7-9.3c0,0-18.2,1.4-30.1,1.4c-2.2,0-4.7-0.1-7.3-0.2C175.5,157.1,210.4,136.8,249.9,136.8z
	 M146.6,204l54,147.9c-37.8-18.4-63.8-57.1-63.8-101.9C136.8,233.6,140.4,218,146.6,204z"/>
</svg>
