<svg width="53" height="53" viewBox="0 0 53 53" fill="none" xmlns="http://www.w3.org/2000/svg">
<g clip-path="url(#clip0_2_69)">
<path d="M26.4816 0C11.8761 0 0 11.8761 0 26.4816C0 41.087 11.8761 52.9631 26.4816 52.9631C41.087 52.9631 52.9631 41.087 52.9631 26.4816C52.9631 11.8761 41.1239 0 26.4816 0ZM25.2644 33.5999C23.7891 35.7759 20.9492 37.1406 17.9248 37.1406C11.3967 37.1406 7.04454 32.8622 7.04454 26.5184C7.04454 20.1747 11.5073 15.8963 17.9248 15.8963C20.7648 15.8963 23.3097 17.0028 24.785 18.8838L24.8956 19.0313L21.2443 22.0188L21.1336 21.8713C20.2853 20.8017 19.0682 20.2853 17.5191 20.2853C14.3104 20.2853 11.9499 22.904 11.9499 26.4816C11.9499 29.5059 13.8678 32.6778 17.3716 32.6778C19.0682 32.6778 20.4328 31.977 21.318 30.6124L21.4287 30.4649L25.3751 33.4154L25.2644 33.5999ZM37.1775 37.1037H33.2679L33.231 36.993L24.785 15.8963H30.428L35.4809 29.2846L40.6075 15.8963H45.9555L37.1775 37.1037Z" fill="url(#paint0_linear_2_69)"/>
</g>
<defs>
<linearGradient id="paint0_linear_2_69" x1="0" y1="26.4816" x2="52.9631" y2="26.4816" gradientUnits="userSpaceOnUse">
<stop stop-color="#9B30F9"/>
<stop offset="0.5362" stop-color="#8844EE"/>
</linearGradient>
<clipPath id="clip0_2_69">
<rect width="53" height="53" fill="white"/>
</clipPath>
</defs>
</svg>
