<svg width="54" height="53" viewBox="0 0 54 53" fill="none" xmlns="http://www.w3.org/2000/svg">
<g clip-path="url(#clip0_2_60)">
<path d="M24.4635 31.682L11.8747 17.6298V36.9193C11.8747 37.2512 12.1378 37.5463 12.5136 37.5463H41.4864C41.8246 37.5463 42.1253 37.2512 42.1253 36.9193V17.6298L29.5365 31.682C28.1837 33.1942 25.8163 33.1942 24.4635 31.682Z" fill="url(#paint0_linear_2_60)"/>
<path d="M53.9624 25.6333C53.5115 11.7655 42.0125 0.442591 27.8831 2.23983e-06C12.2881 -0.479469 -0.488516 12.0605 1.56183e-06 27.3667C0.450941 41.2345 11.9499 52.5205 26.0793 52.9631C41.7119 53.4795 54.4885 40.9395 53.9624 25.6333ZM45.5449 37.5463C45.5449 39.4273 44.0042 40.9026 42.1253 40.9026H11.8747C9.99583 40.9026 8.45512 39.3904 8.45512 37.5463V15.4537C8.45512 13.6096 9.99583 12.0974 11.8747 12.0974H42.1253C44.0418 12.0974 45.5449 13.6096 45.5449 15.4537V37.5463Z" fill="url(#paint1_linear_2_60)"/>
<path d="M27.4697 28.842L39.4196 15.4906H14.5804L26.5303 28.8789C26.7557 29.1371 27.2067 29.1371 27.4697 28.842Z" fill="url(#paint2_linear_2_60)"/>
</g>
<defs>
<linearGradient id="paint0_linear_2_60" x1="11.8747" y1="27.588" x2="42.1253" y2="27.588" gradientUnits="userSpaceOnUse">
<stop stop-color="#9B30F9"/>
<stop offset="0.5362" stop-color="#8844EE"/>
</linearGradient>
<linearGradient id="paint1_linear_2_60" x1="-0.0135574" y1="26.4826" x2="53.9781" y2="26.4826" gradientUnits="userSpaceOnUse">
<stop stop-color="#9B30F9"/>
<stop offset="0.5362" stop-color="#8844EE"/>
</linearGradient>
<linearGradient id="paint2_linear_2_60" x1="14.5804" y1="22.2794" x2="39.4196" y2="22.2794" gradientUnits="userSpaceOnUse">
<stop stop-color="#9B30F9"/>
<stop offset="0.5362" stop-color="#8844EE"/>
</linearGradient>
<clipPath id="clip0_2_60">
<rect width="54" height="53" fill="white"/>
</clipPath>
</defs>
</svg>
