<svg width="53" height="52" viewBox="0 0 53 52" fill="none" xmlns="http://www.w3.org/2000/svg">
<g clip-path="url(#clip0_2_66)">
<path d="M12.2706 18.0612C12.3445 17.9872 12.0858 17.506 12.0488 17.432C11.9379 17.1359 11.864 16.8399 11.7901 16.5438C11.5683 15.4705 11.6423 14.3601 11.7531 13.2868C11.8271 12.5836 11.6792 11.3253 12.5293 11.0662C13.8598 10.6591 15.1904 11.3253 16.2622 12.0285C17.371 12.7687 18.5537 13.953 20.0321 13.805C21.1778 13.6939 22.2866 13.3238 23.3954 13.1758C25.0955 12.9537 26.7957 12.8057 28.4958 12.9907C29.235 13.0648 29.9742 13.2868 30.7134 13.4719C31.4526 13.6569 32.3027 14.1381 33.0788 13.805C33.818 13.5089 34.4463 12.9167 35.1485 12.5096C35.9616 12.0655 36.8117 11.6584 37.6987 11.3623C38.2901 11.1402 39.6946 10.548 40.249 11.0292C40.3598 11.1402 40.4707 11.3993 40.6186 11.9544C40.9512 12.9907 41.2099 14.1381 41.2099 15.2854C41.2099 15.8036 41.1729 16.3217 40.9881 16.8399C40.8034 17.358 40.3968 17.8762 40.8034 18.3943C41.6904 19.5416 42.4665 20.8 42.8731 22.2434C44.4254 27.721 42.5404 34.3459 37.2183 36.9737C36.0725 37.5288 34.8898 37.8249 33.6702 38.047C33.4484 38.084 33.2636 38.084 33.0418 38.121C32.7092 38.158 32.3396 38.195 32.007 38.269C31.8591 38.306 31.7113 38.306 31.5635 38.3431C31.4526 38.3801 31.3417 38.3801 31.2678 38.4541C31.1199 38.5651 31.3787 38.6762 31.4526 38.7132C31.5635 38.7872 31.6743 38.9352 31.7852 39.0463C32.1548 39.5274 32.4135 40.1196 32.5983 40.7117C32.7831 41.3039 32.894 41.8961 32.931 42.5253C32.9679 42.9324 32.9679 43.3765 33.0049 43.7836C33.0049 46.1523 32.7831 48.632 33.1158 51.0007C33.2266 51.7039 33.781 52.111 34.5202 52.037C35.5181 51.926 36.553 51.3708 37.44 50.9637C42.7992 48.558 47.3822 44.2648 50.1172 39.0093C50.228 38.7872 50.3389 38.6021 50.4128 38.3801C51.6325 35.7893 52.076 33.6427 52.4087 32.0512C52.6674 30.6818 53.1109 28.4612 53 25.5374C52.9261 23.2427 52.5565 21.3922 52.2608 20.2818C51.9651 19.0975 51.2259 16.5438 49.5997 13.6569C48.9714 12.5836 47.4191 9.99288 44.6102 7.36512C39.8054 2.84982 34.6681 1.33238 33.4114 0.962277C31.5635 0.444127 25.7978 -0.925268 19.219 0.999287C18.5167 1.22135 16.2622 1.88754 13.6011 3.40498C10.3487 5.2185 8.24198 7.21708 7.50279 7.99431C3.03068 12.5096 1.44142 17.432 1.07183 18.6534C-0.184797 22.8356 -0.036959 26.2406 0.0369601 27.9801C0.295677 32.6434 1.58926 36.0114 1.99582 37.0107C3.69596 41.1559 5.98745 43.7836 6.68968 44.5979C8.09414 46.1523 9.79428 47.5587 11.5314 48.7061C12.5662 49.4093 13.712 50.0384 14.8577 50.5566C15.4491 50.8527 16.0404 51.1117 16.6318 51.3708C17.1492 51.5929 17.7036 51.889 18.258 51.963C18.4059 52 18.6276 52 18.8863 51.926C18.9972 51.889 19.3298 51.7779 19.5516 51.5189C19.8103 51.2228 19.8473 50.8527 19.8473 50.7046C20.106 47.3737 20.2908 45.7452 19.8473 45.6342C19.7734 45.6342 19.7734 45.6712 19.4777 45.7452C19.0711 45.8932 18.7755 45.9302 18.3689 45.9673C17.4449 46.0783 16.484 46.0043 16.2992 46.0043C15.0425 45.8932 13.675 45.6342 12.6032 44.894C11.2357 43.9687 11.0139 42.5993 10.2378 41.2669C9.83124 40.5637 9.42469 39.8235 8.79638 39.2683C8.24198 38.7872 7.1332 38.4911 6.87448 37.7139C6.54184 36.7146 8.38982 37.1587 8.79638 37.2697C9.79428 37.5288 10.7922 38.047 11.4944 38.8612C12.1227 39.5644 12.4923 40.4897 13.1206 41.2299C13.9707 42.2292 15.2643 42.6733 16.5579 42.7843C17.408 42.8584 18.3689 42.9324 19.182 42.6733C19.7364 42.4883 19.8103 42.0811 19.9212 41.563C20.069 40.8968 20.2538 40.1566 20.7343 39.6384C20.9191 39.4534 21.6953 38.8612 21.5105 38.5281C21.4365 38.4171 21.2517 38.5281 20.7713 38.4911C18.2211 38.3801 15.7448 37.2697 13.6381 35.9004C10.3856 33.6797 9.38773 29.3125 9.38773 25.6854C9.35077 22.7986 10.2748 20.1708 12.2706 18.0612Z" fill="url(#paint0_linear_2_66)"/>
</g>
<defs>
<linearGradient id="paint0_linear_2_66" x1="-0.0100651" y1="26.0251" x2="53.0175" y2="26.0251" gradientUnits="userSpaceOnUse">
<stop stop-color="#9B30F9"/>
<stop offset="0.5362" stop-color="#8844EE"/>
</linearGradient>
<clipPath id="clip0_2_66">
<rect width="53" height="52" fill="white"/>
</clipPath>
</defs>
</svg>
