<?xml version="1.0" encoding="utf-8"?>
<!-- Generator: Adobe Illustrator 28.1.0, SVG Export Plug-In . SVG Version: 6.00 Build 0)  -->
<svg version="1.1" id="Camada_2_00000140725316433259725010000017972631052247366791_"
	 xmlns="http://www.w3.org/2000/svg" xmlns:xlink="http://www.w3.org/1999/xlink" x="0px" y="0px" viewBox="0 0 143.7 143.7"
	 style="enable-background:new 0 0 143.7 143.7;" xml:space="preserve">
<style type="text/css">
	.st0{fill:url(#SVGID_1_);}
</style>
<g id="ELEMENTS">
	<linearGradient id="SVGID_1_" gradientUnits="userSpaceOnUse" x1="0" y1="71.8" x2="143.6" y2="71.8">
		<stop  offset="0" style="stop-color:#FA12E3"/>
		<stop  offset="0.5362" style="stop-color:#7312FA"/>
		<stop  offset="1" style="stop-color:#415CA7"/>
	</linearGradient>
	<path class="st0" d="M71.8,0C32.2,0,0,32.2,0,71.8s32.2,71.8,71.8,71.8s71.8-32.2,71.8-71.8S111.5,0,71.8,0z M48.1,111.1
		c-5.1-0.1-10.2,0-15.3,0c-0.8,0-1.1-0.2-1.1-1.1c0-18.2,0-36.4,0-54.6c0-0.8,0.2-1,1-1c5.2,0,10.4,0,15.5,0c1,0,1.1,0.4,1.1,1.2
		c0,9.1,0,18.1,0,27.2s0,18,0,27C49.4,110.8,49.2,111.1,48.1,111.1L48.1,111.1z M40.6,46.6c-5.6,0-10.2-4.6-10.2-10.2
		S35,26.2,40.6,26.2s10.2,4.6,10.2,10.2S46.2,46.6,40.6,46.6L40.6,46.6z M115.5,109.9c0,0.9-0.3,1.2-1.2,1.2c-5.1,0-10.2,0-15.3,0
		c-0.9,0-1.1-0.3-1.1-1.1c0-9.4,0-18.9,0-28.3c0-2.4-0.2-4.7-0.8-7c-1.2-4.2-4.3-6.4-8.7-6.2c-6.1,0.3-9.2,3.3-10,9.5
		c-0.2,1.5-0.3,2.9-0.3,4.4c0,9.2,0,18.4,0,27.6c0,0.9-0.2,1.2-1.2,1.2c-5.2-0.1-10.3,0-15.5,0c-0.8,0-1.1-0.2-1.1-1.1
		c0-18.2,0-36.4,0-54.5c0-0.9,0.3-1.1,1.1-1.1c4.9,0,9.8,0,14.7,0c0.9,0,1.1,0.3,1.1,1.1c-0.1,2.2,0,4.3,0,6.5
		c1.2-1.3,2.2-2.7,3.4-3.8C84.5,54.7,88.9,53,94,53c2.8,0,5.6,0.2,8.3,1c6.2,1.8,9.9,6.1,11.6,12.2c1.3,4.6,1.5,9.3,1.5,14
		C115.5,90.1,115.5,100,115.5,109.9L115.5,109.9z"/>
</g>
</svg>
