<svg width="53" height="54" viewBox="0 0 53 54" fill="none" xmlns="http://www.w3.org/2000/svg">
<g clip-path="url(#clip0_2_72)">
<path d="M26.4816 0C11.8761 0 0 12.1002 0 26.9812C0 41.8622 11.8761 53.9624 26.4816 53.9624C41.087 53.9624 52.9631 41.8622 52.9631 26.9812C52.9631 12.1002 41.1239 0 26.4816 0ZM17.7404 41.7495C15.8594 41.7119 13.9784 41.7495 12.0974 41.7495C11.8024 41.7495 11.6917 41.6743 11.6917 41.3361C11.6917 34.4969 11.6917 27.6576 11.6917 20.8184C11.6917 20.5177 11.7655 20.4426 12.0605 20.4426C13.9784 20.4426 15.8963 20.4426 17.7773 20.4426C18.1461 20.4426 18.183 20.5929 18.183 20.8935C18.183 24.3132 18.183 27.6952 18.183 31.1148C18.183 34.5344 18.183 37.8789 18.183 41.261C18.2199 41.6367 18.1461 41.7495 17.7404 41.7495ZM14.9743 17.5115C12.9088 17.5115 11.2122 15.7829 11.2122 13.6785C11.2122 11.5741 12.9088 9.84551 14.9743 9.84551C17.0397 9.84551 18.7363 11.5741 18.7363 13.6785C18.7363 15.7829 17.0397 17.5115 14.9743 17.5115ZM42.5992 41.2985C42.5992 41.6367 42.4885 41.7495 42.1566 41.7495C40.2756 41.7495 38.3946 41.7495 36.5136 41.7495C36.1816 41.7495 36.1079 41.6367 36.1079 41.3361C36.1079 37.8038 36.1079 34.2338 36.1079 30.7015C36.1079 29.7996 36.0341 28.9353 35.8128 28.071C35.3702 26.4927 34.2269 25.666 32.604 25.7411C30.3542 25.8539 29.2109 26.9812 28.9158 29.3111C28.842 29.8747 28.8051 30.4008 28.8051 30.9645C28.8051 34.4217 28.8051 37.8789 28.8051 41.3361C28.8051 41.6743 28.7314 41.7871 28.3626 41.7871C26.4447 41.7495 24.5637 41.7871 22.6458 41.7871C22.3507 41.7871 22.2401 41.7119 22.2401 41.3737C22.2401 34.5344 22.2401 27.6952 22.2401 20.8935C22.2401 20.5553 22.3507 20.4802 22.6458 20.4802C24.453 20.4802 26.2603 20.4802 28.0675 20.4802C28.3994 20.4802 28.4732 20.5929 28.4732 20.8935C28.4363 21.7202 28.4732 22.5094 28.4732 23.3361C28.9158 22.8476 29.2846 22.3215 29.7272 21.9081C31.1656 20.5553 32.7884 19.9165 34.6695 19.9165C35.7022 19.9165 36.7349 19.9916 37.7307 20.2923C40.0174 20.9687 41.382 22.5845 42.009 24.8768C42.4885 26.6054 42.5623 28.3716 42.5623 30.1378C42.5992 33.858 42.5992 37.5783 42.5992 41.2985Z" fill="url(#paint0_linear_2_72)"/>
</g>
<defs>
<linearGradient id="paint0_linear_2_72" x1="0" y1="26.9812" x2="52.9631" y2="26.9812" gradientUnits="userSpaceOnUse">
<stop stop-color="#9B30F9"/>
<stop offset="0.5362" stop-color="#8844EE"/>
</linearGradient>
<clipPath id="clip0_2_72">
<rect width="53" height="54" fill="white"/>
</clipPath>
</defs>
</svg>
