<svg width="54" height="54" viewBox="0 0 54 54" fill="none" xmlns="http://www.w3.org/2000/svg">
<g clip-path="url(#clip0_2_75)">
<path d="M26.9812 0C12.1002 0 0 12.1002 0 26.9812C0 41.8998 12.1002 53.9624 26.9812 53.9624C41.8998 53.9624 53.9624 41.8622 53.9624 26.9812C54 12.1002 41.8998 0 26.9812 0ZM27.1691 43.0271C24.4635 43.0271 21.833 42.3507 19.4656 41.0731L10.6347 43.4405L13.0021 34.6472C11.6868 32.2422 10.9729 29.5365 10.9729 26.7933C10.9729 17.8497 18.2631 10.5595 27.2067 10.5595C36.1503 10.5595 43.4405 17.8497 43.4405 26.7933C43.4405 35.737 36.1127 43.0271 27.1691 43.0271Z" fill="url(#paint0_linear_2_75)"/>
<path d="M27.1691 13.6409C19.9165 13.6409 14.0167 19.5407 14.0167 26.7933C14.0167 29.1983 14.6931 31.5658 15.9332 33.6326L16.2714 34.1962L14.9562 39.0814L19.8789 37.7662L20.4426 38.1044C22.4718 39.3069 24.8017 39.9457 27.1691 39.9457C34.4217 39.9457 40.3215 34.0459 40.3215 26.7933C40.3215 19.5407 34.4217 13.6409 27.1691 13.6409ZM34.8727 31.7537C34.3841 32.9562 33.1816 33.7077 31.9416 33.9332C30.7766 34.1587 29.7996 33.7829 28.7098 33.4071C27.7328 33.0689 26.7933 32.618 25.929 32.0919C24.2004 31.0397 22.6597 29.5741 21.4572 27.9582C21.0814 27.4697 20.7432 26.9436 20.4426 26.38C20.0292 25.666 19.6535 24.9144 19.4656 24.0877C19.3904 23.7495 19.3528 23.4113 19.3528 23.0731C19.3528 21.8706 19.8038 20.6305 20.7808 19.8413C21.3445 19.3904 22.1712 19.2025 22.81 19.5407C23.4864 19.9165 23.8622 20.8935 24.1628 21.5699C24.4259 22.096 24.6889 22.81 24.5762 23.4113C24.4635 24.0125 24.0125 24.501 23.6368 24.952C23.3737 25.2526 23.3361 25.5157 23.5616 25.8163C24.8017 27.9207 26.5303 29.4238 28.8226 30.3257C29.1232 30.4384 29.3862 30.4008 29.5741 30.1754C29.9499 29.6868 30.3633 28.7474 30.9645 28.5219C31.7537 28.1837 32.618 28.6347 33.2944 29.048C33.9332 29.4238 34.9478 29.8747 35.1357 30.6263C35.0981 31.0397 35.023 31.4154 34.8727 31.7537Z" fill="url(#paint1_linear_2_75)"/>
</g>
<defs>
<linearGradient id="paint0_linear_2_75" x1="0" y1="26.9812" x2="53.9625" y2="26.9812" gradientUnits="userSpaceOnUse">
<stop stop-color="#9B30F9"/>
<stop offset="0.5362" stop-color="#8844EE"/>
</linearGradient>
<linearGradient id="paint1_linear_2_75" x1="14.0167" y1="26.7933" x2="40.3215" y2="26.7933" gradientUnits="userSpaceOnUse">
<stop stop-color="#9B30F9"/>
<stop offset="0.5362" stop-color="#8844EE"/>
</linearGradient>
<clipPath id="clip0_2_75">
<rect width="54" height="54" fill="white"/>
</clipPath>
</defs>
</svg>
