<?xml version="1.0" encoding="utf-8"?>
<!-- Generator: Adobe Illustrator 28.1.0, SVG Export Plug-In . SVG Version: 6.00 Build 0)  -->
<svg version="1.1" id="Camada_2_00000052824541040971682270000012917454593513514389_"
	 xmlns="http://www.w3.org/2000/svg" xmlns:xlink="http://www.w3.org/1999/xlink" x="0px" y="0px" viewBox="0 0 143.7 143.7"
	 style="enable-background:new 0 0 143.7 143.7;" xml:space="preserve">
<style type="text/css">
	.st0{fill:url(#SVGID_1_);}
	.st1{fill:url(#SVGID_00000151540102183787705300000011517289849503158446_);}
	.st2{fill:url(#SVGID_00000105403886053101278220000014977913227908134285_);}
</style>
<g id="ELEMENTS">
	<g>
		<linearGradient id="SVGID_1_" gradientUnits="userSpaceOnUse" x1="31.6" y1="74.8" x2="112.1" y2="74.8">
			<stop  offset="0" style="stop-color:#FA12E3"/>
			<stop  offset="0.5362" style="stop-color:#7312FA"/>
			<stop  offset="1" style="stop-color:#415CA7"/>
		</linearGradient>
		<path class="st0" d="M65.1,85.9L31.6,47.8v52.3c0,0.9,0.7,1.7,1.7,1.7h77.1c0.9,0,1.7-0.8,1.7-1.7V47.8L78.6,85.9
			C75,90,68.7,90,65.1,85.9z"/>
		
			<linearGradient id="SVGID_00000082344595810580989350000013355768007267015327_" gradientUnits="userSpaceOnUse" x1="-3.608199e-02" y1="71.8028" x2="143.6418" y2="71.8028">
			<stop  offset="0" style="stop-color:#FA12E3"/>
			<stop  offset="0.5362" style="stop-color:#7312FA"/>
			<stop  offset="1" style="stop-color:#415CA7"/>
		</linearGradient>
		<path style="fill:url(#SVGID_00000082344595810580989350000013355768007267015327_);" d="M143.6,69.5C142.4,31.9,111.8,1.2,74.2,0
			C32.7-1.3-1.3,32.7,0,74.2c1.2,37.6,31.8,68.2,69.4,69.4C111,145,145,111,143.6,69.5z M121.2,101.8c0,5.1-4.1,9.1-9.1,9.1H31.6
			c-5,0-9.1-4.1-9.1-9.1V41.9c0-5,4.1-9.1,9.1-9.1h80.5c5.1,0,9.1,4.1,9.1,9.1V101.8z"/>
		
			<linearGradient id="SVGID_00000169546698528638420050000014846026760502958979_" gradientUnits="userSpaceOnUse" x1="38.8" y1="60.4066" x2="104.9" y2="60.4066">
			<stop  offset="0" style="stop-color:#FA12E3"/>
			<stop  offset="0.5362" style="stop-color:#7312FA"/>
			<stop  offset="1" style="stop-color:#415CA7"/>
		</linearGradient>
		<path style="fill:url(#SVGID_00000169546698528638420050000014846026760502958979_);" d="M73.1,78.2L104.9,42H38.8l31.8,36.3
			C71.2,79,72.4,79,73.1,78.2z"/>
	</g>
</g>
</svg>
