<?xml version="1.0" encoding="utf-8"?>
<!-- Generator: Adobe Illustrator 28.1.0, SVG Export Plug-In . SVG Version: 6.00 Build 0)  -->
<svg version="1.1" id="Camada_2_00000012453638212752177840000010754816053301869206_"
	 xmlns="http://www.w3.org/2000/svg" xmlns:xlink="http://www.w3.org/1999/xlink" x="0px" y="0px" viewBox="0 0 143.4 140.5"
	 style="enable-background:new 0 0 143.4 140.5;" xml:space="preserve">
<style type="text/css">
	.st0{fill:url(#SVGID_1_);}
</style>
<g id="ELEMENTS">
	<linearGradient id="SVGID_1_" gradientUnits="userSpaceOnUse" x1="-2.723399e-02" y1="70.3179" x2="143.4472" y2="70.3179">
		<stop  offset="0" style="stop-color:#FA12E3"/>
		<stop  offset="0.5362" style="stop-color:#7312FA"/>
		<stop  offset="1" style="stop-color:#415CA7"/>
	</linearGradient>
	<path class="st0" d="M33.2,48.8c0.2-0.2-0.5-1.5-0.6-1.7c-0.3-0.8-0.5-1.6-0.7-2.4c-0.6-2.9-0.4-5.9-0.1-8.8c0.2-1.9-0.2-5.3,2.1-6
		c3.6-1.1,7.2,0.7,10.1,2.6c3,2,6.2,5.2,10.2,4.8c3.1-0.3,6.1-1.3,9.1-1.7c4.6-0.6,9.2-1,13.8-0.5c2,0.2,4,0.8,6,1.3
		s4.3,1.8,6.4,0.9c2-0.8,3.7-2.4,5.6-3.5c2.2-1.2,4.5-2.3,6.9-3.1c1.6-0.6,5.4-2.2,6.9-0.9c0.3,0.3,0.6,1,1,2.5
		c0.9,2.8,1.6,5.9,1.6,9c0,1.4-0.1,2.8-0.6,4.2s-1.6,2.8-0.5,4.2c2.4,3.1,4.5,6.5,5.6,10.4c4.2,14.8-0.9,32.7-15.3,39.8
		c-3.1,1.5-6.3,2.3-9.6,2.9c-0.6,0.1-1.1,0.1-1.7,0.2c-0.9,0.1-1.9,0.2-2.8,0.4c-0.4,0.1-0.8,0.1-1.2,0.2c-0.3,0.1-0.6,0.1-0.8,0.3
		c-0.4,0.3,0.3,0.6,0.5,0.7c0.3,0.2,0.6,0.6,0.9,0.9c1,1.3,1.7,2.9,2.2,4.5s0.8,3.2,0.9,4.9c0.1,1.1,0.1,2.3,0.2,3.4
		c0,6.4-0.6,13.1,0.3,19.5c0.3,1.9,1.8,3,3.8,2.8c2.7-0.3,5.5-1.8,7.9-2.9c14.5-6.5,26.9-18.1,34.3-32.3c0.3-0.6,0.6-1.1,0.8-1.7
		c3.3-7,4.5-12.8,5.4-17.1c0.7-3.7,1.9-9.7,1.6-17.6c-0.2-6.2-1.2-11.2-2-14.2c-0.8-3.2-2.8-10.1-7.2-17.9c-1.7-2.9-5.9-9.9-13.5-17
		C107.7,7.7,93.8,3.6,90.4,2.6c-5-1.4-20.6-5.1-38.4,0.1c-1.9,0.6-8,2.4-15.2,6.5C28,14.1,22.3,19.5,20.3,21.6
		C8.2,33.8,3.9,47.1,2.9,50.4c-3.4,11.3-3,20.5-2.8,25.2C0.8,88.2,4.3,97.3,5.4,100c4.6,11.2,10.8,18.3,12.7,20.5
		c3.8,4.2,8.4,8,13.1,11.1c2.8,1.9,5.9,3.6,9,5c1.6,0.8,3.2,1.5,4.8,2.2c1.4,0.6,2.9,1.4,4.4,1.6c0.4,0.1,1,0.1,1.7-0.1
		c0.3-0.1,1.2-0.4,1.8-1.1c0.7-0.8,0.8-1.8,0.8-2.2c0.7-9,1.2-13.4,0-13.7c-0.2,0-0.2,0.1-1,0.3c-1.1,0.4-1.9,0.5-3,0.6
		c-2.5,0.3-5.1,0.1-5.6,0.1c-3.4-0.3-7.1-1-10-3c-3.7-2.5-4.3-6.2-6.4-9.8c-1.1-1.9-2.2-3.9-3.9-5.4c-1.5-1.3-4.5-2.1-5.2-4.2
		c-0.9-2.7,4.1-1.5,5.2-1.2c2.7,0.7,5.4,2.1,7.3,4.3c1.7,1.9,2.7,4.4,4.4,6.4c2.3,2.7,5.8,3.9,9.3,4.2c2.3,0.2,4.9,0.4,7.1-0.3
		c1.5-0.5,1.7-1.6,2-3c0.4-1.8,0.9-3.8,2.2-5.2c0.5-0.5,2.6-2.1,2.1-3c-0.2-0.3-0.7,0-2-0.1c-6.9-0.3-13.6-3.3-19.3-7
		c-8.8-6-11.5-17.8-11.5-27.6C25.3,61.6,27.8,54.5,33.2,48.8L33.2,48.8z"/>
</g>
</svg>
