<?xml version="1.0" encoding="utf-8"?>
<!-- Generator: Adobe Illustrator 28.1.0, SVG Export Plug-In . SVG Version: 6.00 Build 0)  -->
<svg version="1.1" id="Camada_2_00000101079196694168544180000013446020010778881705_"
	 xmlns="http://www.w3.org/2000/svg" xmlns:xlink="http://www.w3.org/1999/xlink" x="0px" y="0px" viewBox="0 0 143.7 143.7"
	 style="enable-background:new 0 0 143.7 143.7;" xml:space="preserve">
<style type="text/css">
	.st0{fill:url(#SVGID_1_);}
	.st1{fill:url(#SVGID_00000069385885319225783520000002401446423955981970_);}
</style>
<g id="ELEMENTS">
	<g>
		<linearGradient id="SVGID_1_" gradientUnits="userSpaceOnUse" x1="0" y1="71.8" x2="143.6002" y2="71.8">
			<stop  offset="0" style="stop-color:#FA12E3"/>
			<stop  offset="0.5362" style="stop-color:#7312FA"/>
			<stop  offset="1" style="stop-color:#415CA7"/>
		</linearGradient>
		<path class="st0" d="M71.8,0L71.8,0C32.2,0,0,32.2,0,71.8l0,0c0,39.7,32.2,71.8,71.8,71.8l0,0c39.7,0,71.8-32.2,71.8-71.8l0,0
			C143.7,32.2,111.5,0,71.8,0z M72.3,114.5c-7.2,0-14.2-1.8-20.5-5.2l-23.5,6.3l6.3-23.4c-3.5-6.4-5.4-13.6-5.4-20.9
			c0-23.8,19.4-43.2,43.2-43.2s43.2,19.4,43.2,43.2S96.1,114.5,72.3,114.5z"/>
		
			<linearGradient id="SVGID_00000090996660375906630490000016653653387027282089_" gradientUnits="userSpaceOnUse" x1="37.3" y1="71.3" x2="107.3" y2="71.3">
			<stop  offset="0" style="stop-color:#FA12E3"/>
			<stop  offset="0.5362" style="stop-color:#7312FA"/>
			<stop  offset="1" style="stop-color:#415CA7"/>
		</linearGradient>
		<path style="fill:url(#SVGID_00000090996660375906630490000016653653387027282089_);" d="M72.3,36.3c-19.3,0-35,15.7-35,35
			c0,6.4,1.8,12.7,5.1,18.2l0.9,1.5l-3.5,13l13.1-3.5l1.5,0.9c5.4,3.2,11.6,4.9,17.9,4.9c19.3,0,35-15.7,35-35S91.6,36.3,72.3,36.3
			L72.3,36.3z M92.8,84.5c-1.3,3.2-4.5,5.2-7.8,5.8c-3.1,0.6-5.7-0.4-8.6-1.4c-2.6-0.9-5.1-2.1-7.4-3.5c-4.6-2.8-8.7-6.7-11.9-11
			c-1-1.3-1.9-2.7-2.7-4.2c-1.1-1.9-2.1-3.9-2.6-6.1c-0.2-0.9-0.3-1.8-0.3-2.7c0-3.2,1.2-6.5,3.8-8.6c1.5-1.2,3.7-1.7,5.4-0.8
			c1.8,1,2.8,3.6,3.6,5.4c0.7,1.4,1.4,3.3,1.1,4.9c-0.3,1.6-1.5,2.9-2.5,4.1c-0.7,0.8-0.8,1.5-0.2,2.3c3.3,5.6,7.9,9.6,14,12
			c0.8,0.3,1.5,0.2,2-0.4c1-1.3,2.1-3.8,3.7-4.4c2.1-0.9,4.4,0.3,6.2,1.4c1.7,1,4.4,2.2,4.9,4.2C93.4,82.6,93.2,83.6,92.8,84.5
			L92.8,84.5z"/>
	</g>
</g>
</svg>
