<?xml version="1.0" encoding="utf-8"?>
<!-- Generator: Adobe Illustrator 28.1.0, SVG Export Plug-In . SVG Version: 6.00 Build 0)  -->
<svg version="1.1" id="Capa_1" xmlns="http://www.w3.org/2000/svg" xmlns:xlink="http://www.w3.org/1999/xlink" x="0px" y="0px"
	 viewBox="0 0 800 800" style="enable-background:new 0 0 800 800;" xml:space="preserve">
<style type="text/css">
	.st0{fill:url(#SVGID_1_);}
	.st1{fill:url(#SVGID_00000034799555773387602600000007881692567074021531_);}
	.st2{fill:url(#SVGID_00000163771923063971861440000010321800608237624466_);}
</style>
<g id="SVGRepo_bgCarrier">
</g>
<g id="SVGRepo_tracerCarrier">
</g>
<g id="SVGRepo_iconCarrier">
	<g>
		<g>
			<linearGradient id="SVGID_1_" gradientUnits="userSpaceOnUse" x1="0" y1="400" x2="91.5227" y2="400">
				<stop  offset="0" style="stop-color:#FA12E3"/>
				<stop  offset="0.5362" style="stop-color:#7312FA"/>
				<stop  offset="1" style="stop-color:#415CA7"/>
			</linearGradient>
			<path class="st0" d="M45.8,274.6C20.5,274.6,0,295.1,0,320.4v159.2c0,25.3,20.5,45.8,45.8,45.8s45.8-20.5,45.8-45.8V320.4
				C91.5,295.1,71,274.6,45.8,274.6z"/>
			
				<linearGradient id="SVGID_00000037660606232911845890000002468573235000705430_" gradientUnits="userSpaceOnUse" x1="122.7319" y1="400" x2="677.3596" y2="400">
				<stop  offset="0" style="stop-color:#FA12E3"/>
				<stop  offset="0.5362" style="stop-color:#7312FA"/>
				<stop  offset="1" style="stop-color:#415CA7"/>
			</linearGradient>
			<path style="fill:url(#SVGID_00000037660606232911845890000002468573235000705430_);" d="M631.6,223.8
				c-25.3,0-45.8,20.5-45.8,45.8v93.8H214.3v-93.8c0-25.3-20.5-45.8-45.8-45.8s-45.8,20.5-45.8,45.8v260.8
				c0,25.3,20.5,45.8,45.8,45.8s45.8-20.5,45.8-45.8v-93.8h371.6v93.8c0,25.3,20.5,45.8,45.8,45.8s45.8-20.5,45.8-45.8V269.6
				C677.4,244.3,656.9,223.8,631.6,223.8z"/>
			
				<linearGradient id="SVGID_00000131343743060203336110000004958657004001447810_" gradientUnits="userSpaceOnUse" x1="708.4773" y1="400" x2="800" y2="400">
				<stop  offset="0" style="stop-color:#FA12E3"/>
				<stop  offset="0.5362" style="stop-color:#7312FA"/>
				<stop  offset="1" style="stop-color:#415CA7"/>
			</linearGradient>
			<path style="fill:url(#SVGID_00000131343743060203336110000004958657004001447810_);" d="M754.2,274.6
				c-25.3,0-45.8,20.5-45.8,45.8v159.2c0,25.3,20.5,45.8,45.8,45.8s45.8-20.5,45.8-45.8V320.4C800,295.1,779.5,274.6,754.2,274.6z"
				/>
		</g>
	</g>
</g>
</svg>
