<?xml version="1.0" encoding="utf-8"?>
<!-- Generator: Adobe Illustrator 28.1.0, SVG Export Plug-In . SVG Version: 6.00 Build 0)  -->
<svg version="1.1" id="Camada_1" xmlns="http://www.w3.org/2000/svg" xmlns:xlink="http://www.w3.org/1999/xlink" x="0px" y="0px"
	 viewBox="0 0 800 800" style="enable-background:new 0 0 800 800;" xml:space="preserve">
<style type="text/css">
	.st0{fill:url(#SVGID_1_);}
</style>
<g id="SVGRepo_bgCarrier">
</g>
<g id="SVGRepo_tracerCarrier">
</g>
<g id="SVGRepo_iconCarrier">
	<linearGradient id="SVGID_1_" gradientUnits="userSpaceOnUse" x1="141.6667" y1="400" x2="658.3333" y2="400">
		<stop  offset="0" style="stop-color:#FA12E3"/>
		<stop  offset="0.5362" style="stop-color:#7312FA"/>
		<stop  offset="1" style="stop-color:#415CA7"/>
	</linearGradient>
	<path class="st0" d="M458.3,66.7c0-13.8-11.2-25-25-25s-25,11.2-25,25v417.9c-28.3-26.6-66.4-42.9-108.3-42.9
		c-87.4,0-158.3,70.9-158.3,158.3S212.6,758.3,300,758.3c87.4,0,158.3-70.9,158.3-158.3V208.1c41.2,51,104.3,83.6,175,83.6
		c13.8,0,25-11.2,25-25c0-13.8-11.2-25-25-25C536.7,241.7,458.3,163.3,458.3,66.7z"/>
</g>
</svg>
