<?xml version="1.0" encoding="utf-8"?>
<!-- Generator: Adobe Illustrator 28.1.0, SVG Export Plug-In . SVG Version: 6.00 Build 0)  -->
<svg version="1.1" id="Camada_1" xmlns="http://www.w3.org/2000/svg" xmlns:xlink="http://www.w3.org/1999/xlink" x="0px" y="0px"
	 viewBox="0 0 800 800" style="enable-background:new 0 0 800 800;" xml:space="preserve">
<style type="text/css">
	.st0{fill:url(#SVGID_1_);}
</style>
<g id="SVGRepo_bgCarrier">
</g>
<g id="SVGRepo_tracerCarrier">
</g>
<g id="SVGRepo_iconCarrier">
	<linearGradient id="SVGID_1_" gradientUnits="userSpaceOnUse" x1="85.95" y1="430.025" x2="664.05" y2="430.025">
		<stop  offset="0" style="stop-color:#FA12E3"/>
		<stop  offset="0.5362" style="stop-color:#7312FA"/>
		<stop  offset="1" style="stop-color:#415CA7"/>
	</linearGradient>
	<path class="st0" d="M664,200.5L401.6,430.9v298.5l146,70.7H205.4l146.1-70.7V430.9L85.9,200.5h405l81.1-140.5l21.8,12.6L520,200.5
		L664,200.5L664,200.5z M602.8,224.1l-96.6,0.4l-29.8,51.6h68.6L602.8,224.1L602.8,224.1z M401.6,376.7c14.8,0,26.7-12,26.7-26.8
		s-12-26.7-26.7-26.7s-26.8,12-26.8,26.7C374.9,364.8,386.9,376.7,401.6,376.7z M147.2,224.1l58.2,51.9h242l29.7-51.4L147.2,224.1
		L147.2,224.1z"/>
</g>
</svg>
