<svg width="500" height="500" viewBox="0 0 500 500" fill="none" xmlns="http://www.w3.org/2000/svg">
<path d="M0 108.064H116.896V142.445H0V108.064ZM0 44.2129H116.896V78.594H0V44.2129ZM209.725 171.423H0V205.804H201.866C223.969 205.804 275.54 206.295 294.695 237.238V218.083C285.363 187.631 257.859 171.423 209.725 171.423ZM210.216 235.274H0V269.655H201.866C250.982 269.655 281.925 271.62 294.695 278.496V263.27C284.872 239.203 243.615 235.274 210.216 235.274ZM209.725 397.356H0V362.975H201.866C223.969 362.975 275.54 362.484 294.695 331.541V350.696C285.363 381.148 257.859 397.356 209.725 397.356ZM210.216 333.506H0V299.124H201.866C250.982 299.124 281.925 297.16 294.695 290.284V305.51C284.872 329.576 243.615 333.506 210.216 333.506ZM345.776 456.787H500V435.667H350.196C336.935 435.667 305.501 435.176 294.204 417.003V428.79C299.607 446.963 316.306 456.787 345.776 456.787ZM345.285 417.985H499.509V396.865H350.196C320.236 396.865 301.572 395.883 294.204 391.462V400.794C300.098 415.529 325.147 417.985 345.285 417.985Z" fill="#CCB0AB"/>
<path d="M303.348 368.428V298.826H327.681C332.53 298.826 336.529 299.664 339.678 301.341C342.827 302.995 345.172 305.227 346.713 308.036C348.254 310.823 349.024 313.916 349.024 317.314C349.024 320.305 348.492 322.775 347.427 324.723C346.385 326.672 345.003 328.212 343.281 329.345C341.581 330.478 339.735 331.316 337.741 331.86V332.54C339.871 332.676 342.012 333.423 344.164 334.783C346.317 336.142 348.118 338.091 349.568 340.628C351.018 343.166 351.743 346.27 351.743 349.94C351.743 353.43 350.95 356.568 349.364 359.354C347.778 362.141 345.274 364.35 341.853 365.981C338.432 367.613 333.98 368.428 328.497 368.428H303.348ZM311.776 360.952H328.497C334.003 360.952 337.911 359.887 340.222 357.757C342.556 355.605 343.722 352.999 343.722 349.94C343.722 347.584 343.122 345.409 341.921 343.415C340.72 341.399 339.01 339.79 336.789 338.589C334.569 337.366 331.941 336.754 328.905 336.754H311.776V360.952ZM311.776 329.413H327.409C329.947 329.413 332.235 328.915 334.274 327.918C336.336 326.921 337.968 325.516 339.168 323.704C340.392 321.891 341.004 319.761 341.004 317.314C341.004 314.256 339.939 311.661 337.809 309.532C335.679 307.379 332.303 306.303 327.681 306.303H311.776V329.413Z" fill="#CCB0AB"/>
<path d="M365.592 368.428V298.826H407.598V306.303H374.02V329.821H405.423V337.298H374.02V360.952H408.142V368.428H365.592Z" fill="#CCB0AB"/>
<path d="M422.79 298.826H432.849L456.503 356.601H457.319L480.973 298.826H491.033V368.428H483.148V315.547H482.468L460.717 368.428H453.105L431.354 315.547H430.674V368.428H422.79V298.826Z" fill="#CCB0AB"/>
</svg>
