<?xml version="1.0" encoding="utf-8"?>
<!-- Generator: Adobe Illustrator 28.1.0, SVG Export Plug-In . SVG Version: 6.00 Build 0)  -->
<svg version="1.1" id="Camada_1" xmlns="http://www.w3.org/2000/svg" xmlns:xlink="http://www.w3.org/1999/xlink" x="0px" y="0px"
	 viewBox="0 0 500 500" style="enable-background:new 0 0 500 500;" xml:space="preserve">
<style type="text/css">
	.st0{fill:url(#SVGID_1_);}
	.st1{fill:url(#SVGID_00000098194039227911135930000016353837521258470790_);}
	.st2{fill:url(#SVGID_00000114774939088746127950000005408999960969558703_);}
	.st3{fill:url(#SVGID_00000172406862941153244020000013761399681390540475_);}
</style>
<linearGradient id="SVGID_1_" gradientUnits="userSpaceOnUse" x1="0" y1="250.4999" x2="500" y2="250.4999">
	<stop  offset="0" style="stop-color:#FA12E3"/>
	<stop  offset="0.5362" style="stop-color:#7312FA"/>
	<stop  offset="1" style="stop-color:#415CA7"/>
</linearGradient>
<path class="st0" d="M0,108.1h116.9v34.4H0V108.1z M0,44.2h116.9v34.4H0V44.2z M209.7,171.4H0v34.4h201.9c22.1,0,73.7,0.5,92.8,31.4
	v-19.2C285.4,187.6,257.9,171.4,209.7,171.4z M210.2,235.3H0v34.4h201.9c49.1,0,80.1,2,92.8,8.8v-15.2
	C284.9,239.2,243.6,235.3,210.2,235.3z M209.7,397.4H0V363h201.9c22.1,0,73.7-0.5,92.8-31.4v19.2
	C285.4,381.1,257.9,397.4,209.7,397.4z M210.2,333.5H0v-34.4h201.9c49.1,0,80.1-2,92.8-8.8v15.2
	C284.9,329.6,243.6,333.5,210.2,333.5z M345.8,456.8H500v-21.1H350.2c-13.3,0-44.7-0.5-56-18.7v11.8
	C299.6,447,316.3,456.8,345.8,456.8z M345.3,418h154.2v-21.1H350.2c-30,0-48.6-1-56-5.4v9.3C300.1,415.5,325.1,418,345.3,418z"/>
<linearGradient id="SVGID_00000112597221257420037550000003887696168934501801_" gradientUnits="userSpaceOnUse" x1="303.348" y1="333.627" x2="351.743" y2="333.627">
	<stop  offset="0" style="stop-color:#FA12E3"/>
	<stop  offset="0.5362" style="stop-color:#7312FA"/>
	<stop  offset="1" style="stop-color:#415CA7"/>
</linearGradient>
<path style="fill:url(#SVGID_00000112597221257420037550000003887696168934501801_);" d="M303.3,368.4v-69.6h24.3
	c4.8,0,8.8,0.8,12,2.5c3.1,1.7,5.5,3.9,7,6.7c1.5,2.8,2.3,5.9,2.3,9.3c0,3-0.5,5.5-1.6,7.4c-1,1.9-2.4,3.5-4.1,4.6
	c-1.7,1.1-3.5,2-5.5,2.5v0.7c2.1,0.1,4.3,0.9,6.4,2.2c2.2,1.4,4,3.3,5.4,5.8c1.5,2.5,2.2,5.6,2.2,9.3c0,3.5-0.8,6.6-2.4,9.4
	c-1.6,2.8-4.1,5-7.5,6.6c-3.4,1.6-7.9,2.4-13.4,2.4H303.3z M311.8,361h16.7c5.5,0,9.4-1.1,11.7-3.2c2.3-2.2,3.5-4.8,3.5-7.8
	c0-2.4-0.6-4.5-1.8-6.5c-1.2-2-2.9-3.6-5.1-4.8c-2.2-1.2-4.8-1.8-7.9-1.8h-17.1V361z M311.8,329.4h15.6c2.5,0,4.8-0.5,6.9-1.5
	c2.1-1,3.7-2.4,4.9-4.2c1.2-1.8,1.8-3.9,1.8-6.4c0-3.1-1.1-5.7-3.2-7.8c-2.1-2.2-5.5-3.2-10.1-3.2h-15.9V329.4z"/>
<linearGradient id="SVGID_00000008110772549110911810000010367699182443804558_" gradientUnits="userSpaceOnUse" x1="365.592" y1="333.627" x2="408.142" y2="333.627">
	<stop  offset="0" style="stop-color:#FA12E3"/>
	<stop  offset="0.5362" style="stop-color:#7312FA"/>
	<stop  offset="1" style="stop-color:#415CA7"/>
</linearGradient>
<path style="fill:url(#SVGID_00000008110772549110911810000010367699182443804558_);" d="M365.6,368.4v-69.6h42v7.5H374v23.5h31.4
	v7.5H374V361h34.1v7.5H365.6z"/>
<linearGradient id="SVGID_00000139272900299870565280000013300250486996333189_" gradientUnits="userSpaceOnUse" x1="422.79" y1="333.627" x2="491.033" y2="333.627">
	<stop  offset="0" style="stop-color:#FA12E3"/>
	<stop  offset="0.5362" style="stop-color:#7312FA"/>
	<stop  offset="1" style="stop-color:#415CA7"/>
</linearGradient>
<path style="fill:url(#SVGID_00000139272900299870565280000013300250486996333189_);" d="M422.8,298.8h10.1l23.7,57.8h0.8l23.7-57.8
	H491v69.6h-7.9v-52.9h-0.7l-21.8,52.9h-7.6l-21.8-52.9h-0.7v52.9h-7.9V298.8z"/>
</svg>
