<svg width="500" height="500" viewBox="0 0 500 500" fill="none" xmlns="http://www.w3.org/2000/svg">
<path d="M289.831 201.997C289.831 182.689 276.174 172.03 252.187 172.03H208.064V234.235H245.271C273.985 234.148 289.831 222.615 289.831 201.997ZM450.475 190.814C442.158 163.818 440.933 130.706 441.896 105.107C442.859 78.4607 422.023 53.998 394.009 53.998H106.162C78.0607 53.998 57.3126 78.548 58.2756 105.107C59.1511 130.706 58.013 163.818 49.6963 190.814C41.292 217.898 27.1973 235.022 3.99805 237.206V262.105C27.1098 264.289 41.292 281.413 49.6963 308.497C58.013 335.493 59.2386 368.605 58.2756 394.203C57.3126 420.85 78.1482 445.313 106.162 445.313H393.921C422.023 445.313 442.771 420.763 441.808 394.203C440.933 368.605 442.071 335.493 450.387 308.497C458.792 281.413 472.886 264.289 495.998 262.105V237.206C472.974 235.022 458.792 217.898 450.475 190.814ZM260.678 353.753H174.972V145.558H260.241C298.148 145.558 323.01 166.002 323.01 197.454C323.01 219.558 306.289 239.302 284.928 242.71V243.846C313.993 246.991 333.515 267.085 333.515 294.78C333.515 331.562 306.114 353.753 260.678 353.753ZM251.924 258.785H208.064V327.281H253.85C283.79 327.281 299.636 315.311 299.636 292.771C299.636 270.318 283.353 258.785 251.924 258.785Z" fill="#CCB0AB"/>
</svg>
