<?xml version="1.0" encoding="utf-8"?>
<!-- Generator: Adobe Illustrator 28.1.0, SVG Export Plug-In . SVG Version: 6.00 Build 0)  -->
<svg version="1.1" id="Camada_1" xmlns="http://www.w3.org/2000/svg" xmlns:xlink="http://www.w3.org/1999/xlink" x="0px" y="0px"
	 viewBox="0 0 500 500" style="enable-background:new 0 0 500 500;" xml:space="preserve">
<style type="text/css">
	.st0{fill:url(#SVGID_1_);}
</style>
<linearGradient id="SVGID_1_" gradientUnits="userSpaceOnUse" x1="3.998" y1="249.6555" x2="495.998" y2="249.6555">
	<stop  offset="0" style="stop-color:#FA12E3"/>
	<stop  offset="0.5362" style="stop-color:#7312FA"/>
	<stop  offset="1" style="stop-color:#415CA7"/>
</linearGradient>
<path class="st0" d="M289.8,202c0-19.3-13.7-30-37.6-30h-44.1v62.2h37.2C274,234.1,289.8,222.6,289.8,202z M450.5,190.8
	c-8.3-27-9.5-60.1-8.6-85.7C442.9,78.5,422,54,394,54H106.2c-28.1,0-48.8,24.5-47.9,51.1c0.9,25.6-0.3,58.7-8.6,85.7
	C41.3,217.9,27.2,235,4,237.2v24.9c23.1,2.2,37.3,19.3,45.7,46.4c8.3,27,9.5,60.1,8.6,85.7c-1,26.6,19.9,51.1,47.9,51.1h287.8
	c28.1,0,48.9-24.5,47.9-51.1c-0.9-25.6,0.3-58.7,8.6-85.7c8.4-27.1,22.5-44.2,45.6-46.4v-24.9C473,235,458.8,217.9,450.5,190.8z
	 M260.7,353.8H175V145.6h85.3c37.9,0,62.8,20.4,62.8,51.9c0,22.1-16.7,41.8-38.1,45.3v1.1c29.1,3.1,48.6,23.2,48.6,50.9
	C333.5,331.6,306.1,353.8,260.7,353.8z M251.9,258.8h-43.9v68.5h45.8c29.9,0,45.8-12,45.8-34.5C299.6,270.3,283.4,258.8,251.9,258.8
	z"/>
</svg>
