<?xml version="1.0" encoding="utf-8"?>
<!-- Generator: Adobe Illustrator 28.1.0, SVG Export Plug-In . SVG Version: 6.00 Build 0)  -->
<svg version="1.1" id="Camada_1" xmlns="http://www.w3.org/2000/svg" xmlns:xlink="http://www.w3.org/1999/xlink" x="0px" y="0px"
	 viewBox="0 0 500 500" style="enable-background:new 0 0 500 500;" xml:space="preserve">
<style type="text/css">
	.st0{fill:url(#SVGID_1_);}
	.st1{fill-rule:evenodd;clip-rule:evenodd;fill:url(#SVGID_00000059998461059062225340000000053019259425409710_);}
</style>
<linearGradient id="SVGID_1_" gradientUnits="userSpaceOnUse" x1="163.645" y1="37.6283" x2="332.335" y2="37.6283">
	<stop  offset="0" style="stop-color:#FA12E3"/>
	<stop  offset="0.5362" style="stop-color:#7312FA"/>
	<stop  offset="1" style="stop-color:#415CA7"/>
</linearGradient>
<path class="st0" d="M163.6,4h49.6v22.1h-28.9v22.1h28.9v22.1h-49.6V4z M223.2,4h49.6v19.2h-28.9v3.8h28.9v44.2h-49.6V51.1H252v-3.9
	h-28.9V4z M282.7,4h49.6v19.2h-28.9v3.8h28.9v44.2h-49.6V51.1h28.9v-3.9h-28.9V4z"/>
<linearGradient id="SVGID_00000061430788666425793030000013303796093802094259_" gradientUnits="userSpaceOnUse" x1="76.998" y1="298.348" x2="423.425" y2="298.348">
	<stop  offset="0" style="stop-color:#FA12E3"/>
	<stop  offset="0.5362" style="stop-color:#7312FA"/>
	<stop  offset="1" style="stop-color:#415CA7"/>
</linearGradient>
<path style="fill-rule:evenodd;clip-rule:evenodd;fill:url(#SVGID_00000061430788666425793030000013303796093802094259_);" d="
	M250,496l-133.6-39.5L77,100.7h346.4L384,456.4L250,496z M154.9,261.7l3.7,43.6h142l-4.8,56.6l-45.7,13.2h0L204.4,362l-2.9-34.8
	h-41.1l5.7,68.5l83.9,24.8l84-24.8l10.2-122.3l1-11.7l7.4-88.3H147.5l3.7,43.6h156.6l-3.7,44.7H154.9z"/>
</svg>
