<svg width="500" height="500" viewBox="0 0 500 500" fill="none" xmlns="http://www.w3.org/2000/svg">
<path d="M163.645 3.99805H213.261V26.097H184.392V48.196H213.261V70.295H163.645V3.99805ZM223.172 3.99805H272.808V23.227H243.939V27.0605H272.808V71.2585H223.172V51.0865H252.041V47.2325H223.172V3.99805ZM282.739 3.99805H332.335V23.227H303.466V27.0605H332.335V71.2585H282.739V51.0865H311.608V47.2325H282.739V3.99805Z" fill="#CCB0AB"/>
<path fill-rule="evenodd" clip-rule="evenodd" d="M250.039 495.999L116.395 456.475L76.998 100.697H423.425L384.048 456.434L250.039 495.999ZM154.886 261.745L158.562 305.369H300.54L295.786 361.949L250.096 375.11H250.058L204.445 361.99L201.519 327.202H160.391L166.126 395.713L250.039 420.518L334.086 395.713L344.324 273.451L345.325 261.745L352.716 173.411H147.515L151.249 217.055H307.834L304.1 261.745H154.886Z" fill="#CCB0AB"/>
</svg>
