<?xml version="1.0" encoding="utf-8"?>
<!-- Generator: Adobe Illustrator 28.1.0, SVG Export Plug-In . SVG Version: 6.00 Build 0)  -->
<svg version="1.1" id="Camada_1" xmlns="http://www.w3.org/2000/svg" xmlns:xlink="http://www.w3.org/1999/xlink" x="0px" y="0px"
	 viewBox="0 0 500 500" style="enable-background:new 0 0 500 500;" xml:space="preserve">
<style type="text/css">
	.st0{fill:#FFFFFF;filter:url(#Adobe_OpacityMaskFilter);}
	.st1{mask:url(#mask0_336_86_00000002350226404700279390000011824498477515519392_);}
	.st2{opacity:0.8;fill:url(#SVGID_1_);}
	.st3{opacity:0.8;fill:url(#SVGID_00000098909600330941782510000007344144288891011723_);}
	.st4{fill:url(#SVGID_00000008139317427342013870000011731654119135265175_);}
	.st5{opacity:0.8;fill:url(#SVGID_00000093146890831920767350000018405876524437264031_);}
	.st6{fill:url(#SVGID_00000160154454175239003260000005231831558815710380_);}
</style>
<defs>
	<filter id="Adobe_OpacityMaskFilter" filterUnits="userSpaceOnUse" x="86.1" y="0" width="327.5" height="500">
		<feColorMatrix  type="matrix" values="1 0 0 0 0  0 1 0 0 0  0 0 1 0 0  0 0 0 1 0"/>
	</filter>
</defs>
<mask maskUnits="userSpaceOnUse" x="86.1" y="0" width="327.5" height="500" id="mask0_336_86_00000002350226404700279390000011824498477515519392_">
	<path class="st0" d="M86.1,0h327.6v500H86.1V0z"/>
</mask>
<g class="st1">
	<linearGradient id="SVGID_1_" gradientUnits="userSpaceOnUse" x1="249.875" y1="250.0015" x2="413.646" y2="250.0015">
		<stop  offset="0" style="stop-color:#FA12E3"/>
		<stop  offset="0.5362" style="stop-color:#7312FA"/>
		<stop  offset="1" style="stop-color:#415CA7"/>
	</linearGradient>
	<path class="st2" d="M249.9,250c0-5.5,0.5-10.9,1.6-16.3c1-5.4,2.6-10.6,4.7-15.6c2.1-5.1,4.6-9.9,7.6-14.4
		c3-4.5,6.4-8.8,10.2-12.6s7.9-7.3,12.4-10.4c4.5-3,9.2-5.6,14.2-7.7c5-2.1,10.1-3.7,15.4-4.7c5.3-1.1,10.6-1.6,16-1.6
		c5.4,0,10.7,0.5,16,1.6c5.3,1.1,10.4,2.6,15.4,4.7c5,2.1,9.7,4.7,14.2,7.7c4.5,3,8.6,6.5,12.4,10.4s7.2,8.1,10.2,12.6
		c3,4.5,5.5,9.4,7.6,14.4c2.1,5.1,3.6,10.3,4.7,15.6c1,5.4,1.6,10.8,1.6,16.3c0,5.5-0.5,10.9-1.6,16.3c-1,5.4-2.6,10.6-4.7,15.6
		c-2.1,5.1-4.6,9.9-7.6,14.4c-3,4.5-6.4,8.8-10.2,12.6s-7.9,7.3-12.4,10.4c-4.5,3-9.2,5.6-14.2,7.7c-5,2.1-10.1,3.7-15.4,4.7
		c-5.3,1.1-10.6,1.6-16,1.6c-5.4,0-10.7-0.5-16-1.6c-5.3-1.1-10.4-2.6-15.4-4.7c-5-2.1-9.7-4.7-14.2-7.7c-4.5-3-8.6-6.5-12.4-10.4
		s-7.2-8.1-10.2-12.6c-3-4.6-5.5-9.4-7.6-14.4c-2.1-5.1-3.6-10.3-4.7-15.6C250.4,260.9,249.9,255.5,249.9,250z"/>
	
		<linearGradient id="SVGID_00000103960983391956668650000004487145889350946223_" gradientUnits="userSpaceOnUse" x1="86.1055" y1="416.6675" x2="249.876" y2="416.6675">
		<stop  offset="0" style="stop-color:#FA12E3"/>
		<stop  offset="0.5362" style="stop-color:#7312FA"/>
		<stop  offset="1" style="stop-color:#415CA7"/>
	</linearGradient>
	<path style="opacity:0.8;fill:url(#SVGID_00000103960983391956668650000004487145889350946223_);" d="M86.1,416.7
		c0-5.5,0.5-10.9,1.6-16.3c1-5.4,2.6-10.6,4.7-15.6c2.1-5.1,4.6-9.9,7.6-14.4c3-4.5,6.4-8.8,10.2-12.6c3.8-3.9,7.9-7.3,12.4-10.4
		c4.5-3,9.2-5.6,14.2-7.7c5-2.1,10.1-3.7,15.4-4.7c5.3-1.1,10.6-1.6,16-1.6h81.9v83.3c0,5.5-0.5,10.9-1.6,16.3
		c-1,5.4-2.6,10.6-4.7,15.6c-2.1,5.1-4.6,9.9-7.6,14.4c-3,4.5-6.4,8.8-10.2,12.6c-3.8,3.9-7.9,7.3-12.4,10.4
		c-4.5,3-9.2,5.6-14.2,7.7c-5,2.1-10.1,3.7-15.4,4.7c-5.3,1.1-10.6,1.6-16,1.6s-10.7-0.5-16-1.6c-5.3-1.1-10.4-2.6-15.4-4.7
		c-5-2.1-9.7-4.7-14.2-7.7c-4.5-3-8.6-6.5-12.4-10.4c-3.8-3.9-7.2-8.1-10.2-12.6c-3-4.5-5.5-9.4-7.6-14.4
		c-2.1-5.1-3.6-10.3-4.7-15.6C86.6,427.6,86.1,422.1,86.1,416.7z"/>
	
		<linearGradient id="SVGID_00000176013762124248007660000016569137895388609713_" gradientUnits="userSpaceOnUse" x1="249.875" y1="83.3335" x2="413.646" y2="83.3335">
		<stop  offset="0" style="stop-color:#FA12E3"/>
		<stop  offset="0.5362" style="stop-color:#7312FA"/>
		<stop  offset="1" style="stop-color:#415CA7"/>
	</linearGradient>
	<path style="fill:url(#SVGID_00000176013762124248007660000016569137895388609713_);" d="M249.9,0v166.7h81.9
		c5.4,0,10.7-0.5,16-1.6c5.3-1.1,10.4-2.6,15.4-4.7c5-2.1,9.7-4.7,14.2-7.7c4.5-3,8.6-6.5,12.4-10.4s7.2-8.1,10.2-12.6
		c3-4.5,5.5-9.4,7.6-14.4c2.1-5.1,3.6-10.3,4.7-15.6c1-5.4,1.6-10.8,1.6-16.3c0-5.5-0.5-10.9-1.6-16.3c-1-5.4-2.6-10.6-4.7-15.6
		c-2.1-5.1-4.6-9.9-7.6-14.4s-6.4-8.8-10.2-12.6s-7.9-7.3-12.4-10.4c-4.5-3-9.2-5.6-14.2-7.7c-5-2.1-10.1-3.7-15.4-4.7
		c-5.3-1.1-10.6-1.6-16-1.6H249.9z"/>
	
		<linearGradient id="SVGID_00000073679829171322365800000004577978576845634457_" gradientUnits="userSpaceOnUse" x1="86.1055" y1="83.3335" x2="249.876" y2="83.3335">
		<stop  offset="0" style="stop-color:#FA12E3"/>
		<stop  offset="0.5362" style="stop-color:#7312FA"/>
		<stop  offset="1" style="stop-color:#415CA7"/>
	</linearGradient>
	<path style="opacity:0.8;fill:url(#SVGID_00000073679829171322365800000004577978576845634457_);" d="M86.1,83.3
		c0,5.5,0.5,10.9,1.6,16.3c1,5.4,2.6,10.6,4.7,15.6c2.1,5.1,4.6,9.9,7.6,14.4c3,4.5,6.4,8.8,10.2,12.6c3.8,3.9,7.9,7.3,12.4,10.4
		c4.5,3,9.2,5.6,14.2,7.7c5,2.1,10.1,3.7,15.4,4.7c5.3,1.1,10.6,1.6,16,1.6h81.9V0H168c-5.4,0-10.7,0.5-16,1.6
		c-5.3,1.1-10.4,2.6-15.4,4.7c-5,2.1-9.7,4.7-14.2,7.7c-4.5,3-8.6,6.5-12.4,10.4c-3.8,3.9-7.2,8.1-10.2,12.6
		c-3,4.5-5.5,9.4-7.6,14.4c-2.1,5.1-3.6,10.3-4.7,15.6C86.6,72.4,86.1,77.9,86.1,83.3z"/>
	
		<linearGradient id="SVGID_00000104686778174147731500000001747317891781849743_" gradientUnits="userSpaceOnUse" x1="86.1055" y1="250.0015" x2="249.876" y2="250.0015">
		<stop  offset="0" style="stop-color:#FA12E3"/>
		<stop  offset="0.5362" style="stop-color:#7312FA"/>
		<stop  offset="1" style="stop-color:#415CA7"/>
	</linearGradient>
	<path style="fill:url(#SVGID_00000104686778174147731500000001747317891781849743_);" d="M86.1,250c0,5.5,0.5,10.9,1.6,16.3
		c1,5.4,2.6,10.6,4.7,15.6c2.1,5.1,4.6,9.9,7.6,14.4c3,4.5,6.4,8.8,10.2,12.6c3.8,3.9,7.9,7.3,12.4,10.4c4.5,3,9.2,5.6,14.2,7.7
		c5,2.1,10.1,3.7,15.4,4.7c5.3,1.1,10.6,1.6,16,1.6h81.9V166.7H168c-5.4,0-10.7,0.5-16,1.6c-5.3,1.1-10.4,2.6-15.4,4.7
		c-5,2.1-9.7,4.7-14.2,7.7c-4.5,3-8.6,6.5-12.4,10.4c-3.8,3.9-7.2,8.1-10.2,12.6c-3,4.5-5.5,9.4-7.6,14.4
		c-2.1,5.1-3.6,10.3-4.7,15.6C86.6,239.1,86.1,244.5,86.1,250z"/>
</g>
</svg>
