<svg width="500" height="500" viewBox="0 0 500 500" fill="none" xmlns="http://www.w3.org/2000/svg">
<mask id="mask0_336_86" style="mask-type:luminance" maskUnits="userSpaceOnUse" x="86" y="0" width="328" height="500">
<path d="M86.0859 0H413.672V500H86.0859V0Z" fill="white"/>
</mask>
<g mask="url(#mask0_336_86)">
<path d="M249.875 250.001C249.875 244.53 250.399 239.11 251.448 233.744C252.497 228.377 254.051 223.166 256.108 218.111C258.166 213.056 260.688 208.253 263.675 203.704C266.662 199.154 270.057 194.945 273.859 191.076C277.661 187.207 281.797 183.752 286.267 180.712C290.738 177.672 295.457 175.105 300.424 173.011C305.392 170.917 310.512 169.337 315.785 168.269C321.059 167.202 326.384 166.668 331.76 166.668C337.137 166.668 342.462 167.202 347.735 168.269C353.009 169.337 358.129 170.917 363.097 173.011C368.064 175.105 372.783 177.672 377.253 180.712C381.724 183.752 385.86 187.207 389.662 191.076C393.464 194.945 396.859 199.154 399.846 203.704C402.833 208.253 405.355 213.056 407.413 218.111C409.47 223.166 411.023 228.377 412.072 233.744C413.121 239.11 413.646 244.53 413.646 250.001C413.646 255.473 413.121 260.892 412.072 266.259C411.023 271.625 409.47 276.836 407.413 281.892C405.355 286.947 402.833 291.749 399.846 296.299C396.859 300.848 393.464 305.058 389.662 308.927C385.86 312.796 381.724 316.25 377.253 319.29C372.783 322.33 368.064 324.897 363.097 326.991C358.129 329.085 353.009 330.666 347.735 331.733C342.462 332.801 337.137 333.335 331.76 333.335C326.384 333.335 321.059 332.801 315.785 331.733C310.512 330.666 305.392 329.085 300.424 326.991C295.457 324.897 290.738 322.33 286.267 319.29C281.797 316.25 277.661 312.796 273.859 308.927C270.057 305.058 266.662 300.848 263.675 296.299C260.688 291.749 258.166 286.947 256.108 281.892C254.051 276.836 252.497 271.625 251.448 266.259C250.399 260.892 249.875 255.473 249.875 250.001Z" fill="#CCB0AB"/>
<path d="M86.1055 416.667C86.1055 411.196 86.6299 405.776 87.6789 400.41C88.7278 395.043 90.2811 389.832 92.3386 384.777C94.3962 379.722 96.9185 374.919 99.9056 370.37C102.893 365.82 106.287 361.611 110.089 357.742C113.891 353.873 118.027 350.418 122.498 347.378C126.968 344.338 131.687 341.771 136.655 339.677C141.622 337.583 146.742 336.003 152.016 334.935C157.289 333.868 162.614 333.334 167.991 333.334H249.876V416.667C249.876 422.139 249.352 427.558 248.303 432.925C247.254 438.291 245.701 443.502 243.643 448.558C241.586 453.613 239.063 458.415 236.076 462.965C233.089 467.514 229.694 471.724 225.893 475.593C222.091 479.462 217.955 482.916 213.484 485.956C209.013 488.996 204.294 491.563 199.327 493.657C194.36 495.751 189.239 497.332 183.966 498.399C178.693 499.467 173.368 500.001 167.991 500.001C162.614 500.001 157.289 499.467 152.016 498.399C146.742 497.332 141.622 495.751 136.655 493.657C131.687 491.563 126.968 488.996 122.498 485.956C118.027 482.916 113.891 479.462 110.089 475.593C106.287 471.724 102.893 467.514 99.9057 462.965C96.9185 458.415 94.3962 453.613 92.3386 448.558C90.2811 443.502 88.7278 438.291 87.6789 432.925C86.6299 427.558 86.1055 422.139 86.1055 416.667Z" fill="#CCB0AB"/>
<path d="M249.875 0V166.667H331.76C337.137 166.667 342.462 166.133 347.735 165.065C353.009 163.998 358.129 162.417 363.097 160.323C368.064 158.229 372.783 155.662 377.253 152.622C381.724 149.582 385.86 146.128 389.662 142.259C393.464 138.39 396.859 134.18 399.846 129.631C402.833 125.081 405.355 120.279 407.413 115.224C409.47 110.168 411.023 104.957 412.072 99.5908C413.121 94.2242 413.646 88.8051 413.646 83.3333C413.646 77.8616 413.121 72.4424 412.072 67.0758C411.023 61.7092 409.47 56.4983 407.413 51.443C405.355 46.3878 402.833 41.5854 399.846 37.0358C396.859 32.4862 393.464 28.2769 389.662 24.4078C385.86 20.5387 381.724 17.0841 377.253 14.0442C372.783 11.0043 368.064 8.43732 363.097 6.34337C358.129 4.24943 353.009 2.66871 347.735 1.60123C342.462 0.533742 337.137 0 331.76 0H249.875Z" fill="#BE9C96"/>
<path d="M86.1055 83.3333C86.1055 88.8051 86.6299 94.2242 87.6789 99.5908C88.7278 104.957 90.2811 110.168 92.3386 115.224C94.3962 120.279 96.9185 125.081 99.9057 129.631C102.893 134.18 106.287 138.39 110.089 142.259C113.891 146.128 118.027 149.582 122.498 152.622C126.968 155.662 131.687 158.229 136.655 160.323C141.622 162.417 146.742 163.998 152.016 165.065C157.289 166.133 162.614 166.667 167.991 166.667H249.876V0H167.991C162.614 -6.52282e-07 157.289 0.533741 152.016 1.60122C146.742 2.66871 141.622 4.24942 136.655 6.34337C131.687 8.43732 126.968 11.0043 122.498 14.0442C118.027 17.0841 113.891 20.5387 110.089 24.4078C106.287 28.2769 102.893 32.4862 99.9057 37.0358C96.9185 41.5854 94.3962 46.3878 92.3386 51.443C90.2811 56.4983 88.7278 61.7092 87.6789 67.0758C86.6299 72.4424 86.1055 77.8616 86.1055 83.3333Z" fill="#CCB0AB"/>
<path d="M86.1055 250.001C86.1055 255.473 86.6299 260.892 87.6789 266.259C88.7278 271.625 90.2811 276.836 92.3386 281.892C94.3962 286.947 96.9185 291.749 99.9057 296.299C102.893 300.848 106.287 305.058 110.089 308.927C113.891 312.796 118.027 316.25 122.498 319.29C126.968 322.33 131.687 324.897 136.655 326.991C141.622 329.085 146.742 330.666 152.016 331.733C157.289 332.801 162.614 333.335 167.991 333.335H249.876V166.668H167.991C162.614 166.668 157.289 167.202 152.016 168.269C146.742 169.337 141.622 170.917 136.655 173.011C131.687 175.105 126.968 177.672 122.498 180.712C118.027 183.752 113.891 187.207 110.089 191.076C106.287 194.945 102.893 199.154 99.9057 203.704C96.9185 208.253 94.3962 213.056 92.3386 218.111C90.2811 223.166 88.7278 228.377 87.6789 233.744C86.6299 239.11 86.1055 244.53 86.1055 250.001Z" fill="#BE9C96"/>
</g>
</svg>
