<svg width="500" height="500" viewBox="0 0 500 500" fill="none" xmlns="http://www.w3.org/2000/svg">
<path d="M142.792 318.785C185.182 321.674 194.241 320.627 194.241 329.206C194.241 346.662 137.031 346.714 137.031 330.533C137.04 326.09 139.903 322.329 142.792 318.785ZM167.186 216.986C139.004 216.986 137.73 255.798 166.531 255.798C194.905 255.798 194.206 216.986 167.186 216.986ZM446 96.8929V404.107C446 415.218 441.586 425.873 433.73 433.73C425.873 441.586 415.218 446 404.107 446H96.8929C85.7822 446 75.1266 441.586 67.2701 433.73C59.4137 425.873 55 415.218 55 404.107V96.8929C55 85.7822 59.4137 75.1266 67.2701 67.2701C75.1266 59.4137 85.7822 55 96.8929 55H404.107C415.218 55 425.873 59.4137 433.73 67.2701C441.586 75.1266 446 85.7822 446 96.8929ZM247.882 157.384C247.882 170.031 255.195 177.353 267.833 177.353C280.698 177.353 288.02 170.031 288.02 157.384C288.02 144.738 280.715 137.913 267.851 137.913C255.213 137.913 247.882 144.755 247.882 157.384ZM228.838 197.261H185.592C163.773 191.545 114.409 193.028 114.409 238.063C114.409 254.471 122.613 265.992 133.479 271.324C119.786 283.866 113.301 289.775 113.301 298.153C113.301 304.149 115.736 309.691 123.058 312.781C115.291 320.112 110.84 325.418 110.84 335.403C110.857 352.919 126.157 363.087 166.295 363.087C204.889 363.087 227.276 348.678 227.276 323.175C227.276 291.171 202.637 292.349 144.563 288.806L151.877 277.085C166.714 281.221 216.628 282.522 216.628 240.053C216.628 229.85 212.412 222.755 208.424 217.649L228.829 216.095L228.838 197.261ZM302.447 293.126L291.101 291.572C287.767 291.127 287.549 290.7 287.549 287.13V195.097H241.641L239.206 213.05C252.952 217.893 254.043 217.291 254.043 221.926V287.156C254.043 292.061 253.773 291.154 239.206 293.152V310.66H302.412L302.447 293.126ZM390.143 301.993L384.147 282.469C348.425 295.884 351.113 271.638 351.113 267.868V214.874H384.147V192.697H352.884C350.38 192.697 351.139 194.896 351.139 158.982H330.035C327.6 183.157 319.841 192.915 300.361 195.132V214.874C318.227 214.874 317.659 214.132 317.659 217.09V275.191C317.659 300.257 327.635 310.896 354.028 310.896C366.639 310.896 380.604 306.68 390.143 301.993Z" fill="#CCB0AB"/>
</svg>
