<?xml version="1.0" encoding="utf-8"?>
<!-- Generator: Adobe Illustrator 28.1.0, SVG Export Plug-In . SVG Version: 6.00 Build 0)  -->
<svg version="1.1" id="Camada_1" xmlns="http://www.w3.org/2000/svg" xmlns:xlink="http://www.w3.org/1999/xlink" x="0px" y="0px"
	 viewBox="0 0 500 500" style="enable-background:new 0 0 500 500;" xml:space="preserve">
<style type="text/css">
	.st0{fill:url(#SVGID_1_);}
</style>
<linearGradient id="SVGID_1_" gradientUnits="userSpaceOnUse" x1="55" y1="250.5" x2="446" y2="250.5">
	<stop  offset="0" style="stop-color:#FA12E3"/>
	<stop  offset="0.5362" style="stop-color:#7312FA"/>
	<stop  offset="1" style="stop-color:#415CA7"/>
</linearGradient>
<path class="st0" d="M142.8,318.8c42.4,2.9,51.4,1.8,51.4,10.4c0,17.5-57.2,17.5-57.2,1.3C137,326.1,139.9,322.3,142.8,318.8z
	 M167.2,217c-28.2,0-29.5,38.8-0.7,38.8C194.9,255.8,194.2,217,167.2,217z M446,96.9v307.2c0,11.1-4.4,21.8-12.3,29.6
	c-7.9,7.9-18.5,12.3-29.6,12.3H96.9c-11.1,0-21.8-4.4-29.6-12.3c-7.9-7.9-12.3-18.5-12.3-29.6V96.9c0-11.1,4.4-21.8,12.3-29.6
	C75.1,59.4,85.8,55,96.9,55h307.2c11.1,0,21.8,4.4,29.6,12.3C441.6,75.1,446,85.8,446,96.9z M247.9,157.4c0,12.6,7.3,20,20,20
	c12.9,0,20.2-7.3,20.2-20c0-12.6-7.3-19.5-20.2-19.5C255.2,137.9,247.9,144.8,247.9,157.4z M228.8,197.3h-43.2
	c-21.8-5.7-71.2-4.2-71.2,40.8c0,16.4,8.2,27.9,19.1,33.3c-13.7,12.5-20.2,18.5-20.2,26.8c0,6,2.4,11.5,9.8,14.6
	c-7.8,7.3-12.2,12.6-12.2,22.6c0,17.5,15.3,27.7,55.5,27.7c38.6,0,61-14.4,61-39.9c0-32-24.6-30.8-82.7-34.4l7.3-11.7
	c14.8,4.1,64.8,5.4,64.8-37c0-10.2-4.2-17.3-8.2-22.4l20.4-1.6L228.8,197.3z M302.4,293.1l-11.3-1.6c-3.3-0.4-3.6-0.9-3.6-4.4v-92
	h-45.9l-2.4,18c13.7,4.8,14.8,4.2,14.8,8.9v65.2c0,4.9-0.3,4-14.8,6v17.5h63.2L302.4,293.1z M390.1,302l-6-19.5
	c-35.7,13.4-33-10.8-33-14.6v-53h33v-22.2h-31.3c-2.5,0-1.7,2.2-1.7-33.7H330c-2.4,24.2-10.2,33.9-29.7,36.2v19.7
	c17.9,0,17.3-0.7,17.3,2.2v58.1c0,25.1,10,35.7,36.4,35.7C366.6,310.9,380.6,306.7,390.1,302z"/>
</svg>
