<?xml version="1.0" encoding="utf-8"?>
<!-- Generator: Adobe Illustrator 28.1.0, SVG Export Plug-In . SVG Version: 6.00 Build 0)  -->
<svg version="1.1" id="Camada_2_00000012453638212752177840000010754816053301869206_"
	 xmlns="http://www.w3.org/2000/svg" xmlns:xlink="http://www.w3.org/1999/xlink" x="0px" y="0px" viewBox="0 0 143.4 140.5"
	 style="enable-background:new 0 0 143.4 140.5;" xml:space="preserve">
<style type="text/css">
	.st0{fill:url(#SVGID_1_);}
	.st1{opacity:0.4;}
	.st2{fill:url(#SVGID_00000000904072283070528830000013461342214880789930_);}
</style>
<g>
	<g>
		<linearGradient id="SVGID_1_" gradientUnits="userSpaceOnUse" x1="0.244" y1="70.25" x2="143.156" y2="70.25">
			<stop  offset="0" style="stop-color:#FA12E3"/>
			<stop  offset="0.5362" style="stop-color:#7312FA"/>
			<stop  offset="1" style="stop-color:#415CA7"/>
		</linearGradient>
		<path class="st0" d="M24.9,58.2c-0.8-0.4-1.6-0.9-2.5-1.2c-0.9-0.3-1.9-0.6-3-0.8c-1.1-0.2-2.2-0.3-3.5-0.3c-2.3,0-4.5,0.4-6.4,1
			c-1.9,0.7-3.6,1.7-5,2.9c-1.3,1.3-2.4,2.8-3.2,4.5c-0.7,1.7-1.1,3.7-1.1,5.8c0,2,0.4,4,1.2,5.7c0.8,1.7,1.8,3.3,3.2,4.5
			c1.3,1.3,3,2.3,4.8,3s3.9,1.1,6,1.1c1.2,0,2.3,0,3.3-0.2c1-0.1,2-0.3,2.9-0.5c0.9-0.2,1.8-0.6,2.6-0.9c0.8-0.4,1.6-0.8,2.4-1.3
			c0.1-0.1,0.2-0.2,0.2-0.4V69.8c0-0.3-0.2-0.5-0.5-0.5H16.2c-0.3,0-0.5,0.2-0.5,0.5v4.6c0,0.3,0.2,0.5,0.5,0.5h3.7v3.2
			c-0.5,0.2-1,0.3-1.6,0.4c-0.7,0.2-1.5,0.2-2.3,0.2c-1.2,0-2.2-0.2-3.1-0.6s-1.8-0.9-2.5-1.6c-0.7-0.7-1.2-1.6-1.6-2.6
			c-0.4-1-0.6-2.3-0.6-3.7c0-1.2,0.2-2.3,0.6-3.3c0.4-1,0.9-1.8,1.5-2.5c0.6-0.7,1.4-1.2,2.4-1.6c0.9-0.4,2-0.6,3.2-0.6
			c0.6,0,1.2,0,1.7,0.1c0.5,0,1,0.2,1.5,0.3c0.5,0.1,0.9,0.3,1.3,0.5c0.5,0.2,2.6,1.4,3.1,1.7c0.4,0.2,0.6,0.2,0.8-0.1l2.9-4.2
			c0.2-0.2,0.1-0.5-0.1-0.7C26.3,59.2,25.6,58.7,24.9,58.2L24.9,58.2z M50.2,74.1c-0.3-0.5-0.7-0.9-1.1-1.2
			c-0.1-0.1-0.3-0.2-0.4-0.3c0.6-0.3,1.1-0.6,1.6-1c0.8-0.6,1.4-1.2,1.9-1.9c0.5-0.7,0.9-1.5,1.2-2.3c0.3-0.8,0.4-1.7,0.4-2.6
			c0-1.2-0.2-2.3-0.7-3.4c-0.4-1-1.2-2-2.2-2.7c-1-0.8-2.2-1.3-3.8-1.7c-1.5-0.4-3.3-0.6-5.4-0.6h-9.3c-0.3,0-0.5,0.2-0.5,0.5v26.9
			c0,0.3,0.2,0.5,0.5,0.5h6.7c0.3,0,0.5-0.2,0.5-0.5v-9.5h1.2c0.5,0,0.8,0.1,1,0.2c0.2,0.1,0.4,0.3,0.6,0.6l4.8,7.8
			c0.6,1,1.5,1.4,2.8,1.4h6c0.3,0,0.5-0.2,0.5-0.5c0-0.2-0.1-0.3-0.2-0.4L50.2,74.1z M46,66.8c-0.2,0.4-0.4,0.8-0.8,1.2
			s-0.8,0.6-1.4,0.8c-0.6,0.2-1.3,0.3-2.1,0.3h-2.2v-7h2.2c1.6,0,2.8,0.3,3.5,0.9c0.7,0.6,1,1.3,1,2.4C46.3,65.8,46.2,66.3,46,66.8z
			 M83.7,56.3H77c-0.3,0-0.5,0.2-0.5,0.5v16c0,0.9-0.1,1.7-0.4,2.4c-0.2,0.7-0.6,1.3-1,1.7c-0.4,0.5-1,0.8-1.6,1.1
			c-1.3,0.5-3.1,0.5-4.4,0c-0.6-0.2-1.2-0.6-1.6-1.1c-0.4-0.5-0.8-1-1-1.7c-0.2-0.7-0.4-1.5-0.4-2.4v-16c0-0.3-0.2-0.5-0.5-0.5H59
			c-0.3,0-0.5,0.2-0.5,0.5v16c0,1.7,0.3,3.3,0.9,4.7c0.6,1.4,1.5,2.7,2.6,3.7c1.1,1,2.5,1.9,4,2.4c1.6,0.6,3.4,0.9,5.3,0.9
			c1.9,0,3.7-0.3,5.3-0.9c1.6-0.6,2.9-1.4,4-2.4c1.1-1,2-2.3,2.6-3.7c0.6-1.4,0.9-3,0.9-4.8v-16C84.2,56.5,84,56.3,83.7,56.3
			L83.7,56.3z M115,56.3h-5.9c-0.3,0-0.5,0.2-0.5,0.5v14.3c0,0.4,0,0.9,0,1.3L96,57.4c-0.2-0.2-0.4-0.4-0.6-0.6
			c-0.2-0.2-0.4-0.3-0.6-0.4c-0.2-0.1-0.4-0.2-0.7-0.2c-0.2,0-0.5,0-0.8,0h-3.5c-0.3,0-0.5,0.2-0.5,0.5v27c0,0.3,0.2,0.5,0.5,0.5
			h5.9c0.3,0,0.5-0.2,0.5-0.5V69.3c0-0.4,0-0.8,0-1.2l12.5,14.9c0.4,0.4,0.8,0.8,1.2,1c0.4,0.2,0.9,0.3,1.5,0.3h3.5
			c0.3,0,0.5-0.2,0.5-0.5v-27C115.5,56.5,115.3,56.3,115,56.3L115,56.3z M142.5,56.3h-22.8c-0.3,0-0.5,0.2-0.5,0.5v5
			c0,0.3,0.2,0.5,0.5,0.5h7.6v21.5c0,0.3,0.2,0.5,0.5,0.5h6.7c0.3,0,0.5-0.2,0.5-0.5V62.3h7.6c0.3,0,0.5-0.2,0.5-0.5v-5
			C143.1,56.5,142.8,56.3,142.5,56.3L142.5,56.3z"/>
	</g>
	<g id="SVGRepo_iconCarrier" class="st1">
		
			<linearGradient id="SVGID_00000069358090029707511070000006615518408267080577_" gradientUnits="userSpaceOnUse" x1="22.2506" y1="70.25" x2="121.0416" y2="70.25">
			<stop  offset="0" style="stop-color:#FA12E3"/>
			<stop  offset="0.5362" style="stop-color:#7312FA"/>
			<stop  offset="1" style="stop-color:#415CA7"/>
		</linearGradient>
		<path style="fill:url(#SVGID_00000069358090029707511070000006615518408267080577_);" d="M37.6,52.9c-0.3,2.6,1.4,5,1.4,5
			c0.2-2,0.6-3.3,1-4.3c0.1,2.7,0.8,6.1,3.3,8.9c1.8,2,9.3,6.1,14.3,1.6c0.3,0.6,0.5,1.4,0.8,2.2c0.8,2.7-0.7,6.6-0.7,6.6
			s3.9-4.5,3.6-8.5c2.8-0.1,5.6-2.2,5.5-5.1c0,0-4.9,2.7-9.2-2.3c-2.5-2.9-10.6-10.9-21.6-8.3c1.1,0.3,2.3,0.6,3.5,1.1h0
			C38.3,50.3,37.7,51.6,37.6,52.9L37.6,52.9z M45,52.5c5.1,2.9,9.7,6.7,11.7,9.6c-1.5,0.9-5.6,2.7-9.9-0.4
			C44.1,59.7,44.2,54.8,45,52.5L45,52.5z M82,64.4c-0.3,4,3.6,8.5,3.6,8.5s-1.5-3.9-0.7-6.6c0.2-0.8,0.5-1.6,0.8-2.2
			c5,4.5,12.5,0.4,14.3-1.6c2.5-2.8,3.2-6.2,3.3-8.9c0.5,1,0.9,2.4,1,4.3c0,0,1.7-2.4,1.4-5c-0.2-1.3-0.8-2.6-1.8-3.1h0
			c1.2-0.5,2.4-0.8,3.5-1.1c-11-2.7-19.1,5.4-21.6,8.3c-4.3,5-9.2,2.3-9.2,2.3C76.4,62.2,79.2,64.3,82,64.4z M98.3,52.5
			c0.8,2.4,0.9,7.2-1.8,9.2c-4.2,3.1-8.4,1.3-9.9,0.4C88.6,59.1,93.2,55.3,98.3,52.5L98.3,52.5z M63.3,112.6h-7.7
			c-1.4,0-2.1,0.4-2.5,0.8c-0.5,0.5-0.6,1.2-0.2,2.1c0.9,2.4,3,4.3,3.6,4.8c0.8,0.7,2,1.1,3.1,1.1c1.1,0,2.2-0.4,2.9-1.2
			c2-2.1,3.1-4.5,3.4-5.2c0.2-0.4,0.3-1.2-0.2-1.8C65.1,112.8,64.4,112.6,63.3,112.6L63.3,112.6z M112.6,86.2
			c-0.6,4.7-3.4,8.8-6.4,11.4c-0.8-5.9-1-14.4-1-16.2c0-3.8,2.5-6.4,3.2-6.8c0.6-0.4,1.4-0.8,2.2-1.2c4.7-2.5,10.5-5.6,10.5-11.4
			c0-4.2-2.4-6-4-7.2c-0.2-0.2-0.4-0.3-0.6-0.4c-0.5-0.4-1-0.8-1.1-1.1c-1.1-2.6-0.9-8.9-0.4-9.8c0.2-0.2,4.3-5.4,3.1-10.2
			c-0.5-1.9-1.8-3.5-3.7-4.4c-1.4-0.7-3.1-1.1-5.1-1.2c0-0.5-0.1-1-0.2-1.5c-0.2-0.7-0.3-1.4-0.2-2.1c0.1-1.2,0.2-2.3,0.6-2.9
			c2.2-3.5,7.5-4.6,7.6-4.6l3.2-0.6l-2.1-2.5c0,0-4.5-4.6-12.1-4.6c-2.1,0-4.2,0.3-6.3,1c-6.3,2-11.2,7.9-12.9,10.2
			c-0.8-0.3-1.6-0.5-2.5-0.7c-1.1-4.1,2.3-10,2.3-10s-3.5-0.8-8.8,4c-0.7-1.7-2.1-5.3-0.5-9.7c-7.7,2.7-9.6,6.8-10.2,10.6
			c-2-1.4-1.7-6-1.9-7.2c-2,0.2-7.6,5.7-7.3,12.6c-0.5,0.1-1,0.3-1.5,0.4c-1.7-2.3-6.5-8.2-12.9-10.2c-2.1-0.6-4.2-0.9-6.2-0.9
			c-7.6,0-12,4.5-12.1,4.6l-2.1,2.4l3.2,0.6c0,0,5.4,1.1,7.6,4.6c0.4,0.6,0.5,1.7,0.6,2.9c0,0.7-0.1,1.4-0.2,2.1
			c-0.1,0.5-0.2,1-0.2,1.5c-2,0.1-3.7,0.5-5.1,1.2c-1.9,1-3.1,2.5-3.7,4.4c-1.3,4.7,2.9,10,3.1,10.2c0.5,0.9,0.7,7.2-0.4,9.8
			c-0.2,0.4-0.6,0.7-1.1,1.1c-0.2,0.1-0.4,0.3-0.6,0.4c-1.6,1.2-4,3-4,7.2c0,5.8,5.8,8.9,10.5,11.4c0.8,0.4,1.5,0.8,2.2,1.2
			c0.7,0.4,3.2,3,3.2,6.8c0,1.8-0.2,10.3-1,16.2c-3-2.6-5.8-6.7-6.4-11.4c0,0-7.6,5.9-5.4,18.4c1.4,7.7,6,12,12.2,14.2
			c2.3,5,7.7,11.9,17.5,12.9c3.7,3.1,9,5.1,16.6,5.1h0c7.6,0,12.8-2,16.6-5.1c9.9-1,15.2-7.9,17.5-12.9c6.2-2.3,10.9-6.6,12.2-14.2
			C120.2,92.1,112.5,86.2,112.6,86.2L112.6,86.2z M101.2,13.5c1.5-0.5,3-0.7,4.6-0.7c2.9,0,5.2,0.8,6.4,1.3
			c-0.8,0.4-1.7,0.8-2.5,1.4c-0.6-0.1-1.5-0.2-2.4-0.2c-2.7,0-5.3,0.8-7.5,2.3c-3.2,2.3-4.7,4.4-5.4,5.8c-0.6-0.3-1.2-0.6-1.9-1
			c-0.4-0.2-0.8-0.4-1.2-0.6C93,19.5,96.6,15,101.2,13.5L101.2,13.5L101.2,13.5z M106.7,18.2c-0.2,0.3-0.4,0.5-0.6,0.8
			c-0.9,1.4-1,3-1.1,4.6c-0.1,1.7-0.3,3.3-1.1,4.4c-1.1,0.2-2.1,0.4-3,0.7c-0.6-0.8-1.5-1.8-2.7-2.9c0.4-1.2,1.4-4.2,3.5-5.9
			C103,18.9,104.8,18.3,106.7,18.2z M33.5,15.4c-0.9-0.6-1.7-1-2.5-1.4c1.2-0.5,3.6-1.3,6.4-1.3c1.6,0,3.1,0.2,4.6,0.7
			c4.6,1.5,8.2,6,9.8,8.4c-0.4,0.2-0.8,0.4-1.2,0.6c-0.6,0.3-1.3,0.6-1.9,1c-0.7-1.4-2.2-3.6-5.4-5.8c-2.2-1.5-4.7-2.3-7.5-2.3
			C35,15.2,34.2,15.3,33.5,15.4L33.5,15.4z M45.2,25.9C43.9,27,43,28,42.4,28.8c-0.9-0.2-1.9-0.5-3-0.7c-0.9-1.1-1-2.7-1.1-4.4
			c-0.1-1.6-0.3-3.3-1.1-4.6c-0.2-0.3-0.4-0.6-0.6-0.8c1.9,0.1,3.6,0.7,5.1,1.8C43.7,21.7,44.8,24.6,45.2,25.9z M36.8,71.3
			c-0.7-0.4-1.5-0.8-2.2-1.2c-3.9-2.1-7.9-4.2-7.9-7.9c0-2.9,1.1-3.8,2.3-4.7l0.1-0.1c0.2-0.2,0.4-0.3,0.6-0.5
			c-0.2,1.9-0.5,3.5-0.7,3.9c0,0,3.1-3.9,4.1-11.5c0.4-3-0.3-8.9-1.3-11.2c0,1.3,0,2.6-0.1,3.7c-0.1-0.2-0.2-0.4-0.3-0.6
			c-0.8-1-3.1-4.6-2.4-6.9c0.2-0.9,0.8-1.6,1.7-2c1-0.5,2.3-0.8,3.9-0.8c3.2,0,6.7,1,8.6,1.6c6.5,2.1,14.4,8,16.7,9.8
			c0,0,0.1,0.1,0.1,0.1l1.5,1l-0.9-1.5c0-0.1-5-8.2-13.8-12.1c0.5-0.8,1.9-2.1,5.6-3.9c5.6-2.7,12.1-4.1,19.3-4.1
			c7.3,0,13.8,1.4,19.3,4.1c3.7,1.8,5.1,3.2,5.6,3.9c-8.9,3.9-13.8,12-13.8,12.1l-0.9,1.5l1.5-1c0,0,0.1,0,0.1-0.1
			c2.3-1.8,10.2-7.8,16.7-9.8c1.8-0.6,5.4-1.6,8.6-1.6c1.6,0,2.9,0.3,3.9,0.8c0.9,0.5,1.5,1.1,1.7,2c0.6,2.4-1.6,5.9-2.5,6.9
			c-0.1,0.2-0.2,0.3-0.3,0.6c-0.1-1.2-0.1-2.5-0.1-3.7c-1,2.3-1.7,8.2-1.3,11.2c0.9,7.6,4.1,11.5,4.1,11.5c-0.2-0.4-0.5-2-0.7-3.9
			c0.2,0.2,0.4,0.3,0.6,0.5l0.1,0.1c1.2,1,2.3,1.9,2.3,4.7c0,3.7-4,5.9-7.9,7.9c-0.8,0.4-1.5,0.8-2.2,1.2c-2.3,1.3-4.7,4.3-5,8.9
			c-0.2,3.8,0.2,13,0.9,19.8c-3.2,1.2-7,1.7-10.3,1.8c-0.5-1.1-1-2.2-1.4-3.4c-0.2-0.5-5.1-13.3-6.9-16.2
			c1.4,10.2,4.6,19.2,6.1,23.3c-0.9-0.1-1.9-0.2-3-0.2H56.4c-1.1,0-2.2,0.1-3,0.2c1.6-4.1,4.7-13.2,6.1-23.3
			c-1.8,2.9-6.7,15.7-6.9,16.2c-0.4,1.2-0.9,2.3-1.4,3.4c-3.4-0.1-7.1-0.5-10.3-1.8c0.6-6.8,1.1-15.9,0.9-19.8
			C41.5,75.7,39,72.6,36.8,71.3z M30.7,109c-3.1-5.2-2.3-14.1-1-15.4c2.8,9,12.3,11.5,19.4,11.8c-0.7,1.1-1.4,2-1.8,2.6l-0.4,0.4
			c-1.9,2-2.2,4.8-1.1,8.3C40,116.6,33.8,114.1,30.7,109L30.7,109z M42.6,120.3c1.6,0.3,3.2,0.5,4.8,0.6c0.9,2.1,1.9,4.1,3.2,6
			C46.9,125.4,44.3,122.8,42.6,120.3z M71.6,133.3c-15.8,0-20.4-11.9-22.1-16.8c-1-2.7-0.9-4.7,0.2-6c0.8-0.9,2.5-1.9,6.4-1.9h30.9
			c3.9,0,5.7,1,6.4,1.9c1.1,1.2,1.2,3.3,0.2,6C92,121.4,87.4,133.3,71.6,133.3L71.6,133.3z M92.6,126.9c1.3-1.9,2.3-3.9,3.2-6
			c1.7-0.1,3.3-0.3,4.8-0.6C99,122.8,96.4,125.4,92.6,126.9z M112.6,109c-3.1,5.1-9.3,7.6-15.1,7.7c1.2-3.5,0.8-6.3-1.1-8.3
			c-0.1-0.1-0.2-0.3-0.4-0.4c-0.5-0.6-1.1-1.5-1.8-2.6c7.1-0.3,16.5-2.9,19.4-11.8C114.8,94.9,115.7,103.8,112.6,109z M71.6,52.5
			L71.6,52.5c3.4,0,7.1-4.6,7.1-4.6c-2.6,1.6-4.9,2.1-7.1,2.2c-2.2,0-4.5-0.6-7.1-2.2C64.5,47.9,68.3,52.5,71.6,52.5L71.6,52.5z
			 M87.7,112.6H80c-1.1,0-1.9,0.2-2.3,0.7c-0.6,0.6-0.4,1.4-0.2,1.7c0.3,0.7,1.4,2.9,3.4,5c0.7,0.8,1.7,1.2,2.9,1.2
			c1.1,0,2.3-0.4,3.1-1.1c0.6-0.5,2.7-2.4,3.6-4.7c0.3-0.9,0.3-1.6-0.2-2.1C89.8,113,89.1,112.6,87.7,112.6L87.7,112.6z"/>
	</g>
</g>
</svg>
