<?xml version="1.0" encoding="utf-8"?>
<!-- Generator: Adobe Illustrator 28.1.0, SVG Export Plug-In . SVG Version: 6.00 Build 0)  -->
<svg version="1.1" id="Camada_2_00000012453638212752177840000010754816053301869206_"
	 xmlns="http://www.w3.org/2000/svg" xmlns:xlink="http://www.w3.org/1999/xlink" x="0px" y="0px" viewBox="0 0 500 500"
	 style="enable-background:new 0 0 500 500;" xml:space="preserve">
<style type="text/css">
	.st0{fill:url(#SVGID_1_);}
	.st1{fill:url(#SVGID_00000124161539540331399620000000306427677429257133_);}
	.st2{opacity:0.35;fill:#121212;enable-background:new    ;}
</style>
<g>
	
		<linearGradient id="SVGID_1_" gradientUnits="userSpaceOnUse" x1="162.6644" y1="-96.85" x2="221.3134" y2="-96.85" gradientTransform="matrix(1 0 0 1 0 334)">
		<stop  offset="0" style="stop-color:#FA12E3"/>
		<stop  offset="0.54" style="stop-color:#7312FA"/>
		<stop  offset="1" style="stop-color:#415CA7"/>
	</linearGradient>
	<path class="st0" d="M185.7,229.6h-7.2v15.1h7.2c2.2,0,4.4-0.9,5.9-2.4s2.3-3.3,2.3-5.2C193.9,232.9,190.3,229.6,185.7,229.6z"/>
	
		<linearGradient id="SVGID_00000137107175823397683340000004981222578158668718_" gradientUnits="userSpaceOnUse" x1="4" y1="-84.05" x2="496.1" y2="-84.05" gradientTransform="matrix(1 0 0 1 0 334)">
		<stop  offset="0" style="stop-color:#FA12E3"/>
		<stop  offset="0.54" style="stop-color:#7312FA"/>
		<stop  offset="1" style="stop-color:#415CA7"/>
	</linearGradient>
	<path style="fill:url(#SVGID_00000137107175823397683340000004981222578158668718_);" d="M450.5,191.1c-8.3-27-9.5-60.1-8.6-85.7
		c1-26.6-19.9-51.1-47.9-51.1H106.2c-28.1,0-48.8,24.5-47.9,51.1c0.9,25.6-0.3,58.7-8.6,85.7c-8.4,27.1-22.5,44.2-45.7,46.4v24.9
		c23.1,2.2,37.3,19.3,45.7,46.4c8.3,27,9.5,60.1,8.6,85.7c-1,26.6,19.9,51.1,47.9,51.1H394c28.1,0,48.9-24.5,47.9-51.1
		c-0.9-25.6,0.3-58.7,8.6-85.7c8.4-27.1,22.5-44.2,45.6-46.4v-24.9C473,235.3,458.8,218.2,450.5,191.1z M111.2,290.6
		c-22.6,0-41-18.2-41-40.5c0-22.4,18.2-40.7,40.6-40.7c9.9,0,21.2,4.8,28.6,12l2.4,2.3l-10.8,16l-3.4-3.4
		c-4.8-4.8-11.3-7.7-16.9-7.7c-10.2,0-21.1,8.6-21.1,21.5c0,12.1,9.5,21.3,22.1,21.3c8.6,0,15-4.1,16.8-10.4h-21.4v-18.2h41.1
		l0.4,3.6c0.2,1.4,0.3,3.6,0.3,6C149,274.5,133.1,290.6,111.2,290.6z M200.2,289.4L181.1,262h-2.6v27.4h-19.1v-78.9h26
		c15.4,0,28,12,28,26.8c0,8.8-4.7,16.9-11.9,21.3l22.4,30.8H200.2z M285.5,258.5c0,18.3-13.2,32.2-30.8,32.2
		c-17.5,0-30.8-13.8-30.8-32.2v-48h19.2v48c0,7.4,5,13,11.5,13c6.6,0,11.6-5.6,11.6-13v-48h19.2v48H285.5z M363.5,290.6h-6.3
		l-39.6-41.3v40.2h-19.1v-80.2h6.3l39.5,41.3v-40.2h19.2V290.6z M429.7,229.6h-19v59.8h-19.2v-59.8h-19v-19h57.1v19L429.7,229.6
		L429.7,229.6z"/>
</g>
<path class="st2" d="M262.6,103.5c-16.9,6-21.1,15-22.4,23.3c-4.4-3.1-3.8-13.2-4.1-15.8c-4.3,0.5-16.7,12.5-16.1,27.6
	c-1.2,0.3-2.3,0.6-3.4,1c-3.7-5-14.4-18-28.3-22.5c-4.5-1.3-9.1-2-13.7-2.1c-16.6,0-26.4,9.9-26.5,10l-4.6,5.4l7,1.4
	c0.1,0,11.8,2.4,16.6,10.1c0.8,1.3,1,3.8,1.3,6.4c0.1,1.6-0.2,3.2-0.5,4.7c-0.2,1.1-0.5,2.2-0.5,3.4c-4.4,0.2-8.1,1.1-11.2,2.6
	c-4,1.9-6.9,5.5-8.1,9.7c-2.9,10.4,6.4,22,6.8,22.4c1.1,2,1.5,15.9-1,21.5c-0.3,0.8-1.3,1.5-2.5,2.5c-0.4,0.3-0.8,0.6-1.3,1
	c-3.5,2.6-8.8,6.7-8.8,15.9c0,12.7,12.8,19.5,23.1,25c1.7,0.9,3.3,1.8,4.8,2.6c1.5,0.9,7,6.5,7,15c0,3.9-0.4,22.7-2.1,35.7
	c-6.6-5.7-12.7-14.8-14.1-25.1c0,0-16.7,12.9-11.8,40.5c3,16.9,13.3,26.4,26.9,31.3c5,10.9,16.8,26.2,38.5,28.4
	c8.2,6.8,19.7,11.1,36.4,11.1h0.1c16.7,0,28.1-4.4,36.4-11.1c21.7-2.2,33.5-17.5,38.5-28.4c13.6-5,23.9-14.4,26.9-31.3
	c4.7-27.7-12.1-40.6-12.1-40.6c-1.4,10.2-7.4,19.3-14.1,25c-1.8-13-2.1-31.8-2.1-35.7c0-8.4,5.4-14,7-14.9c1.4-0.9,3.1-1.7,4.7-2.6
	c10.3-5.5,23.1-12.3,23.1-25c0-9.3-5.3-13.3-8.8-15.9c-0.4-0.3-0.9-0.6-1.3-1c-1.2-1-2.1-1.7-2.5-2.5c-2.5-5.6-2.1-19.6-1-21.5
	c0.3-0.3,9.6-12,6.8-22.4c-1.2-4.3-4.1-7.8-8.1-9.7c-3-1.5-6.8-2.4-11.2-2.6c-0.1-1.1-0.2-2.3-0.5-3.4c-0.4-1.5-0.6-3.1-0.5-4.6
	c0.2-2.7,0.5-5.2,1.3-6.5c4.8-7.6,16.5-10.1,16.6-10.1l7-1.4l-4.6-5.4c-0.1-0.1-9.9-10-26.5-10c-4.5,0-9.1,0.8-13.8,2.2
	c-13.8,4.5-24.6,17.4-28.3,22.5c-1.8-0.6-3.6-1.1-5.5-1.5c-2.4-9,5.2-22,5.2-22s-7.8-1.7-19.3,8.7C262.2,121,259,113,262.6,103.5
	L262.6,103.5z M174.8,123.6c3.5,0,6.9,0.5,10.1,1.5c10.2,3.3,18.1,13.3,21.6,18.4c-0.9,0.4-1.8,0.8-2.8,1.2
	c-1.4,0.7-2.8,1.4-4.1,2.1c-1.5-3.1-4.8-7.8-11.9-12.8c-4.8-3.4-10.6-5.1-16.5-5.1c-1.7,0.1-3.5,0.2-5.2,0.5c-1.8-1.2-3.6-2.2-5.5-3
	C165.1,124.6,169.9,123.7,174.8,123.6z M325.2,123.6c6.3,0,11.4,1.7,14.1,2.9c-1.8,0.8-3.7,1.8-5.5,3c-1.7-0.3-3.5-0.4-5.3-0.5
	c-6,0-11.7,1.8-16.4,5.1c-7,5-10.3,9.7-11.8,12.8c-1.3-0.8-2.7-1.5-4.1-2.1c-0.9-0.5-1.8-0.9-2.7-1.3c3.5-5.2,11.4-15.1,21.6-18.4
	C318.2,124.2,321.7,123.6,325.2,123.6L325.2,123.6z M327,135.6c-0.5,0.6-0.9,1.2-1.3,1.8c-1.9,3-2.2,6.7-2.5,10.2
	c-0.3,3.7-0.6,7.1-2.5,9.7c-2.2,0.4-4.4,0.9-6.6,1.6c-1.8-2.4-3.8-4.5-6-6.4c0.8-2.8,3.2-9.2,7.7-12.9
	C319,137.1,322.8,135.7,327,135.6z M172.9,135.6c4.2,0.2,8,1.5,11.2,4c4.6,3.6,6.9,10.1,7.7,12.8c-2.3,1.9-4.3,4-6,6.4
	c-2.2-0.6-4.4-1.1-6.6-1.6c-1.9-2.5-2.2-6-2.4-9.6c-0.3-3.6-0.7-7.2-2.5-10.2C173.8,136.8,173.4,136.2,172.9,135.6z M250,144.6
	c16,0,30.3,3,42.5,9.1c8.1,3.9,11.2,7,12.3,8.6c-19.5,8.6-30.3,26.4-30.4,26.6l-2,3.3l3.2-2.2c0,0,0.1-0.1,0.2-0.2
	c5-3.9,22.3-17.1,36.7-21.6c4-1.3,11.8-3.4,18.8-3.4c3.6,0,6.4,0.6,8.6,1.7c1.9,0.9,3.3,2.5,3.8,4.4c1.4,5.2-3.5,13-5.4,15.2
	c-0.3,0.4-0.6,0.8-0.8,1.3c-0.2-2.7-0.3-5.5-0.2-8.2c-2.3,5-3.7,18-2.9,24.6c2.1,16.8,9,25.3,9,25.3c-0.5-0.9-1-4.4-1.5-8.5l1.3,1
	l0.3,0.2c2.6,2.1,5.1,4.1,5.1,10.4c0,8.1-8.8,12.9-17.3,17.4c-1.7,0.9-3.3,1.8-4.8,2.6c-5,2.9-10.3,9.6-10.9,19.6
	c-0.5,8.4,0.5,28.6,2,43.5c-7.1,2.8-15.3,3.7-22.7,3.9c-1.2-2.4-2.3-4.9-3.1-7.5c-0.4-1.2-11.2-29.3-15.1-35.6
	c3.2,22.3,10,42.2,13.5,51.3c-2.2-0.3-4.5-0.4-6.7-0.4h-67c-2.5,0-4.7,0.2-6.7,0.4c3.4-9.1,10.4-29,13.5-51.3
	c-3.9,6.4-14.7,34.5-15.1,35.6c-0.9,2.6-2,5.1-3.2,7.5c-7.4-0.2-15.6-1.1-22.7-3.9c1.4-14.9,2.5-35,2-43.5
	c-0.5-10-5.9-16.7-10.9-19.6c-1.5-0.9-3.2-1.8-4.8-2.6c-8.5-4.6-17.3-9.3-17.3-17.4c0-6.3,2.5-8.4,5.1-10.4l0.3-0.2
	c0.4-0.3,0.8-0.7,1.3-1c-0.5,4.1-1.1,7.6-1.5,8.5c0,0,6.9-8.6,9-25.3c0.8-6.6-0.6-19.6-2.9-24.6c0.1,2.8,0,5.6-0.1,8.2
	c-0.2-0.4-0.5-0.9-0.8-1.3c-1.8-2.3-6.7-10-5.4-15.2c0.5-2,1.8-3.4,3.8-4.4c2.2-1.1,5-1.7,8.6-1.7c7,0,14.8,2.1,18.8,3.4
	c14.4,4.6,31.7,17.7,36.7,21.6c0.1,0.1,0.2,0.1,0.2,0.2l3.2,2.2l-2-3.3c-0.1-0.2-10.9-18-30.4-26.6c1.2-1.6,4.3-4.6,12.4-8.6
	C219.7,147.6,234.1,144.6,250,144.6L250,144.6z M234.3,200.8c0,0,8.3,10.1,15.6,10.2h0.1c7.3-0.1,15.6-10.2,15.6-10.2
	c-5.6,3.4-10.8,4.6-15.6,4.7C244.4,205.4,239,203.8,234.3,200.8z M180.3,201.6c-2.8,0.1-5.7,0.4-8.7,1.2c2.4,0.6,5.1,1.4,7.7,2.4
	c-2.4,1.2-3.7,4.1-4,6.8c-0.6,5.7,3,10.9,3,10.9c0.4-4.3,1.2-7.3,2.3-9.5c0.2,5.9,1.8,13.5,7.3,19.5c3.9,4.4,20.4,13.3,31.4,3.5
	c0.6,1.4,1.2,3,1.7,4.8c1.7,5.9-1.6,14.5-1.6,14.5s8.6-9.8,7.9-18.6c6.2-0.3,12.3-4.8,12.1-11.2c0,0-10.8,6-20.3-5
	C214.2,215.3,199.9,201.1,180.3,201.6L180.3,201.6z M319.7,201.7c-19.7-0.5-33.9,13.7-38.8,19.4c-9.6,11-20.3,5-20.3,5
	c-0.1,6.2,6,10.8,12.1,11c-0.7,8.9,7.9,18.6,7.9,18.6s-3.2-8.6-1.5-14.5c0.5-1.8,1.1-3.5,1.7-4.9c11,9.9,27.5,0.9,31.4-3.5
	c5.5-6.1,7-13.6,7.3-19.5c1,2.2,2,5.2,2.3,9.5c0,0,3.7-5.2,3-10.9c-0.3-2.9-1.7-5.7-4-6.8h-0.1c2.6-1,5.3-1.8,7.7-2.4
	C325.6,202.1,322.6,201.7,319.7,201.7L319.7,201.7z M191.4,210.9c11.2,6.3,21.4,14.7,25.7,21.2c-3.3,1.9-12.4,6-21.8-1
	C189.4,226.7,189.7,216.1,191.4,210.9L191.4,210.9z M308.5,210.9c1.7,5.2,2,15.9-4,20.3c-9.3,6.9-18.4,2.9-21.7,0.9
	C287.2,225.5,297.4,217.2,308.5,210.9z M157.9,301.3c6.2,19.7,27,25.3,42.6,26c-1.3,2-2.6,3.9-4,5.7l-0.8,0.8
	c-4.1,4.5-4.9,10.6-2.4,18.2c-13-0.1-26.5-5.6-33.3-16.9C153.1,323.7,155,304.2,157.9,301.3L157.9,301.3z M342.1,301.3
	c2.9,2.9,4.8,22.4-2.2,33.8c-6.9,11.3-20.4,16.8-33.3,17c2.6-7.6,1.8-13.8-2.4-18.2c-0.2-0.3-0.5-0.6-0.8-0.9
	c-1.4-1.9-2.7-3.8-4-5.7C315.1,326.6,335.9,321,342.1,301.3z M216,334.3h68c8.6,0,12.5,2.2,14.1,4.1c2.4,2.8,2.6,7.2,0.5,13.2
	c-3.8,10.8-13.9,37-48.6,37c-34.7-0.1-44.8-26.2-48.6-37c-2.1-6-1.9-10.4,0.5-13.2C203.6,336.5,207.3,334.3,216,334.3z M268.4,343
	c-2.4,0-4.1,0.5-5.1,1.5c-1.3,1.3-0.8,3-0.5,3.8c0.6,1.5,3.1,6.5,7.4,11c1.6,1.7,3.9,2.6,6.3,2.6c2.5,0,5-0.9,6.8-2.4
	c1.3-1.2,5.8-5.3,7.8-10.4c0.7-1.9,0.6-3.4-0.5-4.5c-0.7-0.8-2.3-1.7-5.4-1.7h-16.8L268.4,343L268.4,343z M214.8,343.1
	c-3.2,0-4.7,0.9-5.4,1.6c-1.1,1.2-1.2,2.7-0.5,4.6c2,5.2,6.5,9.5,7.8,10.7c1.8,1.5,4.3,2.4,6.7,2.4s4.7-0.9,6.3-2.6
	c4.3-4.7,6.8-9.8,7.4-11.3c0.3-0.9,0.7-2.5-0.5-3.9c-1-1-2.7-1.5-5-1.5L214.8,343.1L214.8,343.1z M186.2,360c3.4,0.6,7,1.1,10.6,1.4
	c2,4.6,4.2,9.1,7,13.2C196.7,371.6,190.5,366.5,186.2,360L186.2,360z M313.8,360c-3.7,5.4-9.4,11.2-17.7,14.6
	c2.8-4.1,5.1-8.6,7-13.2C306.8,361.1,310.3,360.6,313.8,360L313.8,360z"/>
</svg>
