<svg width="500" height="500" viewBox="0 0 500 500" fill="none" xmlns="http://www.w3.org/2000/svg">
<path d="M133.265 255.022C132.908 255.532 132.296 257.165 131.378 259.92C130.459 262.675 129.337 266.093 128.061 270.226C126.735 274.359 125.357 279.002 123.827 284.104C122.296 289.206 120.714 294.461 119.133 299.767C117.5 305.073 115.969 310.328 114.49 315.43C113.01 320.532 111.684 325.175 110.51 329.308C109.337 333.44 108.367 336.91 107.551 339.716C106.786 342.522 106.276 344.155 106.122 344.665C105.663 346.297 105 348.134 104.031 350.175C103.061 352.165 101.939 354.104 100.612 355.889C99.2857 357.675 97.8572 359.206 96.2755 360.379C94.6939 361.553 93.1123 362.165 91.4286 362.165C88.6225 362.165 86.5817 361.246 85.3572 359.359C84.0817 357.471 83.4694 354.104 83.4694 349.104C83.4694 348.389 83.4694 347.675 83.4694 346.91C83.4694 346.144 83.5204 345.43 83.6225 344.563C83.7245 342.93 84.3878 339.818 85.5613 335.277C86.7857 330.736 88.2653 325.583 89.949 319.869C91.6327 314.155 93.4694 308.185 95.4592 302.063C97.398 295.889 99.1837 290.43 100.765 285.532C96.1225 290.685 91.1225 295.838 85.7143 300.94C80.3061 306.042 74.7449 310.634 69.0817 314.716C63.4184 318.797 57.7041 322.114 51.9388 324.716C46.1735 327.318 40.6123 328.593 35.3061 328.593C29.1837 328.593 23.9286 327.267 19.5408 324.563C15.1531 321.859 11.4796 318.338 8.62245 314.002C5.76531 309.665 3.62245 304.767 2.19388 299.257C0.714286 293.848 0 288.389 0 282.93C0 282.216 0 281.553 0 280.889C0 280.277 0.0510205 279.665 0.153061 279.053C0.663266 269.155 2.09184 258.95 4.38776 248.491C6.68368 238.032 9.7449 227.675 13.4694 217.318C17.2449 206.961 21.5816 196.859 26.4796 187.012C31.4286 177.165 36.7857 167.828 42.6021 159.052C48.4184 150.277 54.5919 142.165 61.1225 134.767C67.6531 127.369 74.3878 121.042 81.2755 115.685C88.1633 110.379 95.1021 106.195 102.143 103.185C109.184 100.175 116.122 98.6953 123.01 98.6953C130.969 98.6953 138.622 100.889 146.071 105.226C153.469 109.563 160.408 116.603 166.888 126.297C168.367 128.491 169.286 130.685 169.694 132.879C170.102 135.124 170.306 137.216 170.306 139.155C170.306 143.797 169.184 147.471 166.99 150.175C164.745 152.879 162.143 154.206 159.082 154.206C156.276 154.206 153.674 152.726 151.276 149.767C148.878 146.808 146.174 142.624 143.214 137.114C140.408 132.165 137.347 128.542 133.98 126.348C130.612 124.103 126.99 123.032 123.061 123.032C116.939 123.032 110.408 125.583 103.469 130.634C96.5306 135.685 89.6429 142.369 82.8572 150.736C76.0715 159.052 69.5408 168.542 63.2653 179.257C57.0408 189.971 51.5306 200.889 46.6837 212.114C41.8878 223.338 38.0612 234.41 35.2551 245.277C32.398 256.195 31.0204 265.991 31.0204 274.665C31.0204 277.573 31.2245 280.532 31.6327 283.593C32.0408 286.655 32.7551 289.41 33.8776 291.91C34.949 294.41 36.4286 296.451 38.3163 298.032C40.2041 299.665 42.551 300.43 45.4592 300.43C48.6735 300.43 52.347 299.359 56.4286 297.165C60.5102 294.971 64.7959 292.165 69.1837 288.644C73.5715 285.124 78.0102 281.144 82.449 276.706C86.8878 272.267 91.0204 267.777 94.898 263.236C98.7245 258.695 102.143 254.308 105.102 250.124C108.061 245.94 110.306 242.318 111.786 239.206L123.98 202.777C125.459 198.848 127.398 196.042 129.796 194.41C132.194 192.777 134.643 191.91 137.194 191.91C138.418 191.91 139.643 192.114 140.867 192.522C142.092 192.93 143.163 193.593 144.133 194.461C145.102 195.328 145.867 196.501 146.429 197.879C146.99 199.257 147.296 200.889 147.296 202.777C147.296 207.726 146.837 212.369 145.969 216.757C145.102 221.093 143.98 225.328 142.653 229.461C141.276 233.593 139.796 237.777 138.163 241.961C136.429 246.093 134.796 250.481 133.265 255.022Z" fill="#CCB0AB"/>
<path d="M298.316 285.379C294.49 290.532 290 295.583 284.898 300.481C279.796 305.379 274.541 309.767 269.132 313.593C263.724 317.42 258.418 320.481 253.163 322.828C247.908 325.175 243.214 326.297 239.03 326.297C234.847 326.297 231.428 324.92 228.826 322.114C226.224 319.307 224.898 314.563 224.898 307.828C224.898 303.083 225.612 297.522 226.99 291.246C224.745 295.277 221.888 299.358 218.469 303.491C215.051 307.624 211.173 311.399 206.837 314.818C202.449 318.236 197.602 320.991 192.194 323.134C186.785 325.226 180.867 326.297 174.541 326.297C171.683 326.297 168.877 325.94 166.224 325.226C163.571 324.512 161.224 323.287 159.234 321.501C157.245 319.767 155.612 317.42 154.388 314.461C153.163 311.501 152.551 307.828 152.551 303.389C152.551 303.287 152.704 301.705 153.061 298.644C153.418 295.583 154.541 290.787 156.377 284.205C158.265 277.624 161.173 269.154 165.102 258.695C169.03 248.236 174.592 235.583 181.734 220.736C183.571 216.807 185.663 214.001 188.061 212.267C190.459 210.583 193.061 209.716 195.867 209.716C197.092 209.716 198.367 209.92 199.643 210.277C200.969 210.634 202.194 211.195 203.316 211.96C204.439 212.726 205.357 213.695 206.071 214.92C206.785 216.093 207.143 217.471 207.143 219.052C207.143 220.073 206.99 221.093 206.734 222.011C206.275 223.797 205.357 226.093 203.928 228.899C202.5 231.756 200.816 235.022 198.877 238.644C196.939 242.318 194.949 246.246 192.806 250.481C190.663 254.716 188.673 259.103 186.837 263.644C185 268.185 183.418 272.828 182.143 277.522C180.816 282.216 180.102 286.807 179.898 291.246C179.898 293.134 180.357 294.818 181.224 296.348C182.092 297.879 183.52 298.695 185.561 298.695C191.224 298.695 196.632 296.807 201.785 293.134C206.939 289.409 211.683 284.767 216.071 279.256C220.408 273.746 224.388 267.777 227.908 261.45C231.428 255.073 234.388 249.256 236.734 244.001C238.367 240.481 239.847 236.705 241.122 232.675C242.398 228.644 243.775 224.92 245.255 221.501C246.734 218.083 248.418 215.226 250.357 212.981C252.296 210.685 254.694 209.562 257.551 209.562C260.714 209.562 263.163 210.736 265 213.134C266.837 215.532 267.755 218.338 267.755 221.654C267.755 223.542 267.143 226.093 265.969 229.307C264.796 232.573 263.316 236.297 261.53 240.481C259.745 244.665 257.806 249.154 255.714 253.899C253.622 258.644 251.683 263.491 249.898 268.389C248.112 273.287 246.632 278.083 245.459 282.828C244.286 287.522 243.673 291.909 243.673 295.94C243.673 299.665 245.612 301.501 249.439 301.501C252.143 301.501 255.51 300.583 259.49 298.695C263.52 296.807 267.704 294.205 272.143 290.889C276.53 287.522 280.969 283.593 285.357 279.052C289.745 274.512 293.673 269.614 297.092 264.307L298.316 285.379Z" fill="#CCB0AB"/>
<path d="M302.347 277.624C301.378 280.022 300.46 282.777 299.541 285.94C298.623 289.104 298.164 291.91 298.164 294.41C298.164 295.94 298.419 297.216 298.929 298.134C299.439 299.053 300.46 299.512 301.939 299.512C303.776 299.512 306.072 298.849 308.827 297.573C311.582 296.298 314.541 294.563 317.704 292.471C320.868 290.379 324.184 287.93 327.653 285.175C331.123 282.42 334.541 279.614 337.909 276.655C341.327 273.695 344.541 270.787 347.653 267.828C350.766 264.869 353.521 262.165 355.97 259.665C356.684 258.951 357.5 258.44 358.47 258.134C359.439 257.828 360.255 257.675 360.97 257.675C362.704 257.675 364.133 258.389 365.306 259.869C366.429 261.298 366.99 263.236 366.99 265.583C366.99 267.777 366.378 270.175 365.153 272.879C363.929 275.583 361.786 278.185 358.725 280.787C353.164 286.91 347.5 292.675 341.837 298.134C336.174 303.593 330.511 308.44 324.898 312.624C319.286 316.808 313.674 320.124 308.164 322.624C302.602 325.124 297.245 326.349 291.99 326.349C288.419 326.349 285.409 325.787 283.011 324.665C280.613 323.542 278.674 321.961 277.245 320.022C275.817 318.032 274.796 315.736 274.184 313.032C273.572 310.328 273.266 307.522 273.266 304.512C273.266 299.461 273.878 294.257 275.153 288.951C276.429 283.644 277.908 278.747 279.643 274.308C282.704 266.247 285.817 258.236 288.929 250.277C292.092 242.318 294.949 235.022 297.551 228.44L337.194 128.44C338.776 124.41 340.868 121.553 343.521 119.92C346.174 118.287 348.878 117.42 351.582 117.42C354.286 117.42 356.735 118.287 358.98 120.073C361.225 121.808 362.296 124.665 362.296 128.593C362.296 130.43 361.939 132.42 361.174 134.461C360.409 136.553 359.49 138.746 358.368 141.144C356.174 145.991 353.572 151.961 350.562 158.951C347.551 165.991 344.337 173.644 340.868 181.91C337.398 190.175 333.878 198.798 330.255 207.726C326.633 216.655 323.113 225.379 319.643 233.849C316.174 242.318 312.96 250.379 309.949 257.981C307.143 265.481 304.541 272.063 302.347 277.624Z" fill="#CCB0AB"/>
<path d="M487.805 249.562C489.03 248.746 490.152 248.082 491.224 247.521C492.244 247.011 493.265 246.756 494.234 246.756C496.173 246.756 497.601 247.623 498.571 249.307C499.54 250.991 499.999 253.082 499.999 255.582C499.999 258.287 499.438 260.991 498.214 263.797C497.04 266.603 495.254 268.899 492.907 270.787C483.571 279.052 475.254 286.603 467.907 293.44C460.56 300.276 453.673 306.144 447.142 311.042C440.662 315.94 434.285 319.766 428.111 322.419C421.938 325.123 415.305 326.45 408.213 326.45C401.581 326.45 396.479 325.021 392.856 322.113C389.234 319.205 387.448 315.225 387.448 310.174C387.448 309.766 387.448 309.358 387.448 309.001C387.448 308.644 387.499 308.184 387.601 307.674C387.958 304.562 389.285 300.991 391.683 296.96C394.03 292.929 396.887 288.746 400.203 284.409C403.52 280.072 407.04 275.684 410.816 271.246C414.591 266.807 418.009 262.572 421.224 258.593C424.387 254.613 427.04 250.991 429.132 247.674C431.224 244.358 432.295 241.705 432.295 239.613C432.295 238.389 431.836 237.368 430.969 236.654C430.101 235.94 428.673 235.582 426.632 235.582C423.162 235.582 419.54 236.501 415.816 238.287C412.091 240.072 408.418 242.521 404.795 245.582C401.173 248.644 397.652 252.113 394.183 256.042C390.713 259.97 387.499 264.052 384.489 268.287C381.479 272.521 378.724 276.807 376.224 281.093C373.724 285.378 371.632 289.358 369.897 292.929C369.387 294.052 368.622 295.684 367.652 297.725C366.683 299.817 365.662 302.113 364.489 304.715C363.367 307.317 362.142 309.97 360.867 312.674C359.591 315.429 358.469 317.98 357.397 320.429C356.326 322.878 355.407 325.021 354.591 326.96C353.775 328.848 353.162 330.174 352.805 330.889C352.346 331.807 351.632 333.593 350.662 336.144C349.642 338.746 348.52 341.756 347.193 345.225C345.867 348.695 344.489 352.317 343.06 356.144C341.632 359.97 340.254 363.593 338.979 367.011C337.703 370.429 336.581 373.44 335.662 375.991C334.693 378.593 334.081 380.327 333.826 381.246C332.958 383.95 331.938 386.45 330.764 388.848C329.591 391.246 328.213 393.338 326.683 395.123C325.152 396.909 323.418 398.389 321.428 399.46C319.438 400.531 317.244 401.093 314.795 401.093C311.632 401.093 309.081 400.327 306.989 398.848C304.948 397.368 303.928 394.46 303.928 390.225C303.928 388.134 304.183 386.042 304.693 383.848C305.203 381.654 305.867 379.511 306.632 377.419C307.397 375.276 308.213 373.236 309.03 371.246C309.846 369.205 310.611 367.317 311.326 365.429C316.02 355.072 320.816 344.715 325.713 334.358C330.611 323.95 335.305 313.695 339.795 303.491C344.285 293.287 348.469 283.287 352.295 273.491C356.122 263.695 359.336 254.256 361.836 245.276C362.55 243.389 363.469 240.787 364.693 237.368C365.918 233.95 367.295 230.582 368.877 227.317C370.458 224.001 372.193 221.144 374.183 218.695C376.122 216.246 378.264 215.072 380.509 215.072C383.979 215.072 386.53 215.889 388.111 217.47C389.693 219.052 390.458 221.399 390.458 224.511C390.458 225.123 390.356 226.093 390.203 227.47C390.05 228.797 389.795 230.225 389.54 231.756C389.285 233.235 388.979 234.664 388.673 236.042C388.367 237.368 388.06 238.389 387.805 239.001C391.02 235.48 394.54 232.011 398.264 228.542C402.04 225.072 405.918 221.96 409.897 219.154C413.928 216.348 418.009 214.103 422.193 212.317C426.377 210.582 430.56 209.664 434.744 209.664C437.601 209.664 440.458 210.072 443.316 210.889C446.173 211.705 448.673 212.929 450.918 214.511C453.162 216.093 454.948 218.133 456.326 220.582C457.703 223.031 458.418 225.838 458.418 229.052C458.418 233.287 457.346 237.827 455.203 242.623C453.06 247.419 450.356 252.266 447.142 257.113C443.928 261.96 440.407 266.705 436.683 271.297C432.907 275.889 429.438 280.072 426.122 283.848C422.856 287.623 420.101 290.838 417.856 293.44C415.611 296.093 414.489 297.878 414.387 298.797C414.387 300.021 414.795 301.042 415.56 301.807C416.326 302.572 417.652 302.98 419.489 302.98C420.969 302.98 423.162 302.164 426.02 300.48C428.877 298.848 432.958 295.94 438.111 291.858C443.316 287.776 449.897 282.317 457.856 275.429C466.275 268.695 476.122 260.021 487.805 249.562Z" fill="#CCB0AB"/>
<path fill-rule="evenodd" clip-rule="evenodd" d="M349.462 43.2874C349.469 43.2795 349.476 43.2715 349.482 43.2634L349.558 43.1834L349.549 43.1757C350.604 41.6746 348.732 38.1234 345.266 35.1203C341.711 32.0421 337.825 30.7044 336.584 32.1328L336.583 32.1318L284.463 87.3131L274.142 129.294C266.373 129.034 258.601 128.905 250.828 128.906C195.936 128.906 151.438 135.162 151.438 142.877C151.438 150.594 195.936 156.849 250.828 156.849C305.719 156.849 350.217 150.594 350.217 142.877C350.217 137.196 326.083 132.306 291.439 130.123L300.329 94.9846L349.349 43.4034C349.389 43.367 349.426 43.3284 349.462 43.2874ZM334.139 271.516L332.837 282.726C333.152 282.448 333.446 282.175 333.718 281.91L324.962 360.621C324.962 360.621 305.528 375.197 249.075 375.197C192.621 375.197 173.881 360.39 173.881 360.39L166.83 292.433C166.858 292.447 166.887 292.461 166.915 292.474L163.611 259.85C163.569 259.969 163.527 260.088 163.486 260.205L152.132 150.772C152.132 150.772 164.163 161.646 249.538 161.646C334.911 161.646 348.33 150.541 348.33 150.541L334.994 270.434C334.728 270.793 334.442 271.154 334.139 271.516ZM309.034 389.117L304.799 459.691C304.799 467.041 280.559 472.999 250.659 472.999C220.757 472.999 196.518 467.041 196.518 459.691L191.881 391.133L178.775 369.356C178.775 369.356 204.988 380.043 249.55 380.043C294.112 380.043 320.729 369.154 320.729 369.154L309.034 389.117Z" fill="#CCB0AB" fill-opacity="0.26"/>
</svg>
