<?xml version="1.0" encoding="utf-8"?>
<!-- Generator: Adobe Illustrator 28.1.0, SVG Export Plug-In . SVG Version: 6.00 Build 0)  -->
<svg version="1.1" id="Camada_1" xmlns="http://www.w3.org/2000/svg" xmlns:xlink="http://www.w3.org/1999/xlink" x="0px" y="0px"
	 viewBox="0 0 500 500" style="enable-background:new 0 0 500 500;" xml:space="preserve">
<style type="text/css">
	.st0{fill:url(#SVGID_1_);}
	.st1{fill:url(#SVGID_00000078738487195918508730000013552589025638677133_);}
	.st2{opacity:0.3;}
	.st3{fill:#121212;}
</style>
<g>
	
		<linearGradient id="SVGID_1_" gradientUnits="userSpaceOnUse" x1="4" y1="249.05" x2="496.1" y2="249.05" gradientTransform="matrix(1 0 0 -1 0 499)">
		<stop  offset="0" style="stop-color:#FA12E3"/>
		<stop  offset="0.54" style="stop-color:#7312FA"/>
		<stop  offset="1" style="stop-color:#415CA7"/>
	</linearGradient>
	<path class="st0" d="M450.5,191.1c-8.3-27-9.5-60.1-8.6-85.7c1-26.6-19.9-51.1-47.9-51.1H106.2c-28.1,0-48.8,24.5-47.9,51.1
		c0.9,25.6-0.3,58.7-8.6,85.7c-8.4,27.1-22.5,44.2-45.7,46.4v24.9c23.1,2.2,37.3,19.3,45.7,46.4c8.3,27,9.5,60.1,8.6,85.7
		c-1,26.6,19.9,51.1,47.9,51.1H394c28.1,0,48.9-24.5,47.9-51.1c-0.9-25.6,0.3-58.7,8.6-85.7c8.4-27.1,22.5-44.2,45.6-46.4v-24.9
		C473,235.3,458.8,218.2,450.5,191.1z M121.4,303.3c-29.7,0-53.9-23.9-53.9-53.3c0-29.5,23.9-53.5,53.3-53.5
		c13.1,0.1,27.8,6.3,37.6,15.8l3.1,3.1l-14.1,21.1l-4.5-4.5c-6.4-6.3-14.9-10.2-22.2-10.2c-13.4,0-27.8,11.3-27.8,28.2
		c0,16,12.5,28,29.1,28c11.3,0,19.7-5.4,22.1-13.7H116v-23.9h54l0.5,4.7c0.2,1.8,0.4,4.7,0.4,7.8C171,282.1,150.1,303.3,121.4,303.3
		z M263.9,261.2c0,24.1-17.4,42.3-40.5,42.3s-40.5-18.2-40.5-42.3v-63.1h25.2v63c0,9.7,6.5,17,15.2,17s15.3-7.3,15.3-17v-63h25.3
		V261.2z M347,301.7h-66.7V198.1h25.2v78.6H347V301.7z M394.5,269.5h-11.2v32.3H358V198.1h36.4c21,0,38,16.2,38,36
		C432.5,253.6,415.4,269.5,394.5,269.5z"/>
	
		<linearGradient id="SVGID_00000025404039228676814780000015598774465764414650_" gradientUnits="userSpaceOnUse" x1="356.8875" y1="283.4128" x2="397.8875" y2="261.4128" gradientTransform="matrix(1 0 0 -1 0 499)">
		<stop  offset="0" style="stop-color:#FA12E3"/>
		<stop  offset="0.3852" style="stop-color:#7312FA"/>
	</linearGradient>
	<path style="fill:url(#SVGID_00000025404039228676814780000015598774465764414650_);" d="M394.5,223.1h-11.2v21.3h11.3
		c3.8,0,7.4-1.4,9.9-3.8c1.9-1.9,2.9-4.3,2.9-6.7C407.3,228,401.5,223.1,394.5,223.1z"/>
</g>
<g class="st2">
	<path class="st3" d="M194.1,340.8l10.2,16.9l3.6,53.1c0,5.7,18.8,10.3,42,10.3s42-4.6,42-10.3l3.3-54.7l9.1-15.5
		c0,0-20.6,8.4-55.2,8.4C214.5,349,194.1,340.8,194.1,340.8z"/>
	<path class="st3" d="M281.5,155.3l6.9-27.2L326.5,88l0,0l0,0l0.1-0.1l0,0c0.8-1.2-0.6-3.9-3.3-6.2c-2.8-2.4-5.8-3.4-6.7-2.3
		l-40.4,42.8l-8,32.5c-6-0.2-12-0.3-18.1-0.3c-42.6,0-77.1,4.8-77.1,10.8s34.5,10.8,77.1,10.8s77-4.8,77-10.8
		C327.1,160.8,308.3,157,281.5,155.3z"/>
	<path class="st3" d="M173.5,171.3l8.8,84.8l0,0l2.6,25l0,0l1.4,13.5l0.7,7l0,0l3.3,32.2c0,0,14.5,11.5,58.3,11.5
		s58.8-11.3,58.8-11.3l3.2-29.1l0,0l1.8-15.9l1.8-16.1l0,0l1-8.9l0,0l10.3-92.9c0,0-10.4,8.6-76.6,8.6
		C182.8,179.7,173.5,171.3,173.5,171.3z"/>
</g>
</svg>
