<?xml version="1.0" encoding="utf-8"?>
<!-- Generator: Adobe Illustrator 28.1.0, SVG Export Plug-In . SVG Version: 6.00 Build 0)  -->
<svg version="1.1" id="Camada_1" xmlns="http://www.w3.org/2000/svg" xmlns:xlink="http://www.w3.org/1999/xlink" x="0px" y="0px"
	 viewBox="0 0 500 500" style="enable-background:new 0 0 500 500;" xml:space="preserve">
<style type="text/css">
	.st0{fill:url(#SVGID_1_);}
</style>
<linearGradient id="SVGID_1_" gradientUnits="userSpaceOnUse" x1="77.002" y1="250" x2="423.432" y2="250">
	<stop  offset="0" style="stop-color:#FA12E3"/>
	<stop  offset="0.5362" style="stop-color:#7312FA"/>
	<stop  offset="1" style="stop-color:#415CA7"/>
</linearGradient>
<path class="st0" d="M130.8,48.2H151v22.3h22.1V4H151v22h-20.2V4h-22.1v66.5h22.1V48.2z M202.1,70.5h22.1V26.1h19.4V4h-60.9v22.1
	h19.4V70.5z M274.8,37.6L290,61.2h0.4l15.2-23.6v33h22V4h-23l-14.1,23.4L276.2,4h-23v66.5h21.6V37.6z M391.5,48.5h-31V4h-22.1v66.5
	h53.1V48.5z M77,99.7l31.5,356.7L250.1,496l141.7-39.6l31.6-356.7H77z M355,216.4H189l4,44.8h158.1l-11.9,134.3l-88.9,24.8l-0.1,0
	l-88.9-24.9l-6.2-70.3h43.5l3.2,36.4l48.3,13.2l0.1,0l48.4-13.2l5-56.7H153.3l-11.7-132.3h217.3L355,216.4z"/>
</svg>
