<svg width="500" height="500" viewBox="0 0 500 500" fill="none" xmlns="http://www.w3.org/2000/svg">
<path d="M130.836 48.2473H151.007V70.5215H173.07V4H151.007V25.9831H130.836V4H108.783V70.5215H130.836V48.2473ZM202.063 70.5215H224.116V26.0735H243.521V4H182.658V26.0735H202.063V70.5215ZM274.764 37.5669L289.958 61.2063H290.326L305.489 37.5669V70.5215H327.463V4H304.464L290.326 27.4085L276.188 4H253.199V70.5215H274.764V37.5669ZM391.502 48.5484H360.488V4H338.435V70.5215H391.502V48.5484ZM77.002 99.7118L108.544 456.38L250.132 496L391.831 456.4L423.432 99.7118H77.002ZM355.002 216.353H188.961L192.923 261.152H351.059L339.162 395.49L250.212 420.334L250.152 420.354L161.262 395.49L155.059 325.224H198.608L201.834 361.672L250.162 374.842L250.222 374.822L298.6 361.652L303.638 304.918H153.257L141.539 172.627H358.875L355.002 216.353Z" fill="#CCB0AB"/>
</svg>
