<svg width="500" height="500" viewBox="0 0 500 500" fill="none" xmlns="http://www.w3.org/2000/svg">
<path fill-rule="evenodd" clip-rule="evenodd" d="M365.817 0.197998C371.364 0.118797 376.951 0.0396002 382.538 0C382.578 1.54441 382.627 3.85111 382.677 6.15782L382.677 6.19001L382.678 6.20717L382.678 6.21471L382.678 6.23615L382.678 6.2385L382.679 6.26727L382.68 6.29264C382.728 8.55412 382.776 10.8013 382.815 12.3156C379.958 12.3156 377.1 12.3057 374.247 12.2958L374.247 12.2958C371.404 12.2859 368.566 12.276 365.738 12.276C365.738 10.7762 365.757 8.52878 365.777 6.27405C365.797 4.00454 365.817 1.72759 365.817 0.197998ZM27.3208 2.73242C37.5038 2.81162 47.7266 2.85123 57.9888 2.89083C57.6949 9.03236 57.9055 15.2549 58.1163 21.4856V21.4857V21.4858V21.4858V21.4859V21.486V21.4861V21.4861V21.4862V21.4863V21.4863V21.4864C58.5308 33.7361 58.9464 46.0173 55.5322 57.7766C49.8748 68.6137 37.0626 68.4385 26.0221 68.2876C24.072 68.2609 22.1771 68.235 20.3868 68.2707L20.3868 68.2704C19.9113 64.2313 19.4358 60.1922 19 56.153C20.9244 55.9974 22.8957 55.9916 24.8753 55.9857C29.9467 55.9707 35.0725 55.9556 39.6038 53.4206C43.2206 42.2252 42.2006 30.3455 41.2046 18.7464L41.2046 18.7463L41.2046 18.7462L41.2046 18.7461L41.2046 18.746L41.2046 18.7459L41.2045 18.7458C41.0767 17.2571 40.9493 15.773 40.8321 14.2956C37.3453 14.3748 30.4113 14.454 26.9245 14.4936C26.984 13.0284 27.0533 10.8208 27.1226 8.61306L27.1226 8.613C27.192 6.40531 27.2613 4.19762 27.3208 2.73242ZM272.466 5.86087C259.113 2.25725 243.344 -1.54438 231.338 7.72205C223.294 12.9097 222.7 24.1561 226.226 32.2346C231.901 38.9728 240.444 41.2323 248.861 43.4586L248.861 43.4586C252.316 44.3724 255.749 45.2806 258.955 46.4906C255.888 63.7342 236.355 54.9495 224.832 49.767C223.997 49.3914 223.204 49.0347 222.462 48.7082C223.095 53.8014 223.797 58.8596 224.503 63.9485L224.504 63.9509L224.641 64.9443C225.747 65.1694 226.865 65.4041 227.992 65.6409C240.148 68.1946 253.387 70.9756 264.7 64.2711C275.557 59.0043 278.211 41.5406 268.781 33.8582C262.196 29.9211 254.804 27.946 247.43 25.9757C244.865 25.2905 242.303 24.6058 239.777 23.8393C242.25 7.66738 259.947 14.8871 270.611 19.2376L270.612 19.2378L270.62 19.241C271.234 19.4914 271.824 19.7322 272.387 19.9585C272.387 16.4341 272.426 9.38528 272.466 5.86087ZM450.411 4.98961H464.438C464.557 9.46443 464.715 13.9393 464.913 18.4141C468.479 18.4537 475.651 18.5329 479.257 18.5725C479.295 19.9119 479.344 21.8985 479.392 23.893L479.393 23.901L479.393 23.9053C479.443 25.9755 479.494 28.0529 479.534 29.4229L479.534 29.4229C475.888 29.3833 468.598 29.3041 464.953 29.2249C465.006 31.6537 464.877 34.1422 464.747 36.6447C464.393 43.4856 464.034 50.4313 467.37 56.549C469.073 56.7272 471.629 56.9846 474.184 57.242L474.187 57.2423L474.19 57.2425L474.191 57.2426L474.192 57.2428L474.197 57.2432L474.198 57.2434C476.75 57.5004 479.299 57.7571 481 57.935C480.683 72.737 465.656 68.4348 455.245 65.4544C453.93 65.078 452.689 64.7226 451.56 64.4295C450.649 54.2522 450.213 44.075 450.213 33.8581C447.638 30.2545 445.062 26.6113 442.527 23.0077L450.292 15.8797C450.312 14.5233 450.332 12.4936 450.352 10.4639V10.4606L450.352 10.4363V10.436C450.372 8.38623 450.392 6.33958 450.411 4.98961ZM77.466 18.3222L77.4659 18.3222C74.9917 18.5709 72.5936 18.812 70.3509 18.9289C70.1924 21.7405 69.8359 27.4033 69.6378 30.2545C71.0568 30.1028 72.5025 29.908 73.9607 29.7116C82.3965 28.5752 91.2497 27.3826 97.7699 34.1353C95.0376 34.781 92.2642 35.2714 89.4915 35.7615L89.4914 35.7616C84.1019 36.7144 78.7153 37.6667 73.6397 39.7585C63.0605 44.075 63.2188 61.895 73.283 66.7262C77.4461 69.7176 82.394 68.3577 87.2157 67.0326C89.4153 66.428 91.5886 65.8307 93.6492 65.6571C96.3823 65.902 99.1244 66.1558 101.871 66.4101L101.876 66.4106L101.881 66.411L101.887 66.4116L101.889 66.4118L101.891 66.4119L101.893 66.4121L101.895 66.4123L101.897 66.4125C104.916 66.692 107.94 66.9719 110.964 67.2411C110.823 62.8816 110.919 58.4931 111.014 54.1024V54.1023V54.1022V54.1022V54.1021V54.102V54.1019V54.1018V54.1017C111.214 44.9321 111.414 35.753 109.459 26.8093C102.746 15.7812 89.2423 17.1385 77.466 18.3222ZM81.7624 57.6974C82.119 53.8166 82.5152 49.9754 82.951 46.1342C84.8448 45.9084 86.7461 45.6751 88.655 45.4408L88.6557 45.4407L88.6564 45.4406C91.1006 45.1407 93.5573 44.8392 96.0265 44.5501L96.0253 44.5645C95.6691 48.7178 95.3129 52.871 94.9963 57.0242C92.8341 57.14 90.6814 57.2463 88.5334 57.3525L88.5322 57.3525L88.5304 57.3526L88.5286 57.3527L88.5268 57.3528L88.525 57.3529L88.5231 57.353L88.5213 57.3531C86.2648 57.4646 84.0136 57.5758 81.7624 57.6974ZM124.493 19.0472L124.495 19.0477L124.498 19.0482L124.504 19.0494C127.364 19.6131 130.223 20.1767 132.123 20.5525C134.231 25.3936 135.988 30.3666 137.746 35.3442L137.746 35.3443L137.747 35.3445C139.325 39.813 140.905 44.2851 142.742 48.6686C145.991 38.7686 149.002 28.7497 151.934 18.7309C153.836 18.6913 156.699 18.6418 159.561 18.5923C162.424 18.5428 165.287 18.4933 167.189 18.4537C161.8 35.4421 155.777 52.2326 149.042 68.7855C143.811 68.1123 138.661 67.0035 133.668 65.5383C126.772 50.8446 122.122 35.2093 117.501 19.6713L117.5 19.6683L117.499 19.6652L117.498 19.6621L117.497 19.659C117.288 18.9534 117.078 18.248 116.868 17.5429C118.769 17.919 121.631 18.483 124.493 19.0472ZM175.866 18.9685C174.479 22.6513 173.211 26.4133 172.102 30.1753C174.507 30.1363 177.067 29.8006 179.665 29.4598C187.595 28.4198 195.882 27.333 201.225 34.4917C199.499 34.8286 197.56 35.1211 195.513 35.4299L195.513 35.4299C183.608 37.2262 168.074 39.5701 169.764 54.371C169.526 68.9835 186.842 70.9635 197.223 65.4591L197.26 65.4642C203.033 66.2545 208.805 67.0448 214.617 67.8351C214.532 63.5859 214.64 59.3108 214.748 55.0312C214.993 45.3119 215.238 35.5699 213.23 26.0569C204.918 14.7466 188.651 17.1106 176.426 18.8871L175.866 18.9685ZM185.324 56.2587C185.685 53.0097 186.049 49.7337 186.445 46.4906L186.452 46.4896C190.808 45.7771 195.164 45.0646 199.521 44.3918C199.323 46.5896 199.124 48.7775 198.926 50.9654C198.728 53.1533 198.53 55.3412 198.332 57.539C193.936 57.4599 189.579 57.3411 185.223 57.2224L185.217 57.2222L185.324 56.2587ZM278.093 43.1246C276.864 21.5821 304.283 10.296 320.687 21.7801C321.083 24.8293 321.836 30.9673 322.193 34.0165C320.371 33.4417 318.538 32.6906 316.691 31.9338C310.905 29.563 304.982 27.1364 298.855 29.8981C290.296 38.0557 292.079 58.7666 306.581 57.539C308.576 56.9073 311.556 55.9606 314.539 55.0129L314.56 55.0063C317.553 54.0553 320.547 53.1042 322.549 52.4702C321.836 55.8758 320.449 62.6871 319.776 66.0531C302.619 74.1315 276.746 64.5879 278.093 43.1246ZM332.062 18.2598L332.054 18.2576C330.956 17.9661 329.861 17.6753 328.77 17.3845C328.413 34.1353 328.453 50.8862 328.651 67.6371C330.513 67.6173 333.316 67.5975 336.12 67.5777H336.121L336.13 67.5776C338.93 67.5578 341.729 67.538 343.589 67.5183C343.668 56.153 343.787 44.8274 344.183 33.4621C349.797 33.1855 355.49 32.909 361.183 32.6324L361.184 32.6323L361.185 32.6323L361.186 32.6322L361.187 32.6322L361.221 32.6305C360.983 28.8289 360.508 21.2257 360.31 17.4241C358.84 17.9479 357.374 18.4675 355.912 18.9857C352.843 20.0738 349.792 21.1555 346.759 22.2553C341.877 20.8661 336.943 19.5559 332.064 18.2603L332.063 18.26L332.062 18.2598ZM393.196 18.4537C404.132 20.9089 415.147 20.1565 426.043 17.9785C443.121 21.5029 443.517 45.6986 437.019 58.3706C431.771 69.0151 419.119 68.3163 409.056 67.7604L408.638 67.7374L408.253 67.7163L408.367 76.0443L408.491 85.0216L408.262 85.0192L408.261 85.0191C404.385 84.9788 396.924 84.9012 393.157 84.8236C393.157 79.31 393.154 73.7939 393.152 68.276V68.2704V68.2648V68.2592C393.144 51.6685 393.137 35.0611 393.196 18.4537ZM408.649 30.0961C408.491 39.323 408.411 48.5894 408.491 57.8162C410.012 57.3993 411.67 57.2026 413.345 57.0039C417.079 56.561 420.897 56.1082 423.468 53.183C425.563 47.5001 424.832 41.4784 424.11 35.5272C423.876 33.5992 423.643 31.6786 423.508 29.7793C418.555 29.8585 413.602 29.9773 408.649 30.0961ZM381.31 18.5725H367.243C366.966 34.9273 366.966 51.2822 367.243 67.5975H381.31C381.547 51.2426 381.547 34.9273 381.31 18.5725ZM141.423 99.0406H141.423C158.241 99.2626 175.061 99.4846 191.874 99.1984C223.238 98.2019 254.583 98.5155 285.951 98.8293H285.952C298.212 98.952 310.477 99.0747 322.747 99.1192C335.94 99.1494 349.132 99.1335 362.325 99.1177C383.762 99.0921 405.2 99.0664 426.638 99.238C425.745 109.082 424.851 118.925 423.957 128.769L423.94 128.966C413.936 239.164 403.933 349.368 394.662 459.639C366.054 467.77 337.43 475.825 308.81 483.88L308.789 483.886L308.748 483.897C290.972 488.9 273.197 493.902 255.428 498.922C250.196 501.084 244.841 499.562 239.742 498.114L239.741 498.114C239.048 497.917 238.36 497.721 237.677 497.536C193.577 484.864 149.477 472.311 105.298 460.114C93.8075 339.967 82.9905 219.702 73.2434 99.3964C95.9512 98.4403 118.685 98.7404 141.423 99.0406ZM358.931 441.602C358.932 441.602 358.932 441.602 358.933 441.602L359.078 441.56C361.562 440.841 364.046 440.122 366.53 439.403C363.997 440.136 361.464 440.869 358.931 441.602ZM180.653 356.305L180.651 356.305C164.633 351.714 148.623 347.126 132.321 343.65C131.647 357.431 131.885 371.212 133.47 384.914C149.971 388.931 166.304 393.564 182.637 398.197L182.637 398.197C199.953 403.109 217.269 408.02 234.785 412.198C234.9 374.239 234.876 336.271 234.852 298.302C234.826 257.803 234.8 217.304 234.943 176.815C228.287 176.648 221.631 176.525 214.975 176.401C210.537 176.319 206.098 176.237 201.66 176.141C200.912 212.712 201.02 249.31 201.127 285.911V285.914C201.202 311.299 201.277 336.685 201.066 362.064C194.245 360.201 187.448 358.253 180.653 356.305ZM264.026 329.83C264.224 278.825 264.185 227.78 264.026 176.775C287.952 176.345 311.894 176.4 335.831 176.454C349.395 176.485 362.958 176.516 376.515 176.458C375.445 190.398 374.058 204.337 372.473 218.236C347.67 218.197 322.906 218.197 298.102 218.197C297.785 239.027 297.825 259.856 298.023 280.686C310.656 279.816 323.222 278.275 335.792 276.733C346.679 275.398 357.569 274.062 368.511 273.162C366.93 290.624 365.617 308.104 364.304 325.577C362.854 344.875 361.405 364.164 359.596 383.409C359.83 387.527 356.162 388.5 352.79 389.395C351.59 389.713 350.428 390.021 349.492 390.458C339.427 392.993 329.392 395.643 319.356 398.293C301.027 403.133 282.697 407.973 264.185 412.119C264.066 398.378 264.106 384.676 264.462 370.974C281.843 366.707 299.13 362.07 316.414 357.434C321.747 356.004 327.08 354.574 332.415 353.154C332.93 341.274 333.406 329.394 333.762 317.514C330.924 318.032 328.086 318.551 325.248 319.07C304.866 322.798 284.477 326.527 264.026 329.83Z" fill="#CCB0AB"/>
</svg>
