<?xml version="1.0" encoding="utf-8"?>
<!-- Generator: Adobe Illustrator 28.1.0, SVG Export Plug-In . SVG Version: 6.00 Build 0)  -->
<svg version="1.1" id="Camada_1" xmlns="http://www.w3.org/2000/svg" xmlns:xlink="http://www.w3.org/1999/xlink" x="0px" y="0px"
	 viewBox="0 0 500 500" style="enable-background:new 0 0 500 500;" xml:space="preserve">
<style type="text/css">
	.st0{fill-rule:evenodd;clip-rule:evenodd;fill:url(#SVGID_1_);}
</style>
<linearGradient id="SVGID_1_" gradientUnits="userSpaceOnUse" x1="19" y1="250" x2="481" y2="250">
	<stop  offset="0" style="stop-color:#FA12E3"/>
	<stop  offset="0.5362" style="stop-color:#7312FA"/>
	<stop  offset="1" style="stop-color:#415CA7"/>
</linearGradient>
<path class="st0" d="M365.8,0.2C371.4,0.1,377,0,382.5,0c0,1.5,0.1,3.9,0.1,6.2v0l0,0v0v0v0l0,0l0,0c0,2.3,0.1,4.5,0.1,6
	c-2.9,0-5.7,0-8.6,0l0,0c-2.8,0-5.7,0-8.5,0c0-1.5,0-3.7,0-6C365.8,4,365.8,1.7,365.8,0.2z M27.3,2.7C37.5,2.8,47.7,2.9,58,2.9
	c-0.3,6.1-0.1,12.4,0.1,18.6v0v0l0,0v0v0v0l0,0v0v0l0,0v0c0.4,12.2,0.8,24.5-2.6,36.3C49.9,68.6,37.1,68.4,26,68.3
	c-2,0-3.8-0.1-5.6,0v0c-0.5-4-1-8.1-1.4-12.1c1.9-0.2,3.9-0.2,5.9-0.2c5.1,0,10.2,0,14.7-2.6c3.6-11.2,2.6-23.1,1.6-34.7v0v0v0v0v0
	l0,0c-0.1-1.5-0.3-3-0.4-4.5c-3.5,0.1-10.4,0.2-13.9,0.2c0.1-1.5,0.1-3.7,0.2-5.9v0C27.2,6.4,27.3,4.2,27.3,2.7z M272.5,5.9
	c-13.4-3.6-29.1-7.4-41.1,1.9c-8,5.2-8.6,16.4-5.1,24.5c5.7,6.7,14.2,9,22.6,11.2l0,0c3.5,0.9,6.9,1.8,10.1,3
	c-3.1,17.2-22.6,8.5-34.1,3.3c-0.8-0.4-1.6-0.7-2.4-1.1c0.6,5.1,1.3,10.2,2,15.2l0,0l0.1,1c1.1,0.2,2.2,0.5,3.4,0.7
	c12.2,2.6,25.4,5.3,36.7-1.4c10.9-5.3,13.5-22.7,4.1-30.4c-6.6-3.9-14-5.9-21.4-7.9c-2.6-0.7-5.1-1.4-7.7-2.1
	c2.5-16.2,20.2-9,30.8-4.6l0,0l0,0c0.6,0.3,1.2,0.5,1.8,0.7C272.4,16.4,272.4,9.4,272.5,5.9z M450.4,5h14c0.1,4.5,0.3,8.9,0.5,13.4
	c3.6,0,10.7,0.1,14.3,0.2c0,1.3,0.1,3.3,0.1,5.3l0,0v0c0,2.1,0.1,4.1,0.1,5.5l0,0c-3.6,0-10.9-0.1-14.6-0.2c0.1,2.4-0.1,4.9-0.2,7.4
	c-0.4,6.8-0.7,13.8,2.6,19.9c1.7,0.2,4.3,0.4,6.8,0.7l0,0l0,0l0,0l0,0l0,0l0,0c2.6,0.3,5.1,0.5,6.8,0.7
	c-0.3,14.8-15.3,10.5-25.8,7.5c-1.3-0.4-2.6-0.7-3.7-1c-0.9-10.2-1.3-20.4-1.3-30.6c-2.6-3.6-5.2-7.2-7.7-10.9l7.8-7.1
	c0-1.4,0-3.4,0.1-5.4v0v0v0C450.4,8.4,450.4,6.3,450.4,5z M77.5,18.3L77.5,18.3c-2.5,0.2-4.9,0.5-7.1,0.6c-0.2,2.8-0.5,8.5-0.7,11.3
	c1.4-0.2,2.9-0.3,4.3-0.5c8.4-1.1,17.3-2.3,23.8,4.4c-2.7,0.6-5.5,1.1-8.3,1.6l0,0c-5.4,1-10.8,1.9-15.9,4
	c-10.6,4.3-10.4,22.1-0.4,27c4.2,3,9.1,1.6,13.9,0.3c2.2-0.6,4.4-1.2,6.4-1.4c2.7,0.2,5.5,0.5,8.2,0.8l0,0l0,0l0,0l0,0l0,0l0,0l0,0
	l0,0c3,0.3,6,0.6,9.1,0.8c-0.1-4.4,0-8.7,0.1-13.1v0v0l0,0v0v0v0v0v0c0.2-9.2,0.4-18.3-1.6-27.3C102.7,15.8,89.2,17.1,77.5,18.3z
	 M81.8,57.7c0.4-3.9,0.8-7.7,1.2-11.6c1.9-0.2,3.8-0.5,5.7-0.7l0,0l0,0c2.4-0.3,4.9-0.6,7.4-0.9l0,0c-0.4,4.2-0.7,8.3-1,12.5
	c-2.2,0.1-4.3,0.2-6.5,0.3h0l0,0l0,0l0,0l0,0l0,0l0,0C86.3,57.5,84,57.6,81.8,57.7z M124.5,19L124.5,19L124.5,19L124.5,19
	c2.9,0.6,5.7,1.1,7.6,1.5c2.1,4.8,3.9,9.8,5.6,14.8v0l0,0c1.6,4.5,3.2,8.9,5,13.3c3.2-9.9,6.3-19.9,9.2-29.9c1.9,0,4.8-0.1,7.6-0.1
	c2.9,0,5.7-0.1,7.6-0.1c-5.4,17-11.4,33.8-18.1,50.3c-5.2-0.7-10.4-1.8-15.4-3.2c-6.9-14.7-11.5-30.3-16.2-45.9l0,0l0,0l0,0l0,0
	c-0.2-0.7-0.4-1.4-0.6-2.1C118.8,17.9,121.6,18.5,124.5,19z M175.9,19c-1.4,3.7-2.7,7.4-3.8,11.2c2.4,0,5-0.4,7.6-0.7
	c7.9-1,16.2-2.1,21.6,5c-1.7,0.3-3.7,0.6-5.7,0.9l0,0c-11.9,1.8-27.4,4.1-25.7,18.9C169.5,69,186.8,71,197.2,65.5l0,0
	c5.8,0.8,11.5,1.6,17.4,2.4c-0.1-4.2,0-8.5,0.1-12.8c0.2-9.7,0.5-19.5-1.5-29c-8.3-11.3-24.6-8.9-36.8-7.2L175.9,19z M185.3,56.3
	c0.4-3.2,0.7-6.5,1.1-9.8l0,0c4.4-0.7,8.7-1.4,13.1-2.1c-0.2,2.2-0.4,4.4-0.6,6.6s-0.4,4.4-0.6,6.6c-4.4-0.1-8.8-0.2-13.1-0.3l0,0
	L185.3,56.3z M278.1,43.1c-1.2-21.5,26.2-32.8,42.6-21.3c0.4,3,1.1,9.2,1.5,12.2c-1.8-0.6-3.7-1.3-5.5-2.1c-5.8-2.4-11.7-4.8-17.8-2
	c-8.6,8.2-6.8,28.9,7.7,27.6c2-0.6,5-1.6,8-2.5l0,0c3-1,6-1.9,8-2.5c-0.7,3.4-2.1,10.2-2.8,13.6C302.6,74.1,276.7,64.6,278.1,43.1z
	 M332.1,18.3L332.1,18.3c-1.1-0.3-2.2-0.6-3.3-0.9c-0.4,16.8-0.3,33.5-0.1,50.3c1.9,0,4.7,0,7.5-0.1h0l0,0c2.8,0,5.6,0,7.5-0.1
	c0.1-11.4,0.2-22.7,0.6-34.1c5.6-0.3,11.3-0.6,17-0.8l0,0h0l0,0h0l0,0c-0.2-3.8-0.7-11.4-0.9-15.2c-1.5,0.5-2.9,1-4.4,1.6
	c-3.1,1.1-6.1,2.2-9.2,3.3C341.9,20.9,336.9,19.6,332.1,18.3L332.1,18.3L332.1,18.3z M393.2,18.5c10.9,2.5,22,1.7,32.8-0.5
	c17.1,3.5,17.5,27.7,11,40.4c-5.2,10.6-17.9,9.9-28,9.4l-0.4,0l-0.4,0l0.1,8.3l0.1,9l-0.2,0l0,0c-3.9,0-11.3-0.1-15.1-0.2
	c0-5.5,0-11,0-16.5v0v0v0C393.1,51.7,393.1,35.1,393.2,18.5z M408.6,30.1c-0.2,9.2-0.2,18.5-0.2,27.7c1.5-0.4,3.2-0.6,4.9-0.8
	c3.7-0.4,7.6-0.9,10.1-3.8c2.1-5.7,1.4-11.7,0.6-17.7c-0.2-1.9-0.5-3.8-0.6-5.7C418.6,29.9,413.6,30,408.6,30.1z M381.3,18.6h-14.1
	c-0.3,16.4-0.3,32.7,0,49h14.1C381.5,51.2,381.5,34.9,381.3,18.6z M141.4,99L141.4,99c16.8,0.2,33.6,0.4,50.5,0.2
	c31.4-1,62.7-0.7,94.1-0.4h0c12.3,0.1,24.5,0.2,36.8,0.3c13.2,0,26.4,0,39.6,0c21.4,0,42.9-0.1,64.3,0.1c-0.9,9.8-1.8,19.7-2.7,29.5
	l0,0.2c-10,110.2-20,220.4-29.3,330.7c-28.6,8.1-57.2,16.2-85.9,24.2l0,0l0,0c-17.8,5-35.6,10-53.3,15c-5.2,2.2-10.6,0.6-15.7-0.8h0
	c-0.7-0.2-1.4-0.4-2.1-0.6c-44.1-12.7-88.2-25.2-132.4-37.4C93.8,340,83,219.7,73.2,99.4C96,98.4,118.7,98.7,141.4,99z M358.9,441.6
	C358.9,441.6,358.9,441.6,358.9,441.6l0.1,0c2.5-0.7,5-1.4,7.5-2.2C364,440.1,361.5,440.9,358.9,441.6z M180.7,356.3L180.7,356.3
	c-16-4.6-32-9.2-48.3-12.7c-0.7,13.8-0.4,27.6,1.1,41.3c16.5,4,32.8,8.6,49.2,13.3l0,0c17.3,4.9,34.6,9.8,52.1,14
	c0.1-38,0.1-75.9,0.1-113.9c0-40.5-0.1-81,0.1-121.5c-6.7-0.2-13.3-0.3-20-0.4c-4.4-0.1-8.9-0.2-13.3-0.3
	c-0.7,36.6-0.6,73.2-0.5,109.8v0c0.1,25.4,0.1,50.8-0.1,76.1C194.2,360.2,187.4,358.3,180.7,356.3z M264,329.8
	c0.2-51,0.2-102,0-153.1c23.9-0.4,47.9-0.4,71.8-0.3c13.6,0,27.1,0.1,40.7,0c-1.1,13.9-2.5,27.9-4,41.8c-24.8,0-49.6,0-74.4,0
	c-0.3,20.8-0.3,41.7-0.1,62.5c12.6-0.9,25.2-2.4,37.8-4c10.9-1.3,21.8-2.7,32.7-3.6c-1.6,17.5-2.9,34.9-4.2,52.4
	c-1.4,19.3-2.9,38.6-4.7,57.8c0.2,4.1-3.4,5.1-6.8,6c-1.2,0.3-2.4,0.6-3.3,1.1c-10.1,2.5-20.1,5.2-30.1,7.8
	c-18.3,4.8-36.7,9.7-55.2,13.8c-0.1-13.7-0.1-27.4,0.3-41.1c17.4-4.3,34.7-8.9,52-13.5c5.3-1.4,10.7-2.9,16-4.3
	c0.5-11.9,1-23.8,1.3-35.6c-2.8,0.5-5.7,1-8.5,1.6C304.9,322.8,284.5,326.5,264,329.8z"/>
</svg>
