<svg width="500" height="500" viewBox="0 0 500 500" fill="none" xmlns="http://www.w3.org/2000/svg">
<path d="M475.01 221.594C475.01 205.876 477.47 196.599 477.47 179.732C477.47 153.51 467.782 145.077 446.331 145.077H430.569V163.631H435.413C446.331 163.631 448.714 167.234 448.714 180.575C448.714 193.072 447.484 205.57 447.484 220.06C447.484 238.614 453.558 245.821 465.63 248.658V249.885C453.481 252.722 447.484 259.929 447.484 278.483C447.484 292.974 448.714 304.704 448.714 317.968C448.714 331.692 445.87 335.296 435.413 335.296V335.679H430.569V355H446.331C467.706 355 477.47 346.566 477.47 320.345C477.47 303.018 475.01 294.124 475.01 278.483C475.01 270.049 480.238 261.156 496 260.389V239.458C480.238 238.921 475.01 230.027 475.01 221.594ZM393.817 246.128C381.669 241.298 370.367 238.461 370.367 230.411C370.367 224.354 375.21 220.75 384.129 220.75C393.048 220.75 401.121 224.354 409.963 230.794L426.11 209.48C416.037 201.813 402.275 193.762 383.668 193.762C356.219 193.762 337.613 209.48 337.613 231.637C337.613 251.342 354.989 261.462 369.521 267.059C382.053 271.889 394.202 275.953 394.202 284.003C394.202 290.06 389.358 294.047 378.44 294.047C368.368 294.047 358.218 289.984 347.301 281.55L331.154 304.934C343.302 314.978 361.832 321.878 377.21 321.878C409.502 321.878 426.879 304.934 426.879 282.777C426.879 260.619 409.579 251.342 393.817 246.128ZM117.87 291.67C115.025 291.67 111.411 289.217 111.411 281.626V145H54.0534C32.2175 145 22.5298 153.434 22.5298 179.655C22.5298 196.982 24.9902 206.643 24.9902 221.517C24.9902 229.951 19.7618 238.844 4 239.611V260.542C19.7618 260.926 24.9902 269.819 24.9902 278.253C24.9902 293.127 22.5298 302.021 22.5298 319.348C22.5298 345.57 32.2175 354.003 53.669 354.003H69.4308V335.449H64.587C54.5148 335.449 51.2855 331.386 51.2855 318.122C51.2855 304.858 52.5157 293.51 52.5157 278.636C52.5157 260.082 46.4416 252.875 34.3704 250.038V248.812C46.5185 245.975 52.5157 238.768 52.5157 220.214C52.5157 205.723 51.2855 193.992 51.2855 180.728C51.2855 167.464 54.1303 163.784 64.587 163.784H75.428V279.403C75.428 304.014 83.8856 320.115 108.566 320.115C116.255 320.115 122.329 318.888 126.712 317.278L122.637 291.057C120.253 291.67 119.1 291.67 117.87 291.67ZM296.017 246.128C283.484 241.298 272.182 238.461 272.182 230.411C272.182 224.354 277.026 220.75 285.945 220.75C294.864 220.75 302.937 224.354 311.779 230.794L327.925 209.48C317.853 201.813 304.09 193.762 285.483 193.762C258.035 193.762 239.428 209.48 239.428 231.637C239.428 251.342 256.804 261.462 271.336 267.059C283.869 271.889 296.017 275.953 296.017 284.003C296.017 290.06 291.173 294.047 280.255 294.047C270.183 294.047 260.034 289.984 249.116 281.55L233.354 304.934C245.502 314.978 264.032 321.878 279.409 321.878C311.702 321.878 329.078 304.934 329.078 282.777C329.155 260.619 311.779 251.342 296.017 246.128ZM176.842 193.379C147.317 193.379 119.1 217.99 119.869 256.632C119.869 296.501 146.164 319.885 180.84 319.885C195.372 319.885 211.518 314.671 224.051 306.161L211.902 284.847C202.984 290.06 194.526 292.514 185.607 292.514C169.461 292.514 156.928 284.847 153.699 266.292H226.895C227.28 263.456 228.126 257.859 228.126 251.418C228.587 218.757 210.749 193.379 176.842 193.379ZM153.776 244.135C156.236 228.034 165.924 220.367 177.226 220.367C191.758 220.367 197.448 230.411 197.448 244.135H153.776Z" fill="#CCB0AB"/>
</svg>
