<?xml version="1.0" encoding="utf-8"?>
<!-- Generator: Adobe Illustrator 28.1.0, SVG Export Plug-In . SVG Version: 6.00 Build 0)  -->
<svg version="1.1" id="Camada_1" xmlns="http://www.w3.org/2000/svg" xmlns:xlink="http://www.w3.org/1999/xlink" x="0px" y="0px"
	 viewBox="0 0 500 500" style="enable-background:new 0 0 500 500;" xml:space="preserve">
<style type="text/css">
	.st0{fill:url(#SVGID_1_);}
</style>
<linearGradient id="SVGID_1_" gradientUnits="userSpaceOnUse" x1="4" y1="250" x2="496" y2="250">
	<stop  offset="0" style="stop-color:#FA12E3"/>
	<stop  offset="0.5362" style="stop-color:#7312FA"/>
	<stop  offset="1" style="stop-color:#415CA7"/>
</linearGradient>
<path class="st0" d="M475,221.6c0-15.7,2.5-25,2.5-41.9c0-26.2-9.7-34.7-31.1-34.7h-15.8v18.6h4.8c10.9,0,13.3,3.6,13.3,16.9
	c0,12.5-1.2,25-1.2,39.5c0,18.6,6.1,25.8,18.1,28.6v1.2c-12.1,2.8-18.1,10-18.1,28.6c0,14.5,1.2,26.2,1.2,39.5
	c0,13.7-2.8,17.3-13.3,17.3v0.4h-4.8V355h15.8c21.4,0,31.1-8.4,31.1-34.7c0-17.3-2.5-26.2-2.5-41.9c0-8.4,5.2-17.3,21-18.1v-20.9
	C480.2,238.9,475,230,475,221.6z M393.8,246.1c-12.1-4.8-23.4-7.7-23.4-15.7c0-6.1,4.8-9.7,13.8-9.7s17,3.6,25.8,10l16.1-21.3
	c-10.1-7.7-23.8-15.7-42.4-15.7c-27.4,0-46.1,15.7-46.1,37.9c0,19.7,17.4,29.8,31.9,35.4c12.5,4.8,24.7,8.9,24.7,16.9
	c0,6.1-4.8,10-15.8,10c-10.1,0-20.2-4.1-31.1-12.5l-16.1,23.4c12.1,10,30.7,16.9,46.1,16.9c32.3,0,49.7-16.9,49.7-39.1
	C426.9,260.6,409.6,251.3,393.8,246.1z M117.9,291.7c-2.8,0-6.5-2.5-6.5-10V145H54.1c-21.8,0-31.5,8.4-31.5,34.7
	c0,17.3,2.5,27,2.5,41.9c0,8.4-5.2,17.3-21,18.1v20.9c15.8,0.4,21,9.3,21,17.7c0,14.9-2.5,23.8-2.5,41.1c0,26.2,9.7,34.7,31.1,34.7
	h15.8v-18.6h-4.8c-10.1,0-13.3-4.1-13.3-17.3c0-13.3,1.2-24.6,1.2-39.5c0-18.6-6.1-25.8-18.1-28.6v-1.2c12.1-2.8,18.1-10,18.1-28.6
	c0-14.5-1.2-26.2-1.2-39.5c0-13.3,2.8-16.9,13.3-16.9h10.8v115.6c0,24.6,8.5,40.7,33.1,40.7c7.7,0,13.8-1.2,18.1-2.8l-4.1-26.2
	C120.3,291.7,119.1,291.7,117.9,291.7z M296,246.1c-12.5-4.8-23.8-7.7-23.8-15.7c0-6.1,4.8-9.7,13.8-9.7s17,3.6,25.8,10l16.1-21.3
	c-10.1-7.7-23.8-15.7-42.4-15.7c-27.4,0-46.1,15.7-46.1,37.9c0,19.7,17.4,29.8,31.9,35.4c12.5,4.8,24.7,8.9,24.7,16.9
	c0,6.1-4.8,10-15.8,10c-10.1,0-20.2-4.1-31.1-12.5l-15.8,23.4c12.1,10,30.7,16.9,46.1,16.9c32.3,0,49.7-16.9,49.7-39.1
	C329.2,260.6,311.8,251.3,296,246.1z M176.8,193.4c-29.5,0-57.7,24.6-57,63.3c0,39.9,26.3,63.3,61,63.3c14.5,0,30.7-5.2,43.2-13.7
	l-12.1-21.3c-8.9,5.2-17.4,7.7-26.3,7.7c-16.1,0-28.7-7.7-31.9-26.2h73.2c0.4-2.8,1.2-8.4,1.2-14.9
	C228.6,218.8,210.7,193.4,176.8,193.4z M153.8,244.1c2.5-16.1,12.1-23.8,23.4-23.8c14.5,0,20.2,10,20.2,23.8H153.8z"/>
</svg>
