<?xml version="1.0" encoding="utf-8"?>
<!-- Generator: Adobe Illustrator 28.1.0, SVG Export Plug-In . SVG Version: 6.00 Build 0)  -->
<svg version="1.1" id="Camada_2_00000008868032397062724930000000405460260899374269_"
	 xmlns="http://www.w3.org/2000/svg" xmlns:xlink="http://www.w3.org/1999/xlink" x="0px" y="0px" viewBox="0 0 143.4 140.5"
	 style="enable-background:new 0 0 143.4 140.5;" xml:space="preserve">
<style type="text/css">
	.st0{opacity:0.4;}
	.st1{fill:url(#SVGID_1_);}
	.st2{fill:url(#SVGID_00000181070281246768301180000011152495640782030254_);}
	.st3{fill:url(#SVGID_00000062909230097081967850000006736928951428682655_);}
	.st4{fill:url(#SVGID_00000140010085565229509040000016816690876322215046_);}
	.st5{fill:url(#SVGID_00000176725159191950744260000007354595843023386802_);}
	.st6{fill:url(#SVGID_00000129172137283417546030000017007673258538886568_);}
	.st7{fill:url(#SVGID_00000023250944082096356180000000322498118738956958_);}
	.st8{fill:url(#SVGID_00000036211999192227515050000012902706371072643487_);}
</style>
<g class="st0">
	
		<linearGradient id="SVGID_1_" gradientUnits="userSpaceOnUse" x1="27.005" y1="75.545" x2="116.395" y2="75.545" gradientTransform="matrix(1 0 0 -1 0 141)">
		<stop  offset="0" style="stop-color:#FA12E3"/>
		<stop  offset="0.54" style="stop-color:#7312FA"/>
		<stop  offset="1" style="stop-color:#415CA7"/>
	</linearGradient>
	<path class="st1" d="M116.4,45.4L101,20.8H42.4L27,45.4v64.7h89.4V45.4z"/>
	
		<linearGradient id="SVGID_00000091705237864683632030000014349965226762163849_" gradientUnits="userSpaceOnUse" x1="27.005" y1="107.91" x2="116.395" y2="107.91" gradientTransform="matrix(1 0 0 -1 0 141)">
		<stop  offset="0" style="stop-color:#FA12E3"/>
		<stop  offset="0.54" style="stop-color:#7312FA"/>
		<stop  offset="1" style="stop-color:#415CA7"/>
	</linearGradient>
	<path style="fill:url(#SVGID_00000091705237864683632030000014349965226762163849_);" d="M27,45.4h89.4L101,20.8H42.4
		C42.4,20.8,27,45.4,27,45.4z"/>
	
		<linearGradient id="SVGID_00000041269941694593381030000009119729694212772009_" gradientUnits="userSpaceOnUse" x1="62.4504" y1="37.0106" x2="80.9497" y2="37.0106" gradientTransform="matrix(1 0 0 -1 0 141)">
		<stop  offset="0" style="stop-color:#FA12E3"/>
		<stop  offset="0.54" style="stop-color:#7312FA"/>
		<stop  offset="1" style="stop-color:#415CA7"/>
	</linearGradient>
	<path style="fill:url(#SVGID_00000041269941694593381030000009119729694212772009_);" d="M62.5,100.9v9.2h18.5v-9.2l-3.1,3.1
		l-6.2-6.2l-6.2,6.2C65.5,104,62.5,100.9,62.5,100.9z"/>
	
		<linearGradient id="SVGID_00000093160852866877434990000008587332592228138915_" gradientUnits="userSpaceOnUse" x1="57.8255" y1="61.6793" x2="85.5745" y2="61.6793" gradientTransform="matrix(1 0 0 -1 0 141)">
		<stop  offset="0" style="stop-color:#FA12E3"/>
		<stop  offset="0.54" style="stop-color:#7312FA"/>
		<stop  offset="1" style="stop-color:#415CA7"/>
	</linearGradient>
	<path style="fill:url(#SVGID_00000093160852866877434990000008587332592228138915_);" d="M57.8,67h27.7v24.7H57.8V67z"/>
	
		<linearGradient id="SVGID_00000050664777245954429770000014436167872089342142_" gradientUnits="userSpaceOnUse" x1="62.4504" y1="61.6705" x2="80.9497" y2="61.6705" gradientTransform="matrix(1 0 0 -1 0 141)">
		<stop  offset="0" style="stop-color:#FA12E3"/>
		<stop  offset="0.54" style="stop-color:#7312FA"/>
		<stop  offset="1" style="stop-color:#415CA7"/>
	</linearGradient>
	<path style="fill:url(#SVGID_00000050664777245954429770000014436167872089342142_);" d="M73.2,84H64c-0.9,0-1.5,0.7-1.5,1.5
		c0,0.8,0.7,1.5,1.5,1.5h9.2c0.9,0,1.5-0.7,1.5-1.5C74.8,84.7,74.1,84,73.2,84z M79.4,84h-1.5c-0.9,0-1.5,0.7-1.5,1.5
		c0,0.8,0.7,1.5,1.5,1.5h1.5c0.9,0,1.5-0.7,1.5-1.5C80.9,84.7,80.3,84,79.4,84z M70.2,74.7h9.2c0.9,0,1.5-0.7,1.5-1.5
		c0-0.8-0.7-1.5-1.5-1.5h-9.2c-0.9,0-1.5,0.7-1.5,1.5C68.6,74,69.3,74.7,70.2,74.7z M79.4,77.8h-3.1c-0.9,0-1.5,0.7-1.5,1.5
		s0.7,1.5,1.5,1.5h3.1c0.9,0,1.5-0.7,1.5-1.5S80.3,77.8,79.4,77.8z M64,80.9h3.1c0.9,0,1.5-0.7,1.5-1.5c0-0.8-0.7-1.5-1.5-1.5H64
		c-0.9,0-1.5,0.7-1.5,1.5C62.5,80.2,63.1,80.9,64,80.9z M64,74.7h1.5c0.9,0,1.5-0.7,1.5-1.5c0-0.8-0.7-1.5-1.5-1.5H64
		c-0.9,0-1.5,0.7-1.5,1.5C62.5,74,63.1,74.7,64,74.7z M70.6,78.2c-0.3,0.3-0.5,0.7-0.5,1.1c0,0.4,0.2,0.8,0.5,1.1
		c0.3,0.3,0.7,0.5,1.1,0.5s0.8-0.2,1.1-0.5c0.3-0.3,0.4-0.7,0.5-1.1c0-0.4-0.2-0.8-0.5-1.1C72.2,77.6,71.2,77.6,70.6,78.2L70.6,78.2
		L70.6,78.2z"/>
	
		<linearGradient id="SVGID_00000058548784325982421550000014403681434346908076_" gradientUnits="userSpaceOnUse" x1="62.4504" y1="107.91" x2="80.9497" y2="107.91" gradientTransform="matrix(1 0 0 -1 0 141)">
		<stop  offset="0" style="stop-color:#FA12E3"/>
		<stop  offset="0.54" style="stop-color:#7312FA"/>
		<stop  offset="1" style="stop-color:#415CA7"/>
	</linearGradient>
	<path style="fill:url(#SVGID_00000058548784325982421550000014403681434346908076_);" d="M62.5,20.8h18.5v24.7H62.5V20.8z"/>
	
		<linearGradient id="SVGID_00000051352527192249345240000013144798875831711919_" gradientUnits="userSpaceOnUse" x1="62.4504" y1="88.6516" x2="80.9497" y2="88.6516" gradientTransform="matrix(1 0 0 -1 0 141)">
		<stop  offset="0" style="stop-color:#FA12E3"/>
		<stop  offset="0.54" style="stop-color:#7312FA"/>
		<stop  offset="1" style="stop-color:#415CA7"/>
	</linearGradient>
	<path style="fill:url(#SVGID_00000051352527192249345240000013144798875831711919_);" d="M80.9,56.2V45.4H62.5v10.8l3.1-3.1
		l6.2,6.2l6.2-6.2C77.9,53.1,80.9,56.2,80.9,56.2z"/>
</g>
<linearGradient id="SVGID_00000009579678738834277370000014996452278341002157_" gradientUnits="userSpaceOnUse" x1="0" y1="70.75" x2="143.4" y2="70.75" gradientTransform="matrix(1 0 0 -1 0 141)">
	<stop  offset="0" style="stop-color:#FA12E3"/>
	<stop  offset="0.54" style="stop-color:#7312FA"/>
	<stop  offset="1" style="stop-color:#415CA7"/>
</linearGradient>
<path style="fill:url(#SVGID_00000009579678738834277370000014996452278341002157_);" d="M16.4,54.2c3.7,0,6.3,2.6,6.3,6.3v8.1
	c0,3.7-2.6,6.3-6.3,6.3h-10v11.3H0V54.2C0,54.2,16.4,54.2,16.4,54.2z M20,61.1c0-2.8-1.6-4.4-4.4-4.4H2.7v26.9h0.9V72.4h12
	c2.8,0,4.4-1.6,4.4-4.4V61.1L20,61.1z M15.6,57.6c2.2,0,3.5,1.2,3.5,3.5V68c0,2.2-1.2,3.5-3.5,3.5h-12V57.7L15.6,57.6L15.6,57.6z
	 M14.8,68.9c1,0,1.5-0.5,1.5-1.5v-5.6c0-1-0.5-1.5-1.5-1.5H6.4v8.7L14.8,68.9L14.8,68.9z M26.4,86.3h-6.7l10.4-32.1h7.5L48,86.3H41
	l-2.1-7.2H28.5C28.5,79.1,26.4,86.3,26.4,86.3z M44.2,83.7l-8.2-26.9h-4.1l-8.4,26.9h0.8l2.2-7.2h14.6l2.2,7.2H44.2L44.2,83.7z
	 M32.3,57.6l-5.6,18h14.1l-5.5-18C35.4,57.6,32.3,57.6,32.3,57.6z M33.8,61.2L37.2,73h-6.8C30.4,73,33.8,61.2,33.8,61.2z M66.8,86.3
	l-5.2-11.9h-5.2v11.9H50V54.2h16.4c3.7,0,6.3,2.6,6.3,6.3V68c0,3-1.7,5.3-4.4,6.1l5.4,12.2L66.8,86.3z M69.6,83.7l-5.2-11.9h1.2
	c2.8,0,4.4-1.6,4.4-4.4v-6.3c0-2.8-1.6-4.4-4.4-4.4H52.8v26.9h0.9V71.8h9.8l5.2,11.9C68.6,83.7,69.6,83.7,69.6,83.7z M69.1,67.5
	c0,2.2-1.2,3.5-3.5,3.5H53.7V57.6h11.9c2.2,0,3.5,1.2,3.5,3.5V67.5L69.1,67.5z M64.8,68.4c1,0,1.5-0.5,1.5-1.5v-5.1
	c0-1-0.5-1.5-1.5-1.5h-8.3v8.1C56.4,68.4,64.8,68.4,64.8,68.4z M91.3,61.6c0-1-0.5-1.5-1.5-1.5h-6.9c-1,0-1.5,0.5-1.5,1.5v17.3
	c0,1,0.5,1.5,1.5,1.5h7c1,0,1.5-0.5,1.5-1.5V75h6.4v5.2c0,3.7-2.6,6.3-6.3,6.3H81.3c-3.7,0-6.3-2.6-6.3-6.3V60.3
	c0-3.7,2.6-6.3,6.3-6.3h10.2c3.7,0,6.3,2.6,6.3,6.3v5.2h-6.4C91.3,65.5,91.3,61.6,91.3,61.6z M90.6,57.5c2.2,0,3.5,1.2,3.5,3.5V63
	H95V61c0-2.8-1.6-4.4-4.4-4.4h-8.6c-2.8,0-4.4,1.6-4.4,4.4v18.6c0,2.8,1.6,4.4,4.4,4.4h8.6c2.8,0,4.4-1.6,4.4-4.4v-2h-0.9v2
	c0,2.2-1.2,3.5-3.5,3.5H82c-2.2,0-3.5-1.2-3.5-3.5V61c0-2.2,1.2-3.5,3.5-3.5H90.6z M121.2,54.2v6.1h-14.6v6.6h11.8v6.1h-11.8v7.3
	h14.6v6.1h-21V54.2L121.2,54.2L121.2,54.2z M118.4,83.7v-0.9h-14.6V70.3h11.8v-0.9h-11.8V57.6h14.6v-0.9h-15.5v26.9L118.4,83.7
	L118.4,83.7z M129.9,54.2v26.1h13.5v6.1h-19.9V54.2C123.5,54.2,129.9,54.2,129.9,54.2z M140.6,83.7v-0.9h-13.5V56.7h-0.9v26.9
	L140.6,83.7L140.6,83.7z"/>
</svg>
