<?xml version="1.0" encoding="utf-8"?>
<!-- Generator: Adobe Illustrator 28.1.0, SVG Export Plug-In . SVG Version: 6.00 Build 0)  -->
<svg version="1.1" id="Camada_2_00000008868032397062724930000000405460260899374269_"
	 xmlns="http://www.w3.org/2000/svg" xmlns:xlink="http://www.w3.org/1999/xlink" x="0px" y="0px" viewBox="0 0 500 500"
	 style="enable-background:new 0 0 500 500;" xml:space="preserve">
<style type="text/css">
	.st0{fill:url(#SVGID_1_);}
	.st1{fill:url(#SVGID_00000083795907375962416910000000906942592873100222_);}
	.st2{fill:url(#SVGID_00000182528753604834780090000015309191743520525997_);}
	.st3{fill:url(#SVGID_00000032639138638748422560000000333912384220220346_);}
	.st4{opacity:0.2;fill:#121212;}
	.st5{opacity:0.3;fill:#121212;}
</style>
<g>
	<linearGradient id="SVGID_1_" gradientUnits="userSpaceOnUse" x1="50.9669" y1="227.6711" x2="305.1269" y2="283.1111">
		<stop  offset="0" style="stop-color:#FA12E3"/>
		<stop  offset="0.54" style="stop-color:#7312FA"/>
		<stop  offset="1" style="stop-color:#415CA7"/>
	</linearGradient>
	<path class="st0" d="M108.5,233.2h-6.8V246l6.8,0c2.4,0,4.6-0.8,6.1-2.3c0.8-0.8,1.8-2.1,1.8-4
		C116.4,236.1,112.8,233.2,108.5,233.2z"/>
	
		<linearGradient id="SVGID_00000070090039459409691430000002937899548628629663_" gradientUnits="userSpaceOnUse" x1="56.1623" y1="203.8531" x2="310.3224" y2="259.2931">
		<stop  offset="0" style="stop-color:#FA12E3"/>
		<stop  offset="0.54" style="stop-color:#7312FA"/>
		<stop  offset="1" style="stop-color:#415CA7"/>
	</linearGradient>
	<path style="fill:url(#SVGID_00000070090039459409691430000002937899548628629663_);" d="M220.3,233.2h-5.6v11.9h5.6c0,0,0,0,0,0
		c1.7,0,3.4-0.7,4.7-1.9c1.2-1.1,1.8-2.6,1.8-4.1C226.8,235.8,223.9,233.2,220.3,233.2z"/>
	
		<linearGradient id="SVGID_00000085241950290678043520000003032184630138312591_" gradientUnits="userSpaceOnUse" x1="50.7892" y1="228.486" x2="304.9492" y2="283.926">
		<stop  offset="0" style="stop-color:#FA12E3"/>
		<stop  offset="0.54" style="stop-color:#7312FA"/>
		<stop  offset="1" style="stop-color:#415CA7"/>
	</linearGradient>
	<polygon style="fill:url(#SVGID_00000085241950290678043520000003032184630138312591_);" points="150.5,259.1 165.1,259.1 
		157.8,243 	"/>
	
		<linearGradient id="SVGID_00000070117695529428992100000011926690338825185720_" gradientUnits="userSpaceOnUse" x1="4" y1="249.95" x2="496.1" y2="249.95">
		<stop  offset="0" style="stop-color:#FA12E3"/>
		<stop  offset="0.54" style="stop-color:#7312FA"/>
		<stop  offset="1" style="stop-color:#415CA7"/>
	</linearGradient>
	<path style="fill:url(#SVGID_00000070117695529428992100000011926690338825185720_);" d="M450.5,191.1c-8.3-27-9.5-60.1-8.6-85.7
		c1-26.6-19.9-51.1-47.9-51.1H106.2c-28.1,0-48.8,24.5-47.9,51.1c0.9,25.6-0.3,58.7-8.6,85.7c-8.4,27.1-22.5,44.2-45.7,46.4v24.9
		c23.1,2.2,37.3,19.3,45.7,46.4c8.3,27,9.5,60.1,8.6,85.7c-1,26.6,19.9,51.1,47.9,51.1H394c28.1,0,48.9-24.5,47.9-51.1
		c-0.9-25.6,0.3-58.7,8.6-85.7c8.4-27.1,22.5-44.2,45.6-46.4v-24.9C473,235.3,458.8,218.2,450.5,191.1z M101.7,263.5v21.1H84.2
		v-68.8h24.3c14,0,25.4,10.8,25.4,24.1c0,13-11.4,23.7-25.4,23.7H101.7z M173.7,284.5l-4.2-9.2H146l-4.2,9.2h-19.2l32.3-70.1h5.7
		l32.3,70.1H173.7z M232.5,284.5L216.1,261h-1.4v23.5h-17.5l0-68.8h22.9c13.6,0,24.6,10.6,24.6,23.5c0,7.5-3.9,14.5-10,18.5
		l19.5,26.8H232.5z M288.8,267.9c5.6,0,10.2-3.3,13-6.1l3.3-3.3l10.2,14.3l-2.4,2.4c-7,6.9-14.8,10.3-23.8,10.3
		c-19.6,0-35.5-15.9-35.5-35.4c0-19.2,16.2-35.5,35.4-35.5c8.8,0.1,17.1,3.7,23.9,10.4l2.5,2.4L305,241.6l-3.3-3.3
		c-3.8-3.8-8.4-5.9-12.9-5.9c-9.3,0-17.5,8.3-17.5,17.8C271.2,260.7,280.5,267.9,288.8,267.9z M365.6,233.1h-26.7v7.6h23v17.5h-23
		v8.8h26.7v17.5h-44.2v-68.8h44.2V233.1z M419.9,284.5h-44.7v-68.8h17.5V267h27.1V284.5z"/>
</g>
<path class="st4" d="M388.8,187.8l-47.9-76.6H159.1l-47.9,76.6v201h277.5V187.8z"/>
<path class="st5" d="M111.2,187.8h277.5l-47.9-76.6H159.1L111.2,187.8z"/>
<path class="st5" d="M221.3,360.1v28.7h57.4v-28.7l-9.6,9.6L250,350.5l-19.1,19.1L221.3,360.1z"/>
<path class="st5" d="M206.9,254.8h86.1v76.6h-86.1V254.8z"/>
<path class="st5" d="M254.8,307.4h-28.7c-2.6,0-4.8,2.1-4.8,4.8s2.1,4.8,4.8,4.8h28.7c2.6,0,4.8-2.1,4.8-4.8
	S257.4,307.4,254.8,307.4z M273.9,307.4h-4.8c-2.6,0-4.8,2.1-4.8,4.8s2.1,4.8,4.8,4.8h4.8c2.6,0,4.8-2.1,4.8-4.8
	S276.6,307.4,273.9,307.4z M245.2,278.7h28.7c2.6,0,4.8-2.1,4.8-4.8s-2.1-4.8-4.8-4.8h-28.7c-2.6,0-4.8,2.1-4.8,4.8
	S242.6,278.7,245.2,278.7z M273.9,288.3h-9.6c-2.6,0-4.8,2.1-4.8,4.8s2.1,4.8,4.8,4.8h9.6c2.6,0,4.8-2.1,4.8-4.8
	S276.6,288.3,273.9,288.3z M226.1,297.9h9.6c2.6,0,4.8-2.1,4.8-4.8s-2.1-4.8-4.8-4.8h-9.6c-2.6,0-4.8,2.1-4.8,4.8
	S223.4,297.9,226.1,297.9z M226.1,278.7h4.8c2.6,0,4.8-2.1,4.8-4.8s-2.1-4.8-4.8-4.8h-4.8c-2.6,0-4.8,2.1-4.8,4.8
	S223.4,278.7,226.1,278.7z M246.7,289.7c-0.9,0.9-1.4,2.1-1.4,3.3c0,1.3,0.5,2.5,1.4,3.3c0.9,0.9,2.1,1.4,3.3,1.4
	c1.3,0,2.5-0.5,3.4-1.4c0.9-0.9,1.4-2.1,1.4-3.4c0-1.3-0.5-2.5-1.4-3.4C251.5,287.9,248.5,287.9,246.7,289.7L246.7,289.7z"/>
<path class="st5" d="M221.3,111.2h57.4v76.6h-57.4V111.2z"/>
<path class="st5" d="M278.7,221.3v-33.5h-57.4v33.5l9.6-9.6l19.1,19.1l19.1-19.1L278.7,221.3z"/>
</svg>
