<?xml version="1.0" encoding="utf-8"?>
<!-- Generator: Adobe Illustrator 28.1.0, SVG Export Plug-In . SVG Version: 6.00 Build 0)  -->
<svg version="1.1" id="Camada_1" xmlns="http://www.w3.org/2000/svg" xmlns:xlink="http://www.w3.org/1999/xlink" x="0px" y="0px"
	 viewBox="0 0 500 500" style="enable-background:new 0 0 500 500;" xml:space="preserve">
<style type="text/css">
	.st0{fill:url(#SVGID_1_);}
</style>
<linearGradient id="SVGID_1_" gradientUnits="userSpaceOnUse" x1="4" y1="250" x2="496.0001" y2="250">
	<stop  offset="0" style="stop-color:#FA12E3"/>
	<stop  offset="0.5362" style="stop-color:#7312FA"/>
	<stop  offset="1" style="stop-color:#415CA7"/>
</linearGradient>
<path class="st0" d="M236,344.7C235.8,345.2,235.6,345.6,236,344.7z M427.6,277.7c-15.5,0-30.7,3.6-44.6,10.4
	c-4.5-9.2-9.2-17.2-10-23.2c-0.9-7-1.9-11.2-0.8-19.5c1.1-8.3,5.9-20.1,5.8-21c-0.1-0.8-1.1-5.1-11-5.2c-9.9-0.1-18.4,1.9-19.4,4.5
	c-1.8,4.8-3.1,9.7-4.1,14.7c-1.8,9-19.8,41.2-30.1,58c-3.4-6.6-6.2-12.3-6.8-17c-0.9-7-1.9-11.2-0.8-19.5c1.1-8.3,5.9-20.1,5.8-21
	c-0.1-0.8-1.1-5.1-11-5.2c-9.9-0.1-18.5,1.9-19.4,4.5c-1,2.6-2.1,8.8-4.1,14.7c-2,5.9-26.1,59.6-32.3,73.5c-3.2,7.1-6,12.8-8,16.6
	c-0.3,0.6-0.5,1-0.7,1.3c0.2-0.4,0.4-0.8,0.4-0.6c-1.7,3.3-2.7,5.2-2.7,5.2v0.1c-1.3,2.5-2.8,4.7-3.5,4.7c-0.5,0-1.5-6.5,0.2-15.3
	c3.6-18.7,12.1-47.6,12.1-48.6c-0.1-0.5,1.6-5.5-5.6-8.2c-7-2.5-9.5,1.7-10.1,1.7c-0.6,0-1.1,1.5-1.1,1.5s7.8-32.7-14.9-32.7
	c-14.1,0-33.8,15.6-43.5,29.7c-6.1,3.3-19.2,10.5-33.1,18.1c-5.3,2.9-10.8,5.9-15.9,8.8c-0.4-0.4-0.7-0.8-1.1-1.2
	C89.8,278.4,39,257.6,41.1,218c0.8-14.4,5.8-52.3,97.7-98.2c75.3-37.6,135.6-27.3,145.9-4.3c14.9,32.8-32.2,93.7-110.4,102.5
	c-29.8,3.3-45.5-8.2-49.4-12.6c-4.1-4.5-4.7-4.8-6.2-3.9c-2.5,1.4-0.9,5.4,0,7.8c2.3,6.1,11.9,16.9,28.3,22.3
	c14.4,4.7,49.3,7.3,91.6-9.1C286,204.1,323,153,312.2,110.3c-11-43.5-82.9-57.7-150.9-33.5C120.8,91.1,77,113.8,45.4,143.3
	C8,178.5,2,209.1,4.5,221.9c8.8,45.4,71.2,75,96.1,96.9c-1.2,0.7-2.4,1.3-3.5,1.9c-12.5,6.2-60.1,31.2-72,57.6
	c-13.5,29.9,2.2,51.3,12.5,54.3c32.1,8.9,65-7.2,82.7-33.6c17.7-26.4,15.5-61,7.4-76.7c-0.1-0.2-0.2-0.4-0.3-0.6
	c3.2-1.9,6.5-3.9,9.8-5.8c6.4-3.8,12.6-7.2,18.1-10.3c-3.1,8.3-5.3,18.3-6.5,32.8c-1.4,17,5.6,38.9,14.7,47.6
	c4,3.8,8.8,3.9,11.8,3.9c10.6,0,15.4-8.8,20.7-19.3c6.5-12.8,12.3-27.7,12.3-27.7s-7.2,40.2,12.5,40.2c7.2,0,14.4-9.3,17.7-14.1v0.1
	c0,0,0.2-0.3,0.5-0.9c0.8-1.2,1.2-1.9,1.2-1.9v-0.2c2.9-5,9.3-16.5,18.9-35.5c12.5-24.5,24.4-55.1,24.4-55.1
	c1.2,6.7,2.7,13.4,4.8,19.9c2.2,7.3,6.7,15.3,10.3,23.1c-2.9,4-4.7,6.3-4.7,6.3c0,0.1,0,0.1,0.1,0.2c-2.3,3.1-4.9,6.4-7.6,9.6
	c-9.8,11.7-21.5,25.1-23.1,29c-1.8,4.5-1.4,7.9,2.2,10.6c2.6,2,7.2,2.3,12.1,1.9c8.8-0.6,15.1-2.8,18.1-4.2c5.5-2,10.8-4.7,15.5-8.2
	c9.6-7.1,15.5-17.3,14.9-30.7c-0.3-7.4-2.7-14.8-5.6-21.7c0.8-1.2,1.8-2.5,2.6-3.9c15.2-22.3,27-46.7,27-46.7
	c1.1,6.7,2.7,13.4,4.8,19.9c1.8,6.2,5.4,13.1,8.8,19.8c-14.3,11.6-23.1,25.1-26.2,34c-5.7,16.4-1.2,23.8,7.1,25.5
	c3.8,0.8,9.1-1,13.1-2.7c5.9-2,11.5-4.9,16.6-8.6c9.6-7.1,18.9-17,18.3-30.5c-0.2-6.1-1.9-12.2-4.2-18c12.1-5.1,27.7-7.9,47.7-5.5
	c42.8,5,51.2,31.8,49.6,43c-1.6,11.2-10.6,17.4-13.6,19.3c-3,1.8-3.9,2.5-3.7,3.9c0.4,2,1.8,1.9,4.3,1.5c3.5-0.6,22.4-9.1,23.3-29.8
	C497.2,306.2,472.1,277.4,427.6,277.7L427.6,277.7z M97.6,389.2c-14.1,15.5-34,21.4-42.5,16.4C46,400.3,49.6,377.5,67,361
	c10.6-10,24.3-19.3,33.4-25c2.1-1.2,5.1-3.1,8.8-5.3c0.6-0.4,0.9-0.5,0.9-0.5c0.7-0.5,1.5-0.8,2.2-1.3
	C118.7,352.3,112.5,372.9,97.6,389.2L97.6,389.2z M200.9,318.8c-4.9,12.1-15.3,42.9-21.6,41.3c-5.4-1.4-8.7-24.9-1.1-48
	c3.8-11.6,12-25.5,16.8-30.9c7.8-8.7,16.3-11.5,18.3-8C216.1,277.7,204,311.2,200.9,318.8z M286.2,359.6c-2.1,1.1-4,1.8-4.9,1.2
	c-0.7-0.4,0.8-1.9,0.8-1.9s10.7-11.5,14.9-16.7c2.5-3.1,5.3-6.7,8.4-10.7c0,0.4,0.1,0.8,0.1,1.2
	C305.4,346.6,292.2,355.9,286.2,359.6L286.2,359.6z M352,344.6c-1.5-1.1-1.3-4.7,3.8-16c2-4.4,6.6-11.8,14.6-18.9
	c0.9,2.7,1.4,5.5,1.5,8.3C371.9,335.4,359.5,341.9,352,344.6L352,344.6z"/>
</svg>
