<svg width="500" height="500" viewBox="0 0 500 500" fill="none" xmlns="http://www.w3.org/2000/svg">
<path d="M236.039 344.725C235.809 345.187 235.578 345.557 236.039 344.725ZM427.56 277.668C412.099 277.663 396.843 281.223 382.972 288.073C378.437 278.901 373.747 270.885 372.978 264.873C372.056 257.859 371.057 253.697 372.133 245.372C373.209 237.048 378.052 225.255 377.975 224.407C377.899 223.56 376.899 219.32 366.982 219.243C357.065 219.166 348.532 221.17 347.54 223.791C345.789 228.58 344.426 233.503 343.466 238.513C341.698 247.531 323.64 279.749 313.415 296.552C310.032 290 307.188 284.219 306.573 279.595C305.651 272.581 304.651 268.418 305.727 260.094C306.804 251.77 311.647 239.977 311.57 239.129C311.493 238.281 310.494 234.042 300.584 233.965C290.675 233.888 282.134 235.892 281.135 238.513C280.135 241.133 279.059 247.299 277.06 253.234C275.062 259.169 251.007 312.815 244.711 326.766C241.482 333.857 238.715 339.561 236.716 343.414C236.408 344.031 236.178 344.416 236.024 344.725C236.255 344.339 236.408 343.954 236.408 344.108C234.717 347.422 233.718 349.272 233.718 349.272V349.349C232.411 351.816 230.95 354.051 230.258 354.051C229.797 354.051 228.798 347.577 230.489 338.713C234.102 320.06 242.635 291.079 242.559 290.077C242.482 289.538 244.173 284.528 236.947 281.83C229.951 279.286 227.414 283.526 226.799 283.526C226.184 283.526 225.723 285.067 225.723 285.067C225.723 285.067 233.487 252.386 210.816 252.386C196.671 252.386 176.991 267.956 167.32 282.061C161.247 285.375 148.101 292.544 134.263 300.174C128.959 303.103 123.501 306.109 118.35 308.961C117.966 308.576 117.658 308.19 117.274 307.805C89.76 278.361 38.9604 257.551 41.1129 218.01C41.8817 203.597 46.8786 165.752 138.799 119.814C214.138 82.2003 274.37 92.5287 284.74 115.498C299.654 148.255 252.537 209.223 174.3 218.01C144.48 221.324 128.805 209.763 124.885 205.447C120.81 200.899 120.195 200.668 118.658 201.516C116.121 202.903 117.735 206.911 118.658 209.3C120.964 215.389 130.573 226.18 146.94 231.576C161.316 236.277 196.279 238.898 238.553 222.481C286.047 204.136 323.017 153.034 312.177 110.256C301.138 66.7849 229.244 52.5257 161.262 76.7279C120.756 91.1413 76.9525 113.802 45.4411 143.322C8.01018 178.47 2.02155 209.069 4.48158 221.864C13.2377 267.262 75.6456 296.86 100.623 318.75C99.3926 319.443 98.2394 320.06 97.1632 320.677C84.6401 326.92 37.0616 351.893 25.1535 378.253C11.7002 408.159 27.3829 429.587 37.6766 432.516C69.803 441.456 102.698 425.347 120.372 398.91C138.046 372.472 135.901 337.942 127.752 322.218C127.675 321.987 127.521 321.833 127.445 321.602C130.673 319.675 133.979 317.748 137.285 315.821C143.658 312.044 149.885 308.576 155.343 305.57C152.268 313.894 150.038 323.914 148.885 338.404C147.501 355.361 154.497 377.328 163.569 385.961C167.566 389.738 172.402 389.815 175.4 389.815C186.009 389.815 190.775 381.028 196.072 370.546C202.606 357.751 208.372 342.875 208.372 342.875C208.372 342.875 201.145 383.109 220.903 383.109C228.121 383.109 235.348 373.783 238.584 369.004V369.081C238.584 369.081 238.738 368.773 239.122 368.156C239.891 367 240.275 366.306 240.275 366.306V366.075C243.197 361.065 249.577 349.581 259.179 330.62C271.633 306.109 283.541 275.51 283.541 275.51C284.692 282.236 286.284 288.879 288.307 295.395C290.46 302.718 294.996 310.734 298.609 318.519C295.687 322.527 293.919 324.839 293.919 324.839C293.925 324.898 293.952 324.953 293.996 324.993C291.69 328.076 289.076 331.39 286.385 334.628C276.553 346.343 264.86 359.755 263.323 363.609C261.478 368.156 261.939 371.548 265.475 374.168C268.089 376.172 272.702 376.48 277.537 376.095C286.378 375.478 292.605 373.32 295.603 371.933C301.13 369.946 306.354 367.196 311.124 363.763C320.734 356.672 326.576 346.498 326.038 333.086C325.731 325.687 323.347 318.287 320.426 311.35C321.272 310.117 322.194 308.807 323.04 307.497C338.254 285.221 350.016 260.772 350.016 260.772C351.166 267.499 352.759 274.142 354.782 280.658C356.627 286.902 360.232 293.761 363.538 300.467C349.247 312.106 340.406 325.594 337.331 334.458C331.642 350.876 336.101 358.275 344.481 359.971C348.248 360.741 353.629 358.969 357.626 357.273C363.563 355.29 369.161 352.405 374.224 348.717C383.833 341.626 393.128 331.683 392.513 318.195C392.282 312.106 390.591 306.017 388.361 300.159C400.431 295.072 416.106 292.297 436.094 294.609C478.898 299.619 487.278 326.442 485.663 337.618C484.049 348.794 475.054 355.038 472.056 356.888C469.058 358.737 468.135 359.431 468.366 360.818C468.75 362.822 470.134 362.745 472.671 362.283C476.207 361.666 495.111 353.188 495.957 332.454C497.187 306.248 472.056 277.421 427.537 277.652L427.56 277.668ZM97.6244 389.198C83.4869 404.691 63.653 410.549 55.1274 405.616C45.9792 400.282 49.5924 377.483 67.0355 360.973C77.6444 350.953 91.3206 341.703 100.392 336C102.468 334.766 105.466 332.917 109.156 330.681C109.771 330.296 110.078 330.142 110.078 330.142C110.77 329.679 111.539 329.294 112.308 328.831C118.681 352.263 112.538 372.92 97.6244 389.183V389.198ZM200.915 318.75C195.995 330.851 185.624 361.682 179.32 360.063C173.939 358.676 170.633 335.167 178.244 312.044C182.088 300.405 190.237 286.532 195.08 281.136C202.837 272.426 211.37 269.652 213.369 273.12C216.059 277.668 203.99 311.196 200.915 318.75ZM286.247 359.601C284.171 360.68 282.25 361.373 281.327 360.834C280.635 360.448 282.173 358.984 282.173 358.984C282.173 358.984 292.858 347.5 297.087 342.258C299.547 339.175 302.391 335.553 305.458 331.545C305.458 331.93 305.535 332.315 305.535 332.778C305.435 346.575 292.22 355.901 286.224 359.601H286.247ZM352.038 344.571C350.5 343.492 350.731 339.869 355.881 328.616C357.88 324.222 362.485 316.823 370.488 309.732C371.394 312.416 371.886 315.223 371.948 318.056C371.871 335.398 359.494 341.873 352.045 344.571H352.038Z" fill="#CCB0AB"/>
</svg>
