<?xml version="1.0" encoding="utf-8"?>
<!-- Generator: Adobe Illustrator 28.1.0, SVG Export Plug-In . SVG Version: 6.00 Build 0)  -->
<svg version="1.1" id="Capa_1" xmlns="http://www.w3.org/2000/svg" xmlns:xlink="http://www.w3.org/1999/xlink" x="0px" y="0px"
	 viewBox="0 0 800 800" style="enable-background:new 0 0 800 800;" xml:space="preserve">
<style type="text/css">
	.st0{fill:url(#SVGID_1_);}
</style>
<g>
	<linearGradient id="SVGID_1_" gradientUnits="userSpaceOnUse" x1="8.312553e-03" y1="400.0001" x2="799.9834" y2="400.0001">
		<stop  offset="0" style="stop-color:#FA12E3"/>
		<stop  offset="0.5362" style="stop-color:#7312FA"/>
		<stop  offset="1" style="stop-color:#415CA7"/>
	</linearGradient>
	<path class="st0" d="M400,0C179.4,0,0,179.4,0,400c0,220.6,179.4,400,400,400c220.5,0,400-179.4,400-400C800,179.4,620.6,0,400,0z
		 M40.4,400c0-52.1,11.2-101.6,31.1-146.4l171.6,470C123.1,665.4,40.4,542.3,40.4,400z M400,759.6c-35.3,0-69.4-5.2-101.6-14.7
		l107.9-313.5l110.6,302.9c0.7,1.8,1.6,3.4,2.6,5C482.1,752.4,441.9,759.6,400,759.6z M449.6,231.4c21.6-1.1,41.2-3.4,41.2-3.4
		c19.4-2.3,17.1-30.8-2.3-29.6c0,0-58.2,4.6-95.9,4.6c-35.3,0-94.7-4.6-94.7-4.6c-19.4-1.1-21.6,28.5-2.3,29.6
		c0,0,18.4,2.3,37.7,3.4l56,153.5l-78.7,236L179.7,231.4c21.7-1.1,41.2-3.4,41.2-3.4c19.4-2.3,17.1-30.8-2.3-29.6
		c0,0-58.2,4.6-95.8,4.6c-6.8,0-14.7-0.2-23.1-0.4C163.8,104.8,274.4,40.4,400,40.4c93.6,0,178.9,35.8,242.9,94.4
		c-1.6-0.1-3.1-0.3-4.7-0.3c-35.3,0-60.4,30.8-60.4,63.8c0,29.6,17.1,54.7,35.3,84.3c13.7,24,29.7,54.7,29.7,99.2
		c0,30.8-11.8,66.5-27.4,116.3L579.5,618L449.6,231.4z M580.8,710.9l109.9-317.6C711.2,342,718,300.9,718,264.4
		c0-13.2-0.9-25.5-2.4-37c28.1,51.2,44.1,110,44.1,172.6C759.6,532.7,687.7,648.5,580.8,710.9z"/>
</g>
</svg>
